<?xml version="1.0" encoding="UTF-8" standalone="no"?>
<!-- Created with Inkscape (http://www.inkscape.org/) -->

<svg
   xmlns:dc="http://purl.org/dc/elements/1.1/"
   xmlns:cc="http://creativecommons.org/ns#"
   xmlns:rdf="http://www.w3.org/1999/02/22-rdf-syntax-ns#"
   xmlns:svg="http://www.w3.org/2000/svg"
   xmlns="http://www.w3.org/2000/svg"
   xmlns:sodipodi="http://sodipodi.sourceforge.net/DTD/sodipodi-0.dtd"
   xmlns:inkscape="http://www.inkscape.org/namespaces/inkscape"
   id="svg2"
   version="1.1"
   inkscape:version="0.48.4 r9939"
   width="1200"
   height="700"
   xml:space="preserve"
   sodipodi:docname="ACN with High performance 09.ai"><metadata
     id="metadata8"><rdf:RDF><cc:Work
         rdf:about=""><dc:format>image/svg+xml</dc:format><dc:type
           rdf:resource="http://purl.org/dc/dcmitype/StillImage" /><dc:title></dc:title></cc:Work></rdf:RDF></metadata><defs
     id="defs6"><clipPath
       clipPathUnits="userSpaceOnUse"
       id="clipPath18"><path
         d="M 0,560 960,560 960,0 0,0 0,560 z"
         id="path20" /></clipPath><clipPath
       clipPathUnits="userSpaceOnUse"
       id="clipPath60"><path
         d="M 0,560 960,560 960,0 0,0 0,560 z"
         id="path62" /></clipPath><clipPath
       clipPathUnits="userSpaceOnUse"
       id="clipPath126"><path
         d="M 0,560 960,560 960,0 0,0 0,560 z"
         id="path128" /></clipPath><clipPath
       clipPathUnits="userSpaceOnUse"
       id="clipPath170"><path
         d="M 0,560 960,560 960,0 0,0 0,560 z"
         id="path172" /></clipPath></defs><sodipodi:namedview
     pagecolor="#ffffff"
     bordercolor="#666666"
     borderopacity="1"
     objecttolerance="10"
     gridtolerance="10"
     guidetolerance="10"
     inkscape:pageopacity="0"
     inkscape:pageshadow="2"
     inkscape:window-width="640"
     inkscape:window-height="480"
     id="namedview4"
     showgrid="false"
     inkscape:zoom="0.33714286"
     inkscape:cx="600"
     inkscape:cy="350"
     inkscape:window-x="53"
     inkscape:window-y="24"
     inkscape:window-maximized="0"
     inkscape:current-layer="g10" /><g
     id="g10"
     inkscape:groupmode="layer"
     inkscape:label="ACN with High performance 09"
     transform="matrix(1.25,0,0,-1.25,0,700)"><path
       d="m 872.058,134.655 7.942,0 0,-8.655 -7.942,0 0,8.655 z"
       style="fill:#000000;fill-opacity:1;fill-rule:nonzero;stroke:none"
       id="path12" /><g
       id="g14"><g
         id="g16"
         clip-path="url(#clipPath18)"><g
           id="g22"
           transform="translate(825.5576,156.1973)"><path
             d="m 0,0 c -0.363,0.855 -0.868,1.592 -1.517,2.208 -0.648,0.617 -1.412,1.101 -2.294,1.453 -0.881,0.353 -1.84,0.529 -2.876,0.529 -1.116,0 -2.12,-0.176 -3.014,-0.529 -0.894,-0.352 -1.672,-0.836 -2.333,-1.453 -0.66,-0.616 -1.212,-1.353 -1.653,-2.208 -0.441,-0.856 -0.764,-1.787 -0.972,-2.794 l 15.203,0 C 0.544,-1.787 0.362,-0.856 0,0 m -15.048,-7.259 0,-2.213 c 0,-2.036 0.266,-4.033 0.797,-5.991 0.531,-1.96 1.348,-3.702 2.45,-5.228 1.102,-1.527 2.495,-2.761 4.18,-3.703 1.684,-0.941 3.694,-1.412 6.026,-1.412 1.323,0 2.58,0.089 3.773,0.268 1.192,0.178 2.436,0.433 3.732,0.763 l 0,-4.389 c -1.399,-0.432 -2.832,-0.725 -4.296,-0.877 -1.465,-0.153 -2.935,-0.23 -4.414,-0.23 -3.265,0 -6.065,0.516 -8.398,1.546 -2.332,1.031 -4.244,2.468 -5.735,4.313 -1.492,1.844 -2.586,4.032 -3.286,6.563 -0.7,2.532 -1.05,5.298 -1.05,8.301 0,2.416 0.252,4.726 0.758,6.926 0.506,2.2 1.335,4.135 2.489,5.801 1.154,1.666 2.676,2.996 4.569,3.988 1.891,0.992 4.224,1.488 6.999,1.488 2.203,0 4.134,-0.349 5.793,-1.05 C 0.997,6.905 2.378,5.927 3.479,4.667 4.581,3.408 5.405,1.92 5.949,0.202 6.493,-1.515 6.766,-3.404 6.766,-5.465 l 0,-1.794 -21.814,0 z"
             style="fill:#000000;fill-opacity:1;fill-rule:nonzero;stroke:none"
             id="path24" /></g><g
           id="g26"
           transform="translate(796.6855,157.499)"><path
             d="m 0,0 c -1.683,-1.029 -3.039,-2.37 -4.066,-4.023 -1.029,-1.655 -1.756,-3.516 -2.184,-5.587 -0.428,-2.071 -0.641,-4.148 -0.641,-6.231 l 0,-15.743 -5.569,0 0,38.089 5.569,0 0,-7.384 0.161,0 c 2.457,5.495 6.81,8.243 13.06,8.243 l 0,-5.821 C 3.793,1.543 1.684,1.028 0,0"
             style="fill:#000000;fill-opacity:1;fill-rule:nonzero;stroke:none"
             id="path28" /></g><g
           id="g30"
           transform="translate(770.5576,156.3652)"><path
             d="m 0,0 c -0.363,0.855 -0.868,1.592 -1.517,2.208 -0.648,0.617 -1.412,1.101 -2.294,1.453 -0.881,0.353 -1.84,0.529 -2.876,0.529 -1.116,0 -2.12,-0.176 -3.014,-0.529 -0.894,-0.352 -1.672,-0.836 -2.333,-1.453 -0.66,-0.616 -1.212,-1.353 -1.653,-2.208 -0.441,-0.856 -0.764,-1.787 -0.972,-2.794 l 15.203,0 C 0.544,-1.787 0.362,-0.856 0,0 m -15.048,-7.259 0,-2.213 c 0,-2.036 0.266,-4.033 0.797,-5.991 0.531,-1.96 1.348,-3.702 2.45,-5.228 1.102,-1.527 2.495,-2.761 4.18,-3.703 1.684,-0.941 3.694,-1.412 6.026,-1.412 1.323,0 2.58,0.089 3.773,0.268 1.192,0.178 2.436,0.433 3.732,0.763 l 0,-4.389 c -1.399,-0.432 -2.832,-0.725 -4.296,-0.877 -1.465,-0.153 -2.935,-0.23 -4.414,-0.23 -3.265,0 -6.065,0.516 -8.398,1.546 -2.332,1.031 -4.244,2.468 -5.735,4.313 -1.492,1.844 -2.586,4.032 -3.286,6.563 -0.7,2.532 -1.05,5.298 -1.05,8.301 0,2.416 0.252,4.726 0.758,6.926 0.506,2.2 1.335,4.135 2.489,5.801 1.154,1.666 2.676,2.996 4.569,3.988 1.891,0.992 4.224,1.488 6.999,1.488 2.203,0 4.134,-0.349 5.793,-1.05 C 0.997,6.905 2.378,5.927 3.479,4.667 4.581,3.408 5.405,1.92 5.949,0.202 6.493,-1.515 6.766,-3.404 6.766,-5.465 l 0,-1.794 -21.814,0 z"
             style="fill:#000000;fill-opacity:1;fill-rule:nonzero;stroke:none"
             id="path32" /></g><g
           id="g34"
           transform="translate(735.1436,126.1104)"><path
             d="m 0,0 -5.444,0 -14.248,38.895 5.792,0 11.082,-30.717 0.154,0 9.653,30.717 5.754,0 L 0,0 z"
             style="fill:#000000;fill-opacity:1;fill-rule:nonzero;stroke:none"
             id="path36" /></g><path
           d="m 706.063,164.787 5.665,0 0,-38.674 -5.665,0 0,38.674 z m -0.896,17.374 7.498,0 0,-7.299 -7.498,0 0,7.299 z"
           style="fill:#000000;fill-opacity:1;fill-rule:nonzero;stroke:none"
           id="path38" /><path
           d="m 691.222,182.055 5.45,0 0,-55.835 -5.45,0 0,55.835 z"
           style="fill:#000000;fill-opacity:1;fill-rule:nonzero;stroke:none"
           id="path40" /><g
           id="g42"
           transform="translate(644.6416,153.9102)"><path
             d="m 0,0 c 0,1.285 -0.033,2.637 -0.099,4.055 -0.065,1.417 -0.211,2.827 -0.434,4.231 -0.225,1.403 -0.548,2.776 -0.969,4.113 -0.423,1.339 -0.983,2.579 -1.682,3.72 -0.698,1.142 -1.575,2.152 -2.629,3.031 -1.055,0.879 -2.308,1.581 -3.757,2.107 -1.424,0.524 -2.914,0.859 -4.47,1.004 -1.556,0.143 -3.111,0.216 -4.667,0.216 l -3.56,0 0,-45.152 4.272,0 c 1.582,0 3.19,0.092 4.825,0.276 1.635,0.183 3.191,0.603 4.667,1.259 1.951,0.893 3.493,2.146 4.628,3.76 1.133,1.614 1.983,3.405 2.551,5.373 0.566,1.969 0.929,4.002 1.088,6.102 C -0.078,-3.806 0,-1.838 0,0 m 6.883,0.078 c 0,-1.758 -0.067,-3.55 -0.198,-5.373 -0.132,-1.824 -0.376,-3.608 -0.732,-5.353 -0.356,-1.747 -0.845,-3.425 -1.464,-5.04 -0.619,-1.614 -1.424,-3.103 -2.412,-4.467 -0.989,-1.366 -2.176,-2.585 -3.559,-3.661 -1.385,-1.077 -3.026,-1.929 -4.924,-2.559 -1.873,-0.656 -3.791,-1.076 -5.755,-1.26 -1.965,-0.183 -3.936,-0.275 -5.913,-0.275 l -10.521,0 0,55.623 12.577,0 c 4.483,0 8.201,-0.69 11.154,-2.067 2.953,-1.377 5.3,-3.293 7.04,-5.748 1.74,-2.454 2.96,-5.367 3.658,-8.739 C 6.532,7.787 6.883,4.094 6.883,0.078"
             style="fill:#000000;fill-opacity:1;fill-rule:nonzero;stroke:none"
             id="path44" /></g><g
           id="g46"
           transform="translate(677.3906,156.1973)"><path
             d="m 0,0 c -0.363,0.855 -0.868,1.592 -1.517,2.208 -0.648,0.617 -1.412,1.101 -2.294,1.453 -0.881,0.353 -1.84,0.529 -2.876,0.529 -1.116,0 -2.12,-0.176 -3.014,-0.529 -0.894,-0.352 -1.672,-0.836 -2.333,-1.453 -0.66,-0.616 -1.212,-1.353 -1.653,-2.208 -0.441,-0.856 -0.764,-1.787 -0.972,-2.794 l 15.203,0 C 0.544,-1.787 0.362,-0.856 0,0 m -15.048,-7.259 0,-2.213 c 0,-2.036 0.266,-4.033 0.797,-5.991 0.531,-1.96 1.348,-3.702 2.45,-5.228 1.102,-1.527 2.495,-2.761 4.18,-3.703 1.684,-0.941 3.694,-1.412 6.026,-1.412 1.323,0 2.58,0.089 3.773,0.268 1.192,0.178 2.436,0.433 3.732,0.763 l 0,-4.389 c -1.399,-0.432 -2.832,-0.725 -4.296,-0.877 -1.465,-0.153 -2.935,-0.23 -4.414,-0.23 -3.265,0 -6.065,0.516 -8.398,1.546 -2.332,1.031 -4.244,2.468 -5.735,4.313 -1.492,1.844 -2.586,4.032 -3.286,6.563 -0.7,2.532 -1.05,5.298 -1.05,8.301 0,2.416 0.252,4.726 0.758,6.926 0.506,2.2 1.335,4.135 2.489,5.801 1.154,1.666 2.676,2.996 4.569,3.988 1.891,0.992 4.224,1.488 6.999,1.488 2.203,0 4.134,-0.349 5.793,-1.05 C 0.997,6.905 2.378,5.927 3.479,4.667 4.581,3.408 5.405,1.92 5.949,0.202 6.493,-1.515 6.766,-3.404 6.766,-5.465 l 0,-1.794 -21.814,0 z"
             style="fill:#000000;fill-opacity:1;fill-rule:nonzero;stroke:none"
             id="path48" /></g><g
           id="g50"
           transform="translate(859.168,144.8115)"><path
             d="m 0,0 c 0,0.886 -0.051,1.89 -0.152,3.01 -0.102,1.12 -0.273,2.261 -0.514,3.421 -0.241,1.159 -0.57,2.286 -0.989,3.381 -0.418,1.094 -0.945,2.065 -1.578,2.912 -0.635,0.846 -1.389,1.531 -2.264,2.051 -0.875,0.522 -1.897,0.783 -3.064,0.783 -1.216,0 -2.257,-0.294 -3.119,-0.88 -0.863,-0.586 -1.586,-1.348 -2.169,-2.286 -0.584,-0.939 -1.046,-2.007 -1.388,-3.206 -0.343,-1.199 -0.603,-2.423 -0.781,-3.674 -0.177,-1.251 -0.292,-2.457 -0.341,-3.616 -0.052,-1.16 -0.077,-2.183 -0.077,-3.069 0,-0.886 0.032,-1.85 0.095,-2.892 0.064,-1.042 0.191,-2.079 0.381,-3.108 0.19,-1.029 0.456,-2.032 0.799,-3.01 0.343,-0.977 0.799,-1.838 1.369,-2.58 0.571,-0.743 1.275,-1.336 2.112,-1.779 0.837,-0.442 1.826,-0.664 2.968,-0.664 1.09,0 2.066,0.254 2.929,0.763 0.862,0.507 1.617,1.178 2.263,2.012 0.648,0.834 1.193,1.785 1.637,2.854 0.444,1.068 0.805,2.163 1.084,3.283 0.279,1.121 0.482,2.229 0.609,3.323 C -0.063,-1.876 0,-0.887 0,0 m 0,-18.885 0,6.497 -0.152,0 c -0.304,-1.095 -0.774,-2.1 -1.408,-3.013 -0.634,-0.914 -1.376,-1.697 -2.225,-2.349 -0.851,-0.652 -1.788,-1.154 -2.816,-1.507 -1.027,-0.351 -2.099,-0.528 -3.214,-0.528 -1.777,0 -3.324,0.281 -4.642,0.842 -1.319,0.56 -2.454,1.324 -3.405,2.289 -0.951,0.966 -1.726,2.088 -2.322,3.366 -0.595,1.278 -1.071,2.648 -1.426,4.109 -0.356,1.461 -0.596,2.962 -0.723,4.501 -0.127,1.54 -0.19,3.054 -0.19,4.541 0,1.382 0.076,2.844 0.228,4.383 0.152,1.54 0.419,3.06 0.799,4.56 0.381,1.501 0.881,2.935 1.503,4.305 0.621,1.37 1.401,2.577 2.34,3.62 0.938,1.044 2.041,1.873 3.31,2.486 1.268,0.613 2.751,0.92 4.451,0.92 2.435,0 4.471,-0.601 6.107,-1.8 1.636,-1.201 2.847,-2.975 3.633,-5.323 l 0.152,0 0,23.405 5.289,0 0,-55.304 -5.289,0 z"
             style="fill:#000000;fill-opacity:1;fill-rule:nonzero;stroke:none"
             id="path52" /></g></g></g><path
       d="m 587.098,134.582 7.942,0 0,-8.655 -7.942,0 0,8.655 z"
       style="fill:#000000;fill-opacity:1;fill-rule:nonzero;stroke:none"
       id="path54" /><g
       id="g56"><g
         id="g58"
         clip-path="url(#clipPath60)"><g
           id="g64"
           transform="translate(576.2236,156.1973)"><path
             d="m 0,0 c -0.363,0.855 -0.868,1.592 -1.517,2.208 -0.648,0.617 -1.412,1.101 -2.294,1.453 -0.881,0.353 -1.84,0.529 -2.876,0.529 -1.116,0 -2.12,-0.176 -3.014,-0.529 -0.894,-0.352 -1.672,-0.836 -2.333,-1.453 -0.66,-0.616 -1.212,-1.353 -1.653,-2.208 -0.441,-0.856 -0.764,-1.787 -0.972,-2.794 l 15.203,0 C 0.544,-1.787 0.362,-0.856 0,0 m -15.048,-7.259 0,-2.213 c 0,-2.036 0.266,-4.033 0.797,-5.991 0.531,-1.96 1.348,-3.702 2.45,-5.228 1.102,-1.527 2.495,-2.761 4.18,-3.703 1.684,-0.941 3.694,-1.412 6.026,-1.412 1.323,0 2.58,0.089 3.773,0.268 1.192,0.178 2.436,0.433 3.732,0.763 l 0,-4.389 c -1.399,-0.432 -2.832,-0.725 -4.296,-0.877 -1.465,-0.153 -2.935,-0.23 -4.414,-0.23 -3.265,0 -6.065,0.516 -8.398,1.546 -2.332,1.031 -4.244,2.468 -5.735,4.313 -1.492,1.844 -2.586,4.032 -3.286,6.563 -0.7,2.532 -1.05,5.298 -1.05,8.301 0,2.416 0.252,4.726 0.758,6.926 0.506,2.2 1.335,4.135 2.489,5.801 1.154,1.666 2.676,2.996 4.569,3.988 1.891,0.992 4.224,1.488 6.999,1.488 2.203,0 4.134,-0.349 5.793,-1.05 C 0.997,6.905 2.378,5.927 3.479,4.667 4.581,3.408 5.405,1.92 5.949,0.202 6.493,-1.515 6.766,-3.404 6.766,-5.465 l 0,-1.794 -21.814,0 z"
             style="fill:#000000;fill-opacity:1;fill-rule:nonzero;stroke:none"
             id="path66" /></g><g
           id="g68"
           transform="translate(546.1387,152.8086)"><path
             d="m 0,0 c 0,1.082 -0.121,2.1 -0.364,3.053 -0.244,0.953 -0.634,1.783 -1.172,2.492 -0.537,0.709 -1.229,1.269 -2.073,1.682 -0.846,0.412 -1.87,0.618 -3.073,0.618 -1.715,0 -3.143,-0.42 -4.282,-1.261 -1.14,-0.841 -2.049,-1.913 -2.727,-3.22 -0.679,-1.305 -1.159,-2.734 -1.44,-4.286 -0.282,-1.552 -0.423,-3.025 -0.423,-4.421 0,-2.457 0.275,-4.74 0.826,-6.846 0.55,-2.108 1.427,-3.938 2.63,-5.49 1.203,-1.551 2.741,-2.773 4.61,-3.665 1.868,-0.892 4.134,-1.339 6.797,-1.339 1.024,0 2.048,0.052 3.073,0.157 1.023,0.102 2.021,0.323 2.995,0.66 l 0,-4.312 c -1.306,-0.388 -2.586,-0.66 -3.841,-0.815 -1.254,-0.155 -2.572,-0.234 -3.955,-0.234 -3.227,0 -6.043,0.486 -8.449,1.457 -2.407,0.971 -4.417,2.356 -6.029,4.156 -1.614,1.8 -2.818,3.974 -3.611,6.525 -0.794,2.55 -1.19,5.404 -1.19,8.564 0,2.588 0.255,5.029 0.767,7.321 0.512,2.291 1.364,4.298 2.554,6.019 1.191,1.722 2.766,3.081 4.725,4.079 1.958,0.997 4.371,1.496 7.239,1.496 1.971,0 3.75,-0.26 5.338,-0.778 C 0.513,11.094 1.856,10.317 2.958,9.282 4.059,8.246 4.903,6.952 5.492,5.398 6.081,3.845 6.376,2.045 6.376,0 L 0,0 z"
             style="fill:#000000;fill-opacity:1;fill-rule:nonzero;stroke:none"
             id="path70" /></g><g
           id="g72"
           transform="translate(512.3379,126.0732)"><path
             d="m 0,0 0,20.891 c 0,0.694 0.006,1.486 0.02,2.374 0.012,0.888 -0.014,1.782 -0.078,2.683 -0.065,0.902 -0.194,1.783 -0.387,2.646 -0.194,0.862 -0.497,1.628 -0.91,2.298 -0.414,0.669 -0.957,1.209 -1.627,1.621 -0.672,0.412 -1.525,0.618 -2.557,0.618 -1.266,0 -2.408,-0.296 -3.429,-0.888 -1.02,-0.593 -1.924,-1.378 -2.711,-2.355 -0.788,-0.979 -1.472,-2.092 -2.053,-3.341 -0.581,-1.249 -1.059,-2.529 -1.433,-3.842 -0.375,-1.312 -0.653,-2.601 -0.833,-3.861 -0.182,-1.262 -0.272,-2.382 -0.272,-3.36 l 0,-15.484 -5.384,0 0,37.648 5.384,0 0,-8.687 0.156,0 c 0.465,1.441 1.032,2.747 1.704,3.919 0.671,1.171 1.484,2.175 2.44,3.012 0.955,0.837 2.06,1.48 3.313,1.93 1.252,0.45 2.705,0.676 4.357,0.676 1.653,0 3.093,-0.328 4.32,-0.984 C 1.246,36.857 2.253,35.988 3.041,34.907 3.828,33.826 4.416,32.59 4.804,31.2 5.191,29.811 5.385,28.368 5.385,26.875 L 5.385,0 0,0 z"
             style="fill:#000000;fill-opacity:1;fill-rule:nonzero;stroke:none"
             id="path74" /></g><g
           id="g76"
           transform="translate(473.7427,143.1357)"><path
             d="m 0,0 c -1.234,0 -2.579,-0.139 -4.036,-0.415 -1.457,-0.276 -2.816,-0.731 -4.076,-1.363 -1.26,-0.632 -2.317,-1.469 -3.17,-2.509 -0.853,-1.041 -1.28,-2.325 -1.28,-3.854 0,-1.632 0.492,-2.976 1.477,-4.03 0.984,-1.054 2.29,-1.58 3.918,-1.58 0.971,0 1.903,0.151 2.796,0.454 0.892,0.303 1.726,0.718 2.5,1.245 0.774,0.527 1.477,1.158 2.107,1.897 0.63,0.737 1.142,1.541 1.536,2.41 0.315,0.711 0.571,1.363 0.768,1.956 0.197,0.593 0.348,1.185 0.453,1.778 0.104,0.593 0.17,1.205 0.196,1.838 0.026,0.632 0.04,1.357 0.04,2.173 L 0,0 z m 3.387,-17.466 0,5.098 -0.158,0 c -0.525,-1.002 -1.234,-1.877 -2.126,-2.628 -0.893,-0.751 -1.871,-1.377 -2.934,-1.877 -1.064,-0.501 -2.18,-0.876 -3.347,-1.126 -1.169,-0.25 -2.291,-0.376 -3.367,-0.376 -1.654,0 -3.124,0.257 -4.411,0.771 -1.286,0.513 -2.362,1.238 -3.229,2.173 -0.866,0.935 -1.529,2.068 -1.988,3.399 -0.46,1.33 -0.689,2.811 -0.689,4.445 0,1.475 0.288,2.792 0.866,3.951 0.577,1.159 1.345,2.18 2.304,3.063 0.958,0.883 2.067,1.64 3.327,2.272 1.26,0.632 2.566,1.146 3.918,1.541 1.352,0.396 2.711,0.685 4.076,0.869 1.365,0.185 2.638,0.278 3.82,0.278 0.655,0 1.286,0.006 1.89,0.019 0.603,0.013 1.234,0.085 1.89,0.217 l 0,0.828 c 0,1.417 -0.02,2.835 -0.059,4.254 -0.04,1.418 -0.275,2.691 -0.709,3.821 -0.433,1.129 -1.142,2.042 -2.127,2.738 -0.984,0.696 -2.435,1.044 -4.351,1.044 -1.129,0 -2.146,-0.105 -3.051,-0.315 -0.906,-0.209 -1.688,-0.549 -2.344,-1.02 -0.656,-0.472 -1.188,-1.1 -1.594,-1.885 -0.408,-0.785 -0.689,-1.753 -0.847,-2.905 l -6.104,0 c 0.026,1.949 0.439,3.602 1.241,4.96 0.8,1.356 1.844,2.462 3.13,3.319 1.286,0.855 2.75,1.481 4.391,1.877 1.64,0.394 3.314,0.593 5.021,0.593 4.357,0 7.593,-0.989 9.707,-2.964 2.113,-1.976 3.17,-5.112 3.17,-9.405 l 0,-27.029 -5.316,0 z"
             style="fill:#000000;fill-opacity:1;fill-rule:nonzero;stroke:none"
             id="path78" /></g><g
           id="g80"
           transform="translate(443.4292,126.0732)"><path
             d="m 0,0 0,21.053 c 0,0.7 0.006,1.498 0.019,2.393 0.013,0.895 -0.013,1.796 -0.077,2.704 -0.064,0.909 -0.192,1.796 -0.383,2.666 -0.192,0.87 -0.493,1.641 -0.901,2.316 -0.409,0.674 -0.946,1.219 -1.611,1.634 -0.664,0.415 -1.508,0.623 -2.53,0.623 -1.15,0 -2.179,-0.319 -3.086,-0.953 -0.908,-0.637 -1.706,-1.466 -2.396,-2.492 -0.691,-1.024 -1.285,-2.178 -1.784,-3.463 -0.498,-1.284 -0.9,-2.587 -1.207,-3.911 -0.307,-1.323 -0.531,-2.594 -0.671,-3.813 -0.141,-1.22 -0.211,-2.271 -0.211,-3.153 l 0,-15.604 -5.329,0 0,21.053 c 0,0.7 0.006,1.498 0.019,2.393 0.013,0.895 -0.013,1.796 -0.077,2.704 -0.064,0.909 -0.192,1.796 -0.383,2.666 -0.192,0.87 -0.493,1.641 -0.901,2.316 -0.409,0.674 -0.946,1.219 -1.611,1.634 -0.664,0.415 -1.508,0.623 -2.53,0.623 -1.125,0 -2.141,-0.319 -3.048,-0.953 -0.907,-0.637 -1.706,-1.466 -2.396,-2.492 -0.69,-1.024 -1.284,-2.178 -1.783,-3.463 -0.498,-1.284 -0.908,-2.587 -1.227,-3.911 -0.32,-1.323 -0.55,-2.594 -0.69,-3.813 -0.141,-1.22 -0.211,-2.271 -0.211,-3.153 l 0,-15.604 -5.329,0 0,37.941 5.329,0 0,-8.755 0.149,0 c 0.383,1.348 0.856,2.607 1.418,3.775 0.563,1.167 1.259,2.185 2.09,3.055 0.831,0.868 1.816,1.549 2.953,2.043 1.138,0.492 2.474,0.739 4.008,0.739 2.787,0 4.998,-0.734 6.635,-2.199 1.636,-1.466 2.556,-3.625 2.761,-6.479 l 0.153,0 c 0.382,1.219 0.905,2.355 1.568,3.404 0.664,1.051 1.448,1.966 2.354,2.745 0.906,0.778 1.919,1.393 3.042,1.848 1.123,0.453 2.335,0.681 3.636,0.681 1.633,0 3.054,-0.331 4.266,-0.992 1.212,-0.662 2.207,-1.537 2.986,-2.627 0.778,-1.09 1.359,-2.335 1.741,-3.736 0.382,-1.401 0.574,-2.854 0.574,-4.358 L 5.329,0 0,0 z"
             style="fill:#000000;fill-opacity:1;fill-rule:nonzero;stroke:none"
             id="path82" /></g><g
           id="g84"
           transform="translate(392.353,157.6484)"><path
             d="m 0,0 c -1.683,-1.029 -3.039,-2.37 -4.067,-4.023 -1.028,-1.655 -1.756,-3.516 -2.183,-5.587 -0.428,-2.071 -0.642,-4.148 -0.642,-6.231 l 0,-15.743 -5.568,0 0,38.089 5.568,0 0,-7.384 0.161,0 C -4.274,4.616 0.08,7.364 6.33,7.364 l 0,-5.821 C 3.792,1.543 1.683,1.028 0,0"
             style="fill:#000000;fill-opacity:1;fill-rule:nonzero;stroke:none"
             id="path86" /></g><g
           id="g88"
           transform="translate(367.4575,144.8818)"><path
             d="m 0,0 c 0,1.005 -0.052,2.086 -0.156,3.245 -0.104,1.159 -0.287,2.299 -0.547,3.42 -0.26,1.12 -0.611,2.195 -1.054,3.226 -0.443,1.03 -1.015,1.945 -1.718,2.743 -0.703,0.799 -1.543,1.429 -2.519,1.893 -0.976,0.464 -2.115,0.696 -3.416,0.696 -1.328,0 -2.474,-0.239 -3.437,-0.715 -0.963,-0.477 -1.79,-1.108 -2.479,-1.893 -0.69,-0.786 -1.257,-1.7 -1.699,-2.743 -0.443,-1.044 -0.787,-2.125 -1.035,-3.246 -0.247,-1.12 -0.416,-2.254 -0.507,-3.4 C -18.659,2.08 -18.704,1.005 -18.704,0 c 0,-1.005 0.045,-2.074 0.137,-3.208 0.091,-1.133 0.26,-2.26 0.507,-3.381 0.248,-1.12 0.592,-2.201 1.035,-3.245 0.442,-1.043 1.009,-1.957 1.699,-2.743 0.689,-0.786 1.516,-1.417 2.479,-1.894 0.963,-0.475 2.109,-0.714 3.437,-0.714 1.327,0 2.479,0.232 3.455,0.696 0.976,0.463 1.816,1.094 2.519,1.892 0.703,0.799 1.275,1.714 1.718,2.744 0.443,1.031 0.794,2.106 1.054,3.226 0.26,1.12 0.436,2.254 0.528,3.4 C -0.045,-2.081 0,-1.005 0,0 m 6.248,-0.059 c 0,-2.552 -0.261,-5.016 -0.781,-7.388 -0.521,-2.373 -1.393,-4.469 -2.616,-6.287 -1.224,-1.819 -2.831,-3.269 -4.823,-4.352 -1.991,-1.084 -4.471,-1.625 -7.438,-1.625 -2.943,0 -5.408,0.548 -7.4,1.644 -1.991,1.096 -3.592,2.553 -4.803,4.372 -1.21,1.818 -2.07,3.913 -2.577,6.287 -0.508,2.372 -0.762,4.822 -0.762,7.349 0,2.554 0.254,5.017 0.762,7.39 0.507,2.372 1.367,4.481 2.577,6.325 1.211,1.844 2.812,3.321 4.803,4.43 1.992,1.108 4.457,1.663 7.4,1.663 2.967,0 5.447,-0.548 7.438,-1.644 1.992,-1.096 3.599,-2.566 4.823,-4.41 1.223,-1.844 2.095,-3.96 2.616,-6.344 0.52,-2.386 0.781,-4.856 0.781,-7.41"
             style="fill:#000000;fill-opacity:1;fill-rule:nonzero;stroke:none"
             id="path90" /></g><g
           id="g92"
           transform="translate(341.0596,176.4717)"><path
             d="m 0,0 c -0.917,0.195 -1.867,0.292 -2.851,0.292 -2.206,0 -3.874,-0.355 -5.003,-1.068 -1.13,-0.713 -1.927,-1.665 -2.392,-2.857 -0.465,-1.192 -0.712,-2.553 -0.737,-4.082 -0.027,-1.529 -0.04,-3.109 -0.04,-4.742 l 11.203,0 0,-4.562 -11.203,0 0,-33.453 -5.542,0 0,33.453 -6.539,0 0,4.562 6.539,0 0,5.264 c 0,3.976 1.109,6.978 3.329,9.006 2.219,2.028 5.362,3.041 9.429,3.041 2.179,0 4.385,-0.236 6.618,-0.708 l 0,-4.907 C 1.854,-0.448 0.917,-0.195 0,0"
             style="fill:#000000;fill-opacity:1;fill-rule:nonzero;stroke:none"
             id="path94" /></g><g
           id="g96"
           transform="translate(308.52,157.6484)"><path
             d="m 0,0 c -1.683,-1.029 -3.039,-2.37 -4.067,-4.023 -1.028,-1.655 -1.756,-3.516 -2.183,-5.587 -0.428,-2.071 -0.642,-4.148 -0.642,-6.231 l 0,-15.743 -5.568,0 0,38.089 5.568,0 0,-7.384 0.161,0 C -4.274,4.616 0.08,7.364 6.33,7.364 l 0,-5.821 C 3.792,1.543 1.683,1.028 0,0"
             style="fill:#000000;fill-opacity:1;fill-rule:nonzero;stroke:none"
             id="path98" /></g><g
           id="g100"
           transform="translate(282.7236,156.1152)"><path
             d="M 0,0 C -0.363,0.855 -0.869,1.592 -1.516,2.208 -2.165,2.825 -2.929,3.309 -3.811,3.661 -4.692,4.014 -5.651,4.19 -6.687,4.19 -7.803,4.19 -8.807,4.014 -9.701,3.661 -10.595,3.309 -11.373,2.825 -12.034,2.208 -12.695,1.592 -13.246,0.855 -13.687,0 c -0.44,-0.856 -0.764,-1.787 -0.972,-2.794 l 15.203,0 C 0.544,-1.787 0.363,-0.856 0,0 m -15.047,-7.259 0,-2.213 c 0,-2.036 0.265,-4.033 0.797,-5.991 0.531,-1.96 1.347,-3.702 2.449,-5.228 1.102,-1.527 2.495,-2.761 4.18,-3.703 1.685,-0.941 3.694,-1.412 6.027,-1.412 1.322,0 2.579,0.089 3.772,0.268 1.192,0.178 2.436,0.433 3.732,0.763 l 0,-4.389 c -1.4,-0.432 -2.832,-0.725 -4.296,-0.877 -1.465,-0.153 -2.936,-0.23 -4.413,-0.23 -3.266,0 -6.066,0.516 -8.399,1.546 -2.333,1.031 -4.245,2.468 -5.735,4.313 -1.491,1.844 -2.586,4.032 -3.286,6.563 -0.699,2.532 -1.05,5.298 -1.05,8.301 0,2.416 0.253,4.726 0.759,6.926 0.505,2.2 1.334,4.135 2.488,5.801 1.153,1.666 2.676,2.996 4.569,3.988 1.891,0.992 4.224,1.488 6.998,1.488 2.204,0 4.135,-0.349 5.794,-1.05 C 0.998,6.905 2.378,5.927 3.48,4.667 4.582,3.408 5.405,1.92 5.949,0.202 6.494,-1.515 6.766,-3.404 6.766,-5.465 l 0,-1.794 -21.813,0 z"
             style="fill:#000000;fill-opacity:1;fill-rule:nonzero;stroke:none"
             id="path102" /></g><g
           id="g104"
           transform="translate(251.4512,146.293)"><path
             d="m 0,0 c 0,1.321 -0.084,2.785 -0.251,4.392 -0.169,1.606 -0.53,3.122 -1.084,4.546 -0.556,1.426 -1.349,2.618 -2.381,3.577 -1.033,0.958 -2.413,1.437 -4.142,1.437 -1.136,0 -2.142,-0.253 -3.019,-0.758 -0.878,-0.505 -1.645,-1.172 -2.304,-2.002 -0.657,-0.829 -1.213,-1.774 -1.664,-2.837 -0.452,-1.062 -0.82,-2.15 -1.103,-3.264 -0.284,-1.114 -0.484,-2.215 -0.6,-3.304 -0.116,-1.088 -0.174,-2.072 -0.174,-2.953 0,-0.907 0.051,-1.912 0.155,-3.013 0.102,-1.101 0.276,-2.228 0.522,-3.381 0.245,-1.153 0.581,-2.273 1.006,-3.362 0.426,-1.088 0.961,-2.054 1.607,-2.895 0.645,-0.842 1.413,-1.523 2.303,-2.04 0.89,-0.519 1.929,-0.778 3.116,-0.778 1.239,0 2.297,0.291 3.174,0.874 0.878,0.583 1.613,1.341 2.207,2.274 0.593,0.932 1.064,1.995 1.413,3.187 0.348,1.192 0.613,2.409 0.793,3.654 0.18,1.243 0.297,2.442 0.348,3.594 C -0.026,-1.898 0,-0.882 0,0 m 6.193,-0.991 c 0,-1.375 -0.077,-2.828 -0.232,-4.359 -0.155,-1.531 -0.426,-3.042 -0.813,-4.533 -0.387,-1.492 -0.897,-2.919 -1.529,-4.281 -0.632,-1.361 -1.426,-2.563 -2.38,-3.6 -0.955,-1.038 -2.085,-1.868 -3.387,-2.49 -1.304,-0.623 -2.807,-0.934 -4.51,-0.934 -2.426,0 -4.504,0.603 -6.232,1.809 -1.729,1.207 -2.955,2.978 -3.677,5.313 l -0.155,0 0,-23.272 -5.381,0 0,54.987 5.381,0 0,-6.46 0.155,0 c 0.309,1.09 0.786,2.088 1.432,2.998 0.644,0.907 1.399,1.678 2.264,2.315 0.865,0.635 1.82,1.128 2.865,1.478 1.045,0.35 2.135,0.526 3.271,0.526 1.806,0 3.38,-0.279 4.722,-0.837 C -0.671,17.11 0.484,16.358 1.452,15.412 2.419,14.465 3.206,13.35 3.813,12.065 4.419,10.781 4.903,9.419 5.265,7.979 5.625,6.539 5.871,5.054 6,3.523 6.129,1.992 6.193,0.488 6.193,-0.991"
             style="fill:#000000;fill-opacity:1;fill-rule:nonzero;stroke:none"
             id="path106" /></g><g
           id="g108"
           transform="translate(200.5225,126.1367)"><path
             d="m 0,0 0,21.134 c 0,0.703 0.006,1.505 0.02,2.403 0.013,0.899 -0.014,1.803 -0.08,2.715 -0.065,0.911 -0.197,1.803 -0.395,2.676 -0.198,0.872 -0.508,1.646 -0.929,2.324 -0.423,0.677 -0.976,1.224 -1.661,1.641 -0.686,0.416 -1.557,0.625 -2.611,0.625 -1.292,0 -2.459,-0.3 -3.5,-0.899 -1.042,-0.599 -1.965,-1.393 -2.769,-2.383 -0.804,-0.99 -1.503,-2.116 -2.096,-3.379 -0.593,-1.263 -1.082,-2.558 -1.463,-3.886 -0.383,-1.329 -0.667,-2.631 -0.851,-3.908 -0.185,-1.276 -0.277,-2.409 -0.277,-3.398 l 0,-15.665 -5.497,0 0,55.199 5.497,0 0,-25.9 0.158,0 c 0.475,1.458 1.055,2.779 1.741,3.965 0.685,1.184 1.516,2.201 2.491,3.047 0.976,0.846 2.103,1.498 3.382,1.954 1.279,0.455 2.762,0.683 4.45,0.683 1.687,0 3.157,-0.332 4.41,-0.996 1.251,-0.664 2.28,-1.544 3.084,-2.638 0.805,-1.093 1.405,-2.343 1.8,-3.75 C 5.3,30.158 5.498,28.699 5.498,27.189 L 5.498,0 0,0 z"
             style="fill:#000000;fill-opacity:1;fill-rule:nonzero;stroke:none"
             id="path110" /></g><g
           id="g112"
           transform="translate(165.4355,145.9277)"><path
             d="m 0,0 c 0,1.323 -0.152,2.822 -0.454,4.497 -0.303,1.674 -0.804,3.264 -1.502,4.77 -0.698,1.505 -1.626,2.771 -2.785,3.796 -1.159,1.026 -2.594,1.539 -4.306,1.539 -1.185,0 -2.206,-0.273 -3.061,-0.818 -0.856,-0.545 -1.58,-1.26 -2.173,-2.141 -0.593,-0.883 -1.073,-1.889 -1.442,-3.018 -0.369,-1.13 -0.652,-2.272 -0.849,-3.427 -0.198,-1.155 -0.33,-2.278 -0.395,-3.369 -0.067,-1.09 -0.099,-2.05 -0.099,-2.881 0,-0.831 0.032,-1.759 0.099,-2.784 0.065,-1.025 0.197,-2.058 0.395,-3.096 0.197,-1.038 0.48,-2.05 0.849,-3.037 0.369,-0.986 0.843,-1.862 1.422,-2.628 0.579,-0.766 1.284,-1.382 2.113,-1.849 0.83,-0.468 1.824,-0.701 2.983,-0.701 1.159,0 2.199,0.246 3.121,0.74 0.922,0.493 1.719,1.154 2.39,1.985 0.672,0.831 1.245,1.772 1.719,2.823 0.474,1.052 0.855,2.142 1.145,3.271 0.29,1.129 0.5,2.238 0.633,3.329 C -0.066,-1.908 0,-0.909 0,0 m 1.481,-32.107 c -2.673,-2.808 -6.774,-4.211 -12.305,-4.211 -1.897,0 -3.661,0.124 -5.294,0.37 -1.633,0.247 -3.358,0.552 -5.175,0.916 l 0,5.498 c 1.553,-0.728 3.121,-1.28 4.701,-1.657 1.58,-0.376 3.226,-0.566 4.938,-0.566 2.212,0 4.069,0.274 5.57,0.82 1.501,0.545 2.7,1.351 3.595,2.416 0.895,1.067 1.534,2.385 1.916,3.958 0.382,1.573 0.573,3.373 0.573,5.4 l 0,6.706 -0.158,0 c -0.738,-2.262 -2.022,-4.035 -3.852,-5.322 -1.83,-1.286 -3.944,-1.93 -6.34,-1.93 -1.765,0 -3.313,0.267 -4.642,0.799 -1.33,0.533 -2.476,1.254 -3.437,2.164 -0.962,0.91 -1.765,1.982 -2.41,3.217 -0.645,1.234 -1.152,2.54 -1.521,3.919 -0.369,1.377 -0.632,2.806 -0.79,4.288 -0.158,1.482 -0.237,2.937 -0.237,4.367 0,1.377 0.085,2.827 0.257,4.348 0.171,1.52 0.447,3.027 0.829,4.522 0.382,1.494 0.902,2.917 1.561,4.27 0.658,1.35 1.474,2.546 2.449,3.586 0.974,1.04 2.126,1.865 3.457,2.476 1.33,0.61 2.877,0.916 4.642,0.916 1.132,0 2.238,-0.162 3.318,-0.487 1.08,-0.325 2.061,-0.786 2.943,-1.384 0.882,-0.599 1.653,-1.339 2.311,-2.223 0.659,-0.883 1.146,-1.884 1.462,-3.002 l 0.158,0 0,6.239 5.491,0 0,-38.093 c 0,-5.406 -1.337,-9.514 -4.01,-12.32"
             style="fill:#000000;fill-opacity:1;fill-rule:nonzero;stroke:none"
             id="path114" /></g><path
           d="m 131.096,164.674 5.665,0 0,-38.674 -5.665,0 0,38.674 z m -0.896,17.374 7.498,0 0,-7.299 -7.498,0 0,7.299 z"
           style="fill:#000000;fill-opacity:1;fill-rule:nonzero;stroke:none"
           id="path116" /><g
           id="g118"
           transform="translate(115.8755,126.2813)"><path
             d="m 0,0 0,26.271 -22.982,0 0,-26.271 -6.297,0 0,55.57 6.297,0 0,-24.069 22.982,0 0,24.069 6.296,0 L 6.296,0 0,0 z"
             style="fill:#000000;fill-opacity:1;fill-rule:nonzero;stroke:none"
             id="path120" /></g></g></g><g
       id="g122"><g
         id="g124"
         clip-path="url(#clipPath126)"><g
           id="g130"
           transform="translate(161.585,226.293)"><path
             d="m 0,0 0,72.135 c 0,23.42 -15.422,31.511 -37.061,31.511 -21.209,0 -38.773,-8.946 -38.773,-32.139 l 23.135,0 c 0,10.001 5.353,15.534 15.638,15.534 11.782,0 14.356,-8.514 14.356,-18.516 l 0,-9.998 c -23.138,-0.645 -56.986,-3.833 -56.986,-34.279 0,-17.226 13.713,-26.594 29.985,-26.594 11.147,0 21.427,3.621 26.571,14.039 l 0.43,0 L -22.705,0 0,0 z m -22.705,44.694 c 0,-12.989 -5.36,-30.437 -21.212,-30.437 -7.929,0 -12.642,4.053 -12.642,12.134 0,15.315 22.499,18.303 33.854,18.303"
             style="fill:#000000;fill-opacity:1;fill-rule:nonzero;stroke:none"
             id="path132" /></g><g
           id="g134"
           transform="translate(232.106,292.9043)"><path
             d="m 0,0 c 0,10.421 -3.004,20.429 -15.422,20.429 -14.997,0 -19.504,-15.533 -19.504,-27.671 0,-25.546 15.004,-45.112 41.992,-45.112 5.789,0 11.566,0.63 17.143,2.551 l 0,-14.475 c -9.64,-2.974 -19.713,-4.679 -29.782,-4.679 -36.42,0 -54.63,22.144 -54.63,57.462 0,29.377 16.068,48.53 46.707,48.53 24.85,0 38.777,-12.13 38.777,-37.035 L 0,0 z"
             style="fill:#000000;fill-opacity:1;fill-rule:nonzero;stroke:none"
             id="path136" /></g><g
           id="g138"
           transform="translate(323.4458,292.9043)"><path
             d="m 0,0 c 0,10.421 -3.001,20.429 -15.429,20.429 -14.993,0 -19.49,-15.533 -19.49,-27.671 0,-25.546 14.997,-45.112 41.988,-45.112 5.786,0 11.566,0.63 17.132,2.551 l 0,-14.475 c -9.637,-2.974 -19.706,-4.679 -29.775,-4.679 -36.414,0 -54.628,22.144 -54.628,57.462 0,29.377 16.071,48.53 46.702,48.53 24.849,0 38.775,-12.13 38.775,-37.035 L 0,0 z"
             style="fill:#000000;fill-opacity:1;fill-rule:nonzero;stroke:none"
             id="path140" /></g><g
           id="g142"
           transform="translate(439.1201,283.1104)"><path
             d="m 0,0 0,5.756 c 0,24.681 -12.846,41.073 -38.773,41.073 -30.421,0 -43.7,-18.951 -43.7,-47.68 0,-33.42 15.213,-58.312 51.419,-58.312 9.637,0 19.284,1.066 28.482,4.047 l 0,16.387 c -5.986,-2.131 -13.059,-3.832 -19.481,-3.832 -23.146,0 -38.344,21.063 -38.344,42.561 L 0,0 z m -22.484,14.269 -37.279,0 c 1.074,10.207 8.995,17.449 19.279,17.449 10.933,0 18,-6.606 18,-17.449"
             style="fill:#000000;fill-opacity:1;fill-rule:nonzero;stroke:none"
             id="path144" /></g><g
           id="g146"
           transform="translate(509.6123,226.293)"><path
             d="m 0,0 0,57.882 c 0,4.896 0.421,17.879 -3.644,21.718 -1.721,1.693 -4.505,1.908 -6.849,1.908 -17.149,0 -23.998,-24.054 -23.998,-37.685 l 0,-43.823 -23.793,0 0,101.301 23.793,0 0,-18.943 0.424,0 c 5.362,12.981 15.644,21.288 30.215,21.288 19.485,0 27.614,-15.962 27.614,-33.418 L 23.762,0 0,0 z"
             style="fill:#000000;fill-opacity:1;fill-rule:nonzero;stroke:none"
             id="path148" /></g><g
           id="g150"
           transform="translate(582.8867,311.2036)"><path
             d="m 0,0 0,-47.88 c 0,-11.926 1.271,-22.774 16.069,-22.774 3.64,0 7.265,0.846 10.913,1.7 l 0,-16.597 c -6.432,-1.066 -13.058,-1.705 -19.483,-1.705 -20.79,0 -31.288,6.813 -31.288,27.874 l 0,59.382 -19.921,0 0,16.39 19.921,0 0,24.056 L 0,50.024 0,16.39 30.198,16.39 30.198,0 0,0 z"
             style="fill:#000000;fill-opacity:1;fill-rule:nonzero;stroke:none"
             id="path152" /></g><g
           id="g154"
           transform="translate(681.8848,226.293)"><path
             d="m 0,0 0,18.935 -0.42,0 C -5.783,6.168 -16.268,-2.346 -30.629,-2.346 c -19.493,0 -27.638,15.955 -27.638,33.415 l 0,70.232 23.788,0 0,-57.887 c 0,-4.896 -0.431,-17.886 3.625,-21.709 1.721,-1.701 4.521,-1.907 6.87,-1.907 C -6.855,19.798 0,43.823 0,57.454 l 0,43.847 23.782,0 L 23.782,0 0,0 z"
             style="fill:#000000;fill-opacity:1;fill-rule:nonzero;stroke:none"
             id="path156" /></g><g
           id="g158"
           transform="translate(744.4482,270.7646)"><path
             d="m 0,0 0,-44.472 -23.781,0 0,101.301 23.781,0 0,-18.736 0.425,0 c 7.929,14.047 15.852,21.082 33,21.082 l 0,-24.691 C 9.002,34.484 0,23.848 0,0"
             style="fill:#000000;fill-opacity:1;fill-rule:nonzero;stroke:none"
             id="path160" /></g><g
           id="g162"
           transform="translate(865.1279,283.1104)"><path
             d="m 0,0 0,5.756 c 0,24.681 -12.852,41.073 -38.77,41.073 -30.414,0 -43.708,-18.951 -43.708,-47.68 0,-33.42 15.222,-58.312 51.423,-58.312 9.632,0 19.294,1.066 28.485,4.047 l 0,16.387 c -5.994,-2.131 -13.07,-3.832 -19.48,-3.832 -23.148,0 -38.347,21.063 -38.347,42.561 L 0,0 z m -22.483,14.269 -37.284,0 c 1.073,10.207 8.993,17.449 19.276,17.449 10.932,0 18.008,-6.606 18.008,-17.449"
             style="fill:#000000;fill-opacity:1;fill-rule:nonzero;stroke:none"
             id="path164" /></g></g></g><g
       id="g166"><g
         id="g168"
         clip-path="url(#clipPath170)"><g
           id="g174"
           transform="translate(539.252,448.167)"><path
             d="m 0,0 0,-2.485 0,-14.468 c 0,0 48.121,-18.588 55.064,-21.271 C 48.121,-40.902 0,-59.371 0,-59.371 l 0,-16.947 74.915,30.374 0,15.557 L 0,0 z"
             style="fill:#ff0000;fill-opacity:1;fill-rule:nonzero;stroke:none"
             id="path176" /></g></g></g></g></svg>