<?xml version="1.0" encoding="UTF-8" standalone="no"?>
<!-- Created with Inkscape (http://www.inkscape.org/) -->

<svg
   xmlns:dc="http://purl.org/dc/elements/1.1/"
   xmlns:cc="http://creativecommons.org/ns#"
   xmlns:rdf="http://www.w3.org/1999/02/22-rdf-syntax-ns#"
   xmlns:svg="http://www.w3.org/2000/svg"
   xmlns="http://www.w3.org/2000/svg"
   xmlns:sodipodi="http://sodipodi.sourceforge.net/DTD/sodipodi-0.dtd"
   xmlns:inkscape="http://www.inkscape.org/namespaces/inkscape"
   id="svg2"
   version="1.1"
   inkscape:version="0.48.4 r9939"
   width="970"
   height="386.25"
   xml:space="preserve"
   sodipodi:docname="ais_logo.ai"><metadata
     id="metadata8"><rdf:RDF><cc:Work
         rdf:about=""><dc:format>image/svg+xml</dc:format><dc:type
           rdf:resource="http://purl.org/dc/dcmitype/StillImage" /><dc:title></dc:title></cc:Work></rdf:RDF></metadata><defs
     id="defs6"><clipPath
       clipPathUnits="userSpaceOnUse"
       id="clipPath16"><path
         d="M 0,309 776,309 776,0 0,0 0,309 z"
         id="path18" /></clipPath><clipPath
       clipPathUnits="userSpaceOnUse"
       id="clipPath36"><path
         d="M 270.226,213.232 C 134.396,178.9 12,265.474 12,265.474 l 0,0 C 207.535,72.923 373.218,150.54 424.444,196.813 l 0,0 c 51.224,46.271 104.008,80.601 126.397,91.05 l 0,0 c -5.463,2.003 -11.739,2.918 -18.812,2.917 l 0,0 C 481.135,290.775 389.484,243.373 270.226,213.232"
         id="path38" /></clipPath><linearGradient
       x1="0"
       y1="0"
       x2="1"
       y2="0"
       gradientUnits="userSpaceOnUse"
       gradientTransform="matrix(253.00241,97.767891,97.767891,-253.00241,230.0083,229.02783)"
       spreadMethod="pad"
       id="linearGradient44"><stop
         style="stop-opacity:1;stop-color:#cade1f"
         offset="0"
         id="stop46" /><stop
         style="stop-opacity:1;stop-color:#6fa42e"
         offset="1"
         id="stop48" /></linearGradient><clipPath
       clipPathUnits="userSpaceOnUse"
       id="clipPath56"><path
         d="M 376.701,156.511 C 219.477,66.457 83.647,195.32 83.647,195.32 l 0,0 C 238.881,-25.591 363.268,137.605 376.701,156.511"
         id="path58" /></clipPath><linearGradient
       x1="0"
       y1="0"
       x2="1"
       y2="0"
       gradientUnits="userSpaceOnUse"
       gradientTransform="matrix(-158.9659,53.734978,53.734978,158.9659,258.00244,133.60059)"
       spreadMethod="pad"
       id="linearGradient64"><stop
         style="stop-opacity:1;stop-color:#cade1f"
         offset="0"
         id="stop66" /><stop
         style="stop-opacity:1;stop-color:#6fa42e"
         offset="1"
         id="stop68" /></linearGradient></defs><sodipodi:namedview
     pagecolor="#ffffff"
     bordercolor="#666666"
     borderopacity="1"
     objecttolerance="10"
     gridtolerance="10"
     guidetolerance="10"
     inkscape:pageopacity="0"
     inkscape:pageshadow="2"
     inkscape:window-width="640"
     inkscape:window-height="480"
     id="namedview4"
     showgrid="false"
     inkscape:zoom="0.32061856"
     inkscape:cx="485"
     inkscape:cy="193.125"
     inkscape:window-x="53"
     inkscape:window-y="24"
     inkscape:window-maximized="0"
     inkscape:current-layer="g10" /><g
     id="g10"
     inkscape:groupmode="layer"
     inkscape:label="ais_logo"
     transform="matrix(1.25,0,0,-1.25,0,386.25)"><g
       id="g12"><g
         id="g14"
         clip-path="url(#clipPath16)"><g
           id="g20"
           transform="translate(513.9229,80.4404)"><path
             d="M 0,0 C -6.705,15.922 -12.947,30.746 -19.999,47.489 -27.101,30.512 -33.325,15.632 -39.864,0 L 0,0 z m -23.437,84.335 c 12.338,0.028 18.754,-3.371 22.294,-11.353 16.619,-37.481 33.292,-74.935 49.764,-112.478 3.55,-8.094 0.777,-15.714 -6.149,-19.123 -7.662,-3.772 -16.217,-1.136 -20.286,6.839 -3.269,6.4 -5.454,13.362 -8.855,19.678 -1.199,2.229 -4.551,4.603 -6.97,4.659 -17.395,0.402 -34.809,0.103 -52.211,0.322 -4.102,0.051 -6.338,-1.196 -7.783,-5.096 -2.33,-6.282 -5.005,-12.454 -7.855,-18.522 -3.918,-8.335 -11.876,-11.528 -19.7,-8.223 -7.465,3.152 -10.417,10.883 -6.665,19.407 16.509,37.525 33.215,74.963 49.873,112.423 3.531,7.943 9.868,11.504 14.543,11.467"
             style="fill:#423836;fill-opacity:1;fill-rule:evenodd;stroke:none"
             id="path22" /></g><g
           id="g24"
           transform="translate(708.2793,164.4014)"><path
             d="m 0,0 c 14.78,0.219 28.524,-3.542 41.287,-10.917 8.446,-4.878 11.273,-13.432 6.971,-20.711 -4.051,-6.857 -12.446,-8.071 -21.127,-4.237 -8.096,3.574 -16.626,6.226 -25.098,8.853 -2.475,0.767 -5.452,0.353 -8.124,-0.032 -6.721,-0.97 -12.777,-3.226 -14.081,-11.004 -1.338,-7.979 3.707,-12.047 10.205,-14.368 7.705,-2.75 15.691,-4.705 23.467,-7.27 6.825,-2.249 13.736,-4.418 20.247,-7.407 14.575,-6.693 21.665,-18.279 21.378,-34.444 -0.294,-16.558 -6.629,-29.813 -21.955,-36.9 -24.675,-11.415 -48.945,-7.401 -72.576,3.938 -3.118,1.497 -6.045,3.453 -8.903,5.425 -7.094,4.896 -9.087,13.313 -4.914,20.137 3.952,6.461 12.898,7.791 20.514,3.999 9.243,-4.603 18.596,-9.393 28.442,-12.218 5.815,-1.669 12.794,-0.326 19.03,0.837 5.348,0.997 9.269,4.666 9.922,10.708 0.691,6.393 -2.471,10.767 -8.011,12.886 -8.328,3.187 -16.961,5.565 -25.417,8.426 -7.513,2.54 -15.152,4.839 -22.406,7.996 -26.831,11.679 -24.954,53.581 -2.242,67.723 C -23.099,-2.17 -11.98,0.459 0,0"
             style="fill:#423836;fill-opacity:1;fill-rule:evenodd;stroke:none"
             id="path26" /></g><g
           id="g28"
           transform="translate(623.2861,91.793)"><path
             d="m 0,0 c 0,-18.158 0.05,-36.317 -0.019,-54.476 -0.041,-10.823 -5.784,-17.06 -15.384,-16.977 -9.285,0.08 -15.008,6.128 -15.041,16.67 -0.12,36.565 -0.115,73.132 -0.017,109.697 0.028,10.383 5.841,16.852 14.747,17.1 C -6.208,72.28 -0.097,66.002 0.007,55.222 0.182,36.815 0.056,18.407 0.056,0 L 0,0 z"
             style="fill:#423836;fill-opacity:1;fill-rule:evenodd;stroke:none"
             id="path30" /></g></g></g><g
       id="g32"><g
         id="g34"
         clip-path="url(#clipPath36)"><g
           id="g40"><g
             id="g42"><path
               d="M 270.226,213.232 C 134.396,178.9 12,265.474 12,265.474 l 0,0 C 207.535,72.923 373.218,150.54 424.444,196.813 l 0,0 c 51.224,46.271 104.008,80.601 126.397,91.05 l 0,0 c -5.463,2.003 -11.739,2.918 -18.812,2.917 l 0,0 C 481.135,290.775 389.484,243.373 270.226,213.232"
               style="fill:url(#linearGradient44);stroke:none"
               id="path50" /></g></g></g></g><g
       id="g52"><g
         id="g54"
         clip-path="url(#clipPath56)"><g
           id="g60"><g
             id="g62"><path
               d="M 376.701,156.511 C 219.477,66.457 83.647,195.32 83.647,195.32 l 0,0 C 238.881,-25.591 363.268,137.605 376.701,156.511"
               style="fill:url(#linearGradient64);stroke:none"
               id="path70" /></g></g></g></g></g></svg>