<?xml version="1.0" encoding="UTF-8" standalone="no"?>
<!-- Created with Inkscape (http://www.inkscape.org/) -->

<svg
   xmlns:dc="http://purl.org/dc/elements/1.1/"
   xmlns:cc="http://creativecommons.org/ns#"
   xmlns:rdf="http://www.w3.org/1999/02/22-rdf-syntax-ns#"
   xmlns:svg="http://www.w3.org/2000/svg"
   xmlns="http://www.w3.org/2000/svg"
   xmlns:sodipodi="http://sodipodi.sourceforge.net/DTD/sodipodi-0.dtd"
   xmlns:inkscape="http://www.inkscape.org/namespaces/inkscape"
   id="svg2"
   version="1.1"
   inkscape:version="0.48.4 r9939"
   width="500"
   height="257.2625"
   xml:space="preserve"
   sodipodi:docname="Digital Alchemy Logo_CMYK_tagline.ai"><metadata
     id="metadata8"><rdf:RDF><cc:Work
         rdf:about=""><dc:format>image/svg+xml</dc:format><dc:type
           rdf:resource="http://purl.org/dc/dcmitype/StillImage" /><dc:title></dc:title></cc:Work></rdf:RDF></metadata><defs
     id="defs6"><clipPath
       clipPathUnits="userSpaceOnUse"
       id="clipPath22"><path
         d="m 0,205.81 400,0 L 400,0 0,0 0,205.81 z"
         id="path24" /></clipPath><clipPath
       clipPathUnits="userSpaceOnUse"
       id="clipPath158"><path
         d="m 33.213,114.811 c 0,-21.467 17.402,-38.869 38.872,-38.869 l 0,0 c 21.478,0 38.88,17.402 38.88,38.869 l 0,0 c 0,21.472 -17.402,38.888 -38.88,38.888 l 0,0 c -21.47,0 -38.872,-17.416 -38.872,-38.888"
         id="path160" /></clipPath><radialGradient
       fx="0"
       fy="0"
       cx="0"
       cy="0"
       r="1"
       gradientUnits="userSpaceOnUse"
       gradientTransform="matrix(83.719017,0,0,-83.719017,71.987442,165.21831)"
       spreadMethod="pad"
       id="radialGradient166"><stop
         style="stop-opacity:1;stop-color:#ffffff"
         offset="0"
         id="stop168" /><stop
         style="stop-opacity:1;stop-color:#fff5dd"
         offset="0.697802"
         id="stop170" /><stop
         style="stop-opacity:1;stop-color:#fff5dd"
         offset="0.697802"
         id="stop172" /><stop
         style="stop-opacity:1;stop-color:#f7e029"
         offset="1"
         id="stop174" /></radialGradient><clipPath
       clipPathUnits="userSpaceOnUse"
       id="clipPath182"><path
         d="m 75.894,171.034 -2.049,-0.579 0,-1.48 1.025,0 0,-7.185 2.058,0 0,9.244 -1.034,0 z"
         id="path184" /></clipPath><linearGradient
       x1="0"
       y1="0"
       x2="1"
       y2="0"
       gradientUnits="userSpaceOnUse"
       gradientTransform="matrix(0,61.88417,61.88417,0,75.387024,112.32834)"
       spreadMethod="pad"
       id="linearGradient190"><stop
         style="stop-opacity:1;stop-color:#f7e029"
         offset="0"
         id="stop192" /><stop
         style="stop-opacity:1;stop-color:#807d65"
         offset="1"
         id="stop194" /></linearGradient><clipPath
       clipPathUnits="userSpaceOnUse"
       id="clipPath202"><path
         d="m 47.852,152.332 -1.988,-0.561 0,-1.44 0.993,0 0,-6.984 2.426,0 0,8.985 -1.431,0 z"
         id="path204" /></clipPath><linearGradient
       x1="0"
       y1="0"
       x2="1"
       y2="0"
       gradientUnits="userSpaceOnUse"
       gradientTransform="matrix(0,61.883236,61.883236,0,47.573303,112.32909)"
       spreadMethod="pad"
       id="linearGradient210"><stop
         style="stop-opacity:1;stop-color:#f7e029"
         offset="0"
         id="stop212" /><stop
         style="stop-opacity:1;stop-color:#807d65"
         offset="1"
         id="stop214" /></linearGradient><clipPath
       clipPathUnits="userSpaceOnUse"
       id="clipPath222"><path
         d="m 92.452,165.257 -2.045,-0.579 0,-1.48 1.019,0 0,-7.185 2.06,0 0,9.244 -1.034,0 z"
         id="path224" /></clipPath><linearGradient
       x1="0"
       y1="0"
       x2="1"
       y2="0"
       gradientUnits="userSpaceOnUse"
       gradientTransform="matrix(0,61.88417,61.88417,0,91.946518,112.32838)"
       spreadMethod="pad"
       id="linearGradient230"><stop
         style="stop-opacity:1;stop-color:#f7e029"
         offset="0"
         id="stop232" /><stop
         style="stop-opacity:1;stop-color:#807d65"
         offset="1"
         id="stop234" /></linearGradient><clipPath
       clipPathUnits="userSpaceOnUse"
       id="clipPath242"><path
         d="m 56.943,165.768 -1.197,-0.337 0,-0.863 0.596,0 0,-4.192 1.204,0 0,5.392 -0.603,0 z"
         id="path244" /></clipPath><linearGradient
       x1="0"
       y1="0"
       x2="1"
       y2="0"
       gradientUnits="userSpaceOnUse"
       gradientTransform="matrix(0,61.883049,61.883049,0,56.646065,112.32923)"
       spreadMethod="pad"
       id="linearGradient250"><stop
         style="stop-opacity:1;stop-color:#f7e029"
         offset="0"
         id="stop252" /><stop
         style="stop-opacity:1;stop-color:#807d65"
         offset="1"
         id="stop254" /></linearGradient><clipPath
       clipPathUnits="userSpaceOnUse"
       id="clipPath262"><path
         d="m 73.341,149.54 -0.471,-0.132 0,-0.339 0.237,0 0,-1.652 0.472,0 0,2.123 -0.238,0 z"
         id="path264" /></clipPath><linearGradient
       x1="0"
       y1="0"
       x2="1"
       y2="0"
       gradientUnits="userSpaceOnUse"
       gradientTransform="matrix(0,61.881237,61.881237,0,73.224693,112.33024)"
       spreadMethod="pad"
       id="linearGradient270"><stop
         style="stop-opacity:1;stop-color:#f7e029"
         offset="0"
         id="stop272" /><stop
         style="stop-opacity:1;stop-color:#807d65"
         offset="1"
         id="stop274" /></linearGradient><clipPath
       clipPathUnits="userSpaceOnUse"
       id="clipPath282"><path
         d="m 84.113,145.755 -2.914,-0.821 0,-2.102 1.465,0 0,-10.228 2.921,0 0,13.151 -1.472,0 z"
         id="path284" /></clipPath><linearGradient
       x1="0"
       y1="0"
       x2="1"
       y2="0"
       gradientUnits="userSpaceOnUse"
       gradientTransform="matrix(0,61.883034,61.883034,0,83.391373,112.32913)"
       spreadMethod="pad"
       id="linearGradient290"><stop
         style="stop-opacity:1;stop-color:#f7e029"
         offset="0"
         id="stop292" /><stop
         style="stop-opacity:1;stop-color:#807d65"
         offset="1"
         id="stop294" /></linearGradient><clipPath
       clipPathUnits="userSpaceOnUse"
       id="clipPath302"><path
         d="m 95.72,142.381 -1.602,-0.451 0,-1.156 0.806,0 0,-5.621 1.605,0 0,7.228 -0.809,0 z"
         id="path304" /></clipPath><linearGradient
       x1="0"
       y1="0"
       x2="1"
       y2="0"
       gradientUnits="userSpaceOnUse"
       gradientTransform="matrix(0,61.883259,61.883259,0,95.323822,112.32902)"
       spreadMethod="pad"
       id="linearGradient310"><stop
         style="stop-opacity:1;stop-color:#f7e029"
         offset="0"
         id="stop312" /><stop
         style="stop-opacity:1;stop-color:#807d65"
         offset="1"
         id="stop314" /></linearGradient><clipPath
       clipPathUnits="userSpaceOnUse"
       id="clipPath322"><path
         d="m 102.202,132.999 -1.802,-0.461 0,-1.182 0.906,0 0,-5.749 1.806,0 0,7.392 -0.91,0 z"
         id="path324" /></clipPath><linearGradient
       x1="0"
       y1="0"
       x2="1"
       y2="0"
       gradientUnits="userSpaceOnUse"
       gradientTransform="matrix(0,61.883213,61.883213,0,101.75617,112.32902)"
       spreadMethod="pad"
       id="linearGradient330"><stop
         style="stop-opacity:1;stop-color:#f7e029"
         offset="0"
         id="stop332" /><stop
         style="stop-opacity:1;stop-color:#807d65"
         offset="1"
         id="stop334" /></linearGradient><clipPath
       clipPathUnits="userSpaceOnUse"
       id="clipPath342"><path
         d="m 69.898,132.66 -1.098,-0.28 0,-0.72 0.551,0 0,-3.502 1.101,0 0,4.502 -0.554,0 z"
         id="path344" /></clipPath><linearGradient
       x1="0"
       y1="0"
       x2="1"
       y2="0"
       gradientUnits="userSpaceOnUse"
       gradientTransform="matrix(0,61.883339,61.883339,0,69.625748,112.32898)"
       spreadMethod="pad"
       id="linearGradient350"><stop
         style="stop-opacity:1;stop-color:#f7e029"
         offset="0"
         id="stop352" /><stop
         style="stop-opacity:1;stop-color:#807d65"
         offset="1"
         id="stop354" /></linearGradient><clipPath
       clipPathUnits="userSpaceOnUse"
       id="clipPath362"><path
         d="m 86.109,123.356 -1.098,-0.321 0,-0.825 0.552,0 0,-4.009 1.101,0 0,5.155 -0.555,0 z"
         id="path364" /></clipPath><linearGradient
       x1="0"
       y1="0"
       x2="1"
       y2="0"
       gradientUnits="userSpaceOnUse"
       gradientTransform="matrix(0,61.885235,61.885235,0,85.837357,112.32864)"
       spreadMethod="pad"
       id="linearGradient370"><stop
         style="stop-opacity:1;stop-color:#f7e029"
         offset="0"
         id="stop372" /><stop
         style="stop-opacity:1;stop-color:#807d65"
         offset="1"
         id="stop374" /></linearGradient><clipPath
       clipPathUnits="userSpaceOnUse"
       id="clipPath382"><path
         d="m 66.31,116.709 -2.007,-0.501 0,-1.289 1.009,0 0,-6.264 2.011,0 0,8.054 -1.013,0 z"
         id="path384" /></clipPath><linearGradient
       x1="0"
       y1="0"
       x2="1"
       y2="0"
       gradientUnits="userSpaceOnUse"
       gradientTransform="matrix(0,61.882812,61.882812,0,65.812912,112.32901)"
       spreadMethod="pad"
       id="linearGradient390"><stop
         style="stop-opacity:1;stop-color:#f7e029"
         offset="0"
         id="stop392" /><stop
         style="stop-opacity:1;stop-color:#807d65"
         offset="1"
         id="stop394" /></linearGradient><clipPath
       clipPathUnits="userSpaceOnUse"
       id="clipPath402"><path
         d="m 57.609,109.468 -3.592,-0.897 0,-2.307 1.806,0 0,-11.215 3.6,0 0,14.419 -1.814,0 z"
         id="path404" /></clipPath><linearGradient
       x1="0"
       y1="0"
       x2="1"
       y2="0"
       gradientUnits="userSpaceOnUse"
       gradientTransform="matrix(0,61.884582,61.884582,0,56.719852,112.32881)"
       spreadMethod="pad"
       id="linearGradient410"><stop
         style="stop-opacity:1;stop-color:#f7e029"
         offset="0"
         id="stop412" /><stop
         style="stop-opacity:1;stop-color:#807d65"
         offset="1"
         id="stop414" /></linearGradient><clipPath
       clipPathUnits="userSpaceOnUse"
       id="clipPath422"><path
         d="m 55.416,136.295 -3.374,-0.843 0,-2.166 1.696,0 0,-10.531 3.38,0 0,13.54 -1.702,0 z"
         id="path424" /></clipPath><linearGradient
       x1="0"
       y1="0"
       x2="1"
       y2="0"
       gradientUnits="userSpaceOnUse"
       gradientTransform="matrix(0,61.883728,61.883728,0,54.580204,112.32886)"
       spreadMethod="pad"
       id="linearGradient430"><stop
         style="stop-opacity:1;stop-color:#f7e029"
         offset="0"
         id="stop432" /><stop
         style="stop-opacity:1;stop-color:#807d65"
         offset="1"
         id="stop434" /></linearGradient><clipPath
       clipPathUnits="userSpaceOnUse"
       id="clipPath442"><path
         d="m 42.451,132.674 -2.588,-0.647 0,-1.661 1.301,0 0,-8.08 2.593,0 0,10.388 -1.306,0 z"
         id="path444" /></clipPath><linearGradient
       x1="0"
       y1="0"
       x2="1"
       y2="0"
       gradientUnits="userSpaceOnUse"
       gradientTransform="matrix(0,61.883839,61.883839,0,41.810001,112.32874)"
       spreadMethod="pad"
       id="linearGradient450"><stop
         style="stop-opacity:1;stop-color:#f7e029"
         offset="0"
         id="stop452" /><stop
         style="stop-opacity:1;stop-color:#807d65"
         offset="1"
         id="stop454" /></linearGradient><clipPath
       clipPathUnits="userSpaceOnUse"
       id="clipPath462"><path
         d="m 77.547,107.383 -2.353,-0.532 0,-1.371 1.183,0 0,-6.662 2.357,0 0,8.565 -1.187,0 z"
         id="path464" /></clipPath><linearGradient
       x1="0"
       y1="0"
       x2="1"
       y2="0"
       gradientUnits="userSpaceOnUse"
       gradientTransform="matrix(0,61.882275,61.882275,0,76.963844,112.32867)"
       spreadMethod="pad"
       id="linearGradient470"><stop
         style="stop-opacity:1;stop-color:#f7e029"
         offset="0"
         id="stop472" /><stop
         style="stop-opacity:1;stop-color:#807d65"
         offset="1"
         id="stop474" /></linearGradient><clipPath
       clipPathUnits="userSpaceOnUse"
       id="clipPath482"><path
         d="m 90.936,103.324 -2.563,-0.581 0,-1.493 1.289,0 0,-7.259 2.568,0 0,9.333 -1.294,0 z"
         id="path484" /></clipPath><linearGradient
       x1="0"
       y1="0"
       x2="1"
       y2="0"
       gradientUnits="userSpaceOnUse"
       gradientTransform="matrix(0,61.882503,61.882503,0,90.301178,112.32835)"
       spreadMethod="pad"
       id="linearGradient490"><stop
         style="stop-opacity:1;stop-color:#f7e029"
         offset="0"
         id="stop492" /><stop
         style="stop-opacity:1;stop-color:#807d65"
         offset="1"
         id="stop494" /></linearGradient><clipPath
       clipPathUnits="userSpaceOnUse"
       id="clipPath502"><path
         d="m 102.208,113.747 -0.34,-0.077 0,-0.197 0.171,0 0,-0.961 0.341,0 0,1.235 -0.172,0 z"
         id="path504" /></clipPath><linearGradient
       x1="0"
       y1="0"
       x2="1"
       y2="0"
       gradientUnits="userSpaceOnUse"
       gradientTransform="matrix(0,61.880047,61.880047,0,102.12379,112.32899)"
       spreadMethod="pad"
       id="linearGradient510"><stop
         style="stop-opacity:1;stop-color:#f7e029"
         offset="0"
         id="stop512" /><stop
         style="stop-opacity:1;stop-color:#807d65"
         offset="1"
         id="stop514" /></linearGradient><clipPath
       clipPathUnits="userSpaceOnUse"
       id="clipPath522"><path
         d="m 64.803,171.649 c -0.466,-0.206 -0.848,-0.518 -1.144,-0.936 l 0,0 c -0.297,-0.428 -0.512,-0.939 -0.643,-1.53 l 0,0 c -0.129,-0.591 -0.193,-1.306 -0.193,-2.148 l 0,0 c 0,-0.81 0.064,-1.519 0.199,-2.129 l 0,0 c 0.129,-0.606 0.34,-1.118 0.624,-1.534 l 0,0 c 0.295,-0.417 0.672,-0.73 1.132,-0.942 l 0,0 c 0.459,-0.21 1.025,-0.313 1.69,-0.313 l 0,0 c 0.667,0 1.235,0.103 1.691,0.313 l 0,0 c 0.463,0.212 0.838,0.52 1.127,0.932 l 0,0 c 0.289,0.409 0.498,0.921 0.625,1.536 l 0,0 c 0.132,0.613 0.202,1.329 0.202,2.145 l 0,0 c 0,0.792 -0.07,1.493 -0.196,2.101 l 0,0 c -0.128,0.609 -0.334,1.12 -0.623,1.536 l 0,0 c -0.297,0.424 -0.667,0.741 -1.125,0.957 l 0,0 c -0.451,0.213 -1.02,0.32 -1.701,0.32 l 0,0 c -0.646,0 -1.196,-0.103 -1.665,-0.308 m 0.689,-7.067 c -0.192,0.481 -0.287,1.297 -0.287,2.449 l 0,0 c 0,1.174 0.095,1.998 0.287,2.473 l 0,0 c 0.201,0.471 0.522,0.706 0.976,0.706 l 0,0 c 0.458,0 0.782,-0.235 0.975,-0.706 l 0,0 c 0.194,-0.475 0.289,-1.294 0.289,-2.461 l 0,0 c 0,-1.159 -0.095,-1.98 -0.294,-2.461 l 0,0 c -0.194,-0.482 -0.517,-0.72 -0.97,-0.72 l 0,0 c -0.454,0 -0.775,0.238 -0.976,0.72"
         id="path524" /></clipPath><linearGradient
       x1="0"
       y1="0"
       x2="1"
       y2="0"
       gradientUnits="userSpaceOnUse"
       gradientTransform="matrix(0,61.883655,61.883655,0,66.467476,112.32887)"
       spreadMethod="pad"
       id="linearGradient530"><stop
         style="stop-opacity:1;stop-color:#f7e029"
         offset="0"
         id="stop532" /><stop
         style="stop-opacity:1;stop-color:#807d65"
         offset="1"
         id="stop534" /></linearGradient><clipPath
       clipPathUnits="userSpaceOnUse"
       id="clipPath542"><path
         d="m 40.682,142.512 c -0.306,-0.134 -0.559,-0.34 -0.754,-0.617 l 0,0 c -0.199,-0.285 -0.339,-0.618 -0.425,-1.01 l 0,0 c -0.088,-0.39 -0.13,-0.859 -0.13,-1.414 l 0,0 c 0,-0.534 0.047,-1.002 0.133,-1.402 l 0,0 c 0.088,-0.4 0.223,-0.74 0.412,-1.01 l 0,0 c 0.193,-0.279 0.443,-0.485 0.745,-0.623 l 0,0 c 0.306,-0.14 0.679,-0.205 1.115,-0.205 l 0,0 c 0.441,0 0.811,0.065 1.12,0.205 l 0,0 c 0.301,0.138 0.547,0.341 0.738,0.616 l 0,0 c 0.186,0.269 0.325,0.605 0.416,1.01 l 0,0 c 0.081,0.407 0.128,0.875 0.128,1.412 l 0,0 c 0,0.525 -0.047,0.987 -0.128,1.387 l 0,0 c -0.085,0.402 -0.225,0.74 -0.412,1.014 l 0,0 c -0.191,0.277 -0.436,0.488 -0.742,0.628 l 0,0 c -0.296,0.14 -0.669,0.214 -1.12,0.214 l 0,0 c -0.424,0 -0.789,-0.07 -1.096,-0.205 m 0.453,-4.656 c -0.129,0.317 -0.19,0.853 -0.19,1.61 l 0,0 c 0,0.777 0.061,1.321 0.19,1.633 l 0,0 c 0.131,0.311 0.342,0.466 0.643,0.466 l 0,0 c 0.299,0 0.512,-0.155 0.642,-0.466 l 0,0 c 0.128,-0.312 0.186,-0.854 0.186,-1.625 l 0,0 c 0,-0.761 -0.064,-1.301 -0.186,-1.618 l 0,0 c -0.134,-0.319 -0.343,-0.476 -0.642,-0.476 l 0,0 c -0.301,0 -0.512,0.157 -0.643,0.476"
         id="path544" /></clipPath><linearGradient
       x1="0"
       y1="0"
       x2="1"
       y2="0"
       gradientUnits="userSpaceOnUse"
       gradientTransform="matrix(0,61.88443,61.88443,0,41.776596,112.32851)"
       spreadMethod="pad"
       id="linearGradient550"><stop
         style="stop-opacity:1;stop-color:#f7e029"
         offset="0"
         id="stop552" /><stop
         style="stop-opacity:1;stop-color:#807d65"
         offset="1"
         id="stop554" /></linearGradient><clipPath
       clipPathUnits="userSpaceOnUse"
       id="clipPath562"><path
         d="m 59.756,151.121 c -0.726,-0.318 -1.324,-0.808 -1.789,-1.464 l 0,0 c -0.47,-0.674 -0.802,-1.462 -1.005,-2.392 l 0,0 c -0.208,-0.923 -0.307,-2.038 -0.307,-3.351 l 0,0 c 0,-1.267 0.11,-2.376 0.313,-3.323 l 0,0 c 0.209,-0.946 0.529,-1.754 0.977,-2.393 l 0,0 c 0.458,-0.662 1.051,-1.149 1.765,-1.475 l 0,0 c 0.726,-0.332 1.609,-0.488 2.642,-0.488 l 0,0 c 1.046,0 1.923,0.156 2.655,0.488 l 0,0 c 0.715,0.326 1.295,0.807 1.748,1.458 l 0,0 c 0.441,0.639 0.773,1.433 0.987,2.394 l 0,0 c 0.192,0.963 0.302,2.072 0.302,3.345 l 0,0 c 0,1.243 -0.11,2.34 -0.302,3.288 l 0,0 c -0.203,0.951 -0.534,1.753 -0.976,2.403 l 0,0 c -0.452,0.655 -1.034,1.155 -1.759,1.487 l 0,0 c -0.703,0.331 -1.586,0.506 -2.655,0.506 l 0,0 c -1.004,0 -1.87,-0.164 -2.596,-0.483 m 1.074,-11.034 c -0.308,0.75 -0.452,2.02 -0.452,3.815 l 0,0 c 0,1.841 0.144,3.13 0.452,3.869 l 0,0 c 0.309,0.737 0.807,1.103 1.522,1.103 l 0,0 c 0.708,0 1.214,-0.366 1.522,-1.103 l 0,0 c 0.302,-0.739 0.441,-2.023 0.441,-3.851 l 0,0 c 0,-1.801 -0.15,-3.083 -0.441,-3.833 l 0,0 c -0.319,-0.756 -0.814,-1.128 -1.522,-1.128 l 0,0 c -0.715,0 -1.213,0.372 -1.522,1.128"
         id="path564" /></clipPath><linearGradient
       x1="0"
       y1="0"
       x2="1"
       y2="0"
       gradientUnits="userSpaceOnUse"
       gradientTransform="matrix(0,61.884235,61.884235,0,62.349659,112.32856)"
       spreadMethod="pad"
       id="linearGradient570"><stop
         style="stop-opacity:1;stop-color:#f7e029"
         offset="0"
         id="stop572" /><stop
         style="stop-opacity:1;stop-color:#807d65"
         offset="1"
         id="stop574" /></linearGradient><clipPath
       clipPathUnits="userSpaceOnUse"
       id="clipPath582"><path
         d="m 48.825,123.954 c -0.53,-0.232 -0.968,-0.589 -1.307,-1.069 l 0,0 c -0.343,-0.491 -0.585,-1.067 -0.733,-1.747 l 0,0 c -0.152,-0.674 -0.225,-1.488 -0.225,-2.447 l 0,0 c 0,-0.924 0.081,-1.735 0.229,-2.426 l 0,0 c 0.152,-0.691 0.386,-1.282 0.713,-1.748 l 0,0 c 0.335,-0.483 0.768,-0.839 1.29,-1.077 l 0,0 c 0.529,-0.242 1.174,-0.357 1.929,-0.357 l 0,0 c 0.763,0 1.404,0.115 1.939,0.357 l 0,0 c 0.521,0.238 0.945,0.589 1.276,1.064 l 0,0 c 0.322,0.467 0.564,1.047 0.721,1.748 l 0,0 c 0.14,0.704 0.221,1.515 0.221,2.444 l 0,0 c 0,0.908 -0.081,1.709 -0.221,2.4 l 0,0 c -0.149,0.695 -0.39,1.281 -0.713,1.755 l 0,0 c -0.33,0.48 -0.754,0.844 -1.284,1.087 l 0,0 c -0.514,0.241 -1.158,0.369 -1.939,0.369 l 0,0 c -0.734,0 -1.366,-0.12 -1.896,-0.353 m 0.785,-8.057 c -0.225,0.547 -0.331,1.475 -0.331,2.785 l 0,0 c 0,1.345 0.106,2.286 0.331,2.825 l 0,0 c 0.225,0.539 0.589,0.807 1.111,0.807 l 0,0 c 0.518,0 0.887,-0.268 1.111,-0.807 l 0,0 c 0.22,-0.539 0.322,-1.477 0.322,-2.811 l 0,0 c 0,-1.315 -0.11,-2.252 -0.322,-2.799 l 0,0 c -0.233,-0.553 -0.593,-0.824 -1.111,-0.824 l 0,0 c -0.522,0 -0.886,0.271 -1.111,0.824"
         id="path584" /></clipPath><linearGradient
       x1="0"
       y1="0"
       x2="1"
       y2="0"
       gradientUnits="userSpaceOnUse"
       gradientTransform="matrix(0,61.884876,61.884876,0,50.718941,112.32856)"
       spreadMethod="pad"
       id="linearGradient590"><stop
         style="stop-opacity:1;stop-color:#f7e029"
         offset="0"
         id="stop592" /><stop
         style="stop-opacity:1;stop-color:#807d65"
         offset="1"
         id="stop594" /></linearGradient><clipPath
       clipPathUnits="userSpaceOnUse"
       id="clipPath602"><path
         d="m 61.173,130.208 c -0.364,-0.159 -0.664,-0.405 -0.897,-0.733 l 0,0 c -0.236,-0.339 -0.403,-0.735 -0.505,-1.201 l 0,0 c -0.105,-0.463 -0.154,-1.023 -0.154,-1.682 l 0,0 c 0,-0.634 0.055,-1.192 0.157,-1.667 l 0,0 c 0.105,-0.475 0.266,-0.881 0.49,-1.201 l 0,0 c 0.23,-0.331 0.527,-0.576 0.886,-0.74 l 0,0 c 0.364,-0.166 0.808,-0.245 1.326,-0.245 l 0,0 c 0.525,0 0.965,0.079 1.332,0.245 l 0,0 c 0.358,0.164 0.65,0.405 0.877,0.732 l 0,0 c 0.221,0.32 0.388,0.719 0.496,1.201 l 0,0 c 0.096,0.483 0.151,1.041 0.151,1.679 l 0,0 c 0,0.623 -0.055,1.173 -0.151,1.649 l 0,0 c -0.103,0.477 -0.268,0.88 -0.49,1.206 l 0,0 c -0.228,0.329 -0.519,0.58 -0.883,0.747 l 0,0 c -0.353,0.166 -0.796,0.253 -1.332,0.253 l 0,0 c -0.505,0 -0.938,-0.082 -1.303,-0.243 m 0.539,-5.536 c -0.154,0.377 -0.227,1.014 -0.227,1.914 l 0,0 c 0,0.924 0.073,1.571 0.227,1.941 l 0,0 c 0.155,0.371 0.405,0.555 0.764,0.555 l 0,0 c 0.356,0 0.609,-0.184 0.763,-0.555 l 0,0 c 0.152,-0.37 0.222,-1.015 0.222,-1.931 l 0,0 c 0,-0.904 -0.076,-1.547 -0.222,-1.924 l 0,0 c -0.16,-0.379 -0.407,-0.566 -0.763,-0.566 l 0,0 c -0.359,0 -0.609,0.187 -0.764,0.566"
         id="path604" /></clipPath><linearGradient
       x1="0"
       y1="0"
       x2="1"
       y2="0"
       gradientUnits="userSpaceOnUse"
       gradientTransform="matrix(0,61.885151,61.885151,0,62.474499,112.32845)"
       spreadMethod="pad"
       id="linearGradient610"><stop
         style="stop-opacity:1;stop-color:#f7e029"
         offset="0"
         id="stop612" /><stop
         style="stop-opacity:1;stop-color:#807d65"
         offset="1"
         id="stop614" /></linearGradient><clipPath
       clipPathUnits="userSpaceOnUse"
       id="clipPath622"><path
         d="m 0,205.81 400,0 L 400,0 0,0 0,205.81 z"
         id="path624" /></clipPath><clipPath
       clipPathUnits="userSpaceOnUse"
       id="clipPath634"><path
         d="m 68.739,111.975 c -0.721,-0.316 -1.316,-0.802 -1.778,-1.454 l 0,0 c -0.468,-0.671 -0.798,-1.455 -1,-2.38 l 0,0 c -0.207,-0.917 -0.305,-2.026 -0.305,-3.331 l 0,0 c 0,-1.261 0.109,-2.365 0.311,-3.304 l 0,0 c 0.208,-0.942 0.526,-1.746 0.971,-2.38 l 0,0 c 0.456,-0.658 1.045,-1.142 1.755,-1.467 l 0,0 c 0.722,-0.33 1.601,-0.485 2.628,-0.485 l 0,0 c 1.041,0 1.912,0.155 2.64,0.485 l 0,0 c 0.711,0.325 1.288,0.802 1.739,1.45 l 0,0 c 0.438,0.635 0.768,1.425 0.981,2.379 l 0,0 c 0.192,0.957 0.301,2.061 0.301,3.327 l 0,0 c 0,1.236 -0.109,2.327 -0.301,3.27 l 0,0 c -0.203,0.946 -0.531,1.743 -0.97,2.388 l 0,0 c -0.45,0.653 -1.028,1.151 -1.75,1.481 l 0,0 c -0.698,0.328 -1.577,0.502 -2.64,0.502 l 0,0 c -0.999,0 -1.86,-0.162 -2.582,-0.481 m 1.069,-10.972 c -0.305,0.746 -0.449,2.009 -0.449,3.793 l 0,0 c 0,1.832 0.144,3.114 0.449,3.848 l 0,0 c 0.307,0.734 0.803,1.098 1.513,1.098 l 0,0 c 0.705,0 1.207,-0.364 1.513,-1.098 l 0,0 c 0.301,-0.734 0.439,-2.012 0.439,-3.829 l 0,0 c 0,-1.79 -0.149,-3.066 -0.439,-3.812 l 0,0 c -0.316,-0.751 -0.808,-1.121 -1.513,-1.121 l 0,0 c -0.71,0 -1.206,0.37 -1.513,1.121"
         id="path636" /></clipPath><linearGradient
       x1="0"
       y1="0"
       x2="1"
       y2="0"
       gradientUnits="userSpaceOnUse"
       gradientTransform="matrix(0,61.883099,61.883099,0,71.319016,112.32879)"
       spreadMethod="pad"
       id="linearGradient642"><stop
         style="stop-opacity:1;stop-color:#f7e029"
         offset="0"
         id="stop644" /><stop
         style="stop-opacity:1;stop-color:#807d65"
         offset="1"
         id="stop646" /></linearGradient><clipPath
       clipPathUnits="userSpaceOnUse"
       id="clipPath654"><path
         d="M 85.399,99.669 C 85.145,99.556 84.934,99.384 84.77,99.154 l 0,0 c -0.165,-0.238 -0.282,-0.515 -0.354,-0.842 l 0,0 c -0.072,-0.325 -0.108,-0.718 -0.108,-1.179 l 0,0 c 0,-0.446 0.039,-0.837 0.111,-1.17 l 0,0 c 0.074,-0.333 0.186,-0.616 0.343,-0.842 l 0,0 c 0.161,-0.232 0.37,-0.403 0.622,-0.518 l 0,0 c 0.255,-0.117 0.566,-0.172 0.929,-0.172 l 0,0 c 0.368,0 0.677,0.055 0.934,0.172 l 0,0 c 0.252,0.115 0.456,0.284 0.616,0.513 l 0,0 c 0.155,0.225 0.271,0.504 0.347,0.842 l 0,0 c 0.067,0.338 0.107,0.729 0.107,1.177 l 0,0 c 0,0.438 -0.04,0.824 -0.107,1.157 l 0,0 c -0.072,0.334 -0.188,0.617 -0.344,0.845 l 0,0 c -0.159,0.231 -0.363,0.407 -0.619,0.524 l 0,0 C 87,99.777 86.69,99.838 86.313,99.838 l 0,0 c -0.353,0 -0.658,-0.057 -0.914,-0.169 m 0.379,-3.883 c -0.108,0.265 -0.159,0.711 -0.159,1.342 l 0,0 c 0,0.649 0.051,1.102 0.159,1.362 l 0,0 c 0.109,0.259 0.284,0.389 0.535,0.389 l 0,0 c 0.25,0 0.427,-0.13 0.536,-0.389 l 0,0 c 0.106,-0.26 0.155,-0.712 0.155,-1.355 l 0,0 c 0,-0.633 -0.053,-1.084 -0.155,-1.349 l 0,0 C 86.737,95.52 86.563,95.389 86.313,95.389 l 0,0 c -0.251,0 -0.426,0.131 -0.535,0.397"
         id="path656" /></clipPath><linearGradient
       x1="0"
       y1="0"
       x2="1"
       y2="0"
       gradientUnits="userSpaceOnUse"
       gradientTransform="matrix(0,61.880779,61.880779,0,86.312622,112.32794)"
       spreadMethod="pad"
       id="linearGradient662"><stop
         style="stop-opacity:1;stop-color:#f7e029"
         offset="0"
         id="stop664" /><stop
         style="stop-opacity:1;stop-color:#807d65"
         offset="1"
         id="stop666" /></linearGradient><clipPath
       clipPathUnits="userSpaceOnUse"
       id="clipPath674"><path
         d="m 91.281,118.876 c -0.245,-0.106 -0.448,-0.271 -0.604,-0.493 l 0,0 c -0.159,-0.227 -0.271,-0.494 -0.339,-0.808 l 0,0 c -0.071,-0.311 -0.104,-0.688 -0.104,-1.131 l 0,0 c 0,-0.428 0.037,-0.803 0.105,-1.122 l 0,0 c 0.071,-0.319 0.179,-0.592 0.33,-0.808 l 0,0 c 0.155,-0.222 0.354,-0.387 0.595,-0.497 l 0,0 c 0.246,-0.112 0.544,-0.165 0.893,-0.165 l 0,0 c 0.353,0 0.649,0.053 0.896,0.165 l 0,0 c 0.242,0.11 0.438,0.272 0.591,0.492 l 0,0 c 0.149,0.216 0.26,0.483 0.333,0.808 l 0,0 c 0.064,0.324 0.102,0.699 0.102,1.129 l 0,0 c 0,0.42 -0.038,0.791 -0.102,1.11 l 0,0 c -0.069,0.322 -0.18,0.592 -0.33,0.811 l 0,0 c -0.153,0.222 -0.348,0.391 -0.594,0.502 l 0,0 c -0.237,0.112 -0.535,0.171 -0.896,0.171 l 0,0 c -0.339,0 -0.632,-0.055 -0.876,-0.164 m 0.362,-3.724 c -0.104,0.253 -0.153,0.683 -0.153,1.288 l 0,0 c 0,0.622 0.049,1.057 0.153,1.306 l 0,0 c 0.105,0.249 0.273,0.374 0.514,0.374 l 0,0 c 0.24,0 0.41,-0.125 0.514,-0.374 l 0,0 c 0.102,-0.249 0.149,-0.683 0.149,-1.3 l 0,0 c 0,-0.607 -0.051,-1.041 -0.149,-1.294 l 0,0 c -0.108,-0.255 -0.274,-0.38 -0.514,-0.38 l 0,0 c -0.241,0 -0.409,0.125 -0.514,0.38"
         id="path676" /></clipPath><linearGradient
       x1="0"
       y1="0"
       x2="1"
       y2="0"
       gradientUnits="userSpaceOnUse"
       gradientTransform="matrix(0,61.885193,61.885193,0,92.156418,112.32873)"
       spreadMethod="pad"
       id="linearGradient682"><stop
         style="stop-opacity:1;stop-color:#f7e029"
         offset="0"
         id="stop684" /><stop
         style="stop-opacity:1;stop-color:#807d65"
         offset="1"
         id="stop686" /></linearGradient><clipPath
       clipPathUnits="userSpaceOnUse"
       id="clipPath694"><path
         d="m 90.799,132.236 c -0.286,-0.125 -0.523,-0.319 -0.705,-0.578 l 0,0 c -0.186,-0.266 -0.317,-0.577 -0.397,-0.945 l 0,0 c -0.082,-0.363 -0.122,-0.804 -0.122,-1.322 l 0,0 c 0,-0.499 0.043,-0.939 0.124,-1.311 l 0,0 c 0.082,-0.374 0.209,-0.693 0.386,-0.946 l 0,0 c 0.181,-0.259 0.414,-0.453 0.696,-0.581 l 0,0 c 0.286,-0.131 0.636,-0.193 1.043,-0.193 l 0,0 c 0.413,0 0.759,0.062 1.048,0.193 l 0,0 c 0.282,0.128 0.512,0.318 0.691,0.576 l 0,0 c 0.174,0.253 0.304,0.565 0.389,0.945 l 0,0 c 0.075,0.378 0.12,0.818 0.12,1.319 l 0,0 c 0,0.491 -0.045,0.925 -0.12,1.299 l 0,0 c -0.08,0.375 -0.211,0.692 -0.385,0.947 l 0,0 c -0.179,0.26 -0.408,0.458 -0.695,0.588 l 0,0 c -0.277,0.131 -0.626,0.2 -1.048,0.2 l 0,0 c -0.396,0 -0.739,-0.064 -1.025,-0.191 m 0.424,-4.355 c -0.12,0.296 -0.178,0.797 -0.178,1.505 l 0,0 c 0,0.728 0.058,1.236 0.178,1.527 l 0,0 c 0.123,0.293 0.32,0.437 0.601,0.437 l 0,0 c 0.28,0 0.479,-0.144 0.601,-0.437 l 0,0 c 0.119,-0.291 0.174,-0.797 0.174,-1.52 l 0,0 c 0,-0.71 -0.059,-1.216 -0.174,-1.512 l 0,0 c -0.126,-0.3 -0.321,-0.445 -0.601,-0.445 l 0,0 c -0.281,0 -0.478,0.145 -0.601,0.445"
         id="path696" /></clipPath><linearGradient
       x1="0"
       y1="0"
       x2="1"
       y2="0"
       gradientUnits="userSpaceOnUse"
       gradientTransform="matrix(0,61.884815,61.884815,0,91.823563,112.32848)"
       spreadMethod="pad"
       id="linearGradient702"><stop
         style="stop-opacity:1;stop-color:#f7e029"
         offset="0"
         id="stop704" /><stop
         style="stop-opacity:1;stop-color:#807d65"
         offset="1"
         id="stop706" /></linearGradient><clipPath
       clipPathUnits="userSpaceOnUse"
       id="clipPath714"><path
         d="m 80.086,131.438 c -0.167,-0.074 -0.305,-0.187 -0.413,-0.339 l 0,0 c -0.108,-0.154 -0.184,-0.336 -0.231,-0.55 l 0,0 c -0.048,-0.214 -0.071,-0.471 -0.071,-0.773 l 0,0 c 0,-0.292 0.025,-0.549 0.072,-0.766 l 0,0 c 0.049,-0.218 0.122,-0.404 0.225,-0.552 l 0,0 c 0.106,-0.151 0.242,-0.264 0.407,-0.339 l 0,0 c 0.167,-0.077 0.372,-0.113 0.609,-0.113 l 0,0 c 0.241,0 0.444,0.036 0.612,0.113 l 0,0 c 0.165,0.075 0.299,0.185 0.403,0.336 l 0,0 c 0.102,0.147 0.179,0.33 0.228,0.551 l 0,0 c 0.043,0.221 0.069,0.478 0.069,0.771 l 0,0 c 0,0.287 -0.026,0.54 -0.069,0.758 l 0,0 c -0.047,0.22 -0.123,0.405 -0.225,0.554 l 0,0 c -0.105,0.152 -0.238,0.267 -0.406,0.343 l 0,0 c -0.162,0.076 -0.365,0.116 -0.612,0.116 l 0,0 c -0.231,0 -0.431,-0.036 -0.598,-0.11 m 0.248,-2.544 c -0.071,0.173 -0.104,0.466 -0.104,0.879 l 0,0 c 0,0.425 0.033,0.722 0.104,0.892 l 0,0 c 0.071,0.171 0.185,0.254 0.35,0.254 l 0,0 c 0.164,0 0.28,-0.083 0.351,-0.254 l 0,0 c 0.069,-0.17 0.102,-0.466 0.102,-0.888 l 0,0 c 0,-0.415 -0.035,-0.71 -0.102,-0.883 l 0,0 c -0.074,-0.175 -0.187,-0.26 -0.351,-0.26 l 0,0 c -0.165,0 -0.279,0.085 -0.35,0.26"
         id="path716" /></clipPath><linearGradient
       x1="0"
       y1="0"
       x2="1"
       y2="0"
       gradientUnits="userSpaceOnUse"
       gradientTransform="matrix(0,61.885128,61.885128,0,80.683868,112.3284)"
       spreadMethod="pad"
       id="linearGradient722"><stop
         style="stop-opacity:1;stop-color:#f7e029"
         offset="0"
         id="stop724" /><stop
         style="stop-opacity:1;stop-color:#807d65"
         offset="1"
         id="stop726" /></linearGradient><clipPath
       clipPathUnits="userSpaceOnUse"
       id="clipPath734"><path
         d="m 100.959,120.031 c -0.09,-0.039 -0.164,-0.101 -0.222,-0.183 l 0,0 c -0.059,-0.083 -0.1,-0.181 -0.126,-0.297 l 0,0 c -0.025,-0.116 -0.038,-0.254 -0.038,-0.418 l 0,0 c 0,-0.157 0.014,-0.296 0.04,-0.414 l 0,0 c 0.026,-0.118 0.065,-0.218 0.12,-0.298 l 0,0 c 0.058,-0.082 0.132,-0.143 0.22,-0.183 l 0,0 c 0.091,-0.041 0.202,-0.061 0.33,-0.061 l 0,0 c 0.13,0 0.24,0.02 0.331,0.061 l 0,0 c 0.089,0.04 0.161,0.1 0.217,0.182 l 0,0 c 0.055,0.079 0.097,0.178 0.123,0.297 l 0,0 c 0.024,0.12 0.039,0.259 0.039,0.417 l 0,0 c 0,0.155 -0.015,0.292 -0.039,0.409 l 0,0 c -0.025,0.119 -0.066,0.219 -0.122,0.3 l 0,0 c -0.055,0.082 -0.128,0.144 -0.218,0.186 l 0,0 c -0.088,0.04 -0.198,0.063 -0.331,0.063 l 0,0 c -0.126,0 -0.233,-0.02 -0.324,-0.061 m 0.134,-1.374 c -0.038,0.094 -0.056,0.251 -0.056,0.474 l 0,0 c 0,0.231 0.018,0.391 0.056,0.483 l 0,0 c 0.039,0.092 0.101,0.137 0.19,0.137 l 0,0 c 0.089,0 0.152,-0.045 0.189,-0.137 l 0,0 c 0.038,-0.092 0.055,-0.251 0.055,-0.48 l 0,0 c 0,-0.224 -0.018,-0.383 -0.055,-0.477 l 0,0 c -0.039,-0.095 -0.1,-0.14 -0.189,-0.14 l 0,0 c -0.089,0 -0.151,0.045 -0.19,0.14"
         id="path736" /></clipPath><linearGradient
       x1="0"
       y1="0"
       x2="1"
       y2="0"
       gradientUnits="userSpaceOnUse"
       gradientTransform="matrix(0,61.874962,61.874962,0,101.28267,112.32986)"
       spreadMethod="pad"
       id="linearGradient742"><stop
         style="stop-opacity:1;stop-color:#f7e029"
         offset="0"
         id="stop744" /><stop
         style="stop-opacity:1;stop-color:#807d65"
         offset="1"
         id="stop746" /></linearGradient><clipPath
       clipPathUnits="userSpaceOnUse"
       id="clipPath754"><path
         d="m 70.095,144.952 c -0.103,-0.045 -0.187,-0.113 -0.253,-0.207 l 0,0 c -0.067,-0.094 -0.114,-0.205 -0.141,-0.337 l 0,0 c -0.03,-0.13 -0.045,-0.287 -0.045,-0.473 l 0,0 c 0,-0.178 0.017,-0.335 0.045,-0.469 l 0,0 c 0.029,-0.134 0.074,-0.247 0.138,-0.338 l 0,0 c 0.065,-0.093 0.149,-0.162 0.249,-0.208 l 0,0 c 0.102,-0.047 0.227,-0.069 0.373,-0.069 l 0,0 c 0.148,0 0.272,0.022 0.375,0.069 l 0,0 c 0.101,0.046 0.183,0.114 0.246,0.205 l 0,0 c 0.063,0.091 0.11,0.203 0.14,0.339 l 0,0 c 0.027,0.136 0.043,0.293 0.043,0.472 l 0,0 c 0,0.175 -0.016,0.33 -0.043,0.464 l 0,0 c -0.028,0.135 -0.075,0.248 -0.137,0.339 l 0,0 c -0.065,0.093 -0.147,0.164 -0.249,0.21 l 0,0 c -0.1,0.047 -0.224,0.072 -0.375,0.072 l 0,0 c -0.142,0 -0.264,-0.024 -0.366,-0.069 m 0.151,-1.558 c -0.043,0.106 -0.064,0.286 -0.064,0.538 l 0,0 c 0,0.261 0.021,0.443 0.064,0.548 l 0,0 c 0.044,0.103 0.114,0.154 0.215,0.154 l 0,0 c 0.1,0 0.172,-0.051 0.215,-0.154 l 0,0 c 0.042,-0.105 0.062,-0.287 0.062,-0.544 l 0,0 c 0,-0.255 -0.021,-0.436 -0.062,-0.542 l 0,0 c -0.045,-0.106 -0.115,-0.158 -0.215,-0.158 l 0,0 c -0.101,0 -0.171,0.052 -0.215,0.158"
         id="path756" /></clipPath><linearGradient
       x1="0"
       y1="0"
       x2="1"
       y2="0"
       gradientUnits="userSpaceOnUse"
       gradientTransform="matrix(0,61.880951,61.880951,0,70.46077,112.33012)"
       spreadMethod="pad"
       id="linearGradient762"><stop
         style="stop-opacity:1;stop-color:#f7e029"
         offset="0"
         id="stop764" /><stop
         style="stop-opacity:1;stop-color:#807d65"
         offset="1"
         id="stop766" /></linearGradient><clipPath
       clipPathUnits="userSpaceOnUse"
       id="clipPath774"><path
         d="m 69.321,155.001 c -0.258,-0.117 -0.468,-0.292 -0.636,-0.524 l 0,0 c -0.169,-0.24 -0.29,-0.528 -0.364,-0.858 l 0,0 c -0.069,-0.331 -0.106,-0.733 -0.106,-1.201 l 0,0 c 0,-0.454 0.037,-0.854 0.11,-1.192 l 0,0 c 0.074,-0.341 0.191,-0.624 0.351,-0.86 l 0,0 c 0.161,-0.233 0.377,-0.409 0.632,-0.525 l 0,0 c 0.263,-0.12 0.579,-0.176 0.947,-0.176 l 0,0 c 0.37,0 0.691,0.056 0.948,0.176 l 0,0 c 0.26,0.116 0.466,0.29 0.63,0.52 l 0,0 c 0.16,0.231 0.275,0.515 0.348,0.861 l 0,0 c 0.078,0.341 0.112,0.742 0.112,1.2 l 0,0 c 0,0.442 -0.034,0.836 -0.109,1.177 l 0,0 c -0.071,0.338 -0.187,0.626 -0.351,0.858 l 0,0 c -0.16,0.24 -0.37,0.414 -0.625,0.536 l 0,0 c -0.253,0.121 -0.573,0.177 -0.953,0.177 l 0,0 c -0.361,0 -0.672,-0.056 -0.934,-0.169 m 0.389,-3.959 c -0.11,0.273 -0.164,0.729 -0.164,1.371 l 0,0 c 0,0.66 0.054,1.12 0.164,1.387 l 0,0 c 0.11,0.263 0.289,0.395 0.545,0.395 l 0,0 c 0.256,0 0.436,-0.132 0.546,-0.395 l 0,0 c 0.108,-0.267 0.157,-0.725 0.157,-1.378 l 0,0 c 0,-0.649 -0.052,-1.107 -0.157,-1.38 l 0,0 c -0.11,-0.267 -0.294,-0.401 -0.546,-0.401 l 0,0 c -0.256,0 -0.435,0.134 -0.545,0.401"
         id="path776" /></clipPath><linearGradient
       x1="0"
       y1="0"
       x2="1"
       y2="0"
       gradientUnits="userSpaceOnUse"
       gradientTransform="matrix(0,61.885345,61.885345,0,70.254349,112.32766)"
       spreadMethod="pad"
       id="linearGradient782"><stop
         style="stop-opacity:1;stop-color:#f7e029"
         offset="0"
         id="stop784" /><stop
         style="stop-opacity:1;stop-color:#807d65"
         offset="1"
         id="stop786" /></linearGradient><clipPath
       clipPathUnits="userSpaceOnUse"
       id="clipPath794"><path
         d="m 81.681,158.171 c -0.362,-0.157 -0.654,-0.4 -0.884,-0.724 l 0,0 c -0.228,-0.33 -0.397,-0.723 -0.493,-1.176 l 0,0 c -0.1,-0.459 -0.149,-1.013 -0.149,-1.657 l 0,0 c 0,-0.625 0.049,-1.174 0.149,-1.643 l 0,0 c 0.1,-0.468 0.265,-0.862 0.485,-1.181 l 0,0 c 0.224,-0.324 0.518,-0.568 0.872,-0.728 l 0,0 c 0.354,-0.162 0.788,-0.242 1.3,-0.242 l 0,0 c 0.517,0 0.951,0.08 1.309,0.242 l 0,0 c 0.355,0.16 0.642,0.399 0.863,0.719 l 0,0 c 0.225,0.315 0.384,0.711 0.488,1.184 l 0,0 c 0.102,0.472 0.154,1.024 0.154,1.653 l 0,0 c 0,0.61 -0.052,1.15 -0.153,1.621 l 0,0 c -0.099,0.468 -0.259,0.868 -0.479,1.182 l 0,0 c -0.231,0.331 -0.518,0.573 -0.863,0.74 l 0,0 c -0.353,0.166 -0.795,0.247 -1.319,0.247 l 0,0 c -0.495,0 -0.924,-0.081 -1.28,-0.237 m 0.535,-5.449 c -0.152,0.37 -0.228,1 -0.228,1.887 l 0,0 c 0,0.907 0.076,1.542 0.228,1.906 l 0,0 c 0.144,0.366 0.397,0.545 0.745,0.545 l 0,0 c 0.353,0 0.606,-0.179 0.75,-0.545 l 0,0 c 0.152,-0.364 0.226,-0.994 0.226,-1.897 l 0,0 c 0,-0.893 -0.074,-1.526 -0.226,-1.896 l 0,0 c -0.15,-0.371 -0.397,-0.555 -0.75,-0.555 l 0,0 c -0.348,0 -0.601,0.184 -0.745,0.555"
         id="path796" /></clipPath><linearGradient
       x1="0"
       y1="0"
       x2="1"
       y2="0"
       gradientUnits="userSpaceOnUse"
       gradientTransform="matrix(0,61.883846,61.883846,0,82.964653,112.32878)"
       spreadMethod="pad"
       id="linearGradient802"><stop
         style="stop-opacity:1;stop-color:#f7e029"
         offset="0"
         id="stop804" /><stop
         style="stop-opacity:1;stop-color:#807d65"
         offset="1"
         id="stop806" /></linearGradient><clipPath
       clipPathUnits="userSpaceOnUse"
       id="clipPath814"><path
         d="m 97.655,150.903 c -0.341,-0.152 -0.622,-0.383 -0.84,-0.691 l 0,0 c -0.219,-0.312 -0.381,-0.69 -0.476,-1.125 l 0,0 c -0.09,-0.434 -0.142,-0.961 -0.142,-1.579 l 0,0 c 0,-0.596 0.052,-1.12 0.147,-1.566 l 0,0 c 0.095,-0.449 0.252,-0.823 0.463,-1.129 l 0,0 c 0.213,-0.308 0.493,-0.54 0.831,-0.692 l 0,0 c 0.338,-0.155 0.755,-0.234 1.243,-0.234 l 0,0 c 0.493,0 0.907,0.079 1.245,0.234 l 0,0 c 0.343,0.152 0.617,0.379 0.829,0.681 l 0,0 c 0.21,0.301 0.367,0.681 0.462,1.13 l 0,0 c 0.096,0.454 0.145,0.98 0.145,1.581 l 0,0 c 0,0.584 -0.044,1.098 -0.139,1.547 l 0,0 c -0.098,0.448 -0.256,0.825 -0.464,1.132 l 0,0 c -0.216,0.311 -0.49,0.542 -0.823,0.701 l 0,0 c -0.336,0.157 -0.755,0.235 -1.255,0.235 l 0,0 c -0.473,0 -0.88,-0.076 -1.226,-0.225 m 0.508,-5.204 c -0.14,0.356 -0.216,0.959 -0.216,1.805 l 0,0 c 0,0.865 0.076,1.472 0.216,1.818 l 0,0 c 0.147,0.348 0.387,0.519 0.718,0.519 l 0,0 c 0.335,0 0.573,-0.171 0.713,-0.519 l 0,0 c 0.145,-0.346 0.216,-0.951 0.216,-1.809 l 0,0 c 0,-0.853 -0.071,-1.458 -0.216,-1.814 l 0,0 c -0.145,-0.348 -0.382,-0.524 -0.713,-0.524 l 0,0 c -0.331,0 -0.571,0.176 -0.718,0.524"
         id="path816" /></clipPath><linearGradient
       x1="0"
       y1="0"
       x2="1"
       y2="0"
       gradientUnits="userSpaceOnUse"
       gradientTransform="matrix(0,61.884777,61.884777,0,98.879242,112.32819)"
       spreadMethod="pad"
       id="linearGradient822"><stop
         style="stop-opacity:1;stop-color:#f7e029"
         offset="0"
         id="stop824" /><stop
         style="stop-opacity:1;stop-color:#807d65"
         offset="1"
         id="stop826" /></linearGradient><clipPath
       clipPathUnits="userSpaceOnUse"
       id="clipPath834"><path
         d="m 98.719,106.707 c -0.474,-0.213 -0.866,-0.533 -1.17,-0.963 l 0,0 c -0.303,-0.432 -0.528,-0.957 -0.66,-1.564 l 0,0 c -0.126,-0.603 -0.198,-1.337 -0.198,-2.196 l 0,0 c 0,-0.829 0.072,-1.558 0.204,-2.179 l 0,0 c 0.133,-0.624 0.351,-1.145 0.644,-1.572 l 0,0 c 0.297,-0.426 0.686,-0.75 1.157,-0.962 l 0,0 c 0.47,-0.214 1.049,-0.323 1.729,-0.323 l 0,0 c 0.685,0 1.261,0.109 1.731,0.323 l 0,0 c 0.477,0.212 0.86,0.529 1.153,0.949 l 0,0 c 0.293,0.419 0.511,0.948 0.645,1.571 l 0,0 c 0.132,0.631 0.2,1.364 0.2,2.199 l 0,0 c 0,0.812 -0.061,1.527 -0.194,2.153 l 0,0 c -0.137,0.622 -0.355,1.148 -0.644,1.574 l 0,0 c -0.3,0.433 -0.683,0.753 -1.146,0.975 l 0,0 c -0.467,0.218 -1.05,0.328 -1.745,0.328 l 0,0 c -0.659,0 -1.225,-0.105 -1.706,-0.313 m 0.706,-7.239 c -0.195,0.494 -0.3,1.333 -0.3,2.51 l 0,0 c 0,1.202 0.105,2.048 0.3,2.529 l 0,0 c 0.205,0.484 0.539,0.723 1,0.723 l 0,0 c 0.466,0 0.797,-0.239 0.992,-0.723 l 0,0 c 0.2,-0.481 0.3,-1.323 0.3,-2.517 l 0,0 c 0,-1.185 -0.1,-2.028 -0.3,-2.522 l 0,0 c -0.202,-0.484 -0.532,-0.731 -0.992,-0.731 l 0,0 c -0.461,0 -0.795,0.247 -1,0.731"
         id="path836" /></clipPath><linearGradient
       x1="0"
       y1="0"
       x2="1"
       y2="0"
       gradientUnits="userSpaceOnUse"
       gradientTransform="matrix(0,61.882187,61.882187,0,100.42213,112.32847)"
       spreadMethod="pad"
       id="linearGradient842"><stop
         style="stop-opacity:1;stop-color:#f7e029"
         offset="0"
         id="stop844" /><stop
         style="stop-opacity:1;stop-color:#807d65"
         offset="1"
         id="stop846" /></linearGradient></defs><sodipodi:namedview
     pagecolor="#ffffff"
     bordercolor="#666666"
     borderopacity="1"
     objecttolerance="10"
     gridtolerance="10"
     guidetolerance="10"
     inkscape:pageopacity="0"
     inkscape:pageshadow="2"
     inkscape:window-width="640"
     inkscape:window-height="480"
     id="namedview4"
     showgrid="false"
     inkscape:zoom="0.91735091"
     inkscape:cx="250"
     inkscape:cy="128.63126"
     inkscape:window-x="53"
     inkscape:window-y="24"
     inkscape:window-maximized="0"
     inkscape:current-layer="g10" /><g
     id="g10"
     inkscape:groupmode="layer"
     inkscape:label="Digital Alchemy Logo_CMYK_tagline"
     transform="matrix(1.25,0,0,-1.25,0,257.2625)"><path
       d="m 0,0.637 400,0 0,205 -400,0 0,-205 z"
       style="fill:#ffffff;fill-opacity:1;fill-rule:nonzero;stroke:none"
       id="path12" /><g
       id="g14"
       transform="translate(33.1277,50.1624)"><path
         d="m 0,0 0,1.918 13.695,0 0,-1.918 -5.708,0 0,-15.208 -2.279,0 L 5.708,0 0,0 z"
         style="fill:#a6a5a8;fill-opacity:1;fill-rule:nonzero;stroke:none"
         id="path16" /></g><g
       id="g18"><g
         id="g20"
         clip-path="url(#clipPath22)"><g
           id="g26"
           transform="translate(57.2559,44.308)"><path
             d="m 0,0 c 0.48,0.08 0.9,0.235 1.26,0.468 0.359,0.231 0.648,0.541 0.864,0.937 0.215,0.39 0.324,0.896 0.324,1.522 0,0.861 -0.241,1.567 -0.72,2.111 -0.48,0.541 -1.256,0.816 -2.327,0.816 l -5.66,0 0,-5.974 4.748,0 c 0.529,0 1.032,0.04 1.511,0.12 m -0.479,7.772 c 1.631,0 2.905,-0.402 3.826,-1.2 C 4.266,5.772 4.725,4.678 4.725,3.287 4.725,2.247 4.49,1.336 4.018,0.551 3.546,-0.231 2.791,-0.767 1.752,-1.054 l 0,-0.05 c 0.495,-0.096 0.9,-0.254 1.211,-0.477 0.313,-0.224 0.56,-0.492 0.743,-0.805 0.184,-0.313 0.321,-0.659 0.409,-1.043 0.088,-0.385 0.156,-0.786 0.203,-1.2 0.032,-0.414 0.057,-0.84 0.072,-1.271 0.016,-0.433 0.056,-0.854 0.12,-1.273 0.064,-0.414 0.155,-0.809 0.275,-1.186 0.122,-0.376 0.302,-0.708 0.54,-0.995 l -2.541,0 C 2.624,-9.177 2.516,-8.94 2.46,-8.636 2.403,-8.33 2.367,-7.991 2.351,-7.615 2.336,-7.241 2.319,-6.834 2.303,-6.403 2.287,-5.973 2.239,-5.549 2.159,-5.132 2.096,-4.716 2.016,-4.32 1.92,-3.946 1.824,-3.57 1.671,-3.24 1.464,-2.963 c -0.209,0.28 -0.479,0.504 -0.816,0.671 -0.335,0.172 -0.783,0.254 -1.343,0.254 l -5.564,0 0,-7.316 -2.278,0 0,17.126 8.058,0 z"
             style="fill:#a6a5a8;fill-opacity:1;fill-rule:nonzero;stroke:none"
             id="path28" /></g><g
           id="g30"
           transform="translate(73.9021,42.0277)"><path
             d="m 0,0 -2.854,7.989 -0.047,0 L -5.805,0 0,0 z m -1.584,10.053 6.693,-17.127 -2.518,0 -1.872,5.156 -7.243,0 -1.919,-5.156 -2.326,0 6.668,17.127 2.517,0 z"
             style="fill:#a6a5a8;fill-opacity:1;fill-rule:nonzero;stroke:none"
             id="path32" /></g><g
           id="g34"
           transform="translate(83.0889,52.0802)"><path
             d="m 0,0 9.019,-13.888 0.048,0 0,13.888 2.159,0 0,-17.126 -2.494,0 -8.947,13.745 -0.048,0 0,-13.745 -2.159,0 L -2.422,0 0,0 z"
             style="fill:#a6a5a8;fill-opacity:1;fill-rule:nonzero;stroke:none"
             id="path36" /></g><g
           id="g38"
           transform="translate(106.5817,49.7412)"><path
             d="m 0,0 c -0.759,0.553 -1.731,0.828 -2.913,0.828 -0.48,0 -0.952,-0.049 -1.415,-0.143 -0.464,-0.097 -0.876,-0.257 -1.236,-0.483 -0.36,-0.223 -0.647,-0.522 -0.863,-0.898 -0.217,-0.375 -0.324,-0.845 -0.324,-1.403 0,-0.527 0.155,-0.955 0.468,-1.282 0.311,-0.33 0.727,-0.596 1.246,-0.803 0.52,-0.209 1.109,-0.383 1.764,-0.517 0.655,-0.137 1.322,-0.285 2.002,-0.445 0.68,-0.158 1.348,-0.346 2.003,-0.563 0.655,-0.214 1.244,-0.508 1.764,-0.875 0.518,-0.367 0.935,-0.831 1.246,-1.393 0.313,-0.558 0.468,-1.264 0.468,-2.109 0,-0.913 -0.204,-1.692 -0.612,-2.339 -0.407,-0.647 -0.931,-1.174 -1.571,-1.583 -0.64,-0.407 -1.354,-0.704 -2.147,-0.887 -0.792,-0.184 -1.579,-0.276 -2.362,-0.276 -0.959,0 -1.866,0.12 -2.722,0.36 -0.855,0.24 -1.607,0.603 -2.256,1.092 -0.647,0.487 -1.158,1.108 -1.534,1.871 -0.375,0.758 -0.565,1.659 -0.565,2.699 l 2.159,0 c 0,-0.722 0.142,-1.341 0.421,-1.861 0.28,-0.52 0.648,-0.946 1.103,-1.283 0.456,-0.336 0.987,-0.583 1.595,-0.743 0.608,-0.16 1.231,-0.24 1.871,-0.24 0.511,0 1.028,0.049 1.546,0.143 0.521,0.097 0.989,0.259 1.404,0.492 0.417,0.231 0.752,0.548 1.008,0.948 0.256,0.398 0.383,0.913 0.383,1.534 0,0.591 -0.155,1.073 -0.467,1.441 -0.312,0.367 -0.727,0.665 -1.247,0.898 -0.52,0.231 -1.108,0.422 -1.763,0.565 -0.656,0.144 -1.324,0.292 -2.004,0.443 -0.68,0.153 -1.347,0.327 -2.001,0.527 -0.656,0.2 -1.245,0.466 -1.765,0.793 -0.519,0.327 -0.934,0.751 -1.246,1.271 -0.313,0.52 -0.468,1.169 -0.468,1.955 0,0.861 0.175,1.61 0.528,2.24 0.351,0.633 0.819,1.153 1.404,1.56 0.582,0.407 1.246,0.713 1.989,0.913 0.744,0.2 1.508,0.299 2.291,0.299 0.879,0 1.694,-0.103 2.446,-0.31 C 0.38,2.226 1.04,1.897 1.607,1.45 2.174,1.003 2.623,0.44 2.951,-0.24 3.279,-0.92 3.458,-1.732 3.491,-2.673 l -2.159,0 C 1.204,-1.445 0.76,-0.551 0,0"
             style="fill:#a6a5a8;fill-opacity:1;fill-rule:nonzero;stroke:none"
             id="path40" /></g><g
           id="g42"
           transform="translate(124.8,52.0802)"><path
             d="m 0,0 0,-1.918 -8.972,0 0,-5.447 7.867,0 0,-1.918 -7.867,0 0,-7.843 -2.279,0 0,17.126 L 0,0 z"
             style="fill:#a6a5a8;fill-opacity:1;fill-rule:nonzero;stroke:none"
             id="path44" /></g><g
           id="g46"
           transform="translate(128.972,40.9641)"><path
             d="m 0,0 c 0.224,-0.842 0.577,-1.595 1.055,-2.268 0.48,-0.671 1.096,-1.21 1.846,-1.619 0.753,-0.408 1.648,-0.612 2.688,-0.612 1.039,0 1.934,0.204 2.686,0.612 0.752,0.409 1.367,0.948 1.846,1.619 0.48,0.673 0.833,1.426 1.057,2.268 0.223,0.838 0.335,1.689 0.335,2.551 0,0.866 -0.112,1.715 -0.335,2.555 -0.224,0.84 -0.577,1.596 -1.057,2.266 C 9.642,8.045 9.027,8.584 8.275,8.991 7.523,9.401 6.628,9.606 5.589,9.606 4.549,9.606 3.654,9.401 2.901,8.991 2.151,8.584 1.535,8.045 1.055,7.372 0.577,6.702 0.224,5.946 0,5.106 -0.225,4.266 -0.336,3.417 -0.336,2.551 -0.336,1.689 -0.225,0.838 0,0 m -2.099,5.923 c 0.345,1.077 0.859,2.035 1.547,2.866 0.687,0.831 1.544,1.494 2.566,1.988 1.024,0.499 2.216,0.746 3.575,0.746 1.358,0 2.55,-0.247 3.573,-0.746 1.024,-0.494 1.88,-1.157 2.567,-1.988 C 12.415,7.958 12.932,7 13.277,5.923 13.62,4.843 13.792,3.72 13.792,2.551 c 0,-1.165 -0.172,-2.29 -0.515,-3.37 -0.345,-1.078 -0.862,-2.033 -1.548,-2.866 -0.687,-0.831 -1.543,-1.49 -2.567,-1.977 -1.023,-0.487 -2.215,-0.732 -3.573,-0.732 -1.359,0 -2.551,0.245 -3.575,0.732 -1.022,0.487 -1.879,1.146 -2.566,1.977 -0.688,0.833 -1.202,1.788 -1.547,2.866 -0.343,1.08 -0.515,2.205 -0.515,3.37 0,1.169 0.172,2.292 0.515,3.372"
             style="fill:#a6a5a8;fill-opacity:1;fill-rule:nonzero;stroke:none"
             id="path48" /></g><g
           id="g50"
           transform="translate(154.085,44.308)"><path
             d="m 0,0 c 0.479,0.08 0.9,0.235 1.259,0.468 0.36,0.231 0.648,0.541 0.864,0.937 0.215,0.39 0.324,0.896 0.324,1.522 0,0.861 -0.241,1.567 -0.72,2.111 C 1.247,5.579 0.471,5.854 -0.6,5.854 l -5.659,0 0,-5.974 4.747,0 C -0.984,-0.12 -0.48,-0.08 0,0 m -0.48,7.772 c 1.631,0 2.905,-0.402 3.826,-1.2 C 4.265,5.772 4.725,4.678 4.725,3.287 4.725,2.247 4.489,1.336 4.018,0.551 3.545,-0.231 2.79,-0.767 1.751,-1.054 l 0,-0.05 c 0.495,-0.096 0.9,-0.254 1.21,-0.477 0.313,-0.224 0.56,-0.492 0.744,-0.805 0.184,-0.313 0.321,-0.659 0.408,-1.043 0.089,-0.385 0.157,-0.786 0.204,-1.2 0.032,-0.414 0.056,-0.84 0.072,-1.271 0.016,-0.433 0.056,-0.854 0.12,-1.273 0.063,-0.414 0.155,-0.809 0.275,-1.186 0.121,-0.376 0.301,-0.708 0.54,-0.995 l -2.541,0 C 2.623,-9.177 2.514,-8.94 2.459,-8.636 2.401,-8.33 2.367,-7.991 2.35,-7.615 2.334,-7.241 2.318,-6.834 2.301,-6.403 2.286,-5.973 2.238,-5.549 2.158,-5.132 2.094,-4.716 2.014,-4.32 1.919,-3.946 1.823,-3.57 1.671,-3.24 1.462,-2.963 c -0.208,0.28 -0.478,0.504 -0.815,0.671 -0.335,0.172 -0.783,0.254 -1.343,0.254 l -5.563,0 0,-7.316 -2.279,0 0,17.126 8.058,0 z"
             style="fill:#a6a5a8;fill-opacity:1;fill-rule:nonzero;stroke:none"
             id="path52" /></g><g
           id="g54"
           transform="translate(165.1426,52.0802)"><path
             d="M 0,0 5.397,-14.392 10.817,0 l 3.118,0 0,-17.126 -2.159,0 0,14.248 -0.047,0 -5.35,-14.248 -1.942,0 -5.349,14.248 -0.048,0 0,-14.248 -2.158,0 L -3.118,0 0,0 z"
             style="fill:#a6a5a8;fill-opacity:1;fill-rule:nonzero;stroke:none"
             id="path56" /></g><path
           d="m 185.242,34.954 -2.279,0 0,17.126 2.279,0 0,-17.126 z"
           style="fill:#a6a5a8;fill-opacity:1;fill-rule:nonzero;stroke:none"
           id="path58" /><g
           id="g60"
           transform="translate(191.478,52.0802)"><path
             d="m 0,0 9.019,-13.888 0.048,0 0,13.888 2.159,0 0,-17.126 -2.495,0 -8.948,13.745 -0.048,0 0,-13.745 -2.158,0 L -2.423,0 0,0 z"
             style="fill:#a6a5a8;fill-opacity:1;fill-rule:nonzero;stroke:none"
             id="path62" /></g><g
           id="g64"
           transform="translate(216.712,35.1588)"><path
             d="m 0,0 c -0.991,-0.393 -1.991,-0.588 -2.998,-0.588 -1.282,0 -2.424,0.235 -3.431,0.706 -1.009,0.47 -1.864,1.108 -2.565,1.908 -0.706,0.8 -1.242,1.718 -1.609,2.758 -0.367,1.04 -0.551,2.118 -0.551,3.238 0,1.247 0.172,2.435 0.515,3.56 0.344,1.13 0.855,2.118 1.537,2.963 0.678,0.849 1.527,1.525 2.542,2.028 1.016,0.504 2.2,0.756 3.562,0.756 0.927,0 1.8,-0.109 2.624,-0.323 0.826,-0.216 1.56,-0.557 2.207,-1.021 0.65,-0.464 1.193,-1.052 1.631,-1.763 0.442,-0.71 0.739,-1.571 0.899,-2.579 l -2.276,0 c -0.113,0.657 -0.32,1.219 -0.626,1.692 -0.303,0.471 -0.68,0.859 -1.127,1.163 -0.447,0.303 -0.957,0.532 -1.522,0.685 -0.565,0.15 -1.174,0.228 -1.81,0.228 -1.042,0 -1.932,-0.21 -2.678,-0.626 -0.739,-0.414 -1.348,-0.963 -1.819,-1.643 -0.47,-0.68 -0.821,-1.456 -1.047,-2.325 -0.221,-0.873 -0.334,-1.762 -0.334,-2.675 0,-0.894 0.127,-1.755 0.381,-2.577 0.259,-0.826 0.633,-1.551 1.132,-2.184 0.494,-0.633 1.108,-1.136 1.833,-1.513 0.727,-0.374 1.57,-0.562 2.532,-0.562 0.894,0 1.687,0.143 2.375,0.431 0.684,0.289 1.263,0.684 1.738,1.188 0.473,0.503 0.826,1.096 1.066,1.774 0.24,0.68 0.344,1.412 0.311,2.196 l -5.466,0 0,1.92 7.509,0 0,-9.02 -1.443,0 -0.6,2.135 C 1.824,1.035 0.988,0.391 0,0"
             style="fill:#a6a5a8;fill-opacity:1;fill-rule:nonzero;stroke:none"
             id="path66" /></g><g
           id="g68"
           transform="translate(234.4361,52.0802)"><path
             d="M 0,0 5.396,-14.392 10.82,0 l 3.118,0 0,-17.126 -2.16,0 0,14.248 -0.05,0 -5.346,-14.248 -1.944,0 -5.349,14.248 -0.049,0 0,-14.248 -2.158,0 L -3.118,0 0,0 z"
             style="fill:#a6a5a8;fill-opacity:1;fill-rule:nonzero;stroke:none"
             id="path70" /></g><g
           id="g72"
           transform="translate(260.9164,42.0277)"><path
             d="m 0,0 -2.854,7.989 -0.05,0 L -5.805,0 0,0 z m -1.584,10.053 6.693,-17.127 -2.521,0 -1.87,5.156 -7.246,0 -1.918,-5.156 -2.325,0 6.667,17.127 2.52,0 z"
             style="fill:#a6a5a8;fill-opacity:1;fill-rule:nonzero;stroke:none"
             id="path74" /></g><g
           id="g76"
           transform="translate(276.24,44.308)"><path
             d="m 0,0 c 0.482,0.08 0.901,0.235 1.259,0.468 0.36,0.231 0.647,0.541 0.866,0.937 0.216,0.39 0.322,0.896 0.322,1.522 0,0.861 -0.237,1.567 -0.72,2.111 -0.48,0.541 -1.254,0.816 -2.325,0.816 l -5.661,0 0,-5.974 4.748,0 c 0.53,0 1.033,0.04 1.511,0.12 m -0.478,7.772 c 1.631,0 2.907,-0.402 3.824,-1.2 C 4.267,5.772 4.725,4.678 4.725,3.287 4.725,2.247 4.49,1.336 4.019,0.551 3.546,-0.231 2.791,-0.767 1.751,-1.054 l 0,-0.05 c 0.496,-0.096 0.901,-0.254 1.212,-0.477 0.31,-0.224 0.56,-0.492 0.746,-0.805 0.183,-0.313 0.317,-0.659 0.407,-1.043 0.087,-0.385 0.155,-0.786 0.202,-1.2 0.033,-0.414 0.057,-0.84 0.073,-1.271 0.014,-0.433 0.054,-0.854 0.12,-1.273 0.064,-0.414 0.156,-0.809 0.276,-1.186 0.12,-0.376 0.298,-0.708 0.541,-0.995 l -2.544,0 C 2.624,-9.177 2.516,-8.94 2.459,-8.636 2.405,-8.33 2.367,-7.991 2.353,-7.615 2.337,-7.241 2.32,-6.834 2.304,-6.403 2.287,-5.973 2.24,-5.549 2.16,-5.132 2.097,-4.716 2.017,-4.32 1.918,-3.946 1.824,-3.57 1.671,-3.24 1.464,-2.963 c -0.207,0.28 -0.48,0.504 -0.814,0.671 -0.337,0.172 -0.786,0.254 -1.344,0.254 l -5.565,0 0,-7.316 -2.278,0 0,17.126 8.059,0 z"
             style="fill:#a6a5a8;fill-opacity:1;fill-rule:nonzero;stroke:none"
             id="path78" /></g><g
           id="g80"
           transform="translate(286.4128,52.0802)"><path
             d="M 0,0 0,-8.54 8.681,0 11.632,0 4.41,-6.909 l 7.509,-10.217 -2.878,0 L 2.852,-8.469 0,-11.13 l 0,-5.996 -2.28,0 L -2.28,0 0,0 z"
             style="fill:#a6a5a8;fill-opacity:1;fill-rule:nonzero;stroke:none"
             id="path82" /></g><g
           id="g84"
           transform="translate(311.9588,52.0802)"><path
             d="m 0,0 0,-1.918 -9.547,0 0,-5.447 8.898,0 0,-1.918 -8.898,0 0,-5.925 9.618,0 0,-1.918 -11.898,0 0,17.126 L 0,0 z"
             style="fill:#a6a5a8;fill-opacity:1;fill-rule:nonzero;stroke:none"
             id="path86" /></g><g
           id="g88"
           transform="translate(312.9612,50.1624)"><path
             d="m 0,0 0,1.918 13.698,0 0,-1.918 -5.709,0 0,-15.208 -2.278,0 L 5.711,0 0,0 z"
             style="fill:#a6a5a8;fill-opacity:1;fill-rule:nonzero;stroke:none"
             id="path90" /></g><path
           d="m 330.928,34.954 -2.278,0 0,17.126 2.278,0 0,-17.126 z"
           style="fill:#a6a5a8;fill-opacity:1;fill-rule:nonzero;stroke:none"
           id="path92" /><g
           id="g94"
           transform="translate(337.1657,52.0802)"><path
             d="m 0,0 9.015,-13.888 0.049,0 0,13.888 2.161,0 0,-17.126 -2.497,0 -8.944,13.745 -0.05,0 0,-13.745 -2.158,0 L -2.424,0 0,0 z"
             style="fill:#a6a5a8;fill-opacity:1;fill-rule:nonzero;stroke:none"
             id="path96" /></g><g
           id="g98"
           transform="translate(362.3964,35.1588)"><path
             d="m 0,0 c -0.991,-0.393 -1.991,-0.588 -2.998,-0.588 -1.28,0 -2.424,0.235 -3.431,0.706 -1.007,0.47 -1.864,1.108 -2.565,1.908 -0.706,0.8 -1.24,1.718 -1.607,2.758 -0.367,1.04 -0.553,2.118 -0.553,3.238 0,1.247 0.172,2.435 0.515,3.56 0.344,1.13 0.855,2.118 1.537,2.963 0.678,0.849 1.527,1.525 2.542,2.028 1.016,0.504 2.202,0.756 3.562,0.756 0.927,0 1.803,-0.109 2.626,-0.323 0.824,-0.216 1.558,-0.557 2.208,-1.021 0.647,-0.464 1.188,-1.052 1.63,-1.763 0.44,-0.71 0.739,-1.571 0.899,-2.579 l -2.278,0 c -0.113,0.657 -0.32,1.219 -0.626,1.692 -0.303,0.471 -0.677,0.859 -1.124,1.163 -0.45,0.303 -0.958,0.532 -1.523,0.685 -0.569,0.15 -1.174,0.228 -1.812,0.228 -1.04,0 -1.932,-0.21 -2.675,-0.626 -0.744,-0.414 -1.351,-0.963 -1.822,-1.643 -0.473,-0.68 -0.821,-1.456 -1.045,-2.325 -0.223,-0.873 -0.334,-1.762 -0.334,-2.675 0,-0.894 0.127,-1.755 0.381,-2.577 0.257,-0.826 0.633,-1.551 1.13,-2.184 0.494,-0.633 1.108,-1.136 1.833,-1.513 0.729,-0.374 1.572,-0.562 2.532,-0.562 0.894,0 1.687,0.143 2.374,0.431 0.688,0.289 1.266,0.684 1.739,1.188 0.473,0.503 0.829,1.096 1.069,1.774 0.237,0.68 0.341,1.412 0.31,2.196 l -5.468,0 0,1.92 7.506,0 0,-9.02 -1.44,0 L 2.494,1.93 C 1.824,1.035 0.991,0.391 0,0"
             style="fill:#a6a5a8;fill-opacity:1;fill-rule:nonzero;stroke:none"
             id="path100" /></g><g
           id="g102"
           transform="translate(153.817,130.1542)"><path
             d="m 0,0 c 0,-3.892 -1.998,-5.649 -6.463,-5.649 l -17.842,0 0,17.611 16.51,0 C -2.52,11.962 0,10.162 0,6.074 L 0,0 z m 10.532,-2.988 0,11.861 c 0,8.263 -4.843,11.582 -15.091,11.582 l -30.278,0 0,-34.507 33.359,0 c 8.356,0 12.01,3.419 12.01,11.064"
             style="fill:#292929;fill-opacity:1;fill-rule:nonzero;stroke:none"
             id="path104" /></g><path
           d="m 167.386,140.5 8.783,0 0,-24.398 -8.783,0 0,24.398 z"
           style="fill:#292929;fill-opacity:1;fill-rule:nonzero;stroke:none"
           id="path106" /><path
           d="m 167.386,150.609 8.783,0 0,-7.164 -8.783,0 0,7.164 z"
           style="fill:#292929;fill-opacity:1;fill-rule:nonzero;stroke:none"
           id="path108" /><g
           id="g110"
           transform="translate(202.7943,128.0196)"><path
             d="m 0,0 c 0,-2.991 -1.661,-3.841 -5.414,-3.841 l -3.893,0 c -3.838,0 -5.405,0.944 -5.405,3.792 l 0,2.706 c 0,3.03 1.331,3.991 5.405,3.991 l 3.893,0 C -1.613,6.648 0,5.601 0,2.802 L 0,0 z m 8.78,-11.822 0,24.303 -8.78,0 0,-3.701 c -1.331,2.895 -4.841,4.034 -10.871,4.034 -8.639,0 -12.485,-2.37 -12.485,-8.36 l 0,-6.692 c 0,-6.5 4.13,-7.917 14.15,-7.917 5.123,0 8.11,0.524 9.206,2.373 0.051,-0.574 0.097,-1.046 0.097,-1.522 0,-3.66 -1.518,-5.171 -5.122,-5.171 l -4.99,0 c -3.034,0 -4.461,0.273 -4.606,1.901 l -8.782,0 0,-0.39 c 0,-6.262 3.561,-7.214 12.202,-7.214 l 8.117,0 c 7.636,0 11.864,3.04 11.864,8.356"
             style="fill:#292929;fill-opacity:1;fill-rule:nonzero;stroke:none"
             id="path112" /></g><path
           d="m 215.182,140.5 8.785,0 0,-24.398 -8.785,0 0,24.398 z"
           style="fill:#292929;fill-opacity:1;fill-rule:nonzero;stroke:none"
           id="path114" /><path
           d="m 215.182,150.609 8.785,0 0,-7.164 -8.785,0 0,7.164 z"
           style="fill:#292929;fill-opacity:1;fill-rule:nonzero;stroke:none"
           id="path116" /><g
           id="g118"
           transform="translate(253.9167,127.3087)"><path
             d="m 0,0 c 0.09,-0.76 0.09,-1.473 0.09,-2.14 0,-6.737 -3.703,-9.397 -12.39,-9.397 -8.26,0 -11.387,2.135 -11.387,8.451 l 0,9.923 -4.941,0 0,6.355 4.941,0 0,5.833 8.777,0 0,-5.833 13.717,0 0,-6.355 -13.717,0 0,-8.31 c 0,-2.471 0.851,-3.466 3.416,-3.466 2.807,0 3.802,0.902 3.802,3.51 0,0.429 -0.051,0.907 -0.097,1.429 L 0,0 z"
             style="fill:#292929;fill-opacity:1;fill-rule:nonzero;stroke:none"
             id="path120" /></g><g
           id="g122"
           transform="translate(278.638,124.3211)"><path
             d="m 0,0 c 0,-1.951 -1.374,-2.52 -4.365,-2.52 l -5.358,0 c -3.04,0 -4.371,0.382 -4.371,2.324 0,1.95 1.374,2.517 4.371,2.517 l 5.358,0 C -1.323,2.321 0,1.941 0,0 m 8.878,-8.218 0,16.664 c 0,5.506 -3.182,8.067 -9.784,8.067 l -8.582,0 c -8.498,0 -12.388,-1.897 -12.388,-7.256 l 0,-0.291 8.826,0 c 0,1.277 0.805,1.848 2.567,1.848 l 7.162,0 c 2.233,0 3.421,-0.946 3.421,-2.662 l 0,-2.603 c -2.139,1.515 -5.648,2.084 -10.776,2.084 -8.922,0 -12.339,-1.559 -12.339,-8.016 0,-6.367 3.084,-8.167 11.726,-8.167 5.782,0 9.533,0.949 11.389,3.27 l 0,-2.938 8.778,0 z"
             style="fill:#292929;fill-opacity:1;fill-rule:nonzero;stroke:none"
             id="path124" /></g><path
           d="m 290.308,150.609 8.787,0 0,-34.506 -8.787,0 0,34.506 z"
           style="fill:#292929;fill-opacity:1;fill-rule:nonzero;stroke:none"
           id="path126" /><g
           id="g128"
           transform="translate(147.5961,91.8098)"><path
             d="M 0,0 -13.246,0 -6.696,12.197 0,0 z m 18.697,-14.049 -18.508,34.51 -13.435,0 -18.839,-34.51 11.481,0 3.375,5.744 21.031,0 3.321,-5.744 11.574,0 z"
             style="fill:#f7e029;fill-opacity:1;fill-rule:nonzero;stroke:none"
             id="path130" /></g><path
           d="m 167.624,112.271 8.778,0 0,-34.511 -8.778,0 0,34.511 z"
           style="fill:#f7e029;fill-opacity:1;fill-rule:nonzero;stroke:none"
           id="path132" /><g
           id="g134"
           transform="translate(193.3504,84.0248)"><path
             d="m 0,0 3.843,0 c 3.939,0 5.371,0.573 5.371,3.99 l 8.725,0 c 0.049,-0.531 0.049,-1.048 0.049,-1.521 0,-6.736 -3.514,-9.072 -11.959,-9.072 l -8.451,0 c -8.115,0 -11.677,2.475 -11.677,8.973 l 0,6.648 c 0,6.929 2.895,9.446 11.677,9.446 l 8.31,0 c 8.018,0 11.718,-2.517 11.718,-8.351 0,-0.62 -0.046,-1.287 -0.14,-1.997 l -8.309,0 0,0.142 c 0,2.608 -1.471,3.61 -4.843,3.61 l -4.314,0 c -3.988,0 -5.268,-1.044 -5.268,-4.458 l 0,-3.14 C -5.268,1.182 -3.802,0 0,0"
             style="fill:#f7e029;fill-opacity:1;fill-rule:nonzero;stroke:none"
             id="path136" /></g><g
           id="g138"
           transform="translate(237.6859,77.7604)"><path
             d="m 0,0 0,12.292 c 0,3.944 -1.049,5.272 -7.032,5.272 -4.935,0 -7.069,-1.617 -7.069,-5.559 l 0,-12.005 -8.777,0 0,34.511 8.777,0 0,-14.01 c 2.282,3.465 5.552,4.13 10.961,4.13 7.974,0 11.915,-2.988 11.915,-8.874 L 8.775,0 0,0 z"
             style="fill:#f7e029;fill-opacity:1;fill-rule:nonzero;stroke:none"
             id="path140" /></g><g
           id="g142"
           transform="translate(271.1893,93.1899)"><path
             d="m 0,0 -13.532,0 0,0.09 c 0,2.418 1.522,3.18 4.985,3.18 l 3.613,0 C -1.471,3.27 0,2.508 0,0.09 L 0,0 z m 8.495,-5.371 0,5.223 c 0,6.123 -3.943,9.447 -11.297,9.447 l -8.208,0 c -7.309,0 -11.297,-3.368 -11.297,-9.447 l 0,-6.647 c 0,-5.74 3.893,-8.973 11.341,-8.973 l 8.164,0 c 7.79,0 11.256,2.191 11.256,8.074 l 0,0.382 -8.267,0 c -0.469,-2.515 -1.848,-2.659 -4.842,-2.659 l -3.692,0 c -3.663,0 -5.229,1.088 -5.229,3.941 0,0.191 0.044,0.424 0.044,0.659 l 22.027,0 z"
             style="fill:#f7e029;fill-opacity:1;fill-rule:nonzero;stroke:none"
             id="path144" /></g><g
           id="g146"
           transform="translate(324.727,77.7604)"><path
             d="m 0,0 0,12.292 c 0,3.846 -0.851,5.272 -6.118,5.272 -4.376,0 -6.131,-1.617 -6.131,-5.559 l 0,-12.005 -8.777,0 0,12.292 c 0,3.846 -0.856,5.272 -6.266,5.272 -4.414,0 -6.318,-1.617 -6.318,-5.559 l 0,-12.005 -8.771,0 0,24.255 8.771,0 0,-3.754 c 2,3.279 4.801,4.13 9.598,4.13 6.079,0 9.535,-1.613 10.681,-5.552 1.702,3.99 4.791,5.552 10.061,5.552 8.112,0 12.052,-2.846 12.052,-8.874 L 8.782,0 0,0 z"
             style="fill:#f7e029;fill-opacity:1;fill-rule:nonzero;stroke:none"
             id="path148" /></g><g
           id="g150"
           transform="translate(354.7709,75.8581)"><path
             d="m 0,0 c -1.186,-2.601 -2.416,-4.312 -4.033,-5.26 -1.423,-0.814 -3.28,-1.098 -5.697,-1.098 -1.181,0 -2.512,0.049 -3.983,0.193 l 0,5.787 c 0.711,-0.093 1.325,-0.142 1.899,-0.142 2.794,0 4.319,1.093 4.885,3.608 l -3.269,0 -10.674,23.21 9.666,0 6.789,-15.854 7.033,15.854 9.587,0 L 0,0 z"
             style="fill:#f7e029;fill-opacity:1;fill-rule:nonzero;stroke:none"
             id="path152" /></g></g></g><g
       id="g154"><g
         id="g156"
         clip-path="url(#clipPath158)"><g
           id="g162"><g
             id="g164"><path
               d="m 33.213,114.811 c 0,-21.467 17.402,-38.869 38.872,-38.869 l 0,0 c 21.478,0 38.88,17.402 38.88,38.869 l 0,0 c 0,21.472 -17.402,38.888 -38.88,38.888 l 0,0 c -21.47,0 -38.872,-17.416 -38.872,-38.888"
               style="fill:url(#radialGradient166);stroke:none"
               id="path176" /></g></g></g></g><g
       id="g178"><g
         id="g180"
         clip-path="url(#clipPath182)"><g
           id="g186"><g
             id="g188"><path
               d="m 75.894,171.034 -2.049,-0.579 0,-1.48 1.025,0 0,-7.185 2.058,0 0,9.244 -1.034,0 z"
               style="fill:url(#linearGradient190);stroke:none"
               id="path196" /></g></g></g></g><g
       id="g198"><g
         id="g200"
         clip-path="url(#clipPath202)"><g
           id="g206"><g
             id="g208"><path
               d="m 47.852,152.332 -1.988,-0.561 0,-1.44 0.993,0 0,-6.984 2.426,0 0,8.985 -1.431,0 z"
               style="fill:url(#linearGradient210);stroke:none"
               id="path216" /></g></g></g></g><g
       id="g218"><g
         id="g220"
         clip-path="url(#clipPath222)"><g
           id="g226"><g
             id="g228"><path
               d="m 92.452,165.257 -2.045,-0.579 0,-1.48 1.019,0 0,-7.185 2.06,0 0,9.244 -1.034,0 z"
               style="fill:url(#linearGradient230);stroke:none"
               id="path236" /></g></g></g></g><g
       id="g238"><g
         id="g240"
         clip-path="url(#clipPath242)"><g
           id="g246"><g
             id="g248"><path
               d="m 56.943,165.768 -1.197,-0.337 0,-0.863 0.596,0 0,-4.192 1.204,0 0,5.392 -0.603,0 z"
               style="fill:url(#linearGradient250);stroke:none"
               id="path256" /></g></g></g></g><g
       id="g258"><g
         id="g260"
         clip-path="url(#clipPath262)"><g
           id="g266"><g
             id="g268"><path
               d="m 73.341,149.54 -0.471,-0.132 0,-0.339 0.237,0 0,-1.652 0.472,0 0,2.123 -0.238,0 z"
               style="fill:url(#linearGradient270);stroke:none"
               id="path276" /></g></g></g></g><g
       id="g278"><g
         id="g280"
         clip-path="url(#clipPath282)"><g
           id="g286"><g
             id="g288"><path
               d="m 84.113,145.755 -2.914,-0.821 0,-2.102 1.465,0 0,-10.228 2.921,0 0,13.151 -1.472,0 z"
               style="fill:url(#linearGradient290);stroke:none"
               id="path296" /></g></g></g></g><g
       id="g298"><g
         id="g300"
         clip-path="url(#clipPath302)"><g
           id="g306"><g
             id="g308"><path
               d="m 95.72,142.381 -1.602,-0.451 0,-1.156 0.806,0 0,-5.621 1.605,0 0,7.228 -0.809,0 z"
               style="fill:url(#linearGradient310);stroke:none"
               id="path316" /></g></g></g></g><g
       id="g318"><g
         id="g320"
         clip-path="url(#clipPath322)"><g
           id="g326"><g
             id="g328"><path
               d="m 102.202,132.999 -1.802,-0.461 0,-1.182 0.906,0 0,-5.749 1.806,0 0,7.392 -0.91,0 z"
               style="fill:url(#linearGradient330);stroke:none"
               id="path336" /></g></g></g></g><g
       id="g338"><g
         id="g340"
         clip-path="url(#clipPath342)"><g
           id="g346"><g
             id="g348"><path
               d="m 69.898,132.66 -1.098,-0.28 0,-0.72 0.551,0 0,-3.502 1.101,0 0,4.502 -0.554,0 z"
               style="fill:url(#linearGradient350);stroke:none"
               id="path356" /></g></g></g></g><g
       id="g358"><g
         id="g360"
         clip-path="url(#clipPath362)"><g
           id="g366"><g
             id="g368"><path
               d="m 86.109,123.356 -1.098,-0.321 0,-0.825 0.552,0 0,-4.009 1.101,0 0,5.155 -0.555,0 z"
               style="fill:url(#linearGradient370);stroke:none"
               id="path376" /></g></g></g></g><g
       id="g378"><g
         id="g380"
         clip-path="url(#clipPath382)"><g
           id="g386"><g
             id="g388"><path
               d="m 66.31,116.709 -2.007,-0.501 0,-1.289 1.009,0 0,-6.264 2.011,0 0,8.054 -1.013,0 z"
               style="fill:url(#linearGradient390);stroke:none"
               id="path396" /></g></g></g></g><g
       id="g398"><g
         id="g400"
         clip-path="url(#clipPath402)"><g
           id="g406"><g
             id="g408"><path
               d="m 57.609,109.468 -3.592,-0.897 0,-2.307 1.806,0 0,-11.215 3.6,0 0,14.419 -1.814,0 z"
               style="fill:url(#linearGradient410);stroke:none"
               id="path416" /></g></g></g></g><g
       id="g418"><g
         id="g420"
         clip-path="url(#clipPath422)"><g
           id="g426"><g
             id="g428"><path
               d="m 55.416,136.295 -3.374,-0.843 0,-2.166 1.696,0 0,-10.531 3.38,0 0,13.54 -1.702,0 z"
               style="fill:url(#linearGradient430);stroke:none"
               id="path436" /></g></g></g></g><g
       id="g438"><g
         id="g440"
         clip-path="url(#clipPath442)"><g
           id="g446"><g
             id="g448"><path
               d="m 42.451,132.674 -2.588,-0.647 0,-1.661 1.301,0 0,-8.08 2.593,0 0,10.388 -1.306,0 z"
               style="fill:url(#linearGradient450);stroke:none"
               id="path456" /></g></g></g></g><g
       id="g458"><g
         id="g460"
         clip-path="url(#clipPath462)"><g
           id="g466"><g
             id="g468"><path
               d="m 77.547,107.383 -2.353,-0.532 0,-1.371 1.183,0 0,-6.662 2.357,0 0,8.565 -1.187,0 z"
               style="fill:url(#linearGradient470);stroke:none"
               id="path476" /></g></g></g></g><g
       id="g478"><g
         id="g480"
         clip-path="url(#clipPath482)"><g
           id="g486"><g
             id="g488"><path
               d="m 90.936,103.324 -2.563,-0.581 0,-1.493 1.289,0 0,-7.259 2.568,0 0,9.333 -1.294,0 z"
               style="fill:url(#linearGradient490);stroke:none"
               id="path496" /></g></g></g></g><g
       id="g498"><g
         id="g500"
         clip-path="url(#clipPath502)"><g
           id="g506"><g
             id="g508"><path
               d="m 102.208,113.747 -0.34,-0.077 0,-0.197 0.171,0 0,-0.961 0.341,0 0,1.235 -0.172,0 z"
               style="fill:url(#linearGradient510);stroke:none"
               id="path516" /></g></g></g></g><g
       id="g518"><g
         id="g520"
         clip-path="url(#clipPath522)"><g
           id="g526"><g
             id="g528"><path
               d="m 64.803,171.649 c -0.466,-0.206 -0.848,-0.518 -1.144,-0.936 l 0,0 c -0.297,-0.428 -0.512,-0.939 -0.643,-1.53 l 0,0 c -0.129,-0.591 -0.193,-1.306 -0.193,-2.148 l 0,0 c 0,-0.81 0.064,-1.519 0.199,-2.129 l 0,0 c 0.129,-0.606 0.34,-1.118 0.624,-1.534 l 0,0 c 0.295,-0.417 0.672,-0.73 1.132,-0.942 l 0,0 c 0.459,-0.21 1.025,-0.313 1.69,-0.313 l 0,0 c 0.667,0 1.235,0.103 1.691,0.313 l 0,0 c 0.463,0.212 0.838,0.52 1.127,0.932 l 0,0 c 0.289,0.409 0.498,0.921 0.625,1.536 l 0,0 c 0.132,0.613 0.202,1.329 0.202,2.145 l 0,0 c 0,0.792 -0.07,1.493 -0.196,2.101 l 0,0 c -0.128,0.609 -0.334,1.12 -0.623,1.536 l 0,0 c -0.297,0.424 -0.667,0.741 -1.125,0.957 l 0,0 c -0.451,0.213 -1.02,0.32 -1.701,0.32 l 0,0 c -0.646,0 -1.196,-0.103 -1.665,-0.308 m 0.689,-7.067 c -0.192,0.481 -0.287,1.297 -0.287,2.449 l 0,0 c 0,1.174 0.095,1.998 0.287,2.473 l 0,0 c 0.201,0.471 0.522,0.706 0.976,0.706 l 0,0 c 0.458,0 0.782,-0.235 0.975,-0.706 l 0,0 c 0.194,-0.475 0.289,-1.294 0.289,-2.461 l 0,0 c 0,-1.159 -0.095,-1.98 -0.294,-2.461 l 0,0 c -0.194,-0.482 -0.517,-0.72 -0.97,-0.72 l 0,0 c -0.454,0 -0.775,0.238 -0.976,0.72"
               style="fill:url(#linearGradient530);stroke:none"
               id="path536" /></g></g></g></g><g
       id="g538"><g
         id="g540"
         clip-path="url(#clipPath542)"><g
           id="g546"><g
             id="g548"><path
               d="m 40.682,142.512 c -0.306,-0.134 -0.559,-0.34 -0.754,-0.617 l 0,0 c -0.199,-0.285 -0.339,-0.618 -0.425,-1.01 l 0,0 c -0.088,-0.39 -0.13,-0.859 -0.13,-1.414 l 0,0 c 0,-0.534 0.047,-1.002 0.133,-1.402 l 0,0 c 0.088,-0.4 0.223,-0.74 0.412,-1.01 l 0,0 c 0.193,-0.279 0.443,-0.485 0.745,-0.623 l 0,0 c 0.306,-0.14 0.679,-0.205 1.115,-0.205 l 0,0 c 0.441,0 0.811,0.065 1.12,0.205 l 0,0 c 0.301,0.138 0.547,0.341 0.738,0.616 l 0,0 c 0.186,0.269 0.325,0.605 0.416,1.01 l 0,0 c 0.081,0.407 0.128,0.875 0.128,1.412 l 0,0 c 0,0.525 -0.047,0.987 -0.128,1.387 l 0,0 c -0.085,0.402 -0.225,0.74 -0.412,1.014 l 0,0 c -0.191,0.277 -0.436,0.488 -0.742,0.628 l 0,0 c -0.296,0.14 -0.669,0.214 -1.12,0.214 l 0,0 c -0.424,0 -0.789,-0.07 -1.096,-0.205 m 0.453,-4.656 c -0.129,0.317 -0.19,0.853 -0.19,1.61 l 0,0 c 0,0.777 0.061,1.321 0.19,1.633 l 0,0 c 0.131,0.311 0.342,0.466 0.643,0.466 l 0,0 c 0.299,0 0.512,-0.155 0.642,-0.466 l 0,0 c 0.128,-0.312 0.186,-0.854 0.186,-1.625 l 0,0 c 0,-0.761 -0.064,-1.301 -0.186,-1.618 l 0,0 c -0.134,-0.319 -0.343,-0.476 -0.642,-0.476 l 0,0 c -0.301,0 -0.512,0.157 -0.643,0.476"
               style="fill:url(#linearGradient550);stroke:none"
               id="path556" /></g></g></g></g><g
       id="g558"><g
         id="g560"
         clip-path="url(#clipPath562)"><g
           id="g566"><g
             id="g568"><path
               d="m 59.756,151.121 c -0.726,-0.318 -1.324,-0.808 -1.789,-1.464 l 0,0 c -0.47,-0.674 -0.802,-1.462 -1.005,-2.392 l 0,0 c -0.208,-0.923 -0.307,-2.038 -0.307,-3.351 l 0,0 c 0,-1.267 0.11,-2.376 0.313,-3.323 l 0,0 c 0.209,-0.946 0.529,-1.754 0.977,-2.393 l 0,0 c 0.458,-0.662 1.051,-1.149 1.765,-1.475 l 0,0 c 0.726,-0.332 1.609,-0.488 2.642,-0.488 l 0,0 c 1.046,0 1.923,0.156 2.655,0.488 l 0,0 c 0.715,0.326 1.295,0.807 1.748,1.458 l 0,0 c 0.441,0.639 0.773,1.433 0.987,2.394 l 0,0 c 0.192,0.963 0.302,2.072 0.302,3.345 l 0,0 c 0,1.243 -0.11,2.34 -0.302,3.288 l 0,0 c -0.203,0.951 -0.534,1.753 -0.976,2.403 l 0,0 c -0.452,0.655 -1.034,1.155 -1.759,1.487 l 0,0 c -0.703,0.331 -1.586,0.506 -2.655,0.506 l 0,0 c -1.004,0 -1.87,-0.164 -2.596,-0.483 m 1.074,-11.034 c -0.308,0.75 -0.452,2.02 -0.452,3.815 l 0,0 c 0,1.841 0.144,3.13 0.452,3.869 l 0,0 c 0.309,0.737 0.807,1.103 1.522,1.103 l 0,0 c 0.708,0 1.214,-0.366 1.522,-1.103 l 0,0 c 0.302,-0.739 0.441,-2.023 0.441,-3.851 l 0,0 c 0,-1.801 -0.15,-3.083 -0.441,-3.833 l 0,0 c -0.319,-0.756 -0.814,-1.128 -1.522,-1.128 l 0,0 c -0.715,0 -1.213,0.372 -1.522,1.128"
               style="fill:url(#linearGradient570);stroke:none"
               id="path576" /></g></g></g></g><g
       id="g578"><g
         id="g580"
         clip-path="url(#clipPath582)"><g
           id="g586"><g
             id="g588"><path
               d="m 48.825,123.954 c -0.53,-0.232 -0.968,-0.589 -1.307,-1.069 l 0,0 c -0.343,-0.491 -0.585,-1.067 -0.733,-1.747 l 0,0 c -0.152,-0.674 -0.225,-1.488 -0.225,-2.447 l 0,0 c 0,-0.924 0.081,-1.735 0.229,-2.426 l 0,0 c 0.152,-0.691 0.386,-1.282 0.713,-1.748 l 0,0 c 0.335,-0.483 0.768,-0.839 1.29,-1.077 l 0,0 c 0.529,-0.242 1.174,-0.357 1.929,-0.357 l 0,0 c 0.763,0 1.404,0.115 1.939,0.357 l 0,0 c 0.521,0.238 0.945,0.589 1.276,1.064 l 0,0 c 0.322,0.467 0.564,1.047 0.721,1.748 l 0,0 c 0.14,0.704 0.221,1.515 0.221,2.444 l 0,0 c 0,0.908 -0.081,1.709 -0.221,2.4 l 0,0 c -0.149,0.695 -0.39,1.281 -0.713,1.755 l 0,0 c -0.33,0.48 -0.754,0.844 -1.284,1.087 l 0,0 c -0.514,0.241 -1.158,0.369 -1.939,0.369 l 0,0 c -0.734,0 -1.366,-0.12 -1.896,-0.353 m 0.785,-8.057 c -0.225,0.547 -0.331,1.475 -0.331,2.785 l 0,0 c 0,1.345 0.106,2.286 0.331,2.825 l 0,0 c 0.225,0.539 0.589,0.807 1.111,0.807 l 0,0 c 0.518,0 0.887,-0.268 1.111,-0.807 l 0,0 c 0.22,-0.539 0.322,-1.477 0.322,-2.811 l 0,0 c 0,-1.315 -0.11,-2.252 -0.322,-2.799 l 0,0 c -0.233,-0.553 -0.593,-0.824 -1.111,-0.824 l 0,0 c -0.522,0 -0.886,0.271 -1.111,0.824"
               style="fill:url(#linearGradient590);stroke:none"
               id="path596" /></g></g></g></g><g
       id="g598"><g
         id="g600"
         clip-path="url(#clipPath602)"><g
           id="g606"><g
             id="g608"><path
               d="m 61.173,130.208 c -0.364,-0.159 -0.664,-0.405 -0.897,-0.733 l 0,0 c -0.236,-0.339 -0.403,-0.735 -0.505,-1.201 l 0,0 c -0.105,-0.463 -0.154,-1.023 -0.154,-1.682 l 0,0 c 0,-0.634 0.055,-1.192 0.157,-1.667 l 0,0 c 0.105,-0.475 0.266,-0.881 0.49,-1.201 l 0,0 c 0.23,-0.331 0.527,-0.576 0.886,-0.74 l 0,0 c 0.364,-0.166 0.808,-0.245 1.326,-0.245 l 0,0 c 0.525,0 0.965,0.079 1.332,0.245 l 0,0 c 0.358,0.164 0.65,0.405 0.877,0.732 l 0,0 c 0.221,0.32 0.388,0.719 0.496,1.201 l 0,0 c 0.096,0.483 0.151,1.041 0.151,1.679 l 0,0 c 0,0.623 -0.055,1.173 -0.151,1.649 l 0,0 c -0.103,0.477 -0.268,0.88 -0.49,1.206 l 0,0 c -0.228,0.329 -0.519,0.58 -0.883,0.747 l 0,0 c -0.353,0.166 -0.796,0.253 -1.332,0.253 l 0,0 c -0.505,0 -0.938,-0.082 -1.303,-0.243 m 0.539,-5.536 c -0.154,0.377 -0.227,1.014 -0.227,1.914 l 0,0 c 0,0.924 0.073,1.571 0.227,1.941 l 0,0 c 0.155,0.371 0.405,0.555 0.764,0.555 l 0,0 c 0.356,0 0.609,-0.184 0.763,-0.555 l 0,0 c 0.152,-0.37 0.222,-1.015 0.222,-1.931 l 0,0 c 0,-0.904 -0.076,-1.547 -0.222,-1.924 l 0,0 c -0.16,-0.379 -0.407,-0.566 -0.763,-0.566 l 0,0 c -0.359,0 -0.609,0.187 -0.764,0.566"
               style="fill:url(#linearGradient610);stroke:none"
               id="path616" /></g></g></g></g><g
       id="g618"><g
         id="g620"
         clip-path="url(#clipPath622)"><g
           id="g626"
           transform="translate(81.5069,122.1518)"><path
             d="m 0,0 c 0,1.191 -0.091,2.028 -0.288,2.509 -0.2,0.481 -0.53,0.72 -0.992,0.72 -0.465,0 -0.79,-0.239 -0.991,-0.72 -0.201,-0.481 -0.295,-1.321 -0.295,-2.521 0,-1.17 0.094,-1.997 0.295,-2.486 0.201,-0.493 0.526,-0.735 0.991,-0.735 0.462,0 0.784,0.242 0.992,0.735 C -0.098,-2.009 0,-1.173 0,0 M 2.431,0 C 2.431,-0.829 2.358,-1.553 2.233,-2.18 2.093,-2.806 1.878,-3.324 1.59,-3.74 1.295,-4.164 0.916,-4.477 0.451,-4.69 -0.027,-4.907 -0.598,-5.008 -1.28,-5.008 c -0.673,0 -1.249,0.101 -1.721,0.318 -0.466,0.213 -0.852,0.53 -1.151,0.961 -0.291,0.416 -0.5,0.943 -0.636,1.56 -0.133,0.616 -0.204,1.34 -0.204,2.165 0,0.856 0.064,1.582 0.2,2.184 0.132,0.606 0.349,1.12 0.655,1.559 0.302,0.428 0.693,0.746 1.165,0.954 0.474,0.208 1.038,0.315 1.692,0.315 0.697,0 1.273,-0.114 1.731,-0.33 C 0.924,4.462 1.302,4.136 1.597,3.708 1.885,3.285 2.101,2.763 2.233,2.143 2.358,1.525 2.431,0.81 2.431,0"
             style="fill:#f7e029;fill-opacity:1;fill-rule:nonzero;stroke:none"
             id="path628" /></g></g></g><g
       id="g630"><g
         id="g632"
         clip-path="url(#clipPath634)"><g
           id="g638"><g
             id="g640"><path
               d="m 68.739,111.975 c -0.721,-0.316 -1.316,-0.802 -1.778,-1.454 l 0,0 c -0.468,-0.671 -0.798,-1.455 -1,-2.38 l 0,0 c -0.207,-0.917 -0.305,-2.026 -0.305,-3.331 l 0,0 c 0,-1.261 0.109,-2.365 0.311,-3.304 l 0,0 c 0.208,-0.942 0.526,-1.746 0.971,-2.38 l 0,0 c 0.456,-0.658 1.045,-1.142 1.755,-1.467 l 0,0 c 0.722,-0.33 1.601,-0.485 2.628,-0.485 l 0,0 c 1.041,0 1.912,0.155 2.64,0.485 l 0,0 c 0.711,0.325 1.288,0.802 1.739,1.45 l 0,0 c 0.438,0.635 0.768,1.425 0.981,2.379 l 0,0 c 0.192,0.957 0.301,2.061 0.301,3.327 l 0,0 c 0,1.236 -0.109,2.327 -0.301,3.27 l 0,0 c -0.203,0.946 -0.531,1.743 -0.97,2.388 l 0,0 c -0.45,0.653 -1.028,1.151 -1.75,1.481 l 0,0 c -0.698,0.328 -1.577,0.502 -2.64,0.502 l 0,0 c -0.999,0 -1.86,-0.162 -2.582,-0.481 m 1.069,-10.972 c -0.305,0.746 -0.449,2.009 -0.449,3.793 l 0,0 c 0,1.832 0.144,3.114 0.449,3.848 l 0,0 c 0.307,0.734 0.803,1.098 1.513,1.098 l 0,0 c 0.705,0 1.207,-0.364 1.513,-1.098 l 0,0 c 0.301,-0.734 0.439,-2.012 0.439,-3.829 l 0,0 c 0,-1.79 -0.149,-3.066 -0.439,-3.812 l 0,0 c -0.316,-0.751 -0.808,-1.121 -1.513,-1.121 l 0,0 c -0.71,0 -1.206,0.37 -1.513,1.121"
               style="fill:url(#linearGradient642);stroke:none"
               id="path648" /></g></g></g></g><g
       id="g650"><g
         id="g652"
         clip-path="url(#clipPath654)"><g
           id="g658"><g
             id="g660"><path
               d="M 85.399,99.669 C 85.145,99.556 84.934,99.384 84.77,99.154 l 0,0 c -0.165,-0.238 -0.282,-0.515 -0.354,-0.842 l 0,0 c -0.072,-0.325 -0.108,-0.718 -0.108,-1.179 l 0,0 c 0,-0.446 0.039,-0.837 0.111,-1.17 l 0,0 c 0.074,-0.333 0.186,-0.616 0.343,-0.842 l 0,0 c 0.161,-0.232 0.37,-0.403 0.622,-0.518 l 0,0 c 0.255,-0.117 0.566,-0.172 0.929,-0.172 l 0,0 c 0.368,0 0.677,0.055 0.934,0.172 l 0,0 c 0.252,0.115 0.456,0.284 0.616,0.513 l 0,0 c 0.155,0.225 0.271,0.504 0.347,0.842 l 0,0 c 0.067,0.338 0.107,0.729 0.107,1.177 l 0,0 c 0,0.438 -0.04,0.824 -0.107,1.157 l 0,0 c -0.072,0.334 -0.188,0.617 -0.344,0.845 l 0,0 c -0.159,0.231 -0.363,0.407 -0.619,0.524 l 0,0 C 87,99.777 86.69,99.838 86.313,99.838 l 0,0 c -0.353,0 -0.658,-0.057 -0.914,-0.169 m 0.379,-3.883 c -0.108,0.265 -0.159,0.711 -0.159,1.342 l 0,0 c 0,0.649 0.051,1.102 0.159,1.362 l 0,0 c 0.109,0.259 0.284,0.389 0.535,0.389 l 0,0 c 0.25,0 0.427,-0.13 0.536,-0.389 l 0,0 c 0.106,-0.26 0.155,-0.712 0.155,-1.355 l 0,0 c 0,-0.633 -0.053,-1.084 -0.155,-1.349 l 0,0 C 86.737,95.52 86.563,95.389 86.313,95.389 l 0,0 c -0.251,0 -0.426,0.131 -0.535,0.397"
               style="fill:url(#linearGradient662);stroke:none"
               id="path668" /></g></g></g></g><g
       id="g670"><g
         id="g672"
         clip-path="url(#clipPath674)"><g
           id="g678"><g
             id="g680"><path
               d="m 91.281,118.876 c -0.245,-0.106 -0.448,-0.271 -0.604,-0.493 l 0,0 c -0.159,-0.227 -0.271,-0.494 -0.339,-0.808 l 0,0 c -0.071,-0.311 -0.104,-0.688 -0.104,-1.131 l 0,0 c 0,-0.428 0.037,-0.803 0.105,-1.122 l 0,0 c 0.071,-0.319 0.179,-0.592 0.33,-0.808 l 0,0 c 0.155,-0.222 0.354,-0.387 0.595,-0.497 l 0,0 c 0.246,-0.112 0.544,-0.165 0.893,-0.165 l 0,0 c 0.353,0 0.649,0.053 0.896,0.165 l 0,0 c 0.242,0.11 0.438,0.272 0.591,0.492 l 0,0 c 0.149,0.216 0.26,0.483 0.333,0.808 l 0,0 c 0.064,0.324 0.102,0.699 0.102,1.129 l 0,0 c 0,0.42 -0.038,0.791 -0.102,1.11 l 0,0 c -0.069,0.322 -0.18,0.592 -0.33,0.811 l 0,0 c -0.153,0.222 -0.348,0.391 -0.594,0.502 l 0,0 c -0.237,0.112 -0.535,0.171 -0.896,0.171 l 0,0 c -0.339,0 -0.632,-0.055 -0.876,-0.164 m 0.362,-3.724 c -0.104,0.253 -0.153,0.683 -0.153,1.288 l 0,0 c 0,0.622 0.049,1.057 0.153,1.306 l 0,0 c 0.105,0.249 0.273,0.374 0.514,0.374 l 0,0 c 0.24,0 0.41,-0.125 0.514,-0.374 l 0,0 c 0.102,-0.249 0.149,-0.683 0.149,-1.3 l 0,0 c 0,-0.607 -0.051,-1.041 -0.149,-1.294 l 0,0 c -0.108,-0.255 -0.274,-0.38 -0.514,-0.38 l 0,0 c -0.241,0 -0.409,0.125 -0.514,0.38"
               style="fill:url(#linearGradient682);stroke:none"
               id="path688" /></g></g></g></g><g
       id="g690"><g
         id="g692"
         clip-path="url(#clipPath694)"><g
           id="g698"><g
             id="g700"><path
               d="m 90.799,132.236 c -0.286,-0.125 -0.523,-0.319 -0.705,-0.578 l 0,0 c -0.186,-0.266 -0.317,-0.577 -0.397,-0.945 l 0,0 c -0.082,-0.363 -0.122,-0.804 -0.122,-1.322 l 0,0 c 0,-0.499 0.043,-0.939 0.124,-1.311 l 0,0 c 0.082,-0.374 0.209,-0.693 0.386,-0.946 l 0,0 c 0.181,-0.259 0.414,-0.453 0.696,-0.581 l 0,0 c 0.286,-0.131 0.636,-0.193 1.043,-0.193 l 0,0 c 0.413,0 0.759,0.062 1.048,0.193 l 0,0 c 0.282,0.128 0.512,0.318 0.691,0.576 l 0,0 c 0.174,0.253 0.304,0.565 0.389,0.945 l 0,0 c 0.075,0.378 0.12,0.818 0.12,1.319 l 0,0 c 0,0.491 -0.045,0.925 -0.12,1.299 l 0,0 c -0.08,0.375 -0.211,0.692 -0.385,0.947 l 0,0 c -0.179,0.26 -0.408,0.458 -0.695,0.588 l 0,0 c -0.277,0.131 -0.626,0.2 -1.048,0.2 l 0,0 c -0.396,0 -0.739,-0.064 -1.025,-0.191 m 0.424,-4.355 c -0.12,0.296 -0.178,0.797 -0.178,1.505 l 0,0 c 0,0.728 0.058,1.236 0.178,1.527 l 0,0 c 0.123,0.293 0.32,0.437 0.601,0.437 l 0,0 c 0.28,0 0.479,-0.144 0.601,-0.437 l 0,0 c 0.119,-0.291 0.174,-0.797 0.174,-1.52 l 0,0 c 0,-0.71 -0.059,-1.216 -0.174,-1.512 l 0,0 c -0.126,-0.3 -0.321,-0.445 -0.601,-0.445 l 0,0 c -0.281,0 -0.478,0.145 -0.601,0.445"
               style="fill:url(#linearGradient702);stroke:none"
               id="path708" /></g></g></g></g><g
       id="g710"><g
         id="g712"
         clip-path="url(#clipPath714)"><g
           id="g718"><g
             id="g720"><path
               d="m 80.086,131.438 c -0.167,-0.074 -0.305,-0.187 -0.413,-0.339 l 0,0 c -0.108,-0.154 -0.184,-0.336 -0.231,-0.55 l 0,0 c -0.048,-0.214 -0.071,-0.471 -0.071,-0.773 l 0,0 c 0,-0.292 0.025,-0.549 0.072,-0.766 l 0,0 c 0.049,-0.218 0.122,-0.404 0.225,-0.552 l 0,0 c 0.106,-0.151 0.242,-0.264 0.407,-0.339 l 0,0 c 0.167,-0.077 0.372,-0.113 0.609,-0.113 l 0,0 c 0.241,0 0.444,0.036 0.612,0.113 l 0,0 c 0.165,0.075 0.299,0.185 0.403,0.336 l 0,0 c 0.102,0.147 0.179,0.33 0.228,0.551 l 0,0 c 0.043,0.221 0.069,0.478 0.069,0.771 l 0,0 c 0,0.287 -0.026,0.54 -0.069,0.758 l 0,0 c -0.047,0.22 -0.123,0.405 -0.225,0.554 l 0,0 c -0.105,0.152 -0.238,0.267 -0.406,0.343 l 0,0 c -0.162,0.076 -0.365,0.116 -0.612,0.116 l 0,0 c -0.231,0 -0.431,-0.036 -0.598,-0.11 m 0.248,-2.544 c -0.071,0.173 -0.104,0.466 -0.104,0.879 l 0,0 c 0,0.425 0.033,0.722 0.104,0.892 l 0,0 c 0.071,0.171 0.185,0.254 0.35,0.254 l 0,0 c 0.164,0 0.28,-0.083 0.351,-0.254 l 0,0 c 0.069,-0.17 0.102,-0.466 0.102,-0.888 l 0,0 c 0,-0.415 -0.035,-0.71 -0.102,-0.883 l 0,0 c -0.074,-0.175 -0.187,-0.26 -0.351,-0.26 l 0,0 c -0.165,0 -0.279,0.085 -0.35,0.26"
               style="fill:url(#linearGradient722);stroke:none"
               id="path728" /></g></g></g></g><g
       id="g730"><g
         id="g732"
         clip-path="url(#clipPath734)"><g
           id="g738"><g
             id="g740"><path
               d="m 100.959,120.031 c -0.09,-0.039 -0.164,-0.101 -0.222,-0.183 l 0,0 c -0.059,-0.083 -0.1,-0.181 -0.126,-0.297 l 0,0 c -0.025,-0.116 -0.038,-0.254 -0.038,-0.418 l 0,0 c 0,-0.157 0.014,-0.296 0.04,-0.414 l 0,0 c 0.026,-0.118 0.065,-0.218 0.12,-0.298 l 0,0 c 0.058,-0.082 0.132,-0.143 0.22,-0.183 l 0,0 c 0.091,-0.041 0.202,-0.061 0.33,-0.061 l 0,0 c 0.13,0 0.24,0.02 0.331,0.061 l 0,0 c 0.089,0.04 0.161,0.1 0.217,0.182 l 0,0 c 0.055,0.079 0.097,0.178 0.123,0.297 l 0,0 c 0.024,0.12 0.039,0.259 0.039,0.417 l 0,0 c 0,0.155 -0.015,0.292 -0.039,0.409 l 0,0 c -0.025,0.119 -0.066,0.219 -0.122,0.3 l 0,0 c -0.055,0.082 -0.128,0.144 -0.218,0.186 l 0,0 c -0.088,0.04 -0.198,0.063 -0.331,0.063 l 0,0 c -0.126,0 -0.233,-0.02 -0.324,-0.061 m 0.134,-1.374 c -0.038,0.094 -0.056,0.251 -0.056,0.474 l 0,0 c 0,0.231 0.018,0.391 0.056,0.483 l 0,0 c 0.039,0.092 0.101,0.137 0.19,0.137 l 0,0 c 0.089,0 0.152,-0.045 0.189,-0.137 l 0,0 c 0.038,-0.092 0.055,-0.251 0.055,-0.48 l 0,0 c 0,-0.224 -0.018,-0.383 -0.055,-0.477 l 0,0 c -0.039,-0.095 -0.1,-0.14 -0.189,-0.14 l 0,0 c -0.089,0 -0.151,0.045 -0.19,0.14"
               style="fill:url(#linearGradient742);stroke:none"
               id="path748" /></g></g></g></g><g
       id="g750"><g
         id="g752"
         clip-path="url(#clipPath754)"><g
           id="g758"><g
             id="g760"><path
               d="m 70.095,144.952 c -0.103,-0.045 -0.187,-0.113 -0.253,-0.207 l 0,0 c -0.067,-0.094 -0.114,-0.205 -0.141,-0.337 l 0,0 c -0.03,-0.13 -0.045,-0.287 -0.045,-0.473 l 0,0 c 0,-0.178 0.017,-0.335 0.045,-0.469 l 0,0 c 0.029,-0.134 0.074,-0.247 0.138,-0.338 l 0,0 c 0.065,-0.093 0.149,-0.162 0.249,-0.208 l 0,0 c 0.102,-0.047 0.227,-0.069 0.373,-0.069 l 0,0 c 0.148,0 0.272,0.022 0.375,0.069 l 0,0 c 0.101,0.046 0.183,0.114 0.246,0.205 l 0,0 c 0.063,0.091 0.11,0.203 0.14,0.339 l 0,0 c 0.027,0.136 0.043,0.293 0.043,0.472 l 0,0 c 0,0.175 -0.016,0.33 -0.043,0.464 l 0,0 c -0.028,0.135 -0.075,0.248 -0.137,0.339 l 0,0 c -0.065,0.093 -0.147,0.164 -0.249,0.21 l 0,0 c -0.1,0.047 -0.224,0.072 -0.375,0.072 l 0,0 c -0.142,0 -0.264,-0.024 -0.366,-0.069 m 0.151,-1.558 c -0.043,0.106 -0.064,0.286 -0.064,0.538 l 0,0 c 0,0.261 0.021,0.443 0.064,0.548 l 0,0 c 0.044,0.103 0.114,0.154 0.215,0.154 l 0,0 c 0.1,0 0.172,-0.051 0.215,-0.154 l 0,0 c 0.042,-0.105 0.062,-0.287 0.062,-0.544 l 0,0 c 0,-0.255 -0.021,-0.436 -0.062,-0.542 l 0,0 c -0.045,-0.106 -0.115,-0.158 -0.215,-0.158 l 0,0 c -0.101,0 -0.171,0.052 -0.215,0.158"
               style="fill:url(#linearGradient762);stroke:none"
               id="path768" /></g></g></g></g><g
       id="g770"><g
         id="g772"
         clip-path="url(#clipPath774)"><g
           id="g778"><g
             id="g780"><path
               d="m 69.321,155.001 c -0.258,-0.117 -0.468,-0.292 -0.636,-0.524 l 0,0 c -0.169,-0.24 -0.29,-0.528 -0.364,-0.858 l 0,0 c -0.069,-0.331 -0.106,-0.733 -0.106,-1.201 l 0,0 c 0,-0.454 0.037,-0.854 0.11,-1.192 l 0,0 c 0.074,-0.341 0.191,-0.624 0.351,-0.86 l 0,0 c 0.161,-0.233 0.377,-0.409 0.632,-0.525 l 0,0 c 0.263,-0.12 0.579,-0.176 0.947,-0.176 l 0,0 c 0.37,0 0.691,0.056 0.948,0.176 l 0,0 c 0.26,0.116 0.466,0.29 0.63,0.52 l 0,0 c 0.16,0.231 0.275,0.515 0.348,0.861 l 0,0 c 0.078,0.341 0.112,0.742 0.112,1.2 l 0,0 c 0,0.442 -0.034,0.836 -0.109,1.177 l 0,0 c -0.071,0.338 -0.187,0.626 -0.351,0.858 l 0,0 c -0.16,0.24 -0.37,0.414 -0.625,0.536 l 0,0 c -0.253,0.121 -0.573,0.177 -0.953,0.177 l 0,0 c -0.361,0 -0.672,-0.056 -0.934,-0.169 m 0.389,-3.959 c -0.11,0.273 -0.164,0.729 -0.164,1.371 l 0,0 c 0,0.66 0.054,1.12 0.164,1.387 l 0,0 c 0.11,0.263 0.289,0.395 0.545,0.395 l 0,0 c 0.256,0 0.436,-0.132 0.546,-0.395 l 0,0 c 0.108,-0.267 0.157,-0.725 0.157,-1.378 l 0,0 c 0,-0.649 -0.052,-1.107 -0.157,-1.38 l 0,0 c -0.11,-0.267 -0.294,-0.401 -0.546,-0.401 l 0,0 c -0.256,0 -0.435,0.134 -0.545,0.401"
               style="fill:url(#linearGradient782);stroke:none"
               id="path788" /></g></g></g></g><g
       id="g790"><g
         id="g792"
         clip-path="url(#clipPath794)"><g
           id="g798"><g
             id="g800"><path
               d="m 81.681,158.171 c -0.362,-0.157 -0.654,-0.4 -0.884,-0.724 l 0,0 c -0.228,-0.33 -0.397,-0.723 -0.493,-1.176 l 0,0 c -0.1,-0.459 -0.149,-1.013 -0.149,-1.657 l 0,0 c 0,-0.625 0.049,-1.174 0.149,-1.643 l 0,0 c 0.1,-0.468 0.265,-0.862 0.485,-1.181 l 0,0 c 0.224,-0.324 0.518,-0.568 0.872,-0.728 l 0,0 c 0.354,-0.162 0.788,-0.242 1.3,-0.242 l 0,0 c 0.517,0 0.951,0.08 1.309,0.242 l 0,0 c 0.355,0.16 0.642,0.399 0.863,0.719 l 0,0 c 0.225,0.315 0.384,0.711 0.488,1.184 l 0,0 c 0.102,0.472 0.154,1.024 0.154,1.653 l 0,0 c 0,0.61 -0.052,1.15 -0.153,1.621 l 0,0 c -0.099,0.468 -0.259,0.868 -0.479,1.182 l 0,0 c -0.231,0.331 -0.518,0.573 -0.863,0.74 l 0,0 c -0.353,0.166 -0.795,0.247 -1.319,0.247 l 0,0 c -0.495,0 -0.924,-0.081 -1.28,-0.237 m 0.535,-5.449 c -0.152,0.37 -0.228,1 -0.228,1.887 l 0,0 c 0,0.907 0.076,1.542 0.228,1.906 l 0,0 c 0.144,0.366 0.397,0.545 0.745,0.545 l 0,0 c 0.353,0 0.606,-0.179 0.75,-0.545 l 0,0 c 0.152,-0.364 0.226,-0.994 0.226,-1.897 l 0,0 c 0,-0.893 -0.074,-1.526 -0.226,-1.896 l 0,0 c -0.15,-0.371 -0.397,-0.555 -0.75,-0.555 l 0,0 c -0.348,0 -0.601,0.184 -0.745,0.555"
               style="fill:url(#linearGradient802);stroke:none"
               id="path808" /></g></g></g></g><g
       id="g810"><g
         id="g812"
         clip-path="url(#clipPath814)"><g
           id="g818"><g
             id="g820"><path
               d="m 97.655,150.903 c -0.341,-0.152 -0.622,-0.383 -0.84,-0.691 l 0,0 c -0.219,-0.312 -0.381,-0.69 -0.476,-1.125 l 0,0 c -0.09,-0.434 -0.142,-0.961 -0.142,-1.579 l 0,0 c 0,-0.596 0.052,-1.12 0.147,-1.566 l 0,0 c 0.095,-0.449 0.252,-0.823 0.463,-1.129 l 0,0 c 0.213,-0.308 0.493,-0.54 0.831,-0.692 l 0,0 c 0.338,-0.155 0.755,-0.234 1.243,-0.234 l 0,0 c 0.493,0 0.907,0.079 1.245,0.234 l 0,0 c 0.343,0.152 0.617,0.379 0.829,0.681 l 0,0 c 0.21,0.301 0.367,0.681 0.462,1.13 l 0,0 c 0.096,0.454 0.145,0.98 0.145,1.581 l 0,0 c 0,0.584 -0.044,1.098 -0.139,1.547 l 0,0 c -0.098,0.448 -0.256,0.825 -0.464,1.132 l 0,0 c -0.216,0.311 -0.49,0.542 -0.823,0.701 l 0,0 c -0.336,0.157 -0.755,0.235 -1.255,0.235 l 0,0 c -0.473,0 -0.88,-0.076 -1.226,-0.225 m 0.508,-5.204 c -0.14,0.356 -0.216,0.959 -0.216,1.805 l 0,0 c 0,0.865 0.076,1.472 0.216,1.818 l 0,0 c 0.147,0.348 0.387,0.519 0.718,0.519 l 0,0 c 0.335,0 0.573,-0.171 0.713,-0.519 l 0,0 c 0.145,-0.346 0.216,-0.951 0.216,-1.809 l 0,0 c 0,-0.853 -0.071,-1.458 -0.216,-1.814 l 0,0 c -0.145,-0.348 -0.382,-0.524 -0.713,-0.524 l 0,0 c -0.331,0 -0.571,0.176 -0.718,0.524"
               style="fill:url(#linearGradient822);stroke:none"
               id="path828" /></g></g></g></g><g
       id="g830"><g
         id="g832"
         clip-path="url(#clipPath834)"><g
           id="g838"><g
             id="g840"><path
               d="m 98.719,106.707 c -0.474,-0.213 -0.866,-0.533 -1.17,-0.963 l 0,0 c -0.303,-0.432 -0.528,-0.957 -0.66,-1.564 l 0,0 c -0.126,-0.603 -0.198,-1.337 -0.198,-2.196 l 0,0 c 0,-0.829 0.072,-1.558 0.204,-2.179 l 0,0 c 0.133,-0.624 0.351,-1.145 0.644,-1.572 l 0,0 c 0.297,-0.426 0.686,-0.75 1.157,-0.962 l 0,0 c 0.47,-0.214 1.049,-0.323 1.729,-0.323 l 0,0 c 0.685,0 1.261,0.109 1.731,0.323 l 0,0 c 0.477,0.212 0.86,0.529 1.153,0.949 l 0,0 c 0.293,0.419 0.511,0.948 0.645,1.571 l 0,0 c 0.132,0.631 0.2,1.364 0.2,2.199 l 0,0 c 0,0.812 -0.061,1.527 -0.194,2.153 l 0,0 c -0.137,0.622 -0.355,1.148 -0.644,1.574 l 0,0 c -0.3,0.433 -0.683,0.753 -1.146,0.975 l 0,0 c -0.467,0.218 -1.05,0.328 -1.745,0.328 l 0,0 c -0.659,0 -1.225,-0.105 -1.706,-0.313 m 0.706,-7.239 c -0.195,0.494 -0.3,1.333 -0.3,2.51 l 0,0 c 0,1.202 0.105,2.048 0.3,2.529 l 0,0 c 0.205,0.484 0.539,0.723 1,0.723 l 0,0 c 0.466,0 0.797,-0.239 0.992,-0.723 l 0,0 c 0.2,-0.481 0.3,-1.323 0.3,-2.517 l 0,0 c 0,-1.185 -0.1,-2.028 -0.3,-2.522 l 0,0 c -0.202,-0.484 -0.532,-0.731 -0.992,-0.731 l 0,0 c -0.461,0 -0.795,0.247 -1,0.731"
               style="fill:url(#linearGradient842);stroke:none"
               id="path848" /></g></g></g></g></g></svg>