<?xml version="1.0" encoding="UTF-8" standalone="no"?>
<!-- Created with Inkscape (http://www.inkscape.org/) -->

<svg
   xmlns:dc="http://purl.org/dc/elements/1.1/"
   xmlns:cc="http://creativecommons.org/ns#"
   xmlns:rdf="http://www.w3.org/1999/02/22-rdf-syntax-ns#"
   xmlns:svg="http://www.w3.org/2000/svg"
   xmlns="http://www.w3.org/2000/svg"
   xmlns:sodipodi="http://sodipodi.sourceforge.net/DTD/sodipodi-0.dtd"
   xmlns:inkscape="http://www.inkscape.org/namespaces/inkscape"
   id="svg2"
   version="1.1"
   inkscape:version="0.48.4 r9939"
   width="1052.3625"
   height="744.1"
   xml:space="preserve"
   sodipodi:docname="Logo ExxonMobil.ai"><metadata
     id="metadata8"><rdf:RDF><cc:Work
         rdf:about=""><dc:format>image/svg+xml</dc:format><dc:type
           rdf:resource="http://purl.org/dc/dcmitype/StillImage" /><dc:title></dc:title></cc:Work></rdf:RDF></metadata><defs
     id="defs6"><clipPath
       clipPathUnits="userSpaceOnUse"
       id="clipPath16"><path
         d="m 0,595.28 841.89,0 L 841.89,0 0,0 0,595.28 z"
         id="path18" /></clipPath></defs><sodipodi:namedview
     pagecolor="#ffffff"
     bordercolor="#666666"
     borderopacity="1"
     objecttolerance="10"
     gridtolerance="10"
     guidetolerance="10"
     inkscape:pageopacity="0"
     inkscape:pageshadow="2"
     inkscape:window-width="640"
     inkscape:window-height="480"
     id="namedview4"
     showgrid="false"
     inkscape:zoom="0.31716168"
     inkscape:cx="526.18127"
     inkscape:cy="372.04999"
     inkscape:window-x="53"
     inkscape:window-y="24"
     inkscape:window-maximized="0"
     inkscape:current-layer="g10" /><g
     id="g10"
     inkscape:groupmode="layer"
     inkscape:label="Logo ExxonMobil"
     transform="matrix(1.25,0,0,-1.25,0,744.1)"><g
       id="g12"><g
         id="g14"
         clip-path="url(#clipPath16)"><g
           id="g20"
           transform="translate(424.4971,376.0195)"><path
             d="m 0,0 16.655,0 7.867,-34.335 0.342,0 8.062,34.335 16.182,0 0,-47.039 -9.909,0 0,35.516 -0.445,0 -8.733,-35.516 -11.128,0 -8.531,35.516 -0.462,0 0,-35.516 -9.9,0 L 0,0 z m -176.028,0 30.981,0 0,-8.764 -20.444,0 0,-9.753 19.522,0 0,-8.511 -19.522,0 0,-11.234 20.444,0 0,-8.777 -30.981,0 0,47.039 z m 45.135,-47.039 10.611,13.639 6.624,-6.695 -15.153,-18.973 11.856,0 9.7,12.568 18.257,-18.576 14.302,0 -26.233,26.381 20.658,26.106 -11.859,0 -15.27,-19.601 -6.608,6.636 16.989,21.396 -11.829,0 -11.593,-14.928 -6.306,6.497 -14.105,0 14.208,-14.345 -16.06,-20.105 11.811,0 z m 238.255,0 0.101,2.653 c 0.711,-0.539 3.869,-3.441 10.474,-3.441 8.691,0 16.747,7.781 16.747,18.012 0,10.247 -7.572,18.027 -16.63,18.027 -6.923,0 -10.1,-3.182 -10.591,-3.532 l 0,15.32 -9.786,0 0,-47.039 9.685,0 z m 16.974,17.247 c 0,-4.859 -3.714,-8.634 -8.596,-8.634 -4.933,0 -8.644,3.764 -8.644,8.611 0,4.901 3.754,8.627 8.647,8.627 4.922,0 8.593,-3.757 8.593,-8.604 M 158.719,0 l 10.205,0 0,-44.753 0,-2.286 -10.205,0 0,47.039 z m -18.09,0 10.209,0 0,-5.533 0,-3.231 -10.209,0 0,8.764 z m 0,-12.589 10.209,0 0,-32.164 0,-2.286 -10.209,0 0,34.45 z M -83.325,-29.815 c 0,-9.936 7.968,-18.009 18.382,-18.009 10.422,0 18.385,8.073 18.385,18.009 0,9.938 -7.963,18.024 -18.385,18.024 -10.414,0 -18.382,-8.086 -18.382,-18.024 m 9.943,0 c 0,4.76 3.556,8.672 8.51,8.672 4.944,0 8.511,-3.912 8.511,-8.672 0,-4.768 -3.567,-8.68 -8.511,-8.68 -4.954,0 -8.51,3.912 -8.51,8.68 m 128.381,0.005 c 0,-9.941 7.976,-18.014 18.388,-18.014 10.426,0 18.384,8.073 18.384,18.014 0,9.935 -7.958,18.025 -18.384,18.025 -10.412,0 -18.388,-8.09 -18.388,-18.025 m 9.947,0 c 0,4.767 3.562,8.673 8.506,8.673 4.951,0 8.513,-3.906 8.513,-8.673 0,-4.764 -3.562,-8.678 -8.513,-8.678 -4.944,0 -8.506,3.914 -8.506,8.678 m -105.883,17.221 9.545,0 0,-3.26 c 1.018,0.894 4.326,4.064 10.434,4.064 7.193,0 12.891,-5.308 12.891,-13.64 l 0,-21.614 -10.08,0 0,18.941 c 0,4.641 -2.26,7.396 -6.355,7.396 -3.976,0 -6.362,-2.597 -6.362,-7.396 l 0,-18.941 -10.073,0 0,34.45 z"
             style="fill:#ed373a;fill-opacity:1;fill-rule:nonzero;stroke:none"
             id="path22" /></g></g></g></g></svg>