<?xml version="1.0" encoding="UTF-8" standalone="no"?>
<!-- Created with Inkscape (http://www.inkscape.org/) -->

<svg
   xmlns:dc="http://purl.org/dc/elements/1.1/"
   xmlns:cc="http://creativecommons.org/ns#"
   xmlns:rdf="http://www.w3.org/1999/02/22-rdf-syntax-ns#"
   xmlns:svg="http://www.w3.org/2000/svg"
   xmlns="http://www.w3.org/2000/svg"
   xmlns:sodipodi="http://sodipodi.sourceforge.net/DTD/sodipodi-0.dtd"
   xmlns:inkscape="http://www.inkscape.org/namespaces/inkscape"
   id="svg2"
   version="1.1"
   inkscape:version="0.48.4 r9939"
   width="1488.1875"
   height="1052.3625"
   xml:space="preserve"
   sodipodi:docname="logo Forth.ai"><metadata
     id="metadata8"><rdf:RDF><cc:Work
         rdf:about=""><dc:format>image/svg+xml</dc:format><dc:type
           rdf:resource="http://purl.org/dc/dcmitype/StillImage" /><dc:title></dc:title></cc:Work></rdf:RDF></metadata><defs
     id="defs6"><clipPath
       clipPathUnits="userSpaceOnUse"
       id="clipPath16"><path
         d="m 0,841.89 1190.55,0 L 1190.55,0 0,0 0,841.89 z"
         id="path18" /></clipPath></defs><sodipodi:namedview
     pagecolor="#ffffff"
     bordercolor="#666666"
     borderopacity="1"
     objecttolerance="10"
     gridtolerance="10"
     guidetolerance="10"
     inkscape:pageopacity="0"
     inkscape:pageshadow="2"
     inkscape:window-width="640"
     inkscape:window-height="480"
     id="namedview4"
     showgrid="false"
     inkscape:zoom="0.21838646"
     inkscape:cx="744.09375"
     inkscape:cy="526.18127"
     inkscape:window-x="53"
     inkscape:window-y="24"
     inkscape:window-maximized="0"
     inkscape:current-layer="g10" /><g
     id="g10"
     inkscape:groupmode="layer"
     inkscape:label="logo Forth"
     transform="matrix(1.25,0,0,-1.25,0,1052.3625)"><g
       id="g12"><g
         id="g14"
         clip-path="url(#clipPath16)"><g
           id="g20"
           transform="translate(558.6211,553.7256)"><path
             d="m 0,0 c 0,-51.079 -41.405,-92.483 -92.478,-92.483 -51.065,0 -92.469,41.404 -92.469,92.483 0,51.065 41.404,92.471 92.469,92.471 C -41.405,92.471 0,51.065 0,0"
             style="fill:#ffffff;fill-opacity:1;fill-rule:evenodd;stroke:none"
             id="path22" /></g><g
           id="g24"
           transform="translate(394.9395,572.2427)"><path
             d="m 0,0 c 2.835,14.767 9.967,28.885 21.387,40.315 8.103,8.101 17.54,14.039 27.631,17.812 L 0,0 z m -1.11,-21.318 c -0.58,6.918 -0.247,13.892 1.004,20.737 l 73.475,63.609 0.495,0.021 -74.974,-84.367 z m 3.32,-16.808 c -1.694,5.375 -2.787,10.894 -3.282,16.451 L 92.068,61.509 92.347,61.441 2.21,-38.126 z m 6.024,-14.132 c -2.433,4.454 -4.422,9.083 -5.942,13.819 l 105.111,95.12 0.185,-0.09 L 8.234,-52.258 z m 8.41,-12.258 c -3.182,3.787 -5.939,7.835 -8.286,12.049 L 120.325,49.522 c 0.082,-0.044 0.151,-0.096 0.216,-0.137 L 16.644,-64.516 z M 149,-42.759 c -3.787,-9.812 -9.654,-19.042 -17.575,-26.96 -11.482,-11.479 -25.654,-18.62 -40.487,-21.411 L 149,-42.759 z m 5.162,25.49 -0.024,-0.447 -63.479,-73.483 c -7.069,-1.299 -14.276,-1.629 -21.414,-0.983 l 84.917,74.913 z m -1.598,18.496 0.055,-0.275 -83.604,-93.106 c -5.574,0.516 -11.086,1.65 -16.468,3.382 L 152.564,1.227 z m -4.87,15.307 c 0.035,-0.093 0.076,-0.196 0.127,-0.289 L 52.306,-88.71 c -4.736,1.546 -9.358,3.546 -13.785,6.021 l 109.173,99.223 z m -7.196,12.89 0.137,-0.192 -102.32,-111.805 c -4.096,2.303 -8.007,5.004 -11.715,8.083 L 140.498,29.424 z M 131.425,40.315 131.49,40.25 26.421,-74.325 c -1.722,1.444 -3.402,2.977 -5.034,4.606 -1.616,1.622 -3.145,3.299 -4.602,5.031 l 114.571,105.076 0.069,-0.073 z M 76.383,72.094 c 47.949,0 86.834,-38.882 86.834,-86.827 0,-47.941 -38.885,-86.817 -86.834,-86.817 -47.938,0 -86.817,38.876 -86.817,86.817 0,47.945 38.879,86.827 86.817,86.827 m -2.285,4.031 c 52.268,0 94.646,-42.387 94.646,-94.642 0,-52.268 -42.378,-94.649 -94.646,-94.649 -52.261,0 -94.646,42.381 -94.646,94.649 0,52.255 42.385,94.642 94.646,94.642"
             style="fill:#ee3338;fill-opacity:1;fill-rule:evenodd;stroke:none"
             id="path26" /></g><g
           id="g28"
           transform="translate(301.167,629.8271)"><path
             d="m 0,0 c -16.462,0 -30.198,-13.42 -30.198,-29.905 l 0,-127.916 42.893,0 0,56.911 32.954,0 11.259,41.302 -44.213,0 0,23.867 50.708,0 L 73.143,0 0,0 z"
             style="fill:#0098db;fill-opacity:1;fill-rule:evenodd;stroke:none"
             id="path30" /></g><g
           id="g32"
           transform="translate(655.0781,472.0195)"><path
             d="m 0,0 c -5.616,32.346 -16.848,59.705 -33.879,76.823 8.076,5.911 11.203,8.423 15.932,13.554 10.586,11.513 7.63,30.6 -5.891,30.6 l -16.282,0 0,-120.977 -39.174,0 0,157.742 67.327,0 c 22.365,0 40.814,-20.592 40.814,-45.848 0,-14.2 -5.43,-26.648 -14.558,-35.071 C 28.874,61.977 36.765,30.676 39.267,0 L 0,0 z"
             style="fill:#0098db;fill-opacity:1;fill-rule:evenodd;stroke:none"
             id="path34" /></g><g
           id="g36"
           transform="translate(693.6025,629.7617)"><path
             d="m 0,0 97.038,0 0,-36.765 -29.101,0 0,-120.977 -38.829,0 0,120.977 L 0,-36.765 0,0 z"
             style="fill:#0098db;fill-opacity:1;fill-rule:evenodd;stroke:none"
             id="path38" /></g><g
           id="g40"
           transform="translate(801.9668,629.7617)"><path
             d="m 0,0 40.203,0 0,-69.101 37.074,0 0,69.101 40.216,0 0,-157.742 -40.216,0 0,52.842 -37.074,0 0,-52.842 -40.203,0 L 0,0 z"
             style="fill:#0098db;fill-opacity:1;fill-rule:evenodd;stroke:none"
             id="path42" /></g><g
           id="g44"
           transform="translate(270.959,410.3447)"><path
             d="m 0,0 0,27.844 16.3,0 0,-4.729 -11.547,0 0,-6.543 10.007,0 0,-4.722 -10.007,0 L 4.753,0 0,0 z"
             style="fill:#0098db;fill-opacity:1;fill-rule:nonzero;stroke:none"
             id="path46" /></g><g
           id="g48"
           transform="translate(294.9395,424.291)"><path
             d="m 0,0 c 0,-3.093 0.629,-5.416 1.894,-6.97 1.261,-1.539 2.825,-2.309 4.691,-2.309 1.883,0 3.44,0.77 4.677,2.296 1.234,1.54 1.852,3.897 1.852,7.072 0,3.121 -0.601,5.424 -1.803,6.915 C 10.107,8.495 8.533,9.251 6.585,9.251 4.64,9.251 3.059,8.488 1.832,6.997 0.608,5.485 0,3.162 0,0 m -4.925,-0.186 c 0,3.21 0.509,5.864 1.527,7.939 1.017,2.076 2.347,3.615 3.986,4.633 1.642,1.017 3.633,1.526 5.97,1.526 3.388,0 6.151,-1.21 8.282,-3.623 2.134,-2.412 3.203,-5.849 3.203,-10.303 0,-4.508 -1.131,-8.042 -3.389,-10.571 -1.983,-2.24 -4.677,-3.368 -8.079,-3.368 -3.424,0 -6.128,1.114 -8.114,3.334 -2.258,2.529 -3.386,6.007 -3.386,10.433"
             style="fill:#0098db;fill-opacity:1;fill-rule:nonzero;stroke:none"
             id="path50" /></g><g
           id="g52"
           transform="translate(321.6973,426.3945)"><path
             d="m 0,0 3.543,0 c 2.165,0 3.544,0.096 4.135,0.281 0.591,0.186 1.072,0.557 1.44,1.107 0.367,0.557 0.55,1.306 0.55,2.227 0,0.887 -0.183,1.595 -0.55,2.131 C 8.75,6.282 8.245,6.66 7.619,6.859 7.173,6.997 5.88,7.065 3.743,7.065 L 0,7.065 0,0 z m -4.742,-16.05 0,27.844 10.052,0 c 2.571,0 4.406,-0.247 5.505,-0.749 C 11.919,10.543 12.822,9.678 13.53,8.447 14.238,7.21 14.592,5.718 14.592,4 14.592,1.828 14.046,0.068 12.946,-1.265 11.85,-2.599 10.293,-3.43 8.269,-3.78 c 1.024,-0.701 1.873,-1.471 2.543,-2.31 0.67,-0.839 1.581,-2.35 2.743,-4.522 l 2.882,-5.438 -5.746,0 -3.443,6.056 C 6.011,-7.802 5.172,-6.427 4.732,-5.884 4.293,-5.334 3.825,-4.956 3.337,-4.757 2.846,-4.543 2.059,-4.44 0.97,-4.44 l -0.97,0 0,-11.61 -4.742,0 z"
             style="fill:#0098db;fill-opacity:1;fill-rule:nonzero;stroke:none"
             id="path54" /></g><g
           id="g56"
           transform="translate(346.0635,410.3936)"><path
             d="m 0,0 0,23.08 -7.021,0 0,4.715 18.781,0 0,-4.715 -7.021,0 L 4.739,0 0,0 z"
             style="fill:#0098db;fill-opacity:1;fill-rule:nonzero;stroke:none"
             id="path58" /></g><g
           id="g60"
           transform="translate(361.0332,410.3447)"><path
             d="m 0,0 0,27.844 4.743,0 0,-10.928 9.42,0 0,10.928 4.742,0 0,-27.844 -4.742,0 0,12.187 -9.42,0 L 4.743,0 0,0 z"
             style="fill:#0098db;fill-opacity:1;fill-rule:nonzero;stroke:none"
             id="path62" /></g><g
           id="g64"
           transform="translate(410.6143,420.71)"><path
             d="m 0,0 4.677,-1.656 c -0.718,-3.031 -1.921,-5.252 -3.605,-6.64 -1.684,-1.402 -3.749,-2.097 -6.203,-2.097 -3.086,0 -5.588,1.107 -7.509,3.328 -2.207,2.556 -3.309,6.013 -3.309,10.357 0,4.605 1.109,8.193 3.33,10.798 1.928,2.248 4.522,3.382 7.78,3.382 2.653,0 4.87,-0.852 6.66,-2.55 1.276,-1.196 2.207,-2.99 2.798,-5.361 L -0.062,8.275 c -0.306,1.457 -0.907,2.578 -1.811,3.348 -0.904,0.783 -1.966,1.182 -3.192,1.182 -1.757,0 -3.186,-0.715 -4.296,-2.131 -1.107,-1.415 -1.66,-3.766 -1.66,-7.024 0,-3.396 0.536,-5.801 1.604,-7.231 1.076,-1.43 2.468,-2.145 4.18,-2.145 1.254,0 2.34,0.455 3.258,1.375 C -1.065,-3.437 -0.405,-1.986 0,0"
             style="fill:#0098db;fill-opacity:1;fill-rule:nonzero;stroke:none"
             id="path66" /></g><g
           id="g68"
           transform="translate(423.2783,424.2637)"><path
             d="m 0,0 c 0,-3.086 0.632,-5.409 1.894,-6.963 1.261,-1.546 2.828,-2.316 4.694,-2.316 1.877,0 3.436,0.77 4.671,2.302 1.237,1.533 1.859,3.898 1.859,7.073 0,3.121 -0.605,5.416 -1.808,6.915 C 10.107,8.502 8.53,9.251 6.588,9.251 4.643,9.251 3.059,8.495 1.832,6.997 0.612,5.485 0,3.162 0,0 m -4.925,-0.179 c 0,3.21 0.506,5.856 1.526,7.932 1.017,2.076 2.347,3.615 3.99,4.633 1.639,1.017 3.629,1.532 5.966,1.532 3.389,0 6.152,-1.216 8.283,-3.629 2.137,-2.412 3.202,-5.849 3.202,-10.303 0,-4.508 -1.13,-8.042 -3.385,-10.571 -1.99,-2.24 -4.677,-3.361 -8.079,-3.361 -3.43,0 -6.131,1.106 -8.118,3.327 -2.261,2.529 -3.385,6.014 -3.385,10.44"
             style="fill:#0098db;fill-opacity:1;fill-rule:nonzero;stroke:none"
             id="path70" /></g><g
           id="g72"
           transform="translate(449.9468,426.3667)"><path
             d="m 0,0 3.54,0 c 2.165,0 3.546,0.103 4.137,0.282 0.592,0.185 1.07,0.556 1.441,1.106 0.364,0.557 0.549,1.306 0.549,2.228 0,0.886 -0.185,1.594 -0.549,2.13 C 8.747,6.289 8.248,6.667 7.619,6.867 7.172,7.004 5.88,7.073 3.736,7.073 L 0,7.073 0,0 z m -4.743,-16.042 0,27.836 10.053,0 c 2.567,0 4.402,-0.247 5.505,-0.749 C 11.918,10.55 12.822,9.685 13.53,8.447 14.235,7.21 14.588,5.726 14.588,4 14.588,1.829 14.045,0.069 12.946,-1.265 11.85,-2.598 10.29,-3.43 8.269,-3.78 c 1.023,-0.701 1.869,-1.471 2.539,-2.309 0.671,-0.839 1.585,-2.351 2.746,-4.523 l 2.883,-5.43 -5.746,0 -3.443,6.048 c -1.237,2.193 -2.076,3.568 -2.519,4.111 -0.437,0.55 -0.904,0.927 -1.396,1.14 -0.491,0.206 -1.278,0.303 -2.367,0.303 l -0.966,0 0,-11.602 -4.743,0 z"
             style="fill:#0098db;fill-opacity:1;fill-rule:nonzero;stroke:none"
             id="path74" /></g><g
           id="g76"
           transform="translate(473.6943,433.4395)"><path
             d="m 0,0 0,-7.884 2.66,0 c 1.787,0 3,0.131 3.643,0.364 0.642,0.241 1.165,0.674 1.577,1.299 0.409,0.626 0.615,1.389 0.615,2.303 0,0.914 -0.209,1.691 -0.636,2.33 C 7.437,-0.962 6.911,-0.543 6.292,-0.323 5.67,-0.117 4.354,0 2.344,0 L 0,0 z m -4.743,-23.115 0,27.837 7.695,0 c 2.862,0 4.739,-0.124 5.619,-0.392 1.408,-0.426 2.571,-1.354 3.481,-2.756 0.918,-1.402 1.371,-3.21 1.371,-5.43 0,-2.007 -0.392,-3.698 -1.185,-5.059 -0.791,-1.36 -1.78,-2.323 -2.963,-2.873 -1.189,-0.55 -3.23,-0.824 -6.134,-0.824 l -3.141,0 0,-10.503 -4.743,0 z"
             style="fill:#0098db;fill-opacity:1;fill-rule:nonzero;stroke:none"
             id="path78" /></g><g
           id="g80"
           transform="translate(494.9531,424.2637)"><path
             d="m 0,0 c 0,-3.086 0.629,-5.409 1.894,-6.963 1.261,-1.546 2.825,-2.316 4.691,-2.316 1.883,0 3.44,0.77 4.681,2.302 1.23,1.533 1.848,3.898 1.848,7.073 0,3.121 -0.601,5.416 -1.804,6.915 C 10.107,8.502 8.533,9.251 6.585,9.251 4.643,9.251 3.059,8.495 1.835,6.997 0.612,5.485 0,3.162 0,0 m -4.928,-0.179 c 0,3.21 0.509,5.856 1.53,7.932 1.013,2.076 2.343,3.615 3.989,4.633 1.639,1.017 3.63,1.532 5.967,1.532 3.391,0 6.148,-1.216 8.282,-3.629 2.137,-2.412 3.202,-5.849 3.202,-10.303 0,-4.508 -1.13,-8.042 -3.388,-10.571 -1.987,-2.24 -4.674,-3.361 -8.076,-3.361 -3.427,0 -6.135,1.106 -8.118,3.327 -2.254,2.529 -3.388,6.014 -3.388,10.44"
             style="fill:#0098db;fill-opacity:1;fill-rule:nonzero;stroke:none"
             id="path82" /></g><g
           id="g84"
           transform="translate(521.6216,426.3394)"><path
             d="m 0,0 3.543,0 c 2.165,0 3.543,0.096 4.135,0.282 0.591,0.185 1.069,0.556 1.436,1.106 0.368,0.557 0.553,1.3 0.553,2.227 0,0.88 -0.185,1.588 -0.553,2.124 C 8.747,6.282 8.248,6.653 7.619,6.86 7.172,6.997 5.877,7.066 3.739,7.066 L 0,7.066 0,0 z m -4.742,-16.015 0,27.796 10.052,0 c 2.57,0 4.406,-0.247 5.505,-0.749 1.1,-0.502 2.007,-1.368 2.715,-2.598 0.708,-1.231 1.062,-2.716 1.062,-4.434 0,-2.172 -0.55,-3.931 -1.646,-5.265 -1.1,-1.326 -2.656,-2.158 -4.677,-2.502 1.024,-0.708 1.869,-1.471 2.54,-2.316 0.67,-0.832 1.584,-2.337 2.745,-4.515 l 2.883,-5.417 -5.749,0 -3.44,6.049 c -1.237,2.178 -2.076,3.547 -2.516,4.096 -0.44,0.543 -0.903,0.921 -1.395,1.127 -0.495,0.206 -1.282,0.317 -2.368,0.317 l -0.969,0 0,-11.589 -4.742,0 z"
             style="fill:#0098db;fill-opacity:1;fill-rule:nonzero;stroke:none"
             id="path86" /></g><g
           id="g88"
           transform="translate(553.686,421.3564)"><path
             d="M 0,0 -3.248,10.323 -6.437,0 0,0 z m 8.787,-11.032 -5.185,0 -2.025,6.309 -9.471,0 -1.942,-6.309 -5.083,0 9.166,27.837 5.096,0 9.444,-27.837 z"
             style="fill:#0098db;fill-opacity:1;fill-rule:nonzero;stroke:none"
             id="path90" /></g><g
           id="g92"
           transform="translate(567.4292,410.3242)"><path
             d="m 0,0 0,23.115 -7.015,0 0,4.722 18.779,0 0,-4.722 -7.022,0 L 4.742,0 0,0 z"
             style="fill:#0098db;fill-opacity:1;fill-rule:nonzero;stroke:none"
             id="path94" /></g><path
           d="m 582.159,438.161 4.742,0 0,-27.837 -4.742,0 0,27.837 z"
           style="fill:#0098db;fill-opacity:1;fill-rule:nonzero;stroke:none"
           id="path96" /><g
           id="g98"
           transform="translate(595.4204,424.2637)"><path
             d="m 0,0 c 0,-3.086 0.632,-5.409 1.894,-6.963 1.262,-1.546 2.828,-2.316 4.701,-2.316 1.877,0 3.43,0.77 4.667,2.302 1.238,1.533 1.856,3.898 1.856,7.073 0,3.121 -0.605,5.416 -1.808,6.915 C 10.107,8.502 8.533,9.251 6.595,9.251 4.646,9.251 3.062,8.495 1.832,6.997 0.615,5.485 0,3.162 0,0 m -4.921,-0.179 c 0,3.21 0.508,5.856 1.523,7.932 1.02,2.076 2.35,3.615 3.989,4.633 1.639,1.017 3.629,1.532 5.969,1.532 3.389,0 6.146,-1.216 8.283,-3.629 2.138,-2.412 3.196,-5.849 3.196,-10.303 0,-4.508 -1.127,-8.042 -3.381,-10.571 -1.98,-2.24 -4.674,-3.361 -8.083,-3.361 -3.423,0 -6.125,1.106 -8.108,3.327 -2.268,2.529 -3.388,6.014 -3.388,10.44"
             style="fill:#0098db;fill-opacity:1;fill-rule:nonzero;stroke:none"
             id="path100" /></g><g
           id="g102"
           transform="translate(617.3496,410.3242)"><path
             d="m 0,0 0,27.837 4.633,0 9.719,-18.585 0,18.585 4.426,0 L 18.778,0 13.994,0 4.434,18.159 4.434,0 0,0 z"
             style="fill:#0098db;fill-opacity:1;fill-rule:nonzero;stroke:none"
             id="path104" /></g><g
           id="g106"
           transform="translate(656.4453,433.46)"><path
             d="m 0,0 0,-7.877 2.667,0 c 1.787,0 2.997,0.124 3.636,0.364 0.646,0.241 1.176,0.674 1.581,1.293 0.405,0.625 0.612,1.395 0.612,2.302 0,0.921 -0.207,1.698 -0.633,2.33 C 7.437,-0.955 6.914,-0.536 6.296,-0.316 5.678,-0.11 4.357,0 2.337,0 L 0,0 z m -4.736,-23.115 0,27.844 7.691,0 c 2.859,0 4.736,-0.124 5.616,-0.399 1.409,-0.426 2.564,-1.347 3.485,-2.749 0.907,-1.402 1.375,-3.21 1.375,-5.43 0,-2.007 -0.4,-3.698 -1.197,-5.059 -0.79,-1.361 -1.773,-2.323 -2.955,-2.873 -1.196,-0.543 -3.238,-0.824 -6.131,-0.824 l -3.148,0 0,-10.51 -4.736,0 z"
             style="fill:#0098db;fill-opacity:1;fill-rule:nonzero;stroke:none"
             id="path108" /></g><g
           id="g110"
           transform="translate(673.7041,438.189)"><path
             d="m 0,0 4.743,0 0,-14.819 c 0,-2.296 0.062,-3.794 0.172,-4.495 0.22,-1.203 0.729,-2.138 1.525,-2.805 0.797,-0.653 1.856,-0.989 3.163,-0.989 1.126,0 2.027,0.24 2.735,0.701 0.694,0.467 1.175,1.114 1.43,1.946 0.26,0.824 0.391,2.604 0.391,5.326 l 0,15.135 4.742,0 0,-14.379 c 0,-3.677 -0.199,-6.337 -0.618,-7.966 -0.419,-1.643 -1.346,-2.962 -2.798,-3.98 -1.457,-1.017 -3.367,-1.526 -5.746,-1.526 -2.474,0 -4.398,0.427 -5.787,1.265 -1.389,0.838 -2.391,2.021 -3.017,3.546 C 0.31,-21.514 0,-18.696 0,-14.606 L 0,0 z"
             style="fill:#0098db;fill-opacity:1;fill-rule:nonzero;stroke:none"
             id="path112" /></g><g
           id="g114"
           transform="translate(702.3799,422.4834)"><path
             d="m 0,0 0,-7.402 4.446,0 c 1.94,0 3.203,0.095 3.754,0.295 0.549,0.185 1.017,0.578 1.389,1.148 0.385,0.57 0.57,1.292 0.57,2.186 0,0.9 -0.199,1.649 -0.605,2.226 -0.399,0.585 -0.935,0.99 -1.602,1.21 C 7.292,-0.11 5.925,0 3.87,0 L 0,0 z m 0,11.08 0,-6.447 3.161,0 c 1.904,0 3.072,0.027 3.526,0.096 0.812,0.117 1.458,0.46 1.912,0.997 C 9.065,6.262 9.3,7.004 9.3,7.911 9.3,8.75 9.106,9.417 8.735,9.932 8.351,10.44 7.897,10.757 7.368,10.887 6.832,11.018 5.3,11.08 2.771,11.08 L 0,11.08 z m -4.743,4.626 9.5,0 c 2.591,0 4.412,-0.227 5.464,-0.681 1.051,-0.461 1.944,-1.258 2.667,-2.42 0.728,-1.147 1.086,-2.453 1.086,-3.91 0,-1.347 -0.31,-2.557 -0.936,-3.63 -0.618,-1.086 -1.422,-1.889 -2.412,-2.412 1.395,-0.488 2.481,-1.299 3.279,-2.461 0.783,-1.175 1.182,-2.584 1.182,-4.261 0,-2.014 -0.509,-3.726 -1.52,-5.134 -1.009,-1.389 -2.206,-2.255 -3.58,-2.585 -0.963,-0.227 -3.189,-0.351 -6.681,-0.351 l -8.049,0 0,27.845 z"
             style="fill:#0098db;fill-opacity:1;fill-rule:nonzero;stroke:none"
             id="path116" /></g><g
           id="g118"
           transform="translate(721.6318,410.3447)"><path
             d="m 0,0 0,27.837 4.743,0 0,-23.06 11.945,0 L 16.688,0 0,0 z"
             style="fill:#0098db;fill-opacity:1;fill-rule:nonzero;stroke:none"
             id="path120" /></g><path
           d="m 741.592,438.189 4.742,0 0,-27.844 -4.742,0 0,27.844 z"
           style="fill:#0098db;fill-opacity:1;fill-rule:nonzero;stroke:none"
           id="path122" /><g
           id="g124"
           transform="translate(766.0684,420.7373)"><path
             d="m 0,0 4.68,-1.663 c -0.729,-3.031 -1.924,-5.244 -3.616,-6.64 -1.683,-1.395 -3.746,-2.096 -6.199,-2.096 -3.094,0 -5.594,1.114 -7.506,3.334 -2.213,2.556 -3.312,6.006 -3.312,10.357 0,4.599 1.113,8.193 3.326,10.792 1.932,2.254 4.523,3.381 7.781,3.381 2.653,0 4.873,-0.852 6.666,-2.543 C 3.086,13.72 4.021,11.933 4.611,9.561 L -0.062,8.269 c -0.303,1.464 -0.915,2.585 -1.815,3.354 -0.907,0.783 -1.966,1.182 -3.195,1.182 -1.754,0 -3.184,-0.715 -4.297,-2.13 -1.107,-1.416 -1.656,-3.767 -1.656,-7.032 0,-3.388 0.529,-5.794 1.601,-7.224 1.072,-1.43 2.461,-2.145 4.18,-2.145 1.258,0 2.336,0.455 3.258,1.375 C -1.072,-3.443 -0.406,-2 0,0"
             style="fill:#0098db;fill-opacity:1;fill-rule:nonzero;stroke:none"
             id="path126" /></g><g
           id="g128"
           transform="translate(802.0225,420.7373)"><path
             d="m 0,0 4.681,-1.663 c -0.715,-3.031 -1.918,-5.244 -3.602,-6.64 -1.683,-1.395 -3.746,-2.096 -6.207,-2.096 -3.093,0 -5.595,1.114 -7.506,3.334 -2.213,2.556 -3.312,6.006 -3.312,10.357 0,4.599 1.113,8.193 3.334,10.792 1.931,2.254 4.515,3.381 7.78,3.381 2.645,0 4.873,-0.852 6.653,-2.543 1.272,-1.202 2.213,-2.989 2.797,-5.361 l -4.68,-1.292 c -0.295,1.464 -0.9,2.585 -1.808,3.354 -0.901,0.783 -1.965,1.182 -3.195,1.182 -1.753,0 -3.183,-0.715 -4.289,-2.13 -1.114,-1.416 -1.665,-3.767 -1.665,-7.032 0,-3.388 0.538,-5.794 1.602,-7.224 1.072,-1.43 2.468,-2.145 4.18,-2.145 1.258,0 2.349,0.455 3.258,1.375 C -1.059,-3.443 -0.405,-2 0,0"
             style="fill:#0098db;fill-opacity:1;fill-rule:nonzero;stroke:none"
             id="path130" /></g><g
           id="g132"
           transform="translate(814.6895,424.291)"><path
             d="m 0,0 c 0,-3.093 0.626,-5.416 1.891,-6.97 1.264,-1.539 2.832,-2.309 4.701,-2.309 1.883,0 3.436,0.77 4.674,2.296 1.23,1.54 1.849,3.897 1.849,7.072 0,3.121 -0.598,5.424 -1.801,6.915 C 10.111,8.495 8.53,9.251 6.592,9.251 4.64,9.251 3.059,8.488 1.836,6.997 0.611,5.485 0,3.162 0,0 m -4.928,-0.186 c 0,3.21 0.508,5.864 1.533,7.939 1.017,2.076 2.344,3.615 3.987,4.633 1.642,1.017 3.629,1.526 5.959,1.526 3.394,0 6.158,-1.21 8.289,-3.623 2.131,-2.412 3.203,-5.849 3.203,-10.303 0,-4.508 -1.127,-8.042 -3.389,-10.571 -1.986,-2.24 -4.68,-3.368 -8.076,-3.368 -3.43,0 -6.131,1.114 -8.117,3.334 -2.262,2.529 -3.389,6.007 -3.389,10.433"
             style="fill:#0098db;fill-opacity:1;fill-rule:nonzero;stroke:none"
             id="path134" /></g><path
           d="m 836.43,415.527 4.564,0 0,-5.183 -4.564,0 0,5.183 z"
           style="fill:#0098db;fill-opacity:1;fill-rule:nonzero;stroke:none"
           id="path136" /><g
           id="g138"
           transform="translate(845.5029,415.5273)"><path
             d="m 0,0 4.563,0 0,-3.698 c 0,-2.096 -0.267,-3.65 -0.796,-4.674 C 3.12,-9.63 2.034,-10.563 0.522,-11.183 l -0.893,2.131 c 0.907,0.344 1.554,0.804 1.952,1.389 0.405,0.577 0.605,1.416 0.639,2.48 L 0,-5.183 0,0 z"
             style="fill:#0098db;fill-opacity:1;fill-rule:nonzero;stroke:none"
             id="path140" /></g><g
           id="g142"
           transform="translate(855.0156,410.3447)"><path
             d="m 0,0 0,27.837 4.742,0 0,-23.06 11.933,0 L 16.675,0 0,0 z"
             style="fill:#0098db;fill-opacity:1;fill-rule:nonzero;stroke:none"
             id="path144" /></g><g
           id="g146"
           transform="translate(878.0273,410.3447)"><path
             d="m 0,0 0,23.115 -7.018,0 0,4.729 18.786,0 0,-4.729 -7.026,0 L 4.742,0 0,0 z"
             style="fill:#0098db;fill-opacity:1;fill-rule:nonzero;stroke:none"
             id="path148" /></g><g
           id="g150"
           transform="translate(897.6299,433.46)"><path
             d="m 0,0 0,-18.379 3.588,0 c 1.526,0 2.653,0.137 3.341,0.412 0.693,0.276 1.258,0.701 1.69,1.265 0.454,0.55 0.812,1.443 1.101,2.66 0.288,1.209 0.439,2.811 0.439,4.791 0,2.048 -0.151,3.677 -0.447,4.859 C 9.417,-3.203 8.949,-2.268 8.331,-1.588 7.712,-0.907 6.942,-0.454 6.049,-0.24 5.382,-0.083 4.09,0 2.165,0 L 0,0 z m -4.742,4.729 8.716,0 c 2.191,0 3.862,-0.234 4.975,-0.708 1.128,-0.481 2.158,-1.271 3.101,-2.399 0.941,-1.134 1.683,-2.591 2.219,-4.385 0.537,-1.8 0.811,-4.042 0.811,-6.709 0,-2.405 -0.288,-4.508 -0.852,-6.282 -0.563,-1.773 -1.278,-3.175 -2.137,-4.22 -0.86,-1.045 -1.904,-1.814 -3.142,-2.343 -1.223,-0.53 -2.803,-0.798 -4.729,-0.798 l -8.962,0 0,27.844 z"
             style="fill:#0098db;fill-opacity:1;fill-rule:nonzero;stroke:none"
             id="path152" /></g><path
           d="m 914.896,415.548 4.549,0 0,-5.182 -4.549,0 0,5.182 z"
           style="fill:#0098db;fill-opacity:1;fill-rule:nonzero;stroke:none"
           id="path154" /></g></g></g></svg>