<?xml version="1.0" encoding="UTF-8" standalone="no"?>
<!-- Created with Inkscape (http://www.inkscape.org/) -->

<svg
   xmlns:dc="http://purl.org/dc/elements/1.1/"
   xmlns:cc="http://creativecommons.org/ns#"
   xmlns:rdf="http://www.w3.org/1999/02/22-rdf-syntax-ns#"
   xmlns:svg="http://www.w3.org/2000/svg"
   xmlns="http://www.w3.org/2000/svg"
   xmlns:sodipodi="http://sodipodi.sourceforge.net/DTD/sodipodi-0.dtd"
   xmlns:inkscape="http://www.inkscape.org/namespaces/inkscape"
   id="svg2"
   version="1.1"
   inkscape:version="0.48.4 r9939"
   width="1052.3622"
   height="744.09446"
   xml:space="preserve"
   sodipodi:docname="logo_no end to end.ai"><metadata
     id="metadata8"><rdf:RDF><cc:Work
         rdf:about=""><dc:format>image/svg+xml</dc:format><dc:type
           rdf:resource="http://purl.org/dc/dcmitype/StillImage" /><dc:title></dc:title></cc:Work></rdf:RDF></metadata><defs
     id="defs6"><clipPath
       clipPathUnits="userSpaceOnUse"
       id="clipPath16"><path
         d="m 407.83496,-260.37012 c 0,0 35.12598,-20.28222 35.12598,-20.28222 0,0 0.27148,-0.15039 0.27148,-0.15039 0,0 34.85156,-20.12842 34.85156,-20.12842 1.5,-0.86328 2.42872,-2.47217 2.42872,-4.20264 0,-1.73828 -0.92872,-3.34668 -2.42872,-4.21142 0,0 -35.12304,-20.28028 -35.12304,-20.28028 0,0 -5.26563,-3.03467 -5.26563,-3.03467 0,0 -29.86035,-17.23681 -29.86035,-17.23681 -1.49902,-0.87451 -3.35205,-0.87451 -4.84766,0 -1.5122,0.85644 -2.43652,2.46875 -2.43652,4.20849 0,0 0,81.10157 0,81.10157 0,1.74609 0.92432,3.34765 2.43652,4.21679 1.49561,0.86524 3.34864,0.86524 4.84766,0 z"
         id="path18" /></clipPath><linearGradient
       x1="0"
       y1="0"
       x2="1"
       y2="0"
       gradientUnits="userSpaceOnUse"
       gradientTransform="matrix(-6.93579,29.59227,-29.59227,-6.93579,434.47461,-299.57178)"
       spreadMethod="pad"
       id="linearGradient24"><stop
         style="stop-opacity:1;stop-color:#d41042"
         offset="0"
         id="stop26" /><stop
         style="stop-opacity:1;stop-color:#880925"
         offset="1"
         id="stop28" /></linearGradient><clipPath
       clipPathUnits="userSpaceOnUse"
       id="clipPath36"><path
         d="m 401.23291,-332.08545 c 0,0 0.006,-13.76123 0.006,-13.76123 0,0 0.5039,-2.65967 2.15234,-3.41943 1.64697,-0.75928 2.40625,-1.0127 7.47119,1.89941 5.06446,2.91357 62.68213,36.21484 62.68213,36.21484 0,0 6.37403,2.16407 6.37403,5.97217 0,0 -6.59961,-8.37695 -78.68604,-26.90576 z"
         id="path38" /></clipPath><linearGradient
       x1="0"
       y1="0"
       x2="1"
       y2="0"
       gradientUnits="userSpaceOnUse"
       gradientTransform="matrix(-25.54886,55.03023,-55.03023,-25.54886,449.13867,-344.16943)"
       spreadMethod="pad"
       id="linearGradient44"><stop
         style="stop-opacity:1;stop-color:#ffffff"
         offset="0"
         id="stop46" /><stop
         style="stop-opacity:1;stop-color:#d41042"
         offset="1"
         id="stop48" /></linearGradient><clipPath
       clipPathUnits="userSpaceOnUse"
       id="clipPath66"><path
         d="m 271.93164,-290.10156 c 0,0 54.20752,-31.30176 54.20752,-31.30176 0,0 0.41895,-0.23389 0.41895,-0.23389 0,0 53.78808,-31.05957 53.78808,-31.05957 2.31348,-1.33447 3.74707,-3.81494 3.74707,-6.4873 0,-2.68408 -1.43359,-5.16455 -3.74707,-6.49951 0,0 -54.20703,-31.29737 -54.20703,-31.29737 0,0 -8.125,-4.68261 -8.125,-4.68261 0,0 -46.08252,-26.60303 -46.08252,-26.60303 -2.31348,-1.35059 -5.1709,-1.35059 -7.479,0 -2.33399,1.32373 -3.76123,3.81103 -3.76123,6.49512 0,0 0,125.16308 0,125.16308 0,2.69043 1.42724,5.16309 3.76123,6.50684 2.3081,1.33593 5.16552,1.33593 7.479,0 z"
         id="path68" /></clipPath><linearGradient
       x1="0"
       y1="0"
       x2="1"
       y2="0"
       gradientUnits="userSpaceOnUse"
       gradientTransform="matrix(-10.7039,45.66928,-45.66928,-10.7039,313.04541,-350.60107)"
       spreadMethod="pad"
       id="linearGradient74"><stop
         style="stop-opacity:1;stop-color:#d3d2d2"
         offset="0"
         id="stop76" /><stop
         style="stop-opacity:1;stop-color:#a7a5a6"
         offset="1"
         id="stop78" /></linearGradient><clipPath
       clipPathUnits="userSpaceOnUse"
       id="clipPath86"><path
         d="m 261.39795,-359.33789 c 0,0 -0.0527,-60.97315 -0.0527,-60.97315 0,0 -0.24462,-4.55175 2.33643,-6.51757 2.9502,-2.21289 5.40967,-2.82715 11.92432,1.59814 0,0 104.37402,60.23926 104.37402,60.23926 1.35059,0.4917 3.44482,2.95068 3.44482,5.65576 0,2.70508 -2.08984,5.28565 -3.44335,6.02344 -0.84082,0.45752 -11.5752,6.68652 -19.60059,11.34619 0,0 -63.19385,-14.94043 -98.98291,-17.37207 z"
         id="path88" /></clipPath><linearGradient
       x1="0"
       y1="0"
       x2="1"
       y2="0"
       gradientUnits="userSpaceOnUse"
       gradientTransform="matrix(-31.21318,98.51752,-98.51752,-31.21318,321.20166,-386.70947)"
       spreadMethod="pad"
       id="linearGradient94"><stop
         style="stop-opacity:1;stop-color:#ffffff"
         offset="0"
         id="stop96" /><stop
         style="stop-opacity:1;stop-color:#a7a5a6"
         offset="1"
         id="stop98" /></linearGradient></defs><sodipodi:namedview
     pagecolor="#ffffff"
     bordercolor="#666666"
     borderopacity="1"
     objecttolerance="10"
     gridtolerance="10"
     guidetolerance="10"
     inkscape:pageopacity="0"
     inkscape:pageshadow="2"
     inkscape:window-width="640"
     inkscape:window-height="480"
     id="namedview4"
     showgrid="false"
     inkscape:zoom="0.31716402"
     inkscape:cx="526.18109"
     inkscape:cy="372.04724"
     inkscape:window-x="53"
     inkscape:window-y="24"
     inkscape:window-maximized="0"
     inkscape:current-layer="g10" /><g
     id="g10"
     inkscape:groupmode="layer"
     inkscape:label="logo_no end to end"
     transform="matrix(1.25,0,0,-1.25,0,744.09446)"><g
       id="g12"
       transform="scale(1,-1)"><g
         id="g14"
         clip-path="url(#clipPath16)"><g
           id="g20"><g
             id="g22"><path
               d="m 407.83496,-260.37012 c 0,0 35.12598,-20.28222 35.12598,-20.28222 0,0 0.27148,-0.15039 0.27148,-0.15039 0,0 34.85156,-20.12842 34.85156,-20.12842 1.5,-0.86328 2.42872,-2.47217 2.42872,-4.20264 0,-1.73828 -0.92872,-3.34668 -2.42872,-4.21142 0,0 -35.12304,-20.28028 -35.12304,-20.28028 0,0 -5.26563,-3.03467 -5.26563,-3.03467 0,0 -29.86035,-17.23681 -29.86035,-17.23681 -1.49902,-0.87451 -3.35205,-0.87451 -4.84766,0 -1.5122,0.85644 -2.43652,2.46875 -2.43652,4.20849 0,0 0,81.10157 0,81.10157 0,1.74609 0.92432,3.34765 2.43652,4.21679 1.49561,0.86524 3.34864,0.86524 4.84766,0 z"
               style="fill:url(#linearGradient24);stroke:none"
               id="path30" /></g></g></g></g><g
       id="g32"
       transform="scale(1,-1)"><g
         id="g34"
         clip-path="url(#clipPath36)"><g
           id="g40"><g
             id="g42"><path
               d="m 401.23291,-332.08545 c 0,0 0.006,-13.76123 0.006,-13.76123 0,0 0.5039,-2.65967 2.15234,-3.41943 1.64697,-0.75928 2.40625,-1.0127 7.47119,1.89941 5.06446,2.91357 62.68213,36.21484 62.68213,36.21484 0,0 6.37403,2.16407 6.37403,5.97217 0,0 -6.59961,-8.37695 -78.68604,-26.90576 z"
               style="fill:url(#linearGradient44);stroke:none"
               id="path50" /></g></g></g></g><g
       id="g52"
       transform="scale(1,-1)"><path
         d="m 259.29492,-194.12598 c 0,0 0,-75.38281 0,-75.38281 0,0 24.94434,0 24.94434,0 0,0 0,75.38281 0,75.38281 0,0 -24.94434,0 -24.94434,0 z"
         style="fill:#d41042;fill-opacity:1;fill-rule:nonzero;stroke:none"
         id="path54" /><path
         d="m 349.42236,-247.3291 c 0,0 0,53.20312 0,53.20312 0,0 -25.24511,0 -25.24511,0 0,0 0,-53.20312 0,-53.20312 0,0 -32.11182,0 -32.11182,0 0,0 0,-22.17969 0,-22.17969 0,0 89.48633,0 89.48633,0 0,0 0,22.17969 0,22.17969 0,0 -32.1294,0 -32.1294,0 z"
         style="fill:#d41042;fill-opacity:1;fill-rule:nonzero;stroke:none"
         id="path56" /><path
         d="m 489.79785,-198.75684 c 0,3.86524 2.75293,6.17383 7.36231,6.17383 4.61132,0 7.36132,-2.30859 7.36132,-6.17383 0,0 0,-33.05859 0,-33.05859 0,-1.32227 0.56543,-2.36523 1.77832,-3.2832 1.32032,-1.00391 2.85352,-1.49219 4.68653,-1.49219 0,0 22.27637,0 22.27637,0 1.82714,0 3.36132,0.48828 4.67871,1.49219 1.2207,0.92187 1.78515,1.96484 1.78515,3.2832 0,0 0,33.05859 0,33.05859 0,3.86524 2.75098,6.17383 7.35938,6.17383 4.60547,0 7.3584,-2.30859 7.3584,-6.17383 0,0 0,-33.05859 0,-33.05859 0,-4.83398 -2.12598,-8.96875 -6.31739,-12.29492 -4.12011,-3.25586 -9.11914,-4.90235 -14.86425,-4.90235 0,0 -22.27637,0 -22.27637,0 m -43.34375,39.23047 c 0,1.31836 -0.56738,2.36328 -1.78125,3.28711 -1.31641,1.00196 -2.8457,1.48633 -4.68067,1.48633 0,0 -33.79882,0 -33.79882,0 -1.83399,0 -3.36817,-0.48437 -4.68262,-1.48633 -1.21582,-0.92187 -1.78125,-1.96289 -1.78125,-3.28711 0,0 0,-22.0332 0,-22.0332 0,-1.32031 0.56543,-2.36328 1.77637,-3.2793 1.32519,-1.00781 2.85546,-1.49609 4.6875,-1.49609 0,0 33.79882,0 33.79882,0 1.83008,0 3.36231,0.48633 4.67579,1.48633 1.21875,0.92969 1.78613,1.9707 1.78613,3.28906 0,0 0,22.0332 0,22.0332 z m 8.40527,-34.32812 c -4.11816,-3.25586 -9.12012,-4.90235 -14.86719,-4.90235 0,0 -33.79882,0 -33.79882,0 -5.74756,0 -10.74952,1.64649 -14.86524,4.9004 -4.19433,3.32812 -6.31836,7.46289 -6.31836,12.29687 0,0 0,22.0332 0,22.0332 0,4.79297 2.13867,8.91797 6.3584,12.26172 4.13428,3.27539 9.12207,4.9375 14.8252,4.9375 0,0 33.79882,0 33.79882,0 5.53223,0 10.417,-1.58203 14.49805,-4.68554 4.43359,-3.30469 6.68359,-7.51368 6.68359,-12.51368 0,0 0,-22.0332 0,-22.0332 0,-4.83398 -2.12402,-8.96875 -6.31445,-12.29492 z m 100.55567,12.29492 c 0,-1.32031 0.56445,-2.36523 1.77539,-3.2832 1.32226,-1.00391 2.85449,-1.49219 4.6875,-1.49219 0,0 33.79589,0 33.79589,0 1.80079,0 3.29688,0.45117 4.54981,1.36523 1.30469,0.97266 1.91406,2.05664 1.91406,3.41016 0,1.33008 -0.57031,2.38477 -1.79492,3.32617 -1.31836,1.01758 -2.84766,1.51172 -4.66895,1.51172 0,0 -40.25878,0 -40.25878,0 0,0 0,-4.83789 0,-4.83789 z m 53.76464,26.80664 c 0,0 -47.30175,0 -47.30175,0 -1.83692,0 -3.3711,-0.48437 -4.68848,-1.48633 -1.20996,-0.91797 -1.77441,-1.96484 -1.77441,-3.28711 0,0 0,-4.83789 0,-4.83789 0,0 40.25878,0 40.25878,0 5.5254,0 10.40235,-1.55664 14.51758,-4.63281 4.42285,-3.34375 6.66895,-7.56836 6.66895,-12.5625 0,-4.83594 -2.12598,-8.9707 -6.32031,-12.29492 -4.11524,-3.25195 -9.11329,-4.90235 -14.86622,-4.90235 0,0 -33.79589,0 -33.79589,0 -5.74805,0 -10.74903,1.64649 -14.86328,4.9004 -4.19727,3.32617 -6.3252,7.46093 -6.3252,12.29687 0,0 0,22.0332 0,22.0332 0,4.79297 2.14062,8.91797 6.36035,12.26172 4.13281,3.27539 9.125,4.9375 14.82813,4.9375 0,0 47.30175,0 47.30175,0 4.6084,0 7.36133,-2.30859 7.36133,-6.17383 0,-3.91601 -2.75293,-6.25195 -7.36133,-6.25195 z"
         style="fill:#a7a5a6;fill-opacity:1;fill-rule:nonzero;stroke:none"
         id="path58" /><path
         d="m 533.1709,-249.0127 c 0,0 -22.27539,0 -22.27539,0 -5.75,0 -10.74707,1.64649 -14.86719,4.90235 -4.19141,3.32617 -6.31738,7.46094 -6.31738,12.29492 0,0 0,33.05859 0,33.05859 0,3.86524 2.75097,6.17383 7.35644,6.17383 4.61035,0 7.35938,-2.30859 7.35938,-6.17383 0,0 0,-33.05859 0,-33.05859 0,-1.31836 0.56738,-2.36133 1.78613,-3.2832 1.32031,-1.00391 2.85156,-1.49219 4.68262,-1.49219 0,0 22.27539,0 22.27539,0"
         style="fill:#a7a5a6;fill-opacity:1;fill-rule:nonzero;stroke:none"
         id="path60" /><g
         id="g62"><g
           id="g64"
           clip-path="url(#clipPath66)"><g
             id="g70"><g
               id="g72"><path
                 d="m 271.93164,-290.10156 c 0,0 54.20752,-31.30176 54.20752,-31.30176 0,0 0.41895,-0.23389 0.41895,-0.23389 0,0 53.78808,-31.05957 53.78808,-31.05957 2.31348,-1.33447 3.74707,-3.81494 3.74707,-6.4873 0,-2.68408 -1.43359,-5.16455 -3.74707,-6.49951 0,0 -54.20703,-31.29737 -54.20703,-31.29737 0,0 -8.125,-4.68261 -8.125,-4.68261 0,0 -46.08252,-26.60303 -46.08252,-26.60303 -2.31348,-1.35059 -5.1709,-1.35059 -7.479,0 -2.33399,1.32373 -3.76123,3.81103 -3.76123,6.49512 0,0 0,125.16308 0,125.16308 0,2.69043 1.42724,5.16309 3.76123,6.50684 2.3081,1.33593 5.16552,1.33593 7.479,0 z"
                 style="fill:url(#linearGradient74);stroke:none"
                 id="path80" /></g></g></g></g><g
         id="g82"><g
           id="g84"
           clip-path="url(#clipPath86)"><g
             id="g90"><g
               id="g92"><path
                 d="m 261.39795,-359.33789 c 0,0 -0.0527,-60.97315 -0.0527,-60.97315 0,0 -0.24462,-4.55175 2.33643,-6.51757 2.9502,-2.21289 5.40967,-2.82715 11.92432,1.59814 0,0 104.37402,60.23926 104.37402,60.23926 1.35059,0.4917 3.44482,2.95068 3.44482,5.65576 0,2.70508 -2.08984,5.28565 -3.44335,6.02344 -0.84082,0.45752 -11.5752,6.68652 -19.60059,11.34619 0,0 -63.19385,-14.94043 -98.98291,-17.37207 z"
                 style="fill:url(#linearGradient94);stroke:none"
                 id="path100" /></g></g></g></g><path
         d="m 264.81592,-290.73535 c -2.09424,-1.2041 -3.39502,-3.4541 -3.39502,-5.87305 0,0 0,-125.16308 0,-125.16308 0,-2.4292 1.29931,-4.67383 3.39209,-5.86084 2.08545,-1.21973 4.66846,-1.21973 6.75146,-0.004 0.002,0.003 46.08496,26.60449 46.08496,26.60449 0,0 8.125,4.68409 8.125,4.68409 0,0 54.20704,31.29687 54.20704,31.29687 2.0874,1.20215 3.38232,3.4502 3.38232,5.86719 0,2.40771 -1.29492,4.65283 -3.38232,5.85498 0,0 -53.78809,31.06055 -53.78809,31.06055 0.008,-0.005 -0.41065,0.22802 -0.41065,0.22802 -0.008,0.006 -54.21582,31.30518 -54.21582,31.30518 -2.08398,1.20605 -4.66943,1.20703 -6.75097,0 z m 7.48047,1.26465 c 0,0 54.20752,-31.30225 54.20752,-31.30225 -0.009,0.006 0.41015,-0.22754 0.41015,-0.22754 0.009,-0.006 53.79688,-31.06347 53.79688,-31.06347 2.53564,-1.46436 4.11181,-4.19141 4.11181,-7.12012 0,-2.93506 -1.57617,-5.66797 -4.11181,-7.13233 0,0 -54.20703,-31.29687 -54.20703,-31.29687 0,0 -8.125,-4.68164 -8.125,-4.68164 0,0 -46.08252,-26.60401 -46.08252,-26.60401 -2.53418,-1.479 -5.68116,-1.479 -8.21289,0.003 -2.53907,1.44043 -4.12159,4.17139 -4.12159,7.12452 0,0 0,125.16308 0,125.16308 0,2.93848 1.58106,5.67481 4.12696,7.1377 2.52734,1.46484 5.67334,1.46484 8.20752,0 z"
         style="fill:#a7a5a6;fill-opacity:1;fill-rule:nonzero;stroke:none"
         id="path102" /><path
         d="m 403.33057,-260.96973 c -1.28809,-0.74023 -2.08887,-2.125 -2.08887,-3.61718 0,0 0,-81.10157 0,-81.10157 0,-1.49609 0.79785,-2.87939 2.08594,-3.60742 1.28759,-0.75342 2.87744,-0.75342 4.16015,-0.005 0.002,0.003 29.86182,17.23975 29.86182,17.23975 0,0 5.26562,3.03466 5.26562,3.03466 0,-0.001 35.12403,20.28028 35.12403,20.28028 1.28515,0.74023 2.08398,2.12549 2.08398,3.61279 0,1.48438 -0.79883,2.86475 -2.08398,3.60449 0,0 -34.85254,20.12696 -34.85254,20.12696 0.0117,-0.006 -0.26172,0.14648 -0.26172,0.14648 -0.01,0.006 -35.13477,20.28613 -35.13477,20.28613 -1.2832,0.74414 -2.87646,0.74414 -4.15966,0 z m 4.84912,1.19727 c 0,0 35.125,-20.28223 35.125,-20.28223 -0.01,0.006 0.26269,-0.14453 0.26269,-0.14453 0.009,-0.006 34.86133,-20.1333 34.86133,-20.1333 1.71094,-0.98633 2.77344,-2.82519 2.77344,-4.80127 0,-1.98047 -1.0625,-3.82226 -2.77344,-4.80957 0,0 -35.12402,-20.28076 -35.12402,-20.28076 0,0 -5.26563,-3.03418 -5.26563,-3.03418 0,0 -29.85937,-17.23731 -29.85937,-17.23731 -1.70801,-0.99707 -3.83203,-0.99707 -5.54151,0.003 -1.70996,0.96826 -2.77832,2.81055 -2.77832,4.80371 0,0 0,81.10157 0,81.10157 0,1.98437 1.0669,3.83007 2.78369,4.81445 1.70411,0.98828 3.82666,0.98828 5.53614,0 z"
         style="fill:#d41042;fill-opacity:1;fill-rule:nonzero;stroke:none"
         id="path104" /></g></g></svg>