<?xml version="1.0" encoding="UTF-8" standalone="no"?>
<!-- Created with Inkscape (http://www.inkscape.org/) -->

<svg
   xmlns:dc="http://purl.org/dc/elements/1.1/"
   xmlns:cc="http://creativecommons.org/ns#"
   xmlns:rdf="http://www.w3.org/1999/02/22-rdf-syntax-ns#"
   xmlns:svg="http://www.w3.org/2000/svg"
   xmlns="http://www.w3.org/2000/svg"
   xmlns:sodipodi="http://sodipodi.sourceforge.net/DTD/sodipodi-0.dtd"
   xmlns:inkscape="http://www.inkscape.org/namespaces/inkscape"
   id="svg2"
   version="1.1"
   inkscape:version="0.48.4 r9939"
   width="1023.75"
   height="990"
   xml:space="preserve"
   sodipodi:docname="01.ndrs_logo_@2012-05-30.ai"><metadata
     id="metadata8"><rdf:RDF><cc:Work
         rdf:about=""><dc:format>image/svg+xml</dc:format><dc:type
           rdf:resource="http://purl.org/dc/dcmitype/StillImage" /><dc:title></dc:title></cc:Work></rdf:RDF></metadata><defs
     id="defs6"><clipPath
       clipPathUnits="userSpaceOnUse"
       id="clipPath16"><path
         d="M 0,792 819,792 819,0 0,0 0,792 z"
         id="path18" /></clipPath></defs><sodipodi:namedview
     pagecolor="#ffffff"
     bordercolor="#666666"
     borderopacity="1"
     objecttolerance="10"
     gridtolerance="10"
     guidetolerance="10"
     inkscape:pageopacity="0"
     inkscape:pageshadow="2"
     inkscape:window-width="640"
     inkscape:window-height="480"
     id="namedview4"
     showgrid="false"
     inkscape:zoom="0.23838384"
     inkscape:cx="511.875"
     inkscape:cy="495"
     inkscape:window-x="53"
     inkscape:window-y="24"
     inkscape:window-maximized="0"
     inkscape:current-layer="g10" /><g
     id="g10"
     inkscape:groupmode="layer"
     inkscape:label="01.ndrs_logo_@2012-05-30"
     transform="matrix(1.25,0,0,-1.25,0,990)"><g
       id="g12"><g
         id="g14"
         clip-path="url(#clipPath16)"><g
           id="g20"
           transform="translate(168.0889,165.9717)"><path
             d="m 0,0 c -1.271,-0.041 -2.541,-0.093 -3.81,-0.167 1.297,-0.01 2.594,-0.029 3.89,-0.042 l 0,0.144 C 0.052,-0.046 0.028,-0.021 0,0"
             style="fill:#0572c6;fill-opacity:1;fill-rule:nonzero;stroke:none"
             id="path22" /></g><g
           id="g24"
           transform="translate(168.0889,165.9717)"><path
             d="m 0,0 c -1.271,-0.041 -2.541,-0.093 -3.81,-0.167 1.297,-0.01 2.594,-0.029 3.89,-0.042 l 0,0.144 C 0.052,-0.046 0.028,-0.021 0,0 z"
             style="fill:none;stroke:#ffffff;stroke-opacity:1;stroke-width:0.567;stroke-linecap:butt;stroke-linejoin:miter;stroke-miterlimit:2.414;stroke-dasharray:none"
             id="path26" /></g><g
           id="g28"
           transform="translate(489.6963,383.3213)"><path
             d="M 0,0 C 6.494,7.005 13.485,14.59 16.307,17.969 53.434,62.444 73.623,100.98 64.098,113.87 53.562,128.126 9.896,106.628 -41.002,64.425 l 0.176,-0.052 c 38.806,30.273 73.127,46.19 81.481,36.44 C 47.939,92.312 33.45,66.672 6.479,37.173 4.562,35.075 -1.778,28.491 -7.374,22.72 -3.414,15.903 -0.827,8.201 0,0"
             style="fill:#d62c24;fill-opacity:1;fill-rule:evenodd;stroke:none"
             id="path30" /></g><g
           id="g32"
           transform="translate(352.7188,389.0352)"><path
             d="m 0,0 c -57.515,-58.684 -93.286,-116.349 -81.196,-132.705 10.239,-13.853 51.759,6.056 100.802,45.917 l -0.533,0 c -36.867,-27.931 -68.808,-42.218 -76.826,-32.858 -9.191,10.725 16.28,48.731 57.753,87.357 L 0,0 z"
             style="fill:#ed1d24;fill-opacity:1;fill-rule:evenodd;stroke:none"
             id="path34" /></g><g
           id="g36"
           transform="translate(532.7461,433.6875)"><path
             d="m 0,0 18.445,0 8.565,0 1.976,0 6.587,0 66.076,0 c 21.988,0 34.314,-17.452 34.999,-34.093 0.732,-17.712 -11.595,-34.678 -34.999,-34.678 l -16.35,0 35.142,-32.281 16.416,0 0,-12.8 -2.48,0 -38.867,0 -49.077,45.081 -10.86,0 0,-32.281 17.128,0 0,-12.8 -51.713,0 0,12.8 17.457,0 0,88.934 L 0,-12.118 0,0 m 35.903,-14.095 47.596,0 c 10.96,0 19.927,-8.967 19.927,-19.927 0,-10.959 -8.967,-19.928 -19.927,-19.928 l -47.596,0 0,39.855"
             style="fill:#0072bb;fill-opacity:1;fill-rule:evenodd;stroke:none"
             id="path38" /></g><g
           id="g40"
           transform="translate(374.2949,420.3877)"><path
             d="m 0,0 31.582,0 c 24.191,0 43.982,-19.792 43.982,-43.982 0,-24.19 -19.792,-43.983 -43.982,-43.983 L 0,-87.965 0,0 m -18.988,13.3 18.988,0 56.228,0 c 31.309,0 56.925,-25.616 56.925,-56.926 0,-31.311 -25.616,-56.926 -56.925,-56.926 l -56.228,0 -18.988,0 -16.276,0 0,12.587 16.276,0 0,87.965 -17.437,0 0,13.3 17.437,0"
             style="fill:#0072bb;fill-opacity:1;fill-rule:evenodd;stroke:none"
             id="path42" /></g><g
           id="g44"
           transform="translate(156.9165,433.6865)"><path
             d="m 0,0 21.624,0 21.897,0 73.116,-73.326 0,60.792 -13.23,0 0,12.534 47.35,0 0,-12.534 -15.319,0 0,-101.318 -9.4,0 -9.401,0 -1.984,0 -80.881,80.125 0,-67.589 13.23,0 0,-12.536 -47.351,0 0,12.536 15.32,0 0,88.433 L 0,-12.883 0,0 z"
             style="fill:#0072bb;fill-opacity:1;fill-rule:evenodd;stroke:none"
             id="path46" /></g><g
           id="g48"
           transform="translate(653.3057,262.5742)"><path
             d="m 0,0 0,6.218 4.468,0 0,13.814 c 0,2.96 -1.622,4.441 -4.865,4.441 -2.914,0 -5.595,-1.415 -8.044,-4.242 l 0,-14.013 4.866,0 0,-6.218 -17.079,0 0,6.218 4.468,0 0,17.663 -4.369,0 0,6.218 11.916,0 0,-3.948 c 3.84,3.092 7.58,4.637 11.221,4.637 2.117,0 4.104,-0.624 5.958,-1.875 2.448,-1.643 3.672,-3.979 3.672,-7.006 l 0,-15.689 4.47,0 L 16.682,0 0,0 m -35.837,15 c 0,2.698 -0.694,4.868 -2.084,6.513 -1.589,1.973 -3.874,2.96 -6.852,2.96 -2.979,0 -5.263,-0.987 -6.851,-2.96 -1.391,-1.645 -2.086,-3.815 -2.086,-6.513 0,-2.564 0.695,-4.702 2.086,-6.414 1.588,-1.974 3.872,-2.96 6.851,-2.96 2.978,0 5.263,0.986 6.852,2.96 1.39,1.712 2.084,3.85 2.084,6.414 m 7.746,0 c 0,-4.672 -1.589,-8.453 -4.766,-11.348 -3.112,-2.894 -7.083,-4.341 -11.916,-4.341 -4.7,0 -8.672,1.447 -11.915,4.341 -3.178,2.96 -4.767,6.744 -4.767,11.348 0,4.737 1.589,8.521 4.767,11.348 3.176,2.961 7.149,4.44 11.915,4.44 4.899,0 8.87,-1.479 11.916,-4.44 3.177,-2.827 4.766,-6.611 4.766,-11.348 m -58.178,-15 0,6.218 4.468,0 0,17.663 -4.568,0 0,6.218 12.312,0 0,-23.881 4.669,0 0,-6.218 -16.881,0 m 1.588,43.42 10.624,0 0,-8.091 -10.624,0 0,8.091 z m -15.877,-19.539 0,-15.788 c 0,-1.644 0.993,-2.435 2.979,-2.368 l 1.985,0.097 0,-5.822 c -1.258,-0.262 -2.349,-0.442 -3.276,-0.543 -0.927,-0.098 -1.654,-0.146 -2.185,-0.146 -2.78,0 -4.682,0.558 -5.709,1.675 -1.026,1.12 -1.54,2.996 -1.54,5.626 l 0,17.269 -4.567,0 0,6.218 4.567,0 0,10.459 7.746,0 0,-10.459 5.362,0 0,-6.218 -5.362,0 M -132.322,0 l 0,3.947 c -3.31,-3.092 -6.918,-4.636 -10.824,-4.636 -6.421,0 -9.632,3.29 -9.632,9.867 l 0,14.703 -4.27,0 0,6.218 12.016,0 0,-18.454 c 0,-2.105 0.198,-3.552 0.596,-4.342 0.727,-1.118 2.052,-1.677 3.97,-1.677 1.656,0 3.146,0.428 4.47,1.283 2.251,1.445 3.376,3.815 3.376,7.105 l 0,9.867 -4.767,0 0,6.218 12.512,0 0,-23.881 4.369,0 0,-6.218 -11.816,0 m -49.739,0 0,6.218 4.568,0 0,34.636 -4.568,0 0,6.218 12.313,0 0,-40.854 4.668,0 0,-6.218 -16.981,0 m -15.777,15 c 0,2.698 -0.696,4.868 -2.086,6.513 -1.588,1.973 -3.872,2.96 -6.851,2.96 -2.979,0 -5.261,-0.987 -6.85,-2.96 -1.392,-1.645 -2.086,-3.815 -2.086,-6.513 0,-2.564 0.694,-4.702 2.086,-6.414 1.589,-1.974 3.871,-2.96 6.85,-2.96 2.979,0 5.263,0.986 6.851,2.96 1.39,1.712 2.086,3.85 2.086,6.414 m 7.744,0 c 0,-4.672 -1.588,-8.453 -4.765,-11.348 -3.112,-2.894 -7.083,-4.341 -11.916,-4.341 -4.7,0 -8.672,1.447 -11.915,4.341 -3.177,2.96 -4.767,6.744 -4.767,11.348 0,4.737 1.59,8.521 4.767,11.348 3.177,2.961 7.149,4.44 11.915,4.44 4.898,0 8.87,-1.479 11.916,-4.44 3.177,-2.827 4.765,-6.611 4.765,-11.348 m -41.395,-1.479 c 0,-2.17 -0.381,-4.144 -1.142,-5.921 -0.762,-1.778 -1.82,-3.307 -3.178,-4.59 -1.357,-1.282 -2.978,-2.285 -4.865,-3.01 -1.887,-0.723 -3.955,-1.085 -6.206,-1.085 -4.568,0 -8.572,1.35 -12.016,4.048 l 0,-2.963 -6.95,0 0,16.085 6.751,0 c 0.398,-3.156 1.624,-5.722 3.675,-7.695 2.053,-1.976 4.668,-2.963 7.844,-2.963 1.986,0 3.708,0.676 5.164,2.025 1.457,1.347 2.184,2.977 2.184,4.883 0,2.829 -1.191,4.769 -3.574,5.822 -0.663,0.198 -1.456,0.428 -2.384,0.692 -0.794,0.264 -1.788,0.575 -2.979,0.938 -1.191,0.359 -2.581,0.772 -4.17,1.232 -3.772,1.12 -6.189,2.006 -7.248,2.666 -3.773,2.5 -5.661,6.315 -5.661,11.446 0,2.96 1.093,5.658 3.278,8.093 2.78,3.221 6.685,4.833 11.717,4.833 3.706,0 7.017,-1.314 9.93,-3.948 l 0,2.963 6.949,0 0,-14.111 -6.652,0 c -0.529,2.564 -1.656,4.637 -3.376,6.215 -1.721,1.581 -3.873,2.369 -6.455,2.369 -1.986,0 -3.606,-0.575 -4.865,-1.726 -1.258,-1.153 -1.886,-2.715 -1.886,-4.688 0,-1.908 1.357,-3.421 4.071,-4.539 0.133,-0.066 0.959,-0.314 2.482,-0.741 1.523,-0.426 3.706,-1.069 6.554,-1.922 4.103,-1.186 7.084,-2.535 8.935,-4.048 2.715,-2.368 4.073,-5.822 4.073,-10.36"
             style="fill:#d62c24;fill-opacity:1;fill-rule:nonzero;stroke:none"
             id="path50" /></g><g
           id="g52"
           transform="translate(764.8203,205.7744)"><path
             d="M 0,0 C 0.571,0 0.999,0.175 1.284,0.527 1.57,0.879 1.713,1.273 1.713,1.712 1.713,2.154 1.57,2.548 1.284,2.9 0.999,3.252 0.571,3.427 0,3.427 -0.572,3.427 -1,3.252 -1.285,2.9 -1.571,2.548 -1.714,2.154 -1.714,1.712 -1.714,1.273 -1.571,0.879 -1.285,0.527 -1,0.175 -0.572,0 0,0 m 5.931,-11.073 0,15.488 C 5.931,5.118 5.767,5.734 5.437,6.261 5.107,6.788 4.657,7.216 4.086,7.548 3.516,7.875 2.878,8.116 2.174,8.271 1.472,8.426 0.77,8.502 0.065,8.502 -0.769,8.502 -1.571,8.426 -2.34,8.271 -3.109,8.116 -3.801,7.832 -4.416,7.415 -5.031,6.996 -5.525,6.436 -5.899,5.734 -6.272,5.031 -6.46,4.152 -6.46,3.098 l 0,-0.626 c 0,-0.286 0.034,-0.67 0.099,-1.154 0.066,-0.484 0.199,-1.055 0.395,-1.714 0.199,-0.659 0.517,-1.405 0.956,-2.241 0.528,-1.098 0.858,-2.044 0.989,-2.835 0.088,-0.439 0.131,-0.81 0.131,-1.12 l 3.033,3.955 c -1.011,0.087 -1.857,0.572 -2.538,1.449 -0.68,0.881 -1.021,1.87 -1.021,2.967 0,1.231 0.405,2.264 1.219,3.097 C -2.384,5.712 -1.318,6.129 0,6.129 1.449,6.129 2.526,5.701 3.229,4.843 3.933,3.986 4.327,2.944 4.416,1.712 4.46,0.966 4.394,0.296 4.218,-0.298 4.042,-0.892 3.733,-1.494 3.295,-2.11 l -6.458,-8.963 -3.297,0 c 0,0.923 -0.055,1.835 -0.164,2.735 -0.11,0.901 -0.274,1.726 -0.494,2.472 -0.132,0.394 -0.352,0.901 -0.659,1.517 -0.308,0.614 -0.604,1.328 -0.89,2.14 -0.286,0.813 -0.538,1.703 -0.758,2.671 -0.22,0.966 -0.308,1.999 -0.263,3.097 0.087,2.373 0.965,4.327 2.636,5.866 1.669,1.537 3.997,2.305 6.986,2.305 1.757,0 3.262,-0.23 4.514,-0.692 C 5.7,10.577 6.722,9.996 7.513,9.293 8.304,8.589 8.875,7.787 9.228,6.887 9.578,5.985 9.754,5.073 9.754,4.152 l 0,-15.225 -3.823,0 m -28.076,30.12 c 0.527,0 0.922,0.164 1.185,0.495 0.265,0.327 0.396,0.682 0.396,1.054 0,0.374 -0.131,0.725 -0.396,1.054 -0.263,0.33 -0.658,0.494 -1.185,0.494 -0.528,0 -0.923,-0.164 -1.186,-0.494 -0.265,-0.329 -0.396,-0.68 -0.396,-1.054 0,-0.372 0.131,-0.727 0.396,-1.054 0.263,-0.331 0.658,-0.495 1.186,-0.495 m 14.762,4.02 c -0.35,-1.318 -0.933,-2.483 -1.745,-3.494 -0.813,-1.01 -1.758,-1.844 -2.835,-2.503 -1.076,-0.658 -2.284,-1.122 -3.624,-1.384 -1.341,-0.264 -2.714,-0.33 -4.12,-0.198 -0.747,0.088 -1.527,0.242 -2.339,0.46 -0.813,0.222 -1.55,0.54 -2.209,0.957 -0.658,0.416 -1.186,0.923 -1.582,1.515 -0.395,0.594 -0.593,1.309 -0.593,2.142 0,1.187 0.363,2.209 1.088,3.065 0.726,0.858 1.791,1.264 3.197,1.219 1.405,-0.042 2.438,-0.482 3.097,-1.318 0.658,-0.833 0.989,-1.823 0.989,-2.966 0,-0.482 -0.098,-0.955 -0.296,-1.416 -0.198,-0.462 -0.297,-0.67 -0.297,-0.625 0,0 0.274,-0.034 0.824,-0.101 0.549,-0.066 1.23,0.033 2.043,0.298 0.812,0.261 1.68,0.802 2.603,1.615 0.922,0.812 1.78,2.098 2.571,3.855 l 3.228,-1.121 m -10.676,-34.14 0,15.225 c 0,1.274 -0.352,2.295 -1.054,3.064 -0.703,0.768 -1.605,1.275 -2.702,1.516 -1.098,0.243 -2.285,0.232 -3.559,-0.033 -1.274,-0.262 -2.482,-0.768 -3.625,-1.514 0.438,-0.045 0.9,-0.156 1.385,-0.33 0.437,-0.132 0.91,-0.309 1.416,-0.529 0.505,-0.22 1.021,-0.504 1.548,-0.856 l 0,-1.779 c -0.571,0 -1.098,-0.132 -1.581,-0.397 -0.396,-0.219 -0.758,-0.58 -1.088,-1.086 C -27.648,1.701 -27.813,0.966 -27.813,0 l 0,-11.073 -3.823,0 0,10.809 c 0,1.275 0.154,2.285 0.462,3.032 0.308,0.746 0.834,1.362 1.582,1.846 -0.352,0.13 -0.748,0.262 -1.186,0.395 -0.353,0.087 -0.769,0.185 -1.253,0.298 -0.485,0.107 -1.011,0.206 -1.582,0.296 l 0,0.591 0,0.661 c 0.66,0.878 1.493,1.692 2.505,2.438 0.879,0.614 1.965,1.186 3.262,1.714 1.295,0.527 2.845,0.791 4.647,0.791 2.504,0 4.624,-0.616 6.359,-1.846 1.736,-1.23 2.604,-3.075 2.604,-5.537 l 0,-15.488 -3.823,0 m -41.718,29.064 c 0.57,0 0.988,0.189 1.251,0.561 0.264,0.374 0.395,0.77 0.395,1.187 0,0.417 -0.131,0.814 -0.395,1.186 -0.263,0.374 -0.681,0.56 -1.251,0.56 -0.572,0 -1.001,-0.186 -1.286,-0.56 -0.286,-0.372 -0.429,-0.769 -0.429,-1.186 0,-0.417 0.143,-0.813 0.429,-1.187 0.285,-0.372 0.714,-0.561 1.286,-0.561 m 17.464,-29.064 0,16.279 c 0,1.449 -0.416,2.429 -1.251,2.933 -0.835,0.507 -1.825,0.757 -2.967,0.757 -0.746,0 -1.406,-0.152 -1.977,-0.459 -0.571,-0.309 -1.065,-0.672 -1.483,-1.089 -0.417,-0.416 -0.791,-0.856 -1.12,-1.318 -0.329,-0.462 -0.582,-0.844 -0.758,-1.154 l -2.57,2.044 c 0.307,0.526 0.713,1.087 1.219,1.681 0.505,0.593 1.098,1.131 1.78,1.615 0.68,0.482 1.461,0.879 2.338,1.185 0.879,0.308 1.847,0.462 2.901,0.462 2.856,-0.045 4.855,-0.636 5.998,-1.779 1.141,-1.143 1.714,-2.79 1.714,-4.943 l 0,-16.214 -3.824,0 m -17.531,26.429 c -1.451,0 -2.549,0.462 -3.296,1.383 -0.746,0.923 -1.121,1.934 -1.121,3.032 0,1.1 0.375,2.111 1.121,3.034 0.747,0.921 1.845,1.383 3.296,1.383 1.493,0 2.603,-0.462 3.329,-1.383 0.724,-0.923 1.086,-1.934 1.086,-3.034 0,-1.098 -0.362,-2.109 -1.086,-3.032 -0.726,-0.921 -1.836,-1.383 -3.329,-1.383 m -7.843,-17.07 c 0.572,0 0.999,0.187 1.285,0.561 0.286,0.372 0.428,0.768 0.428,1.185 0,0.419 -0.142,0.813 -0.428,1.188 -0.286,0.372 -0.713,0.559 -1.285,0.559 -0.571,0 -0.999,-0.187 -1.285,-0.559 -0.287,-0.375 -0.428,-0.769 -0.428,-1.188 0,-0.417 0.141,-0.813 0.428,-1.185 0.286,-0.374 0.714,-0.561 1.285,-0.561 m 6.129,-9.359 c 0,0.791 -0.142,1.658 -0.428,2.603 -0.285,0.946 -0.615,1.824 -0.989,2.638 -0.374,0.811 -0.714,1.503 -1.021,2.074 -0.308,0.572 -0.462,0.859 -0.462,0.859 -0.219,-0.309 -0.482,-0.549 -0.791,-0.726 -0.263,-0.22 -0.592,-0.396 -0.987,-0.526 -0.396,-0.133 -0.902,-0.198 -1.517,-0.198 -0.967,0 -1.78,0.217 -2.438,0.659 -0.66,0.437 -1.154,0.977 -1.483,1.613 -0.331,0.637 -0.494,1.341 -0.494,2.109 0,0.769 0.163,1.484 0.494,2.142 0.329,0.661 0.823,1.208 1.483,1.649 0.658,0.44 1.471,0.659 2.438,0.659 1.274,0.042 2.274,-0.197 3,-0.726 0.724,-0.527 1.306,-1.362 1.745,-2.503 l 1.385,-3.493 0,6.392 c 0,0.834 -0.154,1.549 -0.462,2.141 -0.307,0.594 -0.702,1.055 -1.186,1.385 -0.483,0.329 -1.033,0.571 -1.648,0.725 -0.614,0.153 -1.23,0.231 -1.846,0.231 -1.669,0 -3.064,-0.385 -4.184,-1.154 -1.12,-0.768 -2.032,-1.635 -2.737,-2.604 l -2.437,1.779 c 0.265,0.44 0.638,0.947 1.12,1.518 0.483,0.571 1.1,1.12 1.846,1.646 0.747,0.527 1.658,0.968 2.734,1.318 1.077,0.352 2.341,0.529 3.791,0.529 1.23,0 2.384,-0.166 3.459,-0.495 1.077,-0.329 2.011,-0.803 2.802,-1.416 0.791,-0.616 1.405,-1.385 1.845,-2.309 0.44,-0.923 0.66,-1.976 0.66,-3.161 l 0,-15.358 -3.692,0 m -34.139,10.15 c -0.045,-1.976 -0.231,-3.746 -0.562,-5.306 -0.329,-1.559 -0.779,-3.042 -1.351,-4.448 -0.57,-1.407 -1.229,-2.759 -1.976,-4.053 -0.748,-1.298 -1.539,-2.669 -2.373,-4.119 l -3.823,0 c 0.747,1.141 1.418,2.438 2.01,3.888 0.593,1.449 1.11,2.964 1.549,4.546 0.44,1.582 0.801,3.176 1.087,4.78 0.286,1.602 0.473,3.173 0.561,4.712 0.132,1.582 0.065,3.164 -0.197,4.746 -0.264,1.582 -0.65,3.142 -1.155,4.679 -0.505,1.537 -1.097,3.01 -1.779,4.417 -0.681,1.404 -1.372,2.744 -2.076,4.019 l 3.823,0 c 0.658,-1.055 1.372,-2.198 2.142,-3.428 0.768,-1.23 1.461,-2.581 2.076,-4.054 0.615,-1.472 1.121,-3.062 1.516,-4.777 0.395,-1.714 0.572,-3.58 0.528,-5.602 m -25.574,6.787 c 0.529,0 0.924,0.166 1.187,0.495 0.264,0.33 0.396,0.693 0.396,1.087 0,0.397 -0.132,0.76 -0.396,1.089 -0.263,0.33 -0.658,0.493 -1.187,0.493 -0.527,0 -0.922,-0.163 -1.186,-0.493 -0.263,-0.329 -0.396,-0.692 -0.396,-1.089 0,-0.394 0.133,-0.757 0.396,-1.087 0.264,-0.329 0.659,-0.495 1.186,-0.495 m 11.469,-12.653 c 0,-0.879 -0.066,-1.605 -0.198,-2.174 -0.132,-0.573 -0.373,-1.011 -0.726,-1.319 -0.351,-0.308 -0.834,-0.516 -1.449,-0.625 -0.615,-0.111 -1.406,-0.166 -2.372,-0.166 l -9.755,0 c -0.748,0 -1.361,0.242 -1.845,0.725 -0.483,0.485 -0.725,1.099 -0.725,1.845 l 0,2.899 c 0,1.143 0.164,2.078 0.494,2.803 0.329,0.724 0.692,1.262 1.088,1.613 0.482,0.44 1.011,0.727 1.582,0.859 -0.747,0.22 -1.396,0.602 -1.945,1.152 -0.549,0.549 -0.956,1.198 -1.219,1.945 -0.264,0.746 -0.407,1.548 -0.428,2.407 -0.022,0.855 0.12,1.702 0.428,2.536 0.482,1.362 1.219,2.361 2.207,2.998 0.989,0.639 2.121,0.957 3.394,0.957 1.276,0 2.287,-0.408 3.033,-1.219 0.747,-0.813 1.142,-1.793 1.186,-2.933 0,-1.143 -0.362,-2.143 -1.088,-2.998 -0.725,-0.859 -1.768,-1.287 -3.131,-1.287 -0.877,0 -1.547,0.153 -2.009,0.462 -0.462,0.307 -0.693,0.439 -0.693,0.394 0,-0.481 0.188,-0.923 0.562,-1.317 0.373,-0.397 0.823,-0.724 1.349,-0.989 0.529,-0.263 1.088,-0.461 1.681,-0.593 0.594,-0.132 1.154,-0.22 1.682,-0.264 0,0 0.011,-0.142 0.033,-0.429 0.02,-0.284 0.032,-0.613 0.032,-0.988 0,-0.374 -0.012,-0.703 -0.032,-0.988 -0.022,-0.287 -0.033,-0.428 -0.033,-0.428 -1.67,0.088 -2.814,-0.22 -3.427,-0.923 -0.615,-0.704 -0.924,-1.627 -0.924,-2.77 l 0,-1.185 c 0,-0.571 0.286,-0.857 0.857,-0.857 l 6.525,0 c 0.879,0 1.439,0.133 1.682,0.395 0.24,0.265 0.361,0.769 0.361,1.518 l 0,16.937 3.823,0 0,-17.993 M -150.534,5.47 c 0.573,0 1.001,0.186 1.287,0.56 0.284,0.374 0.428,0.769 0.428,1.186 0,0.419 -0.144,0.813 -0.428,1.187 -0.286,0.372 -0.714,0.561 -1.287,0.561 -0.57,0 -0.998,-0.189 -1.284,-0.561 -0.286,-0.374 -0.429,-0.768 -0.429,-1.187 0,-0.417 0.143,-0.812 0.429,-1.186 0.286,-0.374 0.714,-0.56 1.284,-0.56 m 13.513,-16.543 0,17.07 c 0,0.307 -0.035,0.681 -0.099,1.12 -0.067,0.44 -0.363,0.659 -0.891,0.659 -0.659,0 -1.45,-0.636 -2.372,-1.912 -0.924,-1.272 -1.812,-2.865 -2.67,-4.777 -0.856,-1.911 -1.582,-3.955 -2.175,-6.128 -0.593,-2.176 -0.868,-4.187 -0.823,-6.032 l -3.823,0 0,13.841 c -0.132,-0.045 -0.352,-0.065 -0.66,-0.065 -0.965,0 -1.779,0.22 -2.438,0.658 -0.659,0.44 -1.153,0.989 -1.483,1.648 -0.328,0.658 -0.494,1.385 -0.494,2.176 0,0.788 0.166,1.514 0.494,2.173 0.33,0.661 0.824,1.21 1.483,1.649 0.659,0.439 1.473,0.659 2.438,0.659 1.407,0 2.506,-0.431 3.297,-1.286 0.791,-0.857 1.186,-1.923 1.186,-3.195 l 0,-4.747 c 0.439,0.923 0.945,1.901 1.516,2.933 0.571,1.033 1.196,1.999 1.878,2.9 0.68,0.901 1.428,1.636 2.242,2.208 0.811,0.571 1.679,0.858 2.602,0.858 1.625,0 2.812,-0.561 3.56,-1.681 0.746,-1.121 1.119,-2.342 1.119,-3.659 l 0,-17.07 -3.887,0 m -24.651,2.57 c 0.528,0 0.924,0.165 1.187,0.495 0.263,0.329 0.395,0.693 0.395,1.087 0,0.397 -0.132,0.759 -0.395,1.089 -0.263,0.329 -0.659,0.493 -1.187,0.493 -0.526,0 -0.922,-0.164 -1.186,-0.493 -0.263,-0.33 -0.396,-0.692 -0.396,-1.089 0,-0.394 0.133,-0.758 0.396,-1.087 0.264,-0.33 0.66,-0.495 1.186,-0.495 m 4.417,1.714 c 0.087,-1.231 -0.274,-2.295 -1.088,-3.195 -0.813,-0.902 -1.923,-1.352 -3.329,-1.352 -1.493,0 -2.602,0.45 -3.327,1.352 -0.726,0.9 -1.088,1.964 -1.088,3.195 l 0,28.142 0.066,1.121 -0.263,-1.121 -1.582,-5.47 c -0.132,-0.484 -0.352,-0.901 -0.659,-1.252 -0.308,-0.353 -0.77,-0.527 -1.385,-0.527 -0.614,0 -1.086,0.219 -1.417,0.659 -0.328,0.439 -0.604,0.988 -0.823,1.649 l -2.175,7.71 c -0.087,0.395 -0.231,0.682 -0.429,0.857 -0.197,0.176 -0.472,0.351 -0.824,0.526 l 2.241,2.176 c 0.967,-0.44 1.582,-1.186 1.845,-2.241 l 1.648,-5.999 1.911,6.329 c 0.22,0.746 0.616,1.241 1.187,1.483 0.571,0.242 1.099,0.363 1.582,0.363 0.746,0 1.416,-0.242 2.011,-0.726 0.591,-0.484 0.888,-1.208 0.888,-2.176 l 0,-27.219 0.593,0 c 1.45,-0.087 2.538,-0.526 3.263,-1.317 0.726,-0.791 1.11,-1.782 1.154,-2.967 m -29.922,6.854 c 0.572,0 0.999,0.177 1.284,0.527 0.287,0.351 0.429,0.749 0.429,1.187 0,0.44 -0.142,0.834 -0.429,1.186 -0.285,0.351 -0.712,0.529 -1.284,0.529 -0.572,0 -1,-0.178 -1.285,-0.529 -0.286,-0.352 -0.429,-0.746 -0.429,-1.186 0,-0.438 0.143,-0.836 0.429,-1.187 0.285,-0.35 0.713,-0.527 1.285,-0.527 m 5.14,6.79 c -0.615,0.747 -1.395,1.284 -2.339,1.614 -0.944,0.329 -1.922,0.472 -2.934,0.427 -0.747,-0.042 -1.47,-0.186 -2.174,-0.427 -0.704,-0.242 -1.33,-0.583 -1.879,-1.023 -0.548,-0.438 -0.999,-0.976 -1.35,-1.613 -0.351,-0.639 -0.528,-1.351 -0.528,-2.142 0,-1.01 0.154,-1.869 0.461,-2.57 0.176,-0.352 0.352,-0.682 0.527,-0.99 0.045,1.142 0.242,2.153 0.594,3.031 0.307,0.748 0.803,1.441 1.482,2.077 0.682,0.637 1.681,0.978 3,1.022 0.439,0 0.812,-0.044 1.12,-0.132 0.308,-0.087 0.572,-0.175 0.791,-0.265 0.22,-0.13 0.44,-0.261 0.659,-0.394 0.219,0 0.483,0.076 0.791,0.231 0.307,0.154 0.592,0.319 0.857,0.493 0.307,0.177 0.615,0.397 0.922,0.661 m 7.119,4.482 c -0.221,-1.011 -0.648,-1.957 -1.286,-2.835 -0.638,-0.878 -1.132,-1.473 -1.483,-1.779 0.044,-0.22 0.111,-0.462 0.198,-0.726 0.089,-0.22 0.153,-0.484 0.198,-0.791 0.044,-0.308 0.065,-0.659 0.065,-1.054 l 0,-15.225 -3.822,0 0,14.235 0,1.056 c -0.088,-0.045 -0.307,-0.175 -0.658,-0.395 -0.354,-0.219 -0.791,-0.396 -1.319,-0.529 0.044,-0.087 0.087,-0.219 0.132,-0.394 0.087,-0.352 0.131,-0.726 0.131,-1.121 -0.044,-1.229 -0.427,-2.252 -1.153,-3.065 -0.725,-0.814 -1.813,-1.264 -3.262,-1.351 -0.219,0 -0.418,0.011 -0.594,0.033 -0.176,0.023 -0.374,0.054 -0.592,0.099 -0.22,0.043 -0.44,0.11 -0.659,0.197 l 0,-8.765 -3.824,0 0,7.315 c -1.098,0.879 -1.999,1.98 -2.702,3.297 -0.702,1.317 -1.033,2.745 -0.988,4.284 0.044,1.363 0.35,2.548 0.923,3.559 0.571,1.011 1.296,1.846 2.174,2.505 0.879,0.659 1.89,1.151 3.032,1.481 1.142,0.331 2.306,0.518 3.493,0.56 1.538,0.09 2.967,-0.121 4.284,-0.625 1.318,-0.504 2.285,-1.067 2.901,-1.681 0.042,0 0.252,0.285 0.625,0.857 0.375,0.571 0.67,1.362 0.89,2.373 0,0 0.176,-0.066 0.527,-0.198 0.351,-0.133 0.725,-0.296 1.121,-0.495 0.395,-0.197 0.768,-0.384 1.121,-0.56 0.351,-0.175 0.527,-0.262 0.527,-0.262 M -218.549,5.47 c 0.571,0 0.999,0.186 1.285,0.56 0.285,0.374 0.428,0.769 0.428,1.186 0,0.419 -0.143,0.813 -0.428,1.187 -0.286,0.372 -0.714,0.561 -1.285,0.561 -0.572,0 -1,-0.189 -1.285,-0.561 -0.286,-0.374 -0.429,-0.768 -0.429,-1.187 0,-0.417 0.143,-0.812 0.429,-1.186 0.285,-0.374 0.713,-0.56 1.285,-0.56 m 13.511,-16.543 0,17.07 c 0,0.307 -0.033,0.681 -0.099,1.12 -0.066,0.44 -0.362,0.659 -0.889,0.659 -0.66,0 -1.451,-0.636 -2.373,-1.912 -0.922,-1.272 -1.812,-2.865 -2.67,-4.777 -0.857,-1.911 -1.581,-3.955 -2.175,-6.128 -0.593,-2.176 -0.867,-4.187 -0.823,-6.032 l -3.824,0 0,13.841 c -0.131,-0.045 -0.351,-0.065 -0.658,-0.065 -0.967,0 -1.78,0.22 -2.439,0.658 -0.659,0.44 -1.154,0.989 -1.483,1.648 -0.329,0.658 -0.495,1.385 -0.495,2.176 0,0.788 0.166,1.514 0.495,2.173 0.329,0.661 0.824,1.21 1.483,1.649 0.659,0.439 1.472,0.659 2.439,0.659 1.405,0 2.504,-0.431 3.295,-1.286 0.791,-0.857 1.187,-1.923 1.187,-3.195 l 0,-4.747 c 0.438,0.923 0.944,1.901 1.515,2.933 0.572,1.033 1.198,1.999 1.878,2.9 0.681,0.901 1.429,1.636 2.242,2.208 0.812,0.571 1.679,0.858 2.603,0.858 1.627,0 2.811,-0.561 3.559,-1.681 0.747,-1.121 1.121,-2.342 1.121,-3.659 l 0,-17.07 -3.889,0 m -24.122,2.44 c 0.571,0 0.999,0.174 1.285,0.527 0.285,0.351 0.429,0.746 0.429,1.185 0,0.439 -0.144,0.835 -0.429,1.188 -0.286,0.351 -0.714,0.526 -1.285,0.526 -0.571,0 -1,-0.175 -1.285,-0.526 -0.286,-0.353 -0.43,-0.749 -0.43,-1.188 0,-0.439 0.144,-0.834 0.43,-1.185 0.285,-0.353 0.714,-0.527 1.285,-0.527 m 4.415,1.844 c 0.088,-1.231 -0.275,-2.295 -1.088,-3.195 -0.813,-0.902 -1.921,-1.352 -3.327,-1.352 -1.495,0 -2.605,0.45 -3.329,1.352 -0.725,0.9 -1.087,1.964 -1.087,3.195 l 0,17.993 3.822,0 0,-13.709 0.594,0 c 1.449,-0.087 2.537,-0.526 3.263,-1.317 0.724,-0.791 1.108,-1.782 1.152,-2.967 m -24.122,-1.056 c 0.528,0 0.933,0.166 1.219,0.495 0.286,0.33 0.429,0.704 0.429,1.121 0,0.419 -0.143,0.791 -0.429,1.121 -0.286,0.329 -0.691,0.495 -1.219,0.495 -0.527,0 -0.922,-0.166 -1.187,-0.495 -0.262,-0.33 -0.395,-0.702 -0.395,-1.121 0,-0.417 0.133,-0.791 0.395,-1.121 0.265,-0.329 0.66,-0.495 1.187,-0.495 m 0,13.118 c 0.528,0 0.933,0.164 1.219,0.493 0.286,0.33 0.429,0.704 0.429,1.121 0,0.419 -0.143,0.791 -0.429,1.12 -0.286,0.329 -0.691,0.495 -1.219,0.495 -0.527,0 -0.922,-0.166 -1.187,-0.495 -0.262,-0.329 -0.395,-0.701 -0.395,-1.12 0,-0.417 0.133,-0.791 0.395,-1.121 0.265,-0.329 0.66,-0.493 1.187,-0.493 m 10.875,-7.513 c 0.045,-1.276 -0.088,-2.451 -0.396,-3.528 -0.307,-1.075 -0.824,-2.009 -1.549,-2.8 -0.724,-0.791 -1.68,-1.406 -2.867,-1.847 -1.186,-0.439 -2.658,-0.658 -4.415,-0.658 -0.704,0 -1.417,0.098 -2.142,0.298 -0.725,0.197 -1.362,0.493 -1.911,0.889 -0.549,0.395 -0.999,0.901 -1.352,1.515 -0.352,0.616 -0.527,1.34 -0.527,2.176 0,1.185 0.363,2.196 1.088,3.032 0.724,0.833 1.79,1.252 3.196,1.252 1.406,0 2.45,-0.419 3.131,-1.252 0.68,-0.836 1.065,-1.824 1.153,-2.967 0,-0.352 -0.043,-0.747 -0.132,-1.185 -0.044,-0.175 -0.087,-0.374 -0.131,-0.594 0.658,0.087 1.229,0.351 1.713,0.791 0.44,0.351 0.813,0.912 1.12,1.68 0.309,0.769 0.44,1.835 0.396,3.198 0,0 0.187,0.009 0.56,0.031 0.374,0.022 0.791,0.033 1.253,0.033 0.461,0 0.878,-0.011 1.251,-0.033 0.374,-0.022 0.561,-0.031 0.561,-0.031 m 0,13.179 c 0.045,-1.274 -0.088,-2.448 -0.396,-3.524 -0.307,-1.078 -0.824,-2.01 -1.549,-2.801 -0.724,-0.791 -1.68,-1.407 -2.867,-1.846 -1.186,-0.44 -2.658,-0.659 -4.415,-0.659 -0.704,0 -1.417,0.099 -2.142,0.296 -0.725,0.197 -1.362,0.495 -1.911,0.889 -0.549,0.397 -0.999,0.89 -1.352,1.483 -0.352,0.594 -0.527,1.309 -0.527,2.143 0,1.185 0.363,2.196 1.088,3.032 0.724,0.835 1.79,1.252 3.196,1.252 1.406,0 2.45,-0.405 3.131,-1.219 0.68,-0.813 1.065,-1.812 1.153,-3 0,-0.349 -0.043,-0.735 -0.132,-1.152 -0.087,-0.419 -0.131,-0.604 -0.131,-0.56 0.658,0.087 1.229,0.349 1.713,0.791 0.44,0.349 0.813,0.912 1.12,1.68 0.309,0.769 0.44,1.833 0.396,3.195 l 3.625,0 m -24.386,-19.572 c 0.571,0 1,0.174 1.285,0.527 0.286,0.351 0.428,0.746 0.428,1.185 0,0.439 -0.142,0.835 -0.428,1.188 -0.285,0.351 -0.714,0.526 -1.285,0.526 -0.571,0 -0.999,-0.175 -1.285,-0.526 -0.285,-0.353 -0.429,-0.749 -0.429,-1.188 0,-0.439 0.144,-0.834 0.429,-1.185 0.286,-0.353 0.714,-0.527 1.285,-0.527 m 6.985,16.806 c -1.053,-0.44 -2.02,-0.637 -2.899,-0.594 -0.878,0.045 -1.724,0.177 -2.537,0.394 -0.814,0.222 -1.626,0.464 -2.439,0.726 -0.813,0.265 -1.68,0.397 -2.603,0.397 -0.571,0 -1.055,-0.09 -1.45,-0.265 -0.396,-0.177 -0.715,-0.383 -0.955,-0.625 -0.243,-0.242 -0.418,-0.45 -0.529,-0.627 -0.109,-0.175 -0.164,-0.265 -0.164,-0.265 1.275,-0.129 2.504,-0.285 3.691,-0.459 1.01,-0.177 2.064,-0.43 3.164,-0.759 1.097,-0.33 2.021,-0.736 2.768,-1.22 0.746,-0.526 1.198,-1.064 1.351,-1.613 0.154,-0.549 0.231,-1.441 0.231,-2.671 l 0,-7.381 c 0,-1.317 -0.462,-2.404 -1.384,-3.263 -0.924,-0.855 -2.022,-1.284 -3.295,-1.284 -0.968,0 -1.78,0.22 -2.44,0.659 -0.659,0.44 -1.153,0.977 -1.482,1.615 -0.329,0.637 -0.495,1.33 -0.495,2.076 0,0.746 0.166,1.45 0.495,2.108 0.329,0.659 0.812,1.208 1.45,1.648 0.637,0.441 1.461,0.68 2.472,0.725 0.175,0 0.339,-0.022 0.493,-0.064 0.154,-0.045 0.297,-0.09 0.429,-0.133 l 0,3.097 0,0.889 c 0,0.242 -0.034,0.45 -0.099,0.628 -0.066,0.175 -0.187,0.35 -0.362,0.526 -0.176,0.175 -0.441,0.375 -0.791,0.594 -0.22,0.175 -0.715,0.361 -1.484,0.561 -0.768,0.197 -1.646,0.393 -2.636,0.591 -0.988,0.2 -2.021,0.352 -3.098,0.462 -1.075,0.11 -2.031,0.143 -2.866,0.098 l 0,0.329 0,0.727 0,0.723 0,0.332 c 0.263,0.527 0.604,1.086 1.021,1.68 0.418,0.592 0.934,1.141 1.55,1.648 0.614,0.504 1.317,0.922 2.108,1.253 0.791,0.329 1.669,0.492 2.636,0.492 1.1,0 2.065,-0.13 2.899,-0.394 0.836,-0.264 1.594,-0.518 2.275,-0.758 0.681,-0.242 1.361,-0.374 2.044,-0.396 0.681,-0.023 1.416,0.208 2.207,0.692 l 0.724,-2.899 M -293.42,5.47 c 0.571,0 1,0.186 1.284,0.56 0.286,0.374 0.429,0.769 0.429,1.186 0,0.419 -0.143,0.813 -0.429,1.187 -0.284,0.372 -0.713,0.561 -1.284,0.561 -0.57,0 -1,-0.189 -1.285,-0.561 -0.286,-0.374 -0.429,-0.768 -0.429,-1.187 0,-0.417 0.143,-0.812 0.429,-1.186 0.285,-0.374 0.715,-0.56 1.285,-0.56 m 16.74,-12.259 c 0,-1.802 -0.494,-2.965 -1.483,-3.493 -0.988,-0.527 -2.449,-0.791 -4.383,-0.791 l -13.049,0 0,3.427 2.833,0 0,10.611 c -0.175,-0.087 -0.384,-0.141 -0.626,-0.163 -0.241,-0.023 -0.494,-0.012 -0.758,0.033 -1.273,0.13 -2.217,0.668 -2.833,1.613 -0.616,0.946 -0.912,1.956 -0.89,3.032 0.022,1.076 0.406,2.043 1.153,2.9 0.748,0.855 1.846,1.286 3.296,1.286 1.538,0 2.67,-0.45 3.394,-1.352 0.725,-0.9 1.088,-1.987 1.088,-3.262 l 0,-14.698 6.392,0 c 0.879,0 1.44,0.133 1.681,0.395 0.242,0.265 0.363,0.769 0.363,1.518 l 0,28.009 3.822,0 0,-29.065 m -26.627,-12.06 c -0.879,1.45 -1.691,2.821 -2.438,4.119 -0.747,1.294 -1.396,2.646 -1.944,4.053 -0.549,1.406 -0.989,2.889 -1.318,4.448 -0.33,1.56 -0.516,3.33 -0.56,5.306 -0.045,2.022 0.131,3.888 0.527,5.602 0.395,1.715 0.9,3.305 1.515,4.777 0.615,1.473 1.307,2.824 2.076,4.054 0.77,1.23 1.483,2.373 2.142,3.428 l 3.823,0 c -0.747,-1.275 -1.45,-2.615 -2.109,-4.019 -0.658,-1.407 -1.241,-2.88 -1.746,-4.417 -0.506,-1.537 -0.89,-3.097 -1.154,-4.679 -0.264,-1.582 -0.329,-3.164 -0.197,-4.746 0.087,-1.539 0.274,-3.11 0.56,-4.712 0.285,-1.604 0.648,-3.198 1.088,-4.78 0.438,-1.582 0.955,-3.097 1.548,-4.546 0.594,-1.45 1.263,-2.747 2.01,-3.888 l -3.823,0 m -40.006,24.452 c 0.572,0 1,0.185 1.286,0.559 0.286,0.372 0.427,0.77 0.427,1.186 0,0.417 -0.141,0.813 -0.427,1.187 -0.286,0.372 -0.714,0.561 -1.286,0.561 -0.571,0 -0.999,-0.189 -1.285,-0.561 -0.285,-0.374 -0.428,-0.77 -0.428,-1.187 0,-0.416 0.143,-0.814 0.428,-1.186 0.286,-0.374 0.714,-0.559 1.285,-0.559 m 17.268,-11.93 c 0,0.746 -0.176,1.362 -0.526,1.846 -0.353,0.482 -0.814,0.723 -1.384,0.723 l 0,-4.087 c 0,-0.569 0.175,-0.833 0.526,-0.788 0.396,0.042 0.725,0.251 0.989,0.625 0.264,0.374 0.395,0.935 0.395,1.681 m 2.505,-0.33 c -0.045,-1.449 -0.494,-2.626 -1.353,-3.527 -0.855,-0.901 -1.898,-1.351 -3.129,-1.351 -0.834,0 -1.648,0.253 -2.438,0.76 -0.791,0.504 -1.186,1.461 -1.186,2.866 l 0,4.151 c -0.923,-0.263 -1.802,-0.692 -2.637,-1.283 -0.835,-0.594 -1.582,-1.232 -2.241,-1.912 -0.659,-0.681 -1.219,-1.396 -1.68,-2.142 -0.462,-0.749 -0.758,-1.407 -0.89,-1.978 l -3.692,0 0,14.105 c -0.043,-0.045 -0.11,-0.067 -0.197,-0.067 l -0.396,0 c -1.449,0 -2.549,0.45 -3.295,1.351 -0.747,0.901 -1.12,1.912 -1.12,3.032 0,1.121 0.373,2.142 1.12,3.065 0.746,0.924 1.846,1.385 3.295,1.385 1.187,0 2.22,-0.374 3.099,-1.12 0.878,-0.748 1.318,-1.692 1.318,-2.835 l 0,-13.182 c 0.835,1.143 1.943,2.086 3.327,2.834 1.385,0.746 2.714,1.295 3.989,1.648 l 0,12.061 3.822,0 0,-12.127 c 1.406,-0.22 2.471,-0.878 3.196,-1.976 0.726,-1.1 1.088,-2.353 1.088,-3.758 m -31.899,43.762 3.427,0 0,-7.646 -3.427,0 0,7.646 z m -4.483,-18.058 c 0.527,0 0.923,0.164 1.187,0.495 0.263,0.327 0.394,0.682 0.394,1.054 0,0.374 -0.131,0.725 -0.394,1.054 -0.264,0.33 -0.66,0.494 -1.187,0.494 -0.527,0 -0.923,-0.164 -1.186,-0.494 -0.263,-0.329 -0.395,-0.68 -0.395,-1.054 0,-0.372 0.132,-0.727 0.395,-1.054 0.263,-0.331 0.659,-0.495 1.186,-0.495 m 14.765,4.02 c -0.353,-1.318 -0.935,-2.483 -1.747,-3.494 -0.814,-1.01 -1.758,-1.844 -2.835,-2.503 -1.075,-0.658 -2.285,-1.122 -3.625,-1.384 -1.34,-0.264 -2.713,-0.33 -4.118,-0.198 -0.747,0.088 -1.528,0.242 -2.34,0.46 -0.813,0.222 -1.549,0.54 -2.209,0.957 -0.658,0.416 -1.185,0.923 -1.581,1.515 -0.395,0.594 -0.594,1.309 -0.594,2.142 0,1.187 0.362,2.209 1.088,3.065 0.724,0.858 1.791,1.264 3.196,1.219 1.407,-0.042 2.44,-0.482 3.099,-1.318 0.659,-0.833 0.988,-1.823 0.988,-2.966 0,-0.482 -0.1,-0.955 -0.297,-1.416 -0.198,-0.462 -0.296,-0.67 -0.296,-0.625 0,0 0.275,-0.034 0.824,-0.101 0.548,-0.066 1.23,0.033 2.042,0.298 0.813,0.261 1.681,0.802 2.604,1.615 0.923,0.812 1.779,2.098 2.57,3.855 l 3.231,-1.121 M -366.974,4.285 c 0.573,0 0.989,0.175 1.252,0.527 0.265,0.351 0.396,0.746 0.396,1.185 0,0.439 -0.131,0.836 -0.396,1.188 -0.263,0.351 -0.679,0.526 -1.252,0.526 -0.57,0 -0.999,-0.175 -1.286,-0.526 -0.285,-0.352 -0.427,-0.749 -0.427,-1.188 0,-0.439 0.142,-0.834 0.427,-1.185 0.287,-0.352 0.716,-0.527 1.286,-0.527 m 11.139,-2.506 c 0,0.834 -0.109,1.492 -0.329,1.977 -0.221,0.484 -0.463,0.836 -0.726,1.056 -0.307,0.261 -0.636,0.417 -0.988,0.461 -0.045,-0.923 -0.176,-1.559 -0.395,-1.912 -0.221,-0.351 -0.452,-0.67 -0.693,-0.956 -0.242,-0.285 -0.461,-0.648 -0.658,-1.087 -0.198,-0.439 -0.298,-1.166 -0.298,-2.175 l 0,-6.789 2.241,0 c 0.879,0 1.407,0.133 1.582,0.395 0.176,0.265 0.264,0.769 0.264,1.518 l 0,7.512 m 6.591,9.558 c -0.439,-0.924 -0.933,-1.692 -1.484,-2.309 -0.548,-0.613 -1.065,-1.097 -1.548,-1.449 -0.572,-0.439 -1.163,-0.746 -1.78,-0.924 0,0 0.11,-0.053 0.33,-0.163 0.219,-0.11 0.45,-0.33 0.692,-0.659 0.241,-0.331 0.472,-0.791 0.692,-1.385 0.22,-0.594 0.329,-1.35 0.329,-2.274 l 0,-8.963 c 0,-0.879 -0.077,-1.605 -0.23,-2.174 -0.154,-0.573 -0.406,-1.011 -0.759,-1.319 -0.351,-0.308 -0.833,-0.516 -1.449,-0.625 -0.616,-0.111 -1.407,-0.166 -2.372,-0.166 l -9.623,0 0,3.427 2.702,0 0,7.185 c 0,0.791 0.132,1.394 0.395,1.813 0.264,0.417 0.56,0.811 0.89,1.185 0.329,0.374 0.638,0.779 0.924,1.219 0.285,0.439 0.471,1.098 0.559,1.978 0.087,1.099 -0.198,1.932 -0.857,2.503 -0.658,0.572 -1.494,0.859 -2.504,0.859 0.351,-0.177 0.735,-0.518 1.152,-1.022 0.418,-0.507 0.627,-1.154 0.627,-1.945 0,-1.275 -0.363,-2.361 -1.087,-3.263 -0.726,-0.9 -1.857,-1.35 -3.394,-1.35 -1.45,0 -2.571,0.45 -3.361,1.35 -0.791,0.902 -1.187,1.988 -1.187,3.263 0,0.836 0.209,1.593 0.627,2.274 0.416,0.682 0.933,1.262 1.548,1.745 0.615,0.485 1.308,0.868 2.076,1.155 0.769,0.287 1.505,0.427 2.208,0.427 1.714,0 3.197,-0.362 4.448,-1.085 1.253,-0.727 2.055,-1.594 2.407,-2.605 0.615,0.045 1.274,0.265 1.976,0.659 0.616,0.352 1.286,0.867 2.01,1.548 0.725,0.682 1.483,1.658 2.274,2.934 l 2.769,-1.844 m -36.382,-31.309 c 0.528,0 0.934,0.177 1.22,0.53 0.285,0.351 0.427,0.746 0.427,1.184 0,0.442 -0.142,0.836 -0.427,1.188 -0.286,0.349 -0.692,0.527 -1.22,0.527 -0.571,0 -0.998,-0.178 -1.284,-0.527 -0.286,-0.352 -0.429,-0.746 -0.429,-1.188 0,-0.438 0.143,-0.833 0.429,-1.184 0.286,-0.353 0.713,-0.53 1.284,-0.53 m 9.426,-4.019 c 0,-0.572 -0.143,-1.076 -0.428,-1.515 -0.286,-0.439 -0.649,-0.803 -1.088,-1.087 -0.44,-0.287 -0.912,-0.507 -1.418,-0.661 -0.505,-0.152 -0.976,-0.228 -1.418,-0.228 -0.482,0 -0.987,0.076 -1.513,0.228 -0.529,0.154 -1.011,0.374 -1.451,0.661 -0.44,0.284 -0.802,0.648 -1.088,1.087 -0.285,0.439 -0.428,0.943 -0.428,1.515 l 0,1.582 c -0.176,-0.043 -0.33,-0.088 -0.461,-0.13 -0.133,-0.045 -0.418,-0.023 -0.858,0.064 -1.23,0.175 -2.141,0.715 -2.735,1.614 -0.593,0.901 -0.856,1.857 -0.79,2.868 0.066,1.011 0.45,1.923 1.153,2.736 0.702,0.811 1.757,1.219 3.163,1.219 1.055,0 1.999,-0.341 2.834,-1.022 0.834,-0.681 1.253,-1.638 1.253,-2.868 l 0,-5.469 c 0,-0.265 0.077,-0.516 0.231,-0.758 0.153,-0.242 0.405,-0.364 0.758,-0.364 0.35,0.045 0.592,0.178 0.724,0.398 0.132,0.217 0.198,0.438 0.198,0.658 l 0,9.096 3.362,0 0,-9.624 m -12.127,15.094 c 0.571,0 1,0.185 1.285,0.559 0.285,0.372 0.429,0.769 0.429,1.186 0,0.419 -0.144,0.813 -0.429,1.187 -0.285,0.372 -0.714,0.561 -1.285,0.561 -0.57,0 -1,-0.189 -1.286,-0.561 -0.285,-0.374 -0.427,-0.768 -0.427,-1.187 0,-0.417 0.142,-0.814 0.427,-1.186 0.286,-0.374 0.716,-0.559 1.286,-0.559 m 8.305,-2.176 c -0.132,0.658 -0.385,1.725 -0.759,3.197 -0.372,1.473 -0.879,2.953 -1.516,4.448 -0.638,1.494 -1.384,2.789 -2.241,3.89 -0.857,1.098 -1.813,1.602 -2.866,1.515 -1.011,-0.087 -1.681,-0.594 -2.01,-1.515 -0.331,-0.923 -0.495,-2.044 -0.495,-3.361 0.175,0 0.351,0.02 0.527,0.065 0.439,0.087 0.791,0.132 1.055,0.132 1.406,-0.045 2.482,-0.473 3.229,-1.286 0.747,-0.814 1.121,-1.813 1.121,-2.998 0.043,-1.276 -0.308,-2.34 -1.055,-3.198 -0.746,-0.856 -1.846,-1.329 -3.295,-1.416 -0.703,0 -1.34,0.11 -1.912,0.329 -0.571,0.22 -1.054,0.527 -1.45,0.923 -0.396,0.395 -0.703,0.845 -0.923,1.352 -0.219,0.504 -0.351,0.999 -0.394,1.483 -0.133,1.141 -0.198,2.261 -0.198,3.362 0,1.097 0.021,1.888 0.065,2.373 0.176,1.843 0.715,3.403 1.615,4.678 0.9,1.273 2.185,1.954 3.856,2.043 1.45,0.088 2.647,-0.154 3.593,-0.725 0.944,-0.572 1.701,-1.241 2.272,-2.01 0.573,-0.769 0.99,-1.495 1.253,-2.176 0.264,-0.681 0.44,-1.087 0.528,-1.22 l 0,2.704 0,2.702 c 0,1.537 -0.505,2.691 -1.517,3.46 -1.011,0.77 -2.351,1.153 -4.021,1.153 -0.791,0 -1.538,-0.121 -2.24,-0.362 -0.702,-0.242 -1.329,-0.55 -1.878,-0.921 -0.55,-0.375 -1.033,-0.76 -1.45,-1.154 -0.418,-0.397 -0.736,-0.749 -0.957,-1.056 l -2.174,1.911 c 0.264,0.439 0.649,0.912 1.154,1.417 0.503,0.506 1.12,0.979 1.845,1.418 0.724,0.439 1.56,0.813 2.504,1.12 0.944,0.308 1.988,0.462 3.13,0.462 1.275,0 2.483,-0.166 3.627,-0.495 1.141,-0.329 2.142,-0.803 2.997,-1.416 0.857,-0.616 1.538,-1.385 2.044,-2.309 0.506,-0.923 0.759,-1.976 0.759,-3.161 l 0,-15.358 -3.823,0 m -36.316,12.326 c 0.57,0 1,0.175 1.286,0.526 0.285,0.353 0.428,0.746 0.428,1.186 0,0.439 -0.143,0.836 -0.428,1.187 -0.286,0.353 -0.716,0.527 -1.286,0.527 -0.571,0 -1,-0.174 -1.284,-0.527 -0.286,-0.351 -0.43,-0.748 -0.43,-1.187 0,-0.44 0.144,-0.833 0.43,-1.186 0.284,-0.351 0.713,-0.526 1.284,-0.526 m 13.05,0.526 c 0,0.834 -0.109,1.492 -0.33,1.977 -0.22,0.484 -0.461,0.836 -0.725,1.056 -0.307,0.261 -0.637,0.417 -0.989,0.461 -0.087,-0.878 -0.231,-1.517 -0.428,-1.912 -0.198,-0.396 -0.418,-0.759 -0.658,-1.089 -0.242,-0.329 -0.451,-0.734 -0.627,-1.218 -0.176,-0.482 -0.263,-1.231 -0.263,-2.242 l 0,-6.458 2.174,0 c 0.878,0 1.406,0.133 1.582,0.395 0.176,0.265 0.264,0.769 0.264,1.518 l 0,7.512 m 6.59,9.558 c -0.438,-0.924 -0.933,-1.692 -1.483,-2.309 -0.548,-0.613 -1.065,-1.097 -1.548,-1.449 -0.572,-0.439 -1.165,-0.746 -1.781,-0.924 0,0 0.111,-0.053 0.331,-0.163 0.219,-0.11 0.45,-0.33 0.692,-0.659 0.242,-0.331 0.472,-0.791 0.692,-1.385 0.22,-0.594 0.329,-1.35 0.329,-2.274 l 0,-8.963 c 0,-0.879 -0.065,-1.605 -0.198,-2.174 -0.131,-0.573 -0.372,-1.011 -0.724,-1.319 -0.352,-0.308 -0.835,-0.516 -1.451,-0.625 -0.615,-0.111 -1.406,-0.166 -2.373,-0.166 l -9.687,0 0,3.427 2.768,0 0,7.118 c 0,0.791 0.142,1.429 0.428,1.911 0.285,0.484 0.593,0.924 0.923,1.32 0.33,0.395 0.648,0.811 0.955,1.25 0.307,0.442 0.484,1.033 0.527,1.781 0.089,0.746 0.046,1.35 -0.132,1.814 -0.174,0.459 -0.613,0.931 -1.317,1.416 l -3.031,-1.45 -3.034,1.45 c -0.482,-0.088 -0.868,-0.254 -1.152,-0.495 -0.285,-0.242 -0.516,-0.474 -0.692,-0.693 -0.176,-0.262 -0.329,-0.572 -0.462,-0.921 l 0.395,0.197 c 0.353,0.175 0.835,0.262 1.451,0.262 1.362,0 2.417,-0.405 3.164,-1.218 0.746,-0.812 1.141,-1.791 1.186,-2.934 0.087,-1.23 -0.263,-2.306 -1.055,-3.228 -0.791,-0.924 -1.889,-1.363 -3.295,-1.319 -2.066,0.045 -3.504,0.803 -4.317,2.275 -0.812,1.47 -1.043,3.24 -0.692,5.304 0.176,1.01 0.538,1.891 1.088,2.637 0.547,0.746 1.142,1.362 1.779,1.847 0.637,0.481 1.252,0.822 1.846,1.021 0.592,0.197 1.021,0.251 1.285,0.164 l 2.505,-1.317 2.834,1.317 c 0.395,-0.045 0.834,-0.175 1.317,-0.394 0.483,-0.222 0.955,-0.507 1.417,-0.859 0.461,-0.351 0.856,-0.746 1.188,-1.185 0.329,-0.439 0.537,-0.901 0.625,-1.385 0.572,0.088 1.185,0.33 1.845,0.724 0.572,0.352 1.208,0.87 1.91,1.55 0.704,0.682 1.429,1.636 2.176,2.867 l 2.768,-1.844 m -30.449,-19.84 c 0.528,0 0.923,0.165 1.187,0.495 0.263,0.329 0.396,0.693 0.396,1.087 0,0.397 -0.133,0.759 -0.396,1.089 -0.264,0.329 -0.659,0.493 -1.187,0.493 -0.528,0 -0.921,-0.164 -1.187,-0.493 -0.263,-0.33 -0.395,-0.692 -0.395,-1.089 0,-0.394 0.132,-0.758 0.395,-1.087 0.266,-0.33 0.659,-0.495 1.187,-0.495 m 5.273,32.229 c -1.011,-0.747 -1.934,-1.163 -2.77,-1.252 -0.834,-0.088 -1.613,-0.021 -2.338,0.199 -0.725,0.22 -1.395,0.493 -2.01,0.822 -0.615,0.329 -1.187,0.538 -1.714,0.627 -0.44,0.088 -0.78,0.121 -1.021,0.099 -0.242,-0.023 -0.452,-0.076 -0.627,-0.165 -0.175,-0.088 -0.307,-0.175 -0.395,-0.263 0.966,-0.484 1.769,-0.89 2.405,-1.219 0.637,-0.332 1.143,-0.715 1.517,-1.154 0.372,-0.44 0.638,-0.988 0.791,-1.649 0.153,-0.659 0.23,-1.538 0.23,-2.635 l 0,-19.641 0.593,0 c 1.494,-0.087 2.593,-0.526 3.295,-1.317 0.704,-0.791 1.077,-1.782 1.12,-2.967 0.044,-1.231 -0.329,-2.295 -1.12,-3.195 -0.791,-0.902 -1.89,-1.352 -3.295,-1.352 -1.45,0 -2.548,0.45 -3.296,1.352 -0.747,0.9 -1.119,1.964 -1.119,3.195 l 0,23.992 c 0,0.788 -0.034,1.394 -0.099,1.811 -0.067,0.419 -0.331,0.813 -0.792,1.187 -0.461,0.372 -1.186,0.769 -2.174,1.186 -0.99,0.416 -2.384,1.021 -4.185,1.812 0.658,0.791 1.383,1.494 2.174,2.109 0.66,0.529 1.44,1.01 2.341,1.45 0.899,0.438 1.856,0.658 2.866,0.658 0.923,0 1.736,-0.152 2.439,-0.461 0.703,-0.308 1.351,-0.581 1.944,-0.822 0.593,-0.242 1.197,-0.375 1.812,-0.398 0.615,-0.019 1.318,0.277 2.109,0.893 l 1.319,-2.902 m -36.299,-4.298 c -0.307,0.045 -0.549,-0.033 -0.724,-0.231 -0.176,-0.197 -0.276,-0.417 -0.297,-0.659 -0.022,-0.241 0.033,-0.473 0.166,-0.692 0.131,-0.22 0.347,-0.374 0.658,-0.395 0.306,-0.021 0.549,0.088 0.724,0.263 0.177,0.175 0.276,0.386 0.298,0.627 0.022,0.24 -0.034,0.473 -0.166,0.692 -0.132,0.218 -0.35,0.353 -0.659,0.395 m 7.909,5.537 c -0.044,-0.923 -0.33,-1.736 -0.857,-2.441 -0.526,-0.701 -1.297,-1.086 -2.306,-1.184 -0.792,-0.079 -1.462,-0.144 -2.011,-0.166 -0.549,-0.021 -0.997,0.015 -1.35,0.033 -0.439,0.024 -0.77,0.045 -0.989,0.133 0.878,-0.088 1.538,-0.406 1.977,-0.955 0.44,-0.549 0.636,-1.219 0.593,-2.01 -0.045,-0.836 -0.341,-1.551 -0.89,-2.145 -0.549,-0.591 -1.306,-0.834 -2.273,-0.757 -1.229,0.098 -2.143,0.484 -2.735,1.187 -0.593,0.704 -0.838,1.605 -0.758,2.703 0.138,1.932 1.034,3.204 2.702,3.823 0.703,0.259 1.438,0.372 2.209,0.33 0.767,-0.045 1.461,-0.068 2.075,-0.068 0.614,0 1.132,0.099 1.549,0.298 0.417,0.197 0.627,0.67 0.627,1.416 l 0.393,0 c 0.089,0 0.199,-0.011 0.331,-0.033 0.132,-0.023 0.286,-0.019 0.46,-0.032 0.354,-0.029 0.77,-0.089 1.253,-0.132 m -11.55,-33.598 c 0.571,0 0.999,0.174 1.284,0.527 0.286,0.351 0.428,0.746 0.428,1.185 0,0.439 -0.142,0.835 -0.428,1.188 -0.285,0.351 -0.713,0.526 -1.284,0.526 -0.573,0 -1,-0.175 -1.287,-0.526 -0.285,-0.353 -0.428,-0.749 -0.428,-1.188 0,-0.439 0.143,-0.834 0.428,-1.185 0.287,-0.353 0.714,-0.527 1.287,-0.527 m 6.985,16.806 c -1.055,-0.44 -2.022,-0.637 -2.9,-0.594 -0.878,0.045 -1.724,0.177 -2.538,0.394 -0.812,0.222 -1.625,0.464 -2.438,0.726 -0.814,0.265 -1.68,0.397 -2.604,0.397 -0.571,0 -1.054,-0.09 -1.45,-0.265 -0.394,-0.177 -0.713,-0.383 -0.955,-0.625 -0.242,-0.242 -0.417,-0.45 -0.527,-0.627 -0.111,-0.175 -0.164,-0.265 -0.164,-0.265 1.273,-0.129 2.504,-0.285 3.69,-0.459 1.011,-0.177 2.065,-0.43 3.163,-0.759 1.1,-0.33 2.022,-0.736 2.769,-1.22 0.747,-0.526 1.198,-1.064 1.35,-1.613 0.155,-0.549 0.232,-1.441 0.232,-2.671 l 0,-7.381 c 0,-1.317 -0.462,-2.404 -1.384,-3.263 -0.924,-0.855 -2.022,-1.284 -3.296,-1.284 -0.967,0 -1.779,0.22 -2.438,0.659 -0.66,0.44 -1.154,0.977 -1.484,1.615 -0.329,0.637 -0.494,1.33 -0.494,2.076 0,0.746 0.165,1.45 0.494,2.108 0.33,0.659 0.814,1.208 1.451,1.648 0.636,0.441 1.46,0.68 2.471,0.725 0.175,0 0.341,-0.022 0.493,-0.064 0.156,-0.045 0.297,-0.09 0.43,-0.133 l 0,3.097 0,0.889 c 0,0.242 -0.033,0.45 -0.099,0.628 -0.065,0.175 -0.186,0.35 -0.362,0.526 -0.177,0.175 -0.44,0.375 -0.791,0.594 -0.221,0.175 -0.715,0.361 -1.483,0.561 -0.77,0.197 -1.648,0.393 -2.636,0.591 -0.989,0.2 -2.023,0.352 -3.098,0.462 -1.077,0.11 -2.033,0.143 -2.867,0.098 l 0,0.329 0,0.727 0,0.723 0,0.332 c 0.264,0.527 0.604,1.086 1.022,1.68 0.417,0.592 0.933,1.141 1.548,1.648 0.616,0.504 1.319,0.922 2.11,1.253 0.79,0.329 1.67,0.492 2.635,0.492 1.099,0 2.066,-0.13 2.899,-0.394 0.837,-0.264 1.594,-0.518 2.274,-0.758 0.682,-0.242 1.363,-0.374 2.044,-0.396 0.681,-0.023 1.417,0.208 2.207,0.692 l 0.726,-2.899 m -25.11,-19.246 0,16.214 c 0,1.405 -0.429,2.373 -1.286,2.899 -0.857,0.527 -1.835,0.791 -2.932,0.791 -0.703,0 -1.341,-0.154 -1.911,-0.461 -0.573,-0.307 -1.078,-0.67 -1.517,-1.087 -0.438,-0.417 -0.824,-0.847 -1.153,-1.286 -0.329,-0.439 -0.581,-0.811 -0.757,-1.121 l -2.572,2.044 c 0.308,0.526 0.714,1.087 1.219,1.681 0.505,0.593 1.099,1.131 1.781,1.615 0.681,0.482 1.461,0.879 2.339,1.185 0.878,0.308 1.846,0.462 2.901,0.462 2.635,0 4.58,-0.593 5.832,-1.779 1.252,-1.188 1.879,-2.835 1.879,-4.943 l 0,-16.214 -3.823,0 m -28.144,9.556 c 0.572,0 0.99,0.177 1.253,0.527 0.265,0.351 0.395,0.749 0.395,1.187 0,0.44 -0.13,0.834 -0.395,1.186 -0.263,0.351 -0.681,0.529 -1.253,0.529 -0.57,0 -0.999,-0.178 -1.285,-0.529 -0.285,-0.352 -0.428,-0.746 -0.428,-1.186 0,-0.438 0.143,-0.836 0.428,-1.187 0.286,-0.35 0.715,-0.527 1.285,-0.527 m 12.523,-5.14 c 0,-0.878 -0.065,-1.605 -0.197,-2.176 -0.133,-0.571 -0.373,-1.02 -0.725,-1.351 -0.352,-0.33 -0.835,-0.56 -1.451,-0.69 -0.615,-0.132 -1.405,-0.199 -2.373,-0.199 l -7.644,0 c -0.967,0 -1.758,0.055 -2.373,0.166 -0.615,0.109 -1.11,0.317 -1.483,0.625 -0.373,0.308 -0.627,0.746 -0.758,1.319 -0.131,0.569 -0.198,1.295 -0.198,2.174 l 0,6.723 c 0,1.274 0.418,2.383 1.253,3.329 0.834,0.943 1.955,1.394 3.362,1.351 1.009,0 1.845,-0.219 2.503,-0.661 0.659,-0.439 1.155,-0.988 1.483,-1.646 0.33,-0.66 0.484,-1.374 0.463,-2.143 -0.024,-0.768 -0.199,-1.473 -0.529,-2.108 -0.33,-0.637 -0.824,-1.177 -1.483,-1.617 -0.658,-0.438 -1.473,-0.658 -2.437,-0.658 l -0.264,0 c -0.088,0 -0.177,0.023 -0.264,0.068 -0.132,0 -0.221,0.019 -0.263,0.064 l 0,-1.646 c 0,-0.749 0.097,-1.253 0.296,-1.518 0.198,-0.262 0.735,-0.395 1.615,-0.395 l 5.602,0 c 0.878,0 1.438,0.133 1.68,0.395 0.242,0.265 0.363,0.769 0.363,1.518 l 0,9.885 c 0,1.712 -0.551,2.9 -1.648,3.559 -1.098,0.659 -2.483,1.011 -4.153,1.053 -1.273,0 -2.482,-0.295 -3.624,-0.889 -1.142,-0.592 -2.065,-1.329 -2.768,-2.208 l -2.44,1.979 c 0.308,0.439 0.726,0.901 1.253,1.382 0.527,0.485 1.154,0.935 1.879,1.352 0.724,0.419 1.571,0.757 2.536,1.021 0.968,0.265 2.045,0.397 3.231,0.397 3.163,0 5.547,-0.672 7.15,-2.012 1.605,-1.338 2.406,-3.218 2.406,-5.634 l 0,-10.809 m -26.758,25.046 c -0.132,0.263 -0.308,0.559 -0.529,0.889 -0.217,0.329 -0.514,0.648 -0.888,0.954 -0.373,0.31 -0.835,0.594 -1.385,0.859 -0.549,0.262 -1.219,0.439 -2.01,0.526 -0.482,0.045 -0.977,0.023 -1.482,-0.064 -0.506,-0.09 -0.989,-0.242 -1.451,-0.462 -0.461,-0.22 -0.856,-0.473 -1.186,-0.758 -0.33,-0.286 -0.561,-0.582 -0.691,-0.892 0.527,0.045 1.076,0.09 1.646,0.132 0.484,0.045 1.012,0.068 1.582,0.068 0.572,0 1.144,-0.045 1.715,-0.132 0.746,-0.088 1.416,-0.187 2.01,-0.298 0.592,-0.11 1.087,-0.232 1.482,-0.361 0.484,-0.177 0.879,-0.329 1.187,-0.461 m 4.02,-3.758 c -0.879,0.264 -1.779,0.528 -2.701,0.791 -0.791,0.219 -1.682,0.438 -2.67,0.658 -0.988,0.222 -1.988,0.397 -2.999,0.529 -1.143,0.13 -2.296,0.208 -3.46,0.231 -1.164,0.02 -2.208,-0.011 -3.131,-0.101 -1.099,-0.088 -2.154,-0.175 -3.164,-0.262 0.177,1.098 0.539,2.142 1.088,3.13 0.549,0.989 1.231,1.844 2.043,2.571 0.813,0.725 1.758,1.274 2.834,1.646 1.076,0.374 2.209,0.518 3.395,0.431 1.361,-0.133 2.482,-0.419 3.361,-0.859 0.482,-0.219 0.879,-0.461 1.186,-0.723 l 0,1.976 0,1.979 3.427,0 0,-9.03 c 0,-0.045 0.076,-0.277 0.232,-0.693 0.153,-0.417 0.338,-1.175 0.559,-2.274 M -528.777,0 c 0.571,0 0.999,0.175 1.285,0.527 0.286,0.352 0.429,0.746 0.429,1.185 0,0.442 -0.143,0.836 -0.429,1.188 -0.286,0.352 -0.714,0.527 -1.285,0.527 -0.572,0 -0.999,-0.175 -1.286,-0.527 -0.286,-0.352 -0.428,-0.746 -0.428,-1.188 0,-0.439 0.142,-0.833 0.428,-1.185 0.287,-0.352 0.714,-0.527 1.286,-0.527 m 5.93,-11.073 0,15.488 c 0,0.703 -0.163,1.319 -0.494,1.846 -0.328,0.527 -0.779,0.955 -1.35,1.287 -0.571,0.327 -1.208,0.568 -1.912,0.723 -0.703,0.155 -1.405,0.231 -2.109,0.231 -0.834,0 -1.637,-0.076 -2.404,-0.231 -0.77,-0.155 -1.461,-0.439 -2.076,-0.856 -0.616,-0.419 -1.11,-0.979 -1.485,-1.681 -0.373,-0.703 -0.559,-1.582 -0.559,-2.636 l 0,-0.626 c 0,-0.286 0.034,-0.67 0.098,-1.154 0.067,-0.484 0.199,-1.055 0.396,-1.714 0.198,-0.659 0.516,-1.405 0.956,-2.241 0.527,-1.098 0.856,-2.044 0.988,-2.835 0.088,-0.439 0.131,-0.81 0.131,-1.12 l 3.032,3.955 c -1.011,0.087 -1.854,0.572 -2.536,1.449 -0.682,0.881 -1.021,1.87 -1.021,2.967 0,1.231 0.405,2.264 1.218,3.097 0.813,0.836 1.879,1.253 3.197,1.253 1.45,0 2.526,-0.428 3.229,-1.286 0.703,-0.857 1.099,-1.899 1.188,-3.131 0.043,-0.746 -0.024,-1.416 -0.2,-2.01 -0.175,-0.594 -0.483,-1.196 -0.922,-1.812 l -6.458,-8.963 -3.296,0 c 0,0.923 -0.056,1.835 -0.165,2.735 -0.11,0.901 -0.275,1.726 -0.495,2.472 -0.131,0.394 -0.351,0.901 -0.658,1.517 -0.308,0.614 -0.603,1.328 -0.89,2.14 -0.286,0.813 -0.538,1.703 -0.758,2.671 -0.22,0.966 -0.309,1.999 -0.264,3.097 0.088,2.373 0.967,4.327 2.637,5.866 1.67,1.537 3.998,2.305 6.985,2.305 1.759,0 3.263,-0.23 4.515,-0.692 1.252,-0.461 2.273,-1.042 3.064,-1.745 0.791,-0.704 1.364,-1.506 1.715,-2.406 0.351,-0.902 0.527,-1.814 0.527,-2.735 l 0,-15.225 -3.824,0 m -37.301,16.676 c 0.57,0 0.999,0.185 1.285,0.559 0.286,0.372 0.428,0.77 0.428,1.186 0,0.417 -0.142,0.813 -0.428,1.187 -0.286,0.372 -0.715,0.561 -1.285,0.561 -0.572,0 -1.001,-0.189 -1.287,-0.561 -0.285,-0.374 -0.427,-0.77 -0.427,-1.187 0,-0.416 0.142,-0.814 0.427,-1.186 0.286,-0.374 0.715,-0.559 1.287,-0.559 m 17.267,-11.93 c 0,0.746 -0.176,1.362 -0.528,1.846 -0.352,0.482 -0.812,0.723 -1.383,0.723 l 0,-4.087 c 0,-0.569 0.176,-0.833 0.526,-0.788 0.396,0.042 0.725,0.251 0.99,0.625 0.263,0.374 0.395,0.935 0.395,1.681 m 2.504,-0.33 c -0.044,-1.449 -0.494,-2.626 -1.351,-3.527 -0.857,-0.901 -1.9,-1.351 -3.13,-1.351 -0.834,0 -1.649,0.253 -2.44,0.76 -0.791,0.504 -1.185,1.461 -1.185,2.866 l 0,4.151 c -0.923,-0.263 -1.803,-0.692 -2.636,-1.283 -0.836,-0.594 -1.582,-1.232 -2.241,-1.912 -0.661,-0.681 -1.22,-1.396 -1.682,-2.142 -0.461,-0.749 -0.757,-1.407 -0.889,-1.978 l -3.691,0 0,14.105 c -0.043,-0.045 -0.109,-0.067 -0.198,-0.067 l -0.396,0 c -1.449,0 -2.547,0.45 -3.295,1.351 -0.747,0.901 -1.12,1.912 -1.12,3.032 0,1.121 0.373,2.142 1.12,3.065 0.748,0.924 1.846,1.385 3.295,1.385 1.187,0 2.22,-0.374 3.098,-1.12 0.88,-0.748 1.319,-1.692 1.319,-2.835 l 0,-13.182 c 0.835,1.143 1.945,2.086 3.329,2.834 1.383,0.746 2.712,1.295 3.987,1.648 l 0,12.061 3.822,0 0,-12.127 c 1.406,-0.22 2.472,-0.878 3.197,-1.976 0.725,-1.1 1.087,-2.353 1.087,-3.758 m -32.03,24.187 c 0.394,0 0.702,0.132 0.922,0.397 0.22,0.264 0.33,0.538 0.33,0.824 0,0.285 -0.11,0.561 -0.33,0.822 -0.22,0.265 -0.528,0.398 -0.922,0.398 -0.397,0 -0.704,-0.133 -0.924,-0.398 -0.219,-0.261 -0.329,-0.537 -0.329,-0.822 0,-0.286 0.11,-0.56 0.329,-0.824 0.22,-0.265 0.527,-0.397 0.924,-0.397 m 4.349,11.074 c 0.131,-2.286 -0.517,-3.901 -1.944,-4.844 -1.429,-0.944 -4.009,-1.22 -7.744,-0.825 -1.362,0.132 -2.429,0.011 -3.196,-0.361 -0.77,-0.374 -1.022,-1.199 -0.759,-2.471 0.132,0.261 0.329,0.503 0.594,0.723 0.219,0.22 0.526,0.408 0.921,0.561 0.396,0.154 0.902,0.23 1.517,0.23 0.483,0 0.912,-0.064 1.285,-0.197 0.373,-0.132 0.692,-0.287 0.955,-0.462 0.309,-0.177 0.572,-0.396 0.791,-0.658 0.309,0.746 0.769,1.262 1.385,1.548 0.615,0.285 1.231,0.428 1.846,0.428 1.185,0 2.076,-0.34 2.668,-1.022 0.593,-0.681 0.89,-1.503 0.89,-2.472 0,-1.01 -0.318,-1.866 -0.957,-2.569 -0.635,-0.702 -1.504,-1.033 -2.601,-0.988 -0.704,0 -1.34,0.185 -1.912,0.559 -0.572,0.374 -1.11,0.769 -1.615,1.186 -0.506,0.419 -1.011,0.791 -1.515,1.123 -0.505,0.327 -1.023,0.47 -1.55,0.428 -0.571,-0.045 -1,-0.44 -1.285,-1.188 -0.285,-0.746 -0.405,-1.495 -0.362,-2.241 l -0.923,0 c -0.572,0.264 -1.11,0.681 -1.615,1.253 -0.504,0.571 -0.922,1.218 -1.253,1.945 -0.329,0.724 -0.537,1.492 -0.626,2.306 -0.086,0.813 0,1.57 0.263,2.274 0.529,1.318 1.354,2.164 2.473,2.536 1.121,0.374 2.67,0.495 4.646,0.364 1.055,-0.088 1.999,-0.144 2.834,-0.166 0.836,-0.021 1.538,0.055 2.11,0.233 0.572,0.175 0.988,0.471 1.252,0.89 0.263,0.416 0.351,1.042 0.263,1.877 l 3.164,0 m -13.314,-30.121 c 0.572,0 0.989,0.177 1.253,0.527 0.263,0.351 0.395,0.749 0.395,1.187 0,0.44 -0.132,0.834 -0.395,1.186 -0.264,0.351 -0.681,0.529 -1.253,0.529 -0.57,0 -0.999,-0.178 -1.285,-0.529 -0.285,-0.352 -0.428,-0.746 -0.428,-1.186 0,-0.438 0.143,-0.836 0.428,-1.187 0.286,-0.35 0.715,-0.527 1.285,-0.527 m 12.523,-5.14 c 0,-0.878 -0.065,-1.605 -0.197,-2.176 -0.133,-0.571 -0.373,-1.02 -0.725,-1.351 -0.352,-0.33 -0.835,-0.56 -1.451,-0.69 -0.615,-0.132 -1.406,-0.199 -2.373,-0.199 l -7.644,0 c -0.967,0 -1.758,0.055 -2.373,0.166 -0.616,0.109 -1.11,0.317 -1.483,0.625 -0.375,0.308 -0.627,0.746 -0.759,1.319 -0.131,0.569 -0.197,1.295 -0.197,2.174 l 0,6.723 c 0,1.274 0.418,2.383 1.251,3.329 0.836,0.943 1.955,1.394 3.363,1.351 1.01,0 1.845,-0.219 2.504,-0.661 0.659,-0.439 1.155,-0.988 1.483,-1.646 0.33,-0.66 0.484,-1.374 0.461,-2.143 -0.022,-0.768 -0.198,-1.473 -0.527,-2.108 -0.331,-0.637 -0.825,-1.177 -1.483,-1.617 -0.658,-0.438 -1.473,-0.658 -2.438,-0.658 l -0.264,0 c -0.087,0 -0.176,0.023 -0.263,0.068 -0.132,0 -0.221,0.019 -0.264,0.064 l 0,-1.646 c 0,-0.749 0.098,-1.253 0.295,-1.518 0.2,-0.262 0.737,-0.395 1.617,-0.395 l 5.602,0 c 0.878,0 1.438,0.133 1.68,0.395 0.242,0.265 0.362,0.769 0.362,1.518 l 0,9.885 c 0,1.712 -0.55,2.9 -1.647,3.559 -1.099,0.659 -2.483,1.011 -4.153,1.053 -1.273,0 -2.482,-0.295 -3.624,-0.889 -1.142,-0.592 -2.065,-1.329 -2.768,-2.208 l -2.44,1.979 c 0.308,0.439 0.726,0.901 1.253,1.382 0.527,0.485 1.154,0.935 1.878,1.352 0.725,0.419 1.57,0.757 2.537,1.021 0.967,0.265 2.044,0.397 3.23,0.397 3.164,0 5.548,-0.672 7.151,-2.012 1.604,-1.338 2.406,-3.218 2.406,-5.634 l 0,-10.809 m -25.111,-1.976 c 0.57,0 1,0.174 1.285,0.527 0.286,0.351 0.428,0.746 0.428,1.185 0,0.439 -0.142,0.835 -0.428,1.188 -0.285,0.351 -0.715,0.526 -1.285,0.526 -0.57,0 -1,-0.175 -1.285,-0.526 -0.285,-0.353 -0.429,-0.749 -0.429,-1.188 0,-0.439 0.144,-0.834 0.429,-1.185 0.285,-0.353 0.715,-0.527 1.285,-0.527 m 4.416,1.844 c 0.088,-1.231 -0.274,-2.295 -1.088,-3.195 -0.813,-0.902 -1.922,-1.352 -3.328,-1.352 -1.494,0 -2.603,0.45 -3.328,1.352 -0.725,0.9 -1.088,1.964 -1.088,3.195 l 0,17.993 3.822,0 0,-13.709 0.594,0 c 1.45,-0.087 2.537,-0.526 3.264,-1.317 0.722,-0.791 1.108,-1.782 1.152,-2.967 m -48.97,12.259 c 0.572,0 0.999,0.186 1.285,0.56 0.286,0.374 0.429,0.769 0.429,1.186 0,0.419 -0.143,0.813 -0.429,1.187 -0.286,0.372 -0.713,0.561 -1.285,0.561 -0.571,0 -0.999,-0.189 -1.285,-0.561 -0.286,-0.374 -0.428,-0.768 -0.428,-1.187 0,-0.417 0.142,-0.812 0.428,-1.186 0.286,-0.374 0.714,-0.56 1.285,-0.56 m 13.511,-16.543 0,17.07 c 0,0.307 -0.033,0.681 -0.099,1.12 -0.066,0.44 -0.362,0.659 -0.889,0.659 -0.659,0 -1.45,-0.636 -2.373,-1.912 -0.923,-1.272 -1.812,-2.865 -2.669,-4.777 -0.857,-1.911 -1.582,-3.955 -2.176,-6.128 -0.593,-2.176 -0.867,-4.187 -0.823,-6.032 l -3.822,0 0,13.841 c -0.132,-0.045 -0.353,-0.065 -0.66,-0.065 -0.967,0 -1.779,0.22 -2.439,0.658 -0.659,0.44 -1.153,0.989 -1.483,1.648 -0.329,0.658 -0.493,1.385 -0.493,2.176 0,0.788 0.164,1.514 0.493,2.173 0.33,0.661 0.824,1.21 1.483,1.649 0.66,0.439 1.472,0.659 2.439,0.659 1.406,0 2.505,-0.431 3.295,-1.286 0.791,-0.857 1.187,-1.923 1.187,-3.195 l 0,-4.747 c 0.439,0.923 0.944,1.901 1.515,2.933 0.572,1.033 1.198,1.999 1.879,2.9 0.68,0.901 1.428,1.636 2.241,2.208 0.813,0.571 1.681,0.858 2.603,0.858 1.627,0 2.812,-0.561 3.559,-1.681 0.748,-1.121 1.121,-2.342 1.121,-3.659 l 0,-17.07 -3.889,0 m -30.449,30.12 c 0.527,0 0.922,0.164 1.185,0.495 0.265,0.327 0.396,0.682 0.396,1.054 0,0.374 -0.131,0.725 -0.396,1.054 -0.263,0.33 -0.658,0.494 -1.185,0.494 -0.528,0 -0.923,-0.164 -1.187,-0.494 -0.263,-0.329 -0.395,-0.68 -0.395,-1.054 0,-0.372 0.132,-0.727 0.395,-1.054 0.264,-0.331 0.659,-0.495 1.187,-0.495 m 14.764,4.02 c -0.353,-1.318 -0.935,-2.483 -1.748,-3.494 -0.813,-1.01 -1.757,-1.844 -2.834,-2.503 -1.076,-0.658 -2.284,-1.122 -3.625,-1.384 -1.339,-0.264 -2.713,-0.33 -4.118,-0.198 -0.747,0.088 -1.528,0.242 -2.341,0.46 -0.812,0.222 -1.548,0.54 -2.208,0.957 -0.659,0.416 -1.185,0.923 -1.581,1.515 -0.395,0.594 -0.593,1.309 -0.593,2.142 0,1.187 0.362,2.209 1.088,3.065 0.724,0.858 1.79,1.264 3.196,1.219 1.406,-0.042 2.439,-0.482 3.098,-1.318 0.659,-0.833 0.988,-1.823 0.988,-2.966 0,-0.482 -0.098,-0.955 -0.297,-1.416 -0.197,-0.462 -0.295,-0.67 -0.295,-0.625 0,0 0.274,-0.034 0.823,-0.101 0.549,-0.066 1.23,0.033 2.043,0.298 0.813,0.261 1.681,0.802 2.603,1.615 0.923,0.812 1.779,2.098 2.57,3.855 l 3.231,-1.121 M -664.284,5.47 c 0.571,0 0.999,0.186 1.285,0.56 0.286,0.374 0.429,0.769 0.429,1.186 0,0.419 -0.143,0.813 -0.429,1.187 -0.286,0.372 -0.714,0.561 -1.285,0.561 -0.571,0 -1,-0.189 -1.285,-0.561 -0.286,-0.374 -0.428,-0.768 -0.428,-1.187 0,-0.417 0.142,-0.812 0.428,-1.186 0.285,-0.374 0.714,-0.56 1.285,-0.56 m 8.832,-5.339 c 0.439,0 0.757,0.132 0.955,0.396 0.198,0.262 0.297,0.56 0.297,0.89 0,0.329 -0.099,0.627 -0.297,0.89 -0.198,0.263 -0.516,0.396 -0.955,0.396 -0.439,0 -0.77,-0.133 -0.988,-0.396 -0.22,-0.263 -0.331,-0.561 -0.331,-0.89 0,-0.33 0.111,-0.628 0.331,-0.89 0.218,-0.264 0.549,-0.396 0.988,-0.396 m 12.918,4.942 c 0.087,-1.317 -0.066,-2.437 -0.462,-3.361 -0.395,-0.923 -0.878,-1.68 -1.449,-2.272 -0.572,-0.593 -1.154,-1.044 -1.747,-1.351 -0.593,-0.309 -1.022,-0.528 -1.285,-0.658 l 0,-4.22 c 0,-1.802 -0.494,-2.965 -1.483,-3.493 -0.989,-0.527 -2.472,-0.791 -4.449,-0.791 l -13.049,0 0,3.427 2.899,0 0,10.611 c -0.351,-0.175 -0.834,-0.22 -1.45,-0.13 -1.274,0.13 -2.219,0.668 -2.833,1.613 -0.616,0.946 -0.912,1.956 -0.89,3.032 0.021,1.076 0.405,2.043 1.153,2.9 0.747,0.855 1.845,1.286 3.295,1.286 1.538,0 2.68,-0.45 3.427,-1.352 0.748,-0.9 1.121,-1.987 1.121,-3.262 l 0,-14.698 6.459,0 c 0.879,0 1.428,0.133 1.648,0.395 0.219,0.265 0.329,0.769 0.329,1.518 l 0,2.305 c -0.747,-0.088 -1.648,-0.065 -2.702,0.068 -1.055,0.13 -1.933,0.416 -2.637,0.855 -0.527,0.352 -1.032,0.758 -1.515,1.219 -0.483,0.462 -0.746,1.307 -0.791,2.539 0,0.307 0.054,0.67 0.164,1.087 0.11,0.417 0.308,0.811 0.593,1.185 0.287,0.374 0.66,0.681 1.122,0.923 0.46,0.242 1.021,0.364 1.68,0.364 1.011,0 1.813,-0.33 2.406,-0.989 0.592,-0.661 0.912,-1.452 0.955,-2.373 0.044,-0.484 -0.011,-0.923 -0.164,-1.319 -0.154,-0.395 -0.363,-0.77 -0.627,-1.121 0.176,-0.042 0.352,-0.065 0.527,-0.065 0.177,0 0.34,-0.011 0.495,-0.034 0.153,-0.019 0.318,0.012 0.494,0.099 l 0,12.194 3.823,0 0,-10.742 c 0.526,0.22 0.956,0.67 1.285,1.351 0.329,0.679 0.473,1.768 0.428,3.26 l 1.582,0 1.648,0 m -33.745,13.183 c -0.263,0.526 -0.725,1.142 -1.385,1.847 -0.659,0.701 -1.779,1.163 -3.36,1.382 -0.484,0.045 -0.978,0.023 -1.483,-0.065 -0.506,-0.087 -0.989,-0.242 -1.45,-0.462 -0.461,-0.219 -0.857,-0.473 -1.187,-0.757 -0.329,-0.287 -0.56,-0.583 -0.692,-0.889 0.528,0.042 1.056,0.086 1.582,0.129 0.483,0.045 1.011,0.068 1.582,0.068 0.571,0 1.164,-0.045 1.779,-0.133 0.747,-0.087 1.406,-0.208 1.978,-0.362 0.571,-0.153 1.054,-0.274 1.45,-0.362 l 1.186,-0.396 m 3.493,-3.625 c -0.791,0.264 -1.604,0.506 -2.439,0.725 -0.747,0.22 -1.57,0.428 -2.471,0.625 -0.901,0.2 -1.856,0.364 -2.867,0.496 -1.186,0.132 -2.362,0.209 -3.526,0.231 -1.164,0.022 -2.208,0.011 -3.131,-0.034 -1.097,-0.045 -2.153,-0.132 -3.163,-0.262 0.175,1.098 0.538,2.14 1.088,3.13 0.548,0.988 1.241,1.833 2.075,2.537 0.835,0.703 1.791,1.241 2.867,1.615 1.076,0.372 2.209,0.516 3.394,0.428 1.803,-0.132 3.219,-0.594 4.252,-1.385 1.032,-0.791 1.811,-1.691 2.339,-2.702 0.528,-1.011 0.89,-2.021 1.088,-3.031 0.197,-1.011 0.362,-1.802 0.494,-2.373 m -4.943,-23.264 c 0.572,0 1,0.174 1.285,0.527 0.286,0.351 0.428,0.746 0.428,1.185 0,0.439 -0.142,0.835 -0.428,1.188 -0.285,0.351 -0.713,0.526 -1.285,0.526 -0.571,0 -0.999,-0.175 -1.285,-0.526 -0.285,-0.353 -0.429,-0.749 -0.429,-1.188 0,-0.439 0.144,-0.834 0.429,-1.185 0.286,-0.353 0.714,-0.527 1.285,-0.527 m 6.986,16.806 c -1.054,-0.44 -2.021,-0.637 -2.9,-0.594 -0.879,0.045 -1.724,0.177 -2.537,0.394 -0.814,0.222 -1.626,0.464 -2.438,0.726 -0.814,0.265 -1.681,0.397 -2.604,0.397 -0.571,0 -1.054,-0.09 -1.45,-0.265 -0.395,-0.177 -0.715,-0.383 -0.955,-0.625 -0.243,-0.242 -0.418,-0.45 -0.528,-0.627 -0.11,-0.175 -0.165,-0.265 -0.165,-0.265 1.275,-0.129 2.504,-0.285 3.691,-0.459 1.01,-0.177 2.065,-0.43 3.164,-0.759 1.097,-0.33 2.021,-0.736 2.768,-1.22 0.746,-0.526 1.197,-1.064 1.35,-1.613 0.155,-0.549 0.232,-1.441 0.232,-2.671 l 0,-7.381 c 0,-1.317 -0.462,-2.404 -1.385,-3.263 -0.923,-0.855 -2.021,-1.284 -3.295,-1.284 -0.967,0 -1.779,0.22 -2.439,0.659 -0.659,0.44 -1.153,0.977 -1.482,1.615 -0.329,0.637 -0.495,1.33 -0.495,2.076 0,0.746 0.166,1.45 0.495,2.108 0.329,0.659 0.812,1.208 1.449,1.648 0.637,0.441 1.461,0.68 2.472,0.725 0.176,0 0.341,-0.022 0.494,-0.064 0.154,-0.045 0.297,-0.09 0.428,-0.133 l 0,3.097 0,0.889 c 0,0.242 -0.032,0.45 -0.098,0.628 -0.065,0.175 -0.186,0.35 -0.362,0.526 -0.176,0.175 -0.44,0.375 -0.791,0.594 -0.22,0.175 -0.715,0.361 -1.483,0.561 -0.769,0.197 -1.647,0.393 -2.637,0.591 -0.988,0.2 -2.021,0.352 -3.098,0.462 -1.076,0.11 -2.031,0.143 -2.867,0.098 l 0,0.329 0,0.727 0,0.723 0,0.332 c 0.265,0.527 0.605,1.086 1.022,1.68 0.418,0.592 0.933,1.141 1.549,1.648 0.616,0.504 1.318,0.922 2.109,1.253 0.791,0.329 1.669,0.492 2.636,0.492 1.1,0 2.065,-0.13 2.9,-0.394 0.836,-0.264 1.593,-0.518 2.274,-0.758 0.68,-0.242 1.362,-0.374 2.044,-0.396 0.681,-0.023 1.416,0.208 2.207,0.692 l 0.725,-2.899 M -708.771,5.47 c 0.571,0 0.999,0.186 1.285,0.56 0.285,0.374 0.428,0.769 0.428,1.186 0,0.419 -0.143,0.813 -0.428,1.187 -0.286,0.372 -0.714,0.561 -1.285,0.561 -0.572,0 -1,-0.189 -1.286,-0.561 -0.285,-0.374 -0.428,-0.768 -0.428,-1.187 0,-0.417 0.143,-0.812 0.428,-1.186 0.286,-0.374 0.714,-0.56 1.286,-0.56 m 16.74,-12.259 c 0,-1.802 -0.493,-2.965 -1.483,-3.493 -0.988,-0.527 -2.449,-0.791 -4.383,-0.791 l -13.049,0 0,3.427 2.833,0 0,10.611 c -0.175,-0.087 -0.384,-0.141 -0.626,-0.163 -0.241,-0.023 -0.494,-0.012 -0.757,0.033 -1.274,0.13 -2.219,0.668 -2.835,1.613 -0.615,0.946 -0.911,1.956 -0.889,3.032 0.022,1.076 0.406,2.043 1.154,2.9 0.747,0.855 1.845,1.286 3.295,1.286 1.538,0 2.669,-0.45 3.393,-1.352 0.726,-0.9 1.088,-1.987 1.088,-3.262 l 0,-14.698 6.393,0 c 0.878,0 1.44,0.133 1.681,0.395 0.242,0.265 0.363,0.769 0.363,1.518 l 0,16.937 3.822,0 0,-17.993"
             style="fill:#0072bb;fill-opacity:1;fill-rule:nonzero;stroke:none"
             id="path54" /></g></g></g><text
       transform="matrix(1,0,0,-1,89.271,135.748)"
       id="text56"><tspan
         style="fill:#0072bb;fill-opacity:1;fill-rule:nonzero;stroke:none;font-family:TF Pimpakarn;font-variant:normal;font-weight:bold;font-stretch:normal;font-size:60;writing-mode:lr;-inkscape-font-specification:TFPimpakarn-Bold"
         x="0 29.58 59.16 87.12 101.52 125.16 148.08 160.68 185.82 201.36 213.96 236.88 262.02 276.42 291.18 318.54 343.68 367.32 379.92 392.52 416.16 441.3 465.66 480.42 494.82 520.68 543.6 555.42 567.24 581.64 606 621.54 645.9"
         y="0"
         sodipodi:role="line"
         id="tspan58">NDR Solution (Thailand) Co., Ltd.</tspan></text>
</g></svg>