<?xml version="1.0" encoding="UTF-8" standalone="no"?>
<!-- Created with Inkscape (http://www.inkscape.org/) -->

<svg
   xmlns:dc="http://purl.org/dc/elements/1.1/"
   xmlns:cc="http://creativecommons.org/ns#"
   xmlns:rdf="http://www.w3.org/1999/02/22-rdf-syntax-ns#"
   xmlns:svg="http://www.w3.org/2000/svg"
   xmlns="http://www.w3.org/2000/svg"
   xmlns:sodipodi="http://sodipodi.sourceforge.net/DTD/sodipodi-0.dtd"
   xmlns:inkscape="http://www.inkscape.org/namespaces/inkscape"
   id="svg2"
   version="1.1"
   inkscape:version="0.48.4 r9939"
   width="1280"
   height="960"
   xml:space="preserve"
   sodipodi:docname="LOGO OOKBEE.ai"><metadata
     id="metadata8"><rdf:RDF><cc:Work
         rdf:about=""><dc:format>image/svg+xml</dc:format><dc:type
           rdf:resource="http://purl.org/dc/dcmitype/StillImage" /><dc:title></dc:title></cc:Work></rdf:RDF></metadata><defs
     id="defs6"><clipPath
       clipPathUnits="userSpaceOnUse"
       id="clipPath16"><path
         d="M 0,768 1024,768 1024,0 0,0 0,768 z"
         id="path18" /></clipPath></defs><sodipodi:namedview
     pagecolor="#ffffff"
     bordercolor="#666666"
     borderopacity="1"
     objecttolerance="10"
     gridtolerance="10"
     guidetolerance="10"
     inkscape:pageopacity="0"
     inkscape:pageshadow="2"
     inkscape:window-width="640"
     inkscape:window-height="480"
     id="namedview4"
     showgrid="false"
     inkscape:zoom="0.24583333"
     inkscape:cx="640"
     inkscape:cy="480"
     inkscape:window-x="53"
     inkscape:window-y="24"
     inkscape:window-maximized="0"
     inkscape:current-layer="g10" /><g
     id="g10"
     inkscape:groupmode="layer"
     inkscape:label="LOGO OOKBEE"
     transform="matrix(1.25,0,0,-1.25,0,960)"><g
       id="g12"><g
         id="g14"
         clip-path="url(#clipPath16)"><g
           id="g20"
           transform="translate(215.2319,321.3174)"><path
             d="m 0,0 c 0,29.408 -8.568,44.121 -25.707,44.121 -17.538,0 -26.306,-14.713 -26.306,-44.121 0,-14.714 2.121,-25.687 6.377,-32.893 4.247,-7.223 10.829,-10.832 19.73,-10.832 C -8.635,-43.725 0,-29.146 0,0 m -89.658,0 c 0,10.79 1.246,20.81 3.743,30.051 2.497,9.237 6.341,17.237 11.54,23.991 5.193,6.735 11.8,12.033 19.832,15.873 8.024,3.856 17.571,5.776 28.637,5.776 11.063,0 20.573,-1.92 28.539,-5.776 7.957,-3.84 14.539,-9.138 19.73,-15.873 C 27.561,47.288 31.407,39.288 33.901,30.051 36.404,20.81 37.647,10.79 37.647,0 c 0,-10.801 -1.243,-20.748 -3.746,-29.855 -2.494,-9.108 -6.34,-17 -11.538,-23.678 -5.191,-6.683 -11.773,-11.872 -19.73,-15.584 -7.966,-3.702 -17.476,-5.566 -28.539,-5.566 -11.066,0 -20.613,1.864 -28.637,5.566 -8.032,3.712 -14.639,8.901 -19.832,15.584 -5.199,6.678 -9.043,14.57 -11.54,23.678 -2.497,9.107 -3.743,19.054 -3.743,29.855"
             style="fill:#292929;fill-opacity:1;fill-rule:nonzero;stroke:none"
             id="path22" /></g><g
           id="g24"
           transform="translate(337.0747,300.874)"><path
             d="m 0,0 c 0,8.629 -1.453,15.238 -4.352,19.835 -2.901,4.582 -7.318,6.884 -13.258,6.884 -5.937,0 -10.322,-2.302 -13.156,-6.884 -2.832,-4.597 -4.25,-11.206 -4.25,-19.835 0,-8.501 1.418,-15.05 4.25,-19.626 2.834,-4.599 7.219,-6.89 13.156,-6.89 5.94,0 10.357,2.291 13.258,6.89 C -1.453,-15.05 0,-8.501 0,0 m -69.623,0 c 0,8.241 1.108,15.747 3.338,22.569 2.227,6.811 5.533,12.64 9.921,17.5 4.375,4.856 9.813,8.609 16.289,11.234 6.477,2.626 13.963,3.943 22.465,3.943 8.635,0 16.194,-1.317 22.666,-3.943 6.479,-2.625 11.908,-6.378 16.292,-11.234 4.381,-4.86 7.695,-10.689 9.921,-17.5 C 33.494,15.747 34.608,8.241 34.608,0 c 0,-8.088 -1.114,-15.482 -3.339,-22.16 -2.226,-6.683 -5.54,-12.429 -9.921,-17.205 -4.384,-4.789 -9.813,-8.469 -16.292,-11.044 -6.472,-2.559 -14.031,-3.83 -22.666,-3.83 -8.502,0 -15.988,1.271 -22.465,3.83 -6.476,2.575 -11.914,6.255 -16.289,11.044 -4.388,4.776 -7.694,10.522 -9.921,17.205 -2.23,6.678 -3.338,14.072 -3.338,22.16"
             style="fill:#292929;fill-opacity:1;fill-rule:nonzero;stroke:none"
             id="path26" /></g><g
           id="g28"
           transform="translate(450.6162,353.6914)"><path
             d="m 0,0 c 2.428,0.544 5.392,0.945 8.906,1.225 3.503,0.267 6.606,0.401 9.306,0.401 3.512,0 7.048,-0.134 10.629,-0.401 C 32.416,0.945 35.283,0.544 37.439,0 L 12.34,-48.57 40.277,-104.214 c -2.426,-0.546 -5.469,-0.953 -9.115,-1.226 -3.637,-0.256 -6.806,-0.402 -9.506,-0.402 -3.514,0 -6.983,0.146 -10.428,0.402 -3.442,0.273 -6.167,0.68 -8.191,1.226 L -23.879,-49.981 0,0 z m -61.331,0 c 2.971,0.678 5.901,1.147 8.811,1.42 2.896,0.279 5.692,0.413 8.398,0.413 2.556,0 5.331,-0.134 8.294,-0.413 2.968,-0.273 5.874,-0.742 8.707,-1.42 l 0,-104.214 c -3.509,-0.685 -6.682,-1.134 -9.511,-1.324 -2.837,-0.2 -5.336,-0.304 -7.49,-0.304 -2.3,0 -4.86,0.104 -7.69,0.304 -2.836,0.19 -6.008,0.639 -9.519,1.324 l 0,104.214 z"
             style="fill:#292929;fill-opacity:1;fill-rule:nonzero;stroke:none"
             id="path30" /></g><g
           id="g32"
           transform="translate(537.0342,292.373)"><path
             d="m 0,0 0,-20.845 c 0.401,0 1.478,-0.073 3.244,-0.197 1.744,-0.149 4.108,-0.2 7.073,-0.2 5.668,0 9.721,0.927 12.15,2.82 2.421,1.892 3.635,4.522 3.635,7.909 0,1.338 -0.237,2.652 -0.7,3.934 -0.478,1.276 -1.318,2.398 -2.532,3.347 -1.217,0.941 -2.915,1.713 -5.062,2.321 C 15.65,-0.299 12.819,0 9.309,0 L 0,0 z m 0,21.252 9.927,0 c 5.117,0 8.555,1.108 10.305,3.343 1.751,2.218 2.638,4.546 2.638,6.985 0,2.286 -0.917,4.417 -2.741,6.368 -1.811,1.952 -5.152,2.936 -10.012,2.936 -1.488,0 -3.208,-0.032 -5.16,-0.1 C 2.997,40.718 1.344,40.61 0,40.477 L 0,21.252 z m -33.804,39.659 c 2.696,0.407 5.796,0.788 9.319,1.123 3.501,0.334 7.078,0.633 10.713,0.91 3.651,0.268 7.193,0.475 10.631,0.609 3.45,0.134 6.436,0.194 9,0.194 16.866,0 29.484,-2.388 37.856,-7.177 8.367,-4.793 12.546,-12.242 12.546,-22.375 0,-5.117 -1.184,-9.472 -3.542,-13.045 -2.348,-3.573 -5.57,-6.652 -9.607,-9.211 5.663,-2.023 10.323,-4.922 13.963,-8.706 3.634,-3.774 5.463,-9.113 5.463,-15.991 0,-12.401 -4.583,-21.011 -13.763,-25.793 -9.174,-4.789 -22.734,-7.187 -40.677,-7.187 -4.732,0 -10.904,0.164 -18.523,0.514 -7.626,0.33 -15.421,1.04 -23.379,2.112 l 0,104.023 z"
             style="fill:#292929;fill-opacity:1;fill-rule:nonzero;stroke:none"
             id="path34" /></g><g
           id="g36"
           transform="translate(662.5107,330.4199)"><path
             d="m 0,0 c -4.32,0 -8.026,-1.35 -11.131,-4.047 -3.099,-2.698 -4.923,-6.877 -5.468,-12.556 l 32.389,0 c -0.277,4.737 -1.72,8.674 -4.345,11.855 C 8.81,-1.585 4.994,0 0,0 m -16.191,-39.88 c 1.488,-5.524 4.083,-9.426 7.794,-11.727 3.708,-2.291 8.597,-3.451 14.678,-3.451 3.907,0 8.288,0.481 13.155,1.427 4.859,0.947 9.642,2.359 14.368,4.248 1.889,-3.512 3.538,-7.696 4.958,-12.547 1.421,-4.861 2.193,-9.917 2.327,-15.182 -12.011,-4.454 -24.285,-6.673 -36.831,-6.673 -9.72,0 -18.051,1.36 -25.001,4.042 -6.95,2.691 -12.619,6.444 -17.005,11.233 -4.377,4.788 -7.608,10.488 -9.711,17.108 -2.101,6.605 -3.139,13.819 -3.139,21.649 0,7.698 1.076,14.904 3.238,21.659 2.158,6.744 5.4,12.619 9.726,17.608 4.303,4.995 9.714,8.937 16.181,11.838 6.486,2.897 14.039,4.348 22.674,4.348 7.155,0 13.523,-1.204 19.125,-3.635 5.607,-2.43 10.348,-5.765 14.257,-10.023 3.918,-4.248 6.914,-9.371 9.014,-15.379 2.096,-5.997 3.135,-12.51 3.135,-19.522 0,-3.64 -0.164,-6.92 -0.503,-9.833 -0.341,-2.9 -0.639,-5.283 -0.912,-7.188 l -61.528,0 z"
             style="fill:#292929;fill-opacity:1;fill-rule:nonzero;stroke:none"
             id="path38" /></g><g
           id="g40"
           transform="translate(771.3945,330.4199)"><path
             d="m 0,0 c -4.314,0 -8.031,-1.35 -11.131,-4.047 -3.099,-2.698 -4.917,-6.877 -5.463,-12.556 l 32.378,0 c -0.262,4.737 -1.72,8.674 -4.345,11.855 C 8.803,-1.585 4.987,0 0,0 m -16.188,-39.88 c 1.495,-5.524 4.089,-9.426 7.795,-11.727 3.707,-2.291 8.587,-3.451 14.674,-3.451 3.912,0 8.298,0.481 13.149,1.427 4.869,0.947 9.637,2.359 14.374,4.248 1.894,-3.512 3.542,-7.696 4.964,-12.547 1.41,-4.861 2.193,-9.917 2.315,-15.182 -12.016,-4.454 -24.279,-6.673 -36.825,-6.673 -9.727,0 -18.051,1.36 -25.007,4.042 -6.94,2.691 -12.603,6.444 -16.999,11.233 -4.377,4.788 -7.621,10.488 -9.705,17.108 -2.097,6.605 -3.147,13.819 -3.147,21.649 0,7.698 1.082,14.904 3.234,21.659 2.163,6.744 5.401,12.619 9.73,17.608 4.31,4.995 9.711,8.937 16.181,11.838 6.474,2.897 14.036,4.348 22.676,4.348 7.15,0 13.524,-1.204 19.125,-3.635 5.597,-2.43 10.347,-5.765 14.26,-10.023 3.919,-4.248 6.92,-9.371 9.011,-15.379 2.09,-5.997 3.135,-12.51 3.135,-19.522 0,-3.64 -0.171,-6.92 -0.499,-9.833 -0.351,-2.9 -0.649,-5.283 -0.917,-7.188 l -61.524,0 z"
             style="fill:#292929;fill-opacity:1;fill-rule:nonzero;stroke:none"
             id="path42" /></g><g
           id="g44"
           transform="translate(890.502,399.4541)"><path
             d="m 0,0 c 0,-25.751 -19.564,-50.299 -42.793,-56.575 2.173,9.093 3.295,20.939 -2.215,29.196 -1.698,2.565 -4.488,5.427 -8.896,7.197 17.809,3.326 26.834,15.487 26.834,33.295 l 0,86.689 c 0,6.74 -3.378,12.712 -8.546,16.419 l 17.124,0 C -8.288,116.221 0,107.926 0,97.737 L 0,0 z m -85.453,131.99 30.098,0 0,-7.583 -85.258,0 0,9.421 -0.123,0.427 c -0.155,0.5 -15.136,50.151 -17.005,56.674 -0.217,0.767 -0.119,1.375 0.294,1.925 0.586,0.783 1.718,1.308 2.82,1.308 1.592,0 1.977,-1.009 2.11,-1.344 1.824,-4.752 11.559,-39.313 16.446,-56.921 l 0.612,-2.182 16.819,0 0.834,1.585 c 0.253,0.469 24.74,46.738 27.39,51.453 2.919,5.205 6.27,5.576 11.43,5.576 l 46.932,-0.005 c 6.075,0 7.646,-1.586 8.032,-2.271 0.648,-1.122 0.216,-3.186 -1.153,-5.534 -4.68,-8.032 -25.846,-42.32 -29.264,-47.839 l -31.014,0 c -1.298,0 -2.348,-1.05 -2.348,-2.348 0,-1.287 1.05,-2.342 2.348,-2.342 M -74.621,11.992 c 0,-11.003 -8.746,-19.914 -19.543,-19.914 l -104.214,0 c -10.79,0 -19.538,8.911 -19.538,19.914 l 0,84.315 c 0,10.997 8.748,19.914 19.538,19.914 l 104.214,0 c 10.797,0 19.543,-8.917 19.543,-19.914 l 0,-84.315 z M 7.924,97.737 c 0,14.581 -11.826,26.412 -26.416,26.412 l -30.897,0 0,9.339 c 3.362,5.442 24.646,39.921 29.372,48.03 2.533,4.339 2.945,8.422 1.168,11.506 -2.002,3.496 -6.439,5.262 -13.205,5.262 l -44.894,0 -2.038,0.005 c -4.696,0 -11.789,0 -16.629,-8.613 -2.086,-3.692 -16.727,-31.318 -23.746,-44.575 l 16.867,50.49 c 0.407,1.226 -0.252,2.554 -1.483,2.966 -1.226,0.406 -2.554,-0.253 -2.965,-1.478 l -16.156,-48.384 3.747,47.457 c 0.093,1.287 -0.864,2.415 -2.151,2.518 -1.298,0.102 -2.419,-0.865 -2.522,-2.152 l -3.666,-46.465 -6.395,46.599 c -0.174,1.282 -1.368,2.188 -2.642,2.008 -1.281,-0.181 -2.177,-1.365 -2.002,-2.641 l 7.59,-55.582 c -3.08,11.048 -13.736,49.11 -15.816,54.526 -1.227,3.182 -4.16,5.159 -7.672,5.159 -2.966,0 -5.88,-1.411 -7.589,-3.676 -1.549,-2.049 -1.993,-4.593 -1.261,-7.156 1.807,-6.317 15.328,-51.155 16.903,-56.339 l 0,-8.804 -52.196,0 c -14.584,0 -26.411,-11.831 -26.411,-26.412 l 0,-97.737 c 0,-14.59 11.827,-26.422 26.411,-26.422 l 135.374,0 c 25.761,0 9.245,-39.615 9.245,-39.615 33.021,0 62.075,32.356 62.075,66.037 l 0,97.737 z"
             style="fill:#292929;fill-opacity:1;fill-rule:nonzero;stroke:none"
             id="path46" /></g><g
           id="g48"
           transform="translate(764.3672,459.8765)"><path
             d="m 0,0 c -1.082,0 -1.977,0.89 -1.977,1.977 0,1.101 0.895,1.987 1.977,1.987 1.101,0 1.986,-0.886 1.986,-1.987 C 1.986,0.89 1.101,0 0,0 m 0,10.563 c -4.736,0 -8.578,-3.84 -8.578,-8.586 0,-4.738 3.842,-8.578 8.578,-8.578 4.746,0 8.592,3.84 8.592,8.578 0,4.746 -3.846,8.586 -8.592,8.586"
             style="fill:#292929;fill-opacity:1;fill-rule:nonzero;stroke:none"
             id="path50" /></g><g
           id="g52"
           transform="translate(702.957,459.8765)"><path
             d="m 0,0 c -1.087,0 -1.978,0.89 -1.978,1.977 0,1.101 0.891,1.987 1.978,1.987 1.091,0 1.98,-0.886 1.98,-1.987 C 1.98,0.89 1.091,0 0,0 m 0,10.563 c -4.736,0 -8.583,-3.84 -8.583,-8.586 0,-4.738 3.847,-8.578 8.583,-8.578 4.746,0 8.586,3.84 8.586,8.578 0,4.746 -3.84,8.586 -8.586,8.586"
             style="fill:#292929;fill-opacity:1;fill-rule:nonzero;stroke:none"
             id="path54" /></g><g
           id="g56"
           transform="translate(792.1064,437.542)"><path
             d="m 0,0 c 0,-9.349 -6.972,-16.958 -15.534,-16.958 l -75.248,0 c -8.562,0 -15.532,7.609 -15.532,16.958 l 0,45.326 c 0,9.351 6.97,16.96 15.532,16.96 l 75.248,0 C -6.972,62.286 0,54.677 0,45.326 L 0,0 z m -15.534,66.909 -75.248,0 c -11.137,0 -20.156,-9.663 -20.156,-21.583 l 0,-45.326 c 0,-11.917 9.019,-21.581 20.156,-21.581 l 75.248,0 c 11.131,0 20.157,9.664 20.157,21.581 l 0,45.326 c 0,11.92 -9.026,21.583 -20.157,21.583"
             style="fill:#292929;fill-opacity:1;fill-rule:nonzero;stroke:none"
             id="path58" /></g><g
           id="g60"
           transform="translate(796.7295,437.542)"><path
             d="m 0,0 c 0,-11.917 -9.026,-21.581 -20.157,-21.581 l -75.248,0 c -11.137,0 -20.157,9.664 -20.157,21.581 l 0,45.326 c 0,11.92 9.02,21.583 20.157,21.583 l 75.248,0 C -9.026,66.909 0,57.246 0,45.326 L 0,0 z m -0.392,78.133 -104.213,0 c -10.791,0 -19.539,-8.917 -19.539,-19.914 l 0,-84.315 c 0,-11.003 8.748,-19.914 19.539,-19.914 l 104.213,0 c 10.797,0 19.543,8.911 19.543,19.914 l 0,84.315 c 0,10.997 -8.746,19.914 -19.543,19.914"
             style="fill:#ffd756;fill-opacity:1;fill-rule:nonzero;stroke:none"
             id="path62" /></g><g
           id="g64"
           transform="translate(890.502,399.4541)"><path
             d="m 0,0 c 0,-25.751 -19.564,-50.299 -42.793,-56.575 2.173,9.093 3.295,20.939 -2.215,29.196 -1.698,2.565 -4.488,5.427 -8.896,7.197 17.809,3.326 26.834,15.487 26.834,33.295 l 0,86.689 c 0,6.74 -3.378,12.712 -8.546,16.419 l 17.124,0 C -8.288,116.221 0,107.926 0,97.737 L 0,0 z"
             style="fill:#ffd557;fill-opacity:1;fill-rule:nonzero;stroke:none"
             id="path66" /></g><g
           id="g68"
           transform="translate(702.957,463.8403)"><path
             d="m 0,0 c -1.087,0 -1.978,-0.886 -1.978,-1.987 0,-1.087 0.891,-1.977 1.978,-1.977 1.091,0 1.98,0.89 1.98,1.977 C 1.98,-0.886 1.091,0 0,0"
             style="fill:#ffffff;fill-opacity:1;fill-rule:nonzero;stroke:none"
             id="path70" /></g><g
           id="g72"
           transform="translate(764.3672,463.8403)"><path
             d="m 0,0 c -1.082,0 -1.977,-0.886 -1.977,-1.987 0,-1.087 0.895,-1.977 1.977,-1.977 1.101,0 1.986,0.89 1.986,1.977 C 1.986,-0.886 1.101,0 0,0"
             style="fill:#ffffff;fill-opacity:1;fill-rule:nonzero;stroke:none"
             id="path74" /></g><g
           id="g76"
           transform="translate(764.3672,453.2754)"><path
             d="m 0,0 c -4.736,0 -8.578,3.84 -8.578,8.578 0,4.746 3.842,8.587 8.578,8.587 4.746,0 8.592,-3.841 8.592,-8.587 C 8.592,3.84 4.746,0 0,0 m -61.41,0 c -4.736,0 -8.583,3.84 -8.583,8.578 0,4.746 3.847,8.587 8.583,8.587 4.746,0 8.586,-3.841 8.586,-8.587 C -52.824,3.84 -56.664,0 -61.41,0 m 73.615,46.553 -75.248,0 c -8.561,0 -15.532,-7.61 -15.532,-16.96 l 0,-45.326 c 0,-9.349 6.971,-16.958 15.532,-16.958 l 75.248,0 c 8.563,0 15.534,7.609 15.534,16.958 l 0,45.326 c 0,9.35 -6.971,16.96 -15.534,16.96"
             style="fill:#ffffff;fill-opacity:1;fill-rule:nonzero;stroke:none"
             id="path78" /></g><g
           id="g80"
           transform="translate(805.0488,531.4443)"><path
             d="m 0,0 30.098,0 0,-7.583 -85.258,0 0,9.421 -0.123,0.427 c -0.155,0.5 -15.136,50.151 -17.005,56.674 -0.217,0.767 -0.119,1.374 0.294,1.925 0.586,0.782 1.719,1.308 2.82,1.308 1.592,0 1.977,-1.009 2.111,-1.344 1.823,-4.752 11.558,-39.313 16.445,-56.921 l 0.612,-2.182 16.819,0 0.834,1.585 c 0.253,0.468 24.74,46.737 27.39,51.453 2.919,5.205 6.271,5.576 11.43,5.576 l 46.932,-0.005 c 6.075,0 7.646,-1.586 8.032,-2.271 0.648,-1.122 0.216,-3.186 -1.153,-5.534 C 55.598,44.497 34.433,10.208 31.014,4.69 L 0,4.69 C -1.298,4.69 -2.348,3.64 -2.348,2.342 -2.348,1.055 -1.298,0 0,0"
             style="fill:#ffffff;fill-opacity:1;fill-rule:nonzero;stroke:none"
             id="path82" /></g><path
           d="m 53,37 -26,0 0,30 26,0 0,-30 z"
           style="fill:#ffd756;fill-opacity:1;fill-rule:nonzero;stroke:none"
           id="path84" /><g
           id="g86"
           transform="translate(79.7119,51.8896)"><path
             d="m 0,0 c 0,-0.528 0.007,-1.106 0.021,-1.733 0.015,-0.627 0.064,-1.255 0.147,-1.886 0.083,-0.63 0.212,-1.242 0.386,-1.836 0.174,-0.595 0.422,-1.12 0.744,-1.576 0.323,-0.456 0.728,-0.823 1.218,-1.098 0.489,-0.275 1.088,-0.413 1.798,-0.413 0.718,0 1.324,0.138 1.821,0.413 0.496,0.275 0.905,0.642 1.228,1.098 0.322,0.456 0.572,0.981 0.749,1.576 0.178,0.594 0.308,1.206 0.392,1.836 0.083,0.631 0.132,1.259 0.146,1.886 C 8.665,-1.106 8.672,-0.528 8.672,0 8.672,0.521 8.665,1.093 8.65,1.712 8.636,2.331 8.587,2.954 8.504,3.581 8.42,4.208 8.29,4.814 8.112,5.401 7.935,5.988 7.685,6.508 7.363,6.961 7.04,7.414 6.631,7.776 6.135,8.048 5.638,8.319 5.032,8.455 4.314,8.455 3.611,8.455 3.016,8.319 2.526,8.048 2.038,7.776 1.634,7.414 1.315,6.961 0.996,6.508 0.748,5.988 0.57,5.401 0.393,4.814 0.262,4.208 0.179,3.581 0.096,2.954 0.045,2.331 0.027,1.712 0.009,1.093 0,0.521 0,0 m -2.902,0 c 0,0.58 0.011,1.18 0.033,1.799 0.021,0.619 0.07,1.241 0.146,1.864 0.077,0.623 0.187,1.234 0.332,1.836 0.145,0.602 0.339,1.172 0.581,1.712 0.243,0.54 0.54,1.038 0.892,1.494 0.351,0.456 0.775,0.852 1.271,1.185 0.496,0.333 1.07,0.593 1.723,0.782 0.652,0.188 1.398,0.283 2.238,0.283 1.13,0 2.094,-0.163 2.891,-0.489 0.797,-0.326 1.463,-0.767 2,-1.32 0.536,-0.555 0.962,-1.198 1.276,-1.93 0.316,-0.732 0.555,-1.503 0.718,-2.315 0.163,-0.811 0.266,-1.638 0.31,-2.483 0.043,-0.844 0.065,-1.649 0.065,-2.418 0,-0.608 -0.011,-1.231 -0.033,-1.869 -0.021,-0.638 -0.07,-1.272 -0.146,-1.902 -0.077,-0.63 -0.187,-1.246 -0.332,-1.847 C 10.918,-6.22 10.724,-6.788 10.481,-7.324 10.239,-7.86 9.94,-8.354 9.585,-8.803 9.23,-9.252 8.803,-9.64 8.303,-9.966 c -0.5,-0.326 -1.078,-0.579 -1.734,-0.761 -0.655,-0.18 -1.407,-0.271 -2.255,-0.271 -1.115,0 -2.07,0.159 -2.863,0.478 -0.794,0.319 -1.458,0.75 -1.994,1.293 -0.537,0.544 -0.96,1.179 -1.272,1.908 -0.311,0.728 -0.547,1.498 -0.706,2.309 -0.16,0.812 -0.263,1.647 -0.31,2.505 -0.047,0.859 -0.071,1.693 -0.071,2.505"
             style="fill:#373535;fill-opacity:1;fill-rule:nonzero;stroke:none"
             id="path88" /></g><path
           d="m 104.636,41.25 -3.564,0 0,3.564 3.564,0 0,-3.564 z m -3.565,15.802 3.564,0 0,-3.564 -3.564,0 0,3.564 z"
           style="fill:#373535;fill-opacity:1;fill-rule:nonzero;stroke:none"
           id="path90" /><g
           id="g92"
           transform="translate(115.7153,58.3018)"><path
             d="m 0,0 c 0.768,0.044 1.481,0.116 2.141,0.218 0.659,0.1 1.248,0.297 1.766,0.586 0.518,0.29 0.956,0.699 1.315,1.228 0.359,0.53 0.621,1.246 0.788,2.152 l 2.358,0 0,-21.236 -2.717,0 0,15.846 C 5.296,-1.452 4.917,-1.655 4.516,-1.815 4.113,-1.975 3.681,-2.103 3.217,-2.2 2.753,-2.299 2.255,-2.371 1.723,-2.418 1.19,-2.465 0.616,-2.492 0,-2.5 L 0,0 z"
             style="fill:#373535;fill-opacity:1;fill-rule:nonzero;stroke:none"
             id="path94" /></g><g
           id="g96"
           transform="translate(142.1172,60.041)"><path
             d="m 0,0 -1.032,-5.836 c 0.246,0.246 0.52,0.454 0.82,0.624 0.301,0.171 0.616,0.309 0.946,0.413 0.329,0.106 0.67,0.182 1.021,0.229 0.351,0.047 0.701,0.07 1.049,0.07 0.978,0 1.893,-0.153 2.744,-0.462 0.851,-0.308 1.59,-0.767 2.217,-1.38 0.627,-0.612 1.121,-1.38 1.484,-2.304 0.362,-0.923 0.543,-2.004 0.543,-3.244 0,-0.616 -0.069,-1.22 -0.207,-1.815 -0.137,-0.594 -0.346,-1.157 -0.625,-1.69 -0.278,-0.532 -0.628,-1.021 -1.048,-1.466 -0.42,-0.446 -0.911,-0.832 -1.473,-1.159 -0.561,-0.325 -1.193,-0.581 -1.896,-0.765 -0.703,-0.185 -1.478,-0.278 -2.326,-0.278 -0.927,0 -1.8,0.136 -2.619,0.409 -0.819,0.271 -1.539,0.672 -2.162,1.2 -0.624,0.529 -1.124,1.184 -1.5,1.968 -0.377,0.782 -0.583,1.683 -0.62,2.705 l 2.815,0 c 0.051,-0.558 0.186,-1.073 0.408,-1.543 0.22,-0.471 0.514,-0.878 0.88,-1.223 0.366,-0.344 0.802,-0.613 1.31,-0.809 0.506,-0.196 1.079,-0.293 1.716,-0.293 0.609,0 1.181,0.102 1.718,0.309 0.536,0.206 1.003,0.516 1.401,0.929 0.399,0.413 0.712,0.932 0.94,1.555 0.228,0.623 0.343,1.35 0.343,2.184 0,0.688 -0.113,1.323 -0.337,1.907 -0.225,0.583 -0.542,1.087 -0.951,1.511 -0.41,0.424 -0.9,0.755 -1.473,0.994 -0.572,0.239 -1.21,0.359 -1.912,0.359 -0.435,0 -0.83,-0.053 -1.185,-0.158 -0.355,-0.105 -0.688,-0.248 -1,-0.429 -0.311,-0.182 -0.603,-0.393 -0.875,-0.636 -0.271,-0.243 -0.541,-0.505 -0.809,-0.788 l -2.446,0.098 2,11.258 10.77,0 L 8.629,0 0,0 z"
             style="fill:#373535;fill-opacity:1;fill-rule:nonzero;stroke:none"
             id="path98" /></g><path
           d="m 165.259,41.25 -3.565,0 0,3.564 3.565,0 0,-3.564 z m -3.565,15.802 3.565,0 0,-3.564 -3.565,0 0,3.564 z"
           style="fill:#373535;fill-opacity:1;fill-rule:nonzero;stroke:none"
           id="path100" /><g
           id="g102"
           transform="translate(178.6089,57.1387)"><path
             d="m 0,0 c 0,-0.543 0.104,-1.023 0.31,-1.439 0.207,-0.417 0.483,-0.765 0.831,-1.044 0.348,-0.279 0.75,-0.491 1.207,-0.636 0.456,-0.145 0.934,-0.217 1.434,-0.217 0.493,0 0.949,0.076 1.369,0.229 0.421,0.151 0.783,0.371 1.087,0.657 0.304,0.286 0.544,0.636 0.718,1.049 0.173,0.413 0.26,0.88 0.26,1.401 0,0.536 -0.087,1.006 -0.26,1.407 C 6.782,1.81 6.539,2.143 6.228,2.407 5.916,2.672 5.544,2.871 5.113,3.005 4.682,3.139 4.209,3.206 3.695,3.206 3.224,3.206 2.768,3.141 2.326,3.011 1.884,2.88 1.491,2.683 1.147,2.418 0.803,2.154 0.525,1.82 0.315,1.418 0.105,1.017 0,0.544 0,0 m -0.706,-9.748 c 0,-0.645 0.11,-1.217 0.331,-1.717 0.221,-0.5 0.531,-0.922 0.93,-1.266 0.398,-0.344 0.872,-0.607 1.423,-0.789 0.551,-0.18 1.152,-0.271 1.804,-0.271 0.638,0 1.219,0.1 1.744,0.299 0.526,0.199 0.976,0.48 1.353,0.843 0.377,0.362 0.669,0.793 0.875,1.293 0.207,0.5 0.31,1.05 0.31,1.651 0,0.559 -0.114,1.078 -0.342,1.56 -0.228,0.482 -0.54,0.902 -0.935,1.26 -0.395,0.36 -0.855,0.64 -1.38,0.843 C 4.881,-5.84 4.326,-5.738 3.739,-5.738 3.13,-5.738 2.556,-5.83 2.016,-6.015 1.477,-6.199 1.005,-6.464 0.604,-6.809 0.201,-7.152 -0.118,-7.572 -0.353,-8.069 -0.588,-8.565 -0.706,-9.125 -0.706,-9.748 m -2.141,9.89 c 0,0.913 0.176,1.714 0.527,2.407 0.351,0.691 0.82,1.271 1.407,1.738 0.587,0.468 1.265,0.821 2.033,1.06 0.768,0.239 1.568,0.359 2.401,0.359 1.167,0 2.167,-0.158 3,-0.473 C 7.354,4.918 8.037,4.499 8.569,3.978 9.102,3.456 9.491,2.862 9.738,2.195 9.984,1.529 10.107,0.844 10.107,0.142 10.107,-0.337 10.042,-0.795 9.912,-1.233 9.781,-1.672 9.596,-2.077 9.357,-2.45 9.118,-2.823 8.828,-3.164 8.488,-3.472 8.147,-3.78 7.767,-4.046 7.347,-4.271 c 0.565,-0.232 1.074,-0.527 1.527,-0.885 0.453,-0.36 0.836,-0.767 1.151,-1.223 0.316,-0.457 0.557,-0.962 0.724,-1.517 0.166,-0.553 0.249,-1.142 0.249,-1.765 0,-1.058 -0.192,-1.996 -0.576,-2.815 -0.384,-0.819 -0.903,-1.506 -1.559,-2.065 -0.656,-0.558 -1.422,-0.981 -2.299,-1.272 -0.876,-0.289 -1.804,-0.434 -2.782,-0.434 -1.036,0 -2.003,0.14 -2.902,0.419 -0.898,0.278 -1.68,0.693 -2.347,1.244 -0.666,0.551 -1.19,1.237 -1.57,2.06 -0.38,0.822 -0.571,1.776 -0.571,2.863 0,0.623 0.074,1.21 0.223,1.761 0.149,0.55 0.371,1.053 0.668,1.51 0.298,0.456 0.665,0.861 1.103,1.212 0.439,0.351 0.947,0.639 1.527,0.864 -0.427,0.203 -0.811,0.46 -1.152,0.771 -0.34,0.312 -0.63,0.663 -0.869,1.055 -0.239,0.39 -0.422,0.809 -0.549,1.255 -0.127,0.445 -0.19,0.904 -0.19,1.375"
             style="fill:#373535;fill-opacity:1;fill-rule:nonzero;stroke:none"
             id="path104" /></g><g
           id="g106"
           transform="translate(199.3501,58.3018)"><path
             d="m 0,0 c 0.768,0.044 1.481,0.116 2.141,0.218 0.659,0.1 1.248,0.297 1.766,0.586 0.518,0.29 0.956,0.699 1.315,1.228 0.359,0.53 0.621,1.246 0.788,2.152 l 2.358,0 0,-21.236 -2.717,0 0,15.846 C 5.296,-1.452 4.917,-1.655 4.516,-1.815 4.113,-1.975 3.68,-2.103 3.217,-2.2 2.753,-2.299 2.255,-2.371 1.723,-2.418 1.19,-2.465 0.616,-2.492 0,-2.5 L 0,0 z"
             style="fill:#373535;fill-opacity:1;fill-rule:nonzero;stroke:none"
             id="path108" /></g><path
           d="m 225.882,41.25 -3.564,0 0,3.564 3.564,0 0,-3.564 z m -3.564,15.802 3.564,0 0,-3.564 -3.564,0 0,3.564 z"
           style="fill:#373535;fill-opacity:1;fill-rule:nonzero;stroke:none"
           id="path110" /><g
           id="g112"
           transform="translate(238.5693,51.8896)"><path
             d="m 0,0 c 0,-0.528 0.007,-1.106 0.022,-1.733 0.015,-0.627 0.063,-1.255 0.146,-1.886 0.084,-0.63 0.212,-1.242 0.386,-1.836 0.175,-0.595 0.423,-1.12 0.745,-1.576 0.322,-0.456 0.728,-0.823 1.217,-1.098 0.489,-0.275 1.088,-0.413 1.798,-0.413 0.718,0 1.325,0.138 1.821,0.413 0.496,0.275 0.906,0.642 1.228,1.098 0.323,0.456 0.573,0.981 0.75,1.576 0.178,0.594 0.308,1.206 0.391,1.836 0.083,0.631 0.132,1.259 0.147,1.886 C 8.666,-1.106 8.672,-0.528 8.672,0 8.672,0.521 8.666,1.093 8.651,1.712 8.636,2.331 8.587,2.954 8.504,3.581 8.421,4.208 8.291,4.814 8.113,5.401 7.936,5.988 7.686,6.508 7.363,6.961 7.041,7.414 6.631,7.776 6.135,8.048 5.639,8.319 5.032,8.455 4.314,8.455 3.612,8.455 3.016,8.319 2.527,8.048 2.038,7.776 1.634,7.414 1.315,6.961 0.997,6.508 0.748,5.988 0.571,5.401 0.393,4.814 0.263,4.208 0.18,3.581 0.096,2.954 0.045,2.331 0.027,1.712 0.009,1.093 0,0.521 0,0 m -2.901,0 c 0,0.58 0.01,1.18 0.032,1.799 0.022,0.619 0.071,1.241 0.147,1.864 0.076,0.623 0.186,1.234 0.331,1.836 0.145,0.602 0.339,1.172 0.582,1.712 0.243,0.54 0.539,1.038 0.891,1.494 0.351,0.456 0.775,0.852 1.272,1.185 0.496,0.333 1.07,0.593 1.722,0.782 0.652,0.188 1.398,0.283 2.238,0.283 1.131,0 2.095,-0.163 2.892,-0.489 C 8.002,10.14 8.669,9.699 9.205,9.146 9.741,8.591 10.167,7.948 10.482,7.216 10.797,6.484 11.036,5.713 11.199,4.901 11.362,4.09 11.465,3.263 11.509,2.418 11.552,1.574 11.574,0.769 11.574,0 c 0,-0.608 -0.011,-1.231 -0.032,-1.869 C 11.52,-2.507 11.471,-3.141 11.395,-3.771 11.319,-4.401 11.208,-5.017 11.063,-5.618 10.918,-6.22 10.725,-6.788 10.482,-7.324 10.239,-7.86 9.94,-8.354 9.585,-8.803 9.23,-9.252 8.803,-9.64 8.303,-9.966 c -0.5,-0.326 -1.077,-0.579 -1.733,-0.761 -0.656,-0.18 -1.408,-0.271 -2.256,-0.271 -1.115,0 -2.07,0.159 -2.863,0.478 -0.793,0.319 -1.458,0.75 -1.994,1.293 -0.537,0.544 -0.96,1.179 -1.272,1.908 -0.311,0.728 -0.547,1.498 -0.706,2.309 -0.16,0.812 -0.263,1.647 -0.31,2.505 -0.047,0.859 -0.07,1.693 -0.07,2.505"
             style="fill:#373535;fill-opacity:1;fill-rule:nonzero;stroke:none"
             id="path114" /></g></g></g></g></svg>