<?xml version="1.0" encoding="UTF-8" standalone="no"?>
<!-- Created with Inkscape (http://www.inkscape.org/) -->

<svg
   xmlns:dc="http://purl.org/dc/elements/1.1/"
   xmlns:cc="http://creativecommons.org/ns#"
   xmlns:rdf="http://www.w3.org/1999/02/22-rdf-syntax-ns#"
   xmlns:svg="http://www.w3.org/2000/svg"
   xmlns="http://www.w3.org/2000/svg"
   xmlns:sodipodi="http://sodipodi.sourceforge.net/DTD/sodipodi-0.dtd"
   xmlns:inkscape="http://www.inkscape.org/namespaces/inkscape"
   id="svg2"
   version="1.1"
   inkscape:version="0.48.4 r9939"
   width="744.1"
   height="1052.3625"
   xml:space="preserve"
   sodipodi:docname="logo-2014-cs4.ai"><metadata
     id="metadata8"><rdf:RDF><cc:Work
         rdf:about=""><dc:format>image/svg+xml</dc:format><dc:type
           rdf:resource="http://purl.org/dc/dcmitype/StillImage" /><dc:title></dc:title></cc:Work></rdf:RDF></metadata><defs
     id="defs6"><clipPath
       clipPathUnits="userSpaceOnUse"
       id="clipPath16"><path
         d="m 0,841.89 595.28,0 L 595.28,0 0,0 0,841.89 z"
         id="path18" /></clipPath></defs><sodipodi:namedview
     pagecolor="#ffffff"
     bordercolor="#666666"
     borderopacity="1"
     objecttolerance="10"
     gridtolerance="10"
     guidetolerance="10"
     inkscape:pageopacity="0"
     inkscape:pageshadow="2"
     inkscape:window-width="640"
     inkscape:window-height="480"
     id="namedview4"
     showgrid="false"
     inkscape:zoom="0.22425732"
     inkscape:cx="372.04999"
     inkscape:cy="526.18127"
     inkscape:window-x="53"
     inkscape:window-y="24"
     inkscape:window-maximized="0"
     inkscape:current-layer="g10" /><g
     id="g10"
     inkscape:groupmode="layer"
     inkscape:label="logo-2014-cs4"
     transform="matrix(1.25,0,0,-1.25,0,1052.3625)"><g
       id="g12"><g
         id="g14"
         clip-path="url(#clipPath16)"><g
           id="g20"
           transform="translate(53.3126,614.1613)"><path
             d="m 0,0 c 0.193,0.571 0.385,1.143 0.578,1.715 0.117,0.345 0.233,0.689 0.349,1.034 0.114,0.336 0.227,0.673 0.34,1.009 0.198,0.586 0.396,1.172 0.593,1.758 0.307,0.91 0.614,1.819 0.92,2.728 0,0 0.197,-0.993 0.765,-2.366 0.977,-2.362 2.476,-4.416 4.513,-5.969 3.802,-2.905 6.47,-4.101 11.208,-3.087 4.865,1.043 7.497,3.426 8.589,4.221 0.273,0.198 1.326,0.998 2.754,2.088 4.299,3.28 11.994,9.184 11.994,9.184 0,0 12.464,8.64 13.753,9.335 0.328,0.176 1.514,0.757 3.1,1.524 1.492,0.723 3.338,1.611 5.159,2.485 1.715,0.822 3.407,1.632 4.757,2.278 1.69,0.808 2.845,1.359 2.845,1.359 0,0 -0.463,-1.159 -1.217,-2.726 -0.486,-1.01 -1.091,-2.188 -1.771,-3.334 -0.381,-0.644 -0.785,-1.277 -1.204,-1.864 -0.431,-0.603 -0.876,-1.157 -1.329,-1.625 -0.734,-0.759 -1.565,-1.283 -2.564,-1.627 -1.863,-0.641 -3.524,-0.447 -4.742,-0.182 -0.717,0.155 -1.281,0.336 -1.643,0.385 -0.429,0.058 -1.037,0.109 -1.727,0.1 -1.228,-0.016 -2.463,-0.209 -3.583,-0.73 C 50.708,16.887 48.974,15.526 46.375,13.795 43.994,12.207 28.948,0.248 28.948,0.248 c 0,0 -0.05,-0.04 -0.142,-0.114 C 28.025,-0.492 24.211,-3.509 22.344,-4.22 20.259,-5.015 17.577,-6.256 11.022,-4.965 9.298,-4.625 7.719,-4.121 6.327,-3.562 4.076,-2.658 2.316,-1.611 1.23,-0.887 0.434,-0.357 0,0 0,0"
             style="fill:#2087ba;fill-opacity:1;fill-rule:nonzero;stroke:none"
             id="path22" /></g><g
           id="g24"
           transform="translate(60.0211,598.9405)"><path
             d="M 0,0 C 0,0 0.222,0.269 0.58,0.704 0.867,1.051 1.24,1.506 1.657,2.013 2.012,2.448 2.4,2.921 2.792,3.401 3.184,3.882 3.581,4.369 3.953,4.83 4.584,5.61 5.146,6.313 5.505,6.779 5.94,7.343 6.574,8.121 7.231,8.915 c 1.37,1.653 2.843,3.376 2.843,3.376 0,0 1.552,1.727 2.979,1.341 5.192,-1.4 8.178,-5.804 11.271,-10.11 0.709,-0.988 1.424,-1.97 2.173,-2.911 0.389,-0.488 0.787,-0.966 1.198,-1.426 0.894,-1.001 1.849,-1.923 2.906,-2.712 0.431,-0.322 0.88,-0.621 1.347,-0.895 2.504,-1.466 5.59,-2.459 8.762,-2.817 4.227,-0.478 8.868,0.118 12.409,2.631 3.657,2.594 5.618,6.969 5.618,6.969 -0.626,1.414 -1.251,2.827 -1.877,4.241 -0.622,1.406 -1.245,2.813 -1.867,4.219 -0.182,0.411 -0.363,0.821 -0.545,1.232 -0.181,0.409 -0.363,0.818 -0.544,1.228 -0.211,0.479 -0.424,0.958 -0.635,1.436 -0.265,0.598 -0.53,1.197 -0.795,1.795 0,0 -1.254,-2.791 -3.895,-5.319 -2.085,-1.995 -5.033,-3.826 -8.911,-3.99 0,0 -1.197,0.04 -2.988,0.439 -1.639,0.365 -3.777,1.03 -5.949,2.241 -1.829,1.02 -4.052,2.378 -6.263,3.641 -1.81,1.035 -3.612,2.006 -5.183,2.675 -0.86,0.367 -1.651,0.644 -2.335,0.79 -0.333,0.071 -0.64,0.112 -0.918,0.118 -1.139,0.024 -2.136,-0.025 -3.074,-0.229 C 11.013,16.455 9.322,15.366 7.144,12.888 3.917,9.212 -1.449,2.956 -1.449,2.956 -0.966,1.971 -0.483,0.985 0,0"
             style="fill:#2087ba;fill-opacity:1;fill-rule:nonzero;stroke:none"
             id="path26" /></g><g
           id="g28"
           transform="translate(98.5583,613.5148)"><path
             d="M 0,0 C -4.448,-2.914 -12.081,0.518 -12.081,0.518 L 2.98,12.227 C 3.814,9.116 4.448,2.914 0,0 M 8.767,15.453 C 8.52,16.781 8.248,17.61 8.248,17.61 7.978,17.398 7.707,17.187 7.437,16.976 6.619,16.338 5.801,15.7 4.983,15.062 4.416,14.619 3.849,14.177 3.282,13.735 2.77,13.335 2.258,12.936 1.745,12.536 -0.638,10.676 -3.021,8.817 -5.405,6.957 -6.192,6.342 -6.979,5.728 -7.767,5.114 -8.556,4.498 -9.346,3.882 -10.136,3.266 -10.878,2.687 -11.619,2.109 -12.36,1.53 c -0.448,-0.35 -0.896,-0.699 -1.344,-1.049 0,0 3.155,-2.076 7.34,-2.786 0.9,-0.153 1.847,-0.242 2.821,-0.234 1.077,0.009 2.187,0.137 3.301,0.431 1.612,0.424 3.117,1.18 4.441,2.19 0.45,0.346 0.863,0.71 1.24,1.089 0.999,1.005 1.747,2.115 2.301,3.27 0.918,1.913 1.3,3.948 1.396,5.833 0.102,2.008 -0.121,3.845 -0.369,5.179"
             style="fill:#2087ba;fill-opacity:1;fill-rule:nonzero;stroke:none"
             id="path30" /></g><g
           id="g32"
           transform="translate(146.549,632.3641)"><path
             d="m 0,0 c 0,0.946 -1.419,1.419 -4.257,1.419 l -6.68,0 c -2.773,0 -4.16,-0.473 -4.16,-1.419 l 0,-8.197 c 0,-0.913 1.387,-1.37 4.16,-1.37 l 6.68,0 C -1.419,-9.567 0,-9.11 0,-8.197 L 0,0 z m 3.548,-9.102 c 0,-1.501 -1.012,-2.602 -3.034,-3.303 -1.452,-0.473 -3.1,-0.71 -4.943,-0.71 l -6.337,0 c -1.746,0 -3.377,0.261 -4.894,0.783 -2.055,0.701 -3.082,1.778 -3.082,3.23 l 0,10.032 c 0,1.549 1.003,2.658 3.009,3.327 1.386,0.473 3.042,0.71 4.967,0.71 l 6.337,0 c 5.318,0 7.977,-1.346 7.977,-4.037 l 0,-10.032 z"
             style="fill:#2087ba;fill-opacity:1;fill-rule:nonzero;stroke:none"
             id="path34" /></g><g
           id="g36"
           transform="translate(171.7753,632.6088)"><path
             d="m 0,0 c 0,0.783 -1.468,1.174 -4.404,1.174 l -10.791,0 0,-4.893 13.238,0.024 c 0.375,0 0.774,0.074 1.198,0.221 C -0.253,-3.279 0,-3.018 0,-2.691 L 0,0 z m -1.664,-13.359 -11.402,6.165 -2.129,0 0,-6.165 -3.548,0 0,18.081 14.339,0 c 2.251,0 3.931,-0.171 5.04,-0.514 1.941,-0.62 2.912,-1.794 2.912,-3.523 l 0,-4.38 c 0,-1.158 -0.653,-2.071 -1.958,-2.74 -1.076,-0.538 -2.259,-0.807 -3.547,-0.807 l -4.405,0 11.574,-6.117 -6.876,0 z"
             style="fill:#2087ba;fill-opacity:1;fill-rule:nonzero;stroke:none"
             id="path38" /></g><g
           id="g40"
           transform="translate(186.4802,619.2493)"><path
             d="M 0,0 C -1.974,0 -3.621,0.228 -4.942,0.685 -6.965,1.37 -7.976,2.479 -7.976,4.013 l 0,10.032 c 0,1.468 1.019,2.56 3.058,3.278 1.419,0.506 3.059,0.759 4.918,0.759 l 14.314,0 0,-3.548 -14.314,0 c -2.887,0 -4.331,-0.645 -4.331,-1.933 l 0,-7.487 C -4.331,4.07 -2.887,3.548 0,3.548 l 14.314,0 L 14.314,0 0,0 z"
             style="fill:#2087ba;fill-opacity:1;fill-rule:nonzero;stroke:none"
             id="path42" /></g><g
           id="g44"
           transform="translate(225.8737,623.262)"><path
             d="m 0,0 c 0,-1.517 -1.012,-2.618 -3.034,-3.303 -1.419,-0.473 -3.067,-0.71 -4.943,-0.71 l -13.653,0 0,3.548 13.653,0 c 2.953,0 4.429,0.457 4.429,1.37 l 0,2.594 c 0,0.897 -1.476,1.346 -4.429,1.346 l -6.361,0 c -4.861,0 -7.292,1.125 -7.292,3.376 l 0,2.276 c 0,2.381 2.431,3.572 7.292,3.572 l 13.579,0 0,-3.548 -13.579,0 c -1.11,0 -1.811,-0.024 -2.105,-0.073 -1.044,-0.114 -1.565,-0.432 -1.565,-0.954 l 0,-0.294 c 0,-0.555 0.709,-0.832 2.128,-0.832 l 0.294,0 c 0.13,0 0.285,0.008 0.465,0.025 l 0.783,0 6.361,0 c 1.99,0 3.646,-0.213 4.967,-0.637 C -1.003,7.087 0,5.97 0,4.404 L 0,0 z"
             style="fill:#2087ba;fill-opacity:1;fill-rule:nonzero;stroke:none"
             id="path46" /></g><g
           id="g48"
           transform="translate(246.5001,632.3641)"><path
             d="m 0,0 c 0,0.946 -1.419,1.419 -4.257,1.419 l -6.68,0 c -2.773,0 -4.16,-0.473 -4.16,-1.419 l 0,-8.197 c 0,-0.913 1.387,-1.37 4.16,-1.37 l 6.68,0 C -1.419,-9.567 0,-9.11 0,-8.197 L 0,0 z m 3.548,-9.102 c 0,-1.501 -1.012,-2.602 -3.034,-3.303 -1.452,-0.473 -3.1,-0.71 -4.943,-0.71 l -6.337,0 c -1.746,0 -3.376,0.261 -4.893,0.783 -2.056,0.701 -3.083,1.778 -3.083,3.23 l 0,10.032 c 0,1.549 1.003,2.658 3.009,3.327 1.386,0.473 3.042,0.71 4.967,0.71 l 6.337,0 c 5.318,0 7.977,-1.346 7.977,-4.037 l 0,-10.032 z"
             style="fill:#2087ba;fill-opacity:1;fill-rule:nonzero;stroke:none"
             id="path50" /></g><g
           id="g52"
           transform="translate(256.4828,633.7833)"><path
             d="m 0,0 0,-2.129 14.363,0 0,-3.548 -14.363,0 0,-8.857 -3.548,0 0,18.082 22.29,0 L 18.742,0 0,0 z"
             style="fill:#2087ba;fill-opacity:1;fill-rule:nonzero;stroke:none"
             id="path54" /></g><g
           id="g56"
           transform="translate(290.1259,633.7833)"><path
             d="m 0,0 0,-14.534 -3.548,0 0,14.534 -9.371,0 0,3.548 22.29,0 L 9.371,0 0,0 z"
             style="fill:#2087ba;fill-opacity:1;fill-rule:nonzero;stroke:none"
             id="path58" /></g><g
           id="g60"
           transform="translate(169.9612,606.106)"><path
             d="m 0,0 c -0.133,-0.515 -0.513,-1.789 -1.141,-3.821 l 2.3,0 C 0.567,-1.918 0.235,-0.841 0.16,-0.591 0.086,-0.342 0.032,-0.145 0,0"
             style="fill:#2087ba;fill-opacity:1;fill-rule:nonzero;stroke:none"
             id="path62" /></g><g
           id="g64"
           transform="translate(241.3714,606.0215)"><path
             d="m 0,0 c -0.745,0 -1.306,-0.25 -1.684,-0.751 -0.379,-0.502 -0.568,-1.245 -0.568,-2.231 0,-0.986 0.187,-1.729 0.561,-2.228 0.375,-0.499 0.934,-0.748 1.679,-0.748 1.493,0 2.24,0.992 2.24,2.976 C 2.228,-0.994 1.485,0 0,0"
             style="fill:#2087ba;fill-opacity:1;fill-rule:nonzero;stroke:none"
             id="path66" /></g><g
           id="g68"
           transform="translate(258.5828,606.106)"><path
             d="m 0,0 c -0.133,-0.515 -0.513,-1.789 -1.141,-3.821 l 2.3,0 C 0.567,-1.918 0.234,-0.841 0.16,-0.591 0.085,-0.342 0.032,-0.145 0,0"
             style="fill:#2087ba;fill-opacity:1;fill-rule:nonzero;stroke:none"
             id="path70" /></g><g
           id="g72"
           transform="translate(177.7729,605.9069)"><path
             d="m 0,0 -0.567,0 0,-2.385 0.603,0 c 0.592,0 1.029,0.099 1.31,0.296 0.282,0.197 0.423,0.507 0.423,0.93 0,0.419 -0.144,0.716 -0.432,0.893 C 1.049,-0.089 0.604,0 0,0"
             style="fill:#2087ba;fill-opacity:1;fill-rule:nonzero;stroke:none"
             id="path74" /></g><g
           id="g76"
           transform="translate(279.0295,606.0215)"><path
             d="m 0,0 c -0.745,0 -1.306,-0.25 -1.684,-0.751 -0.378,-0.502 -0.568,-1.245 -0.568,-2.231 0,-0.986 0.188,-1.729 0.562,-2.228 0.374,-0.499 0.934,-0.748 1.678,-0.748 1.493,0 2.24,0.992 2.24,2.976 C 2.228,-0.994 1.485,0 0,0"
             style="fill:#2087ba;fill-opacity:1;fill-rule:nonzero;stroke:none"
             id="path78" /></g><g
           id="g80"
           transform="translate(197.3385,606.0215)"><path
             d="m 0,0 c -0.745,0 -1.306,-0.25 -1.684,-0.751 -0.379,-0.502 -0.568,-1.245 -0.568,-2.231 0,-0.986 0.187,-1.729 0.562,-2.228 0.374,-0.499 0.933,-0.748 1.678,-0.748 1.493,0 2.239,0.992 2.239,2.976 C 2.227,-0.994 1.485,0 0,0"
             style="fill:#2087ba;fill-opacity:1;fill-rule:nonzero;stroke:none"
             id="path82" /></g><g
           id="g84"
           transform="translate(144.3105,606.07)"><path
             d="m 0,0 c -0.439,0 -0.753,-0.237 -0.942,-0.709 -0.189,-0.473 -0.284,-1.251 -0.284,-2.334 0,-1.082 0.094,-1.858 0.281,-2.327 0.187,-0.469 0.502,-0.703 0.945,-0.703 0.435,0 0.749,0.237 0.942,0.712 0.193,0.475 0.289,1.248 0.289,2.318 0,1.083 -0.097,1.861 -0.292,2.334 C 0.744,-0.237 0.431,0 0,0"
             style="fill:#2087ba;fill-opacity:1;fill-rule:nonzero;stroke:none"
             id="path86" /></g><g
           id="g88"
           transform="translate(292.878,598.6144)"><path
             d="m 0,0 -2.379,0 -3.839,6.677 -0.054,0 c 0.076,-1.179 0.114,-2.021 0.114,-2.524 l 0,-4.153 -1.672,0 0,8.826 2.361,0 3.833,-6.61 0.042,0 c -0.06,1.147 -0.09,1.957 -0.09,2.432 l 0,4.178 L 0,8.826 0,0 z m -10.746,1.057 c -0.724,-0.785 -1.762,-1.178 -3.115,-1.178 -1.352,0 -2.39,0.393 -3.115,1.178 -0.724,0.784 -1.086,1.911 -1.086,3.38 0,1.469 0.363,2.591 1.09,3.366 0.726,0.774 1.767,1.162 3.124,1.162 1.355,0 2.393,-0.391 3.111,-1.171 0.719,-0.781 1.078,-1.904 1.078,-3.369 0,-1.461 -0.362,-2.584 -1.087,-3.368 M -19.891,0 l -1.871,0 0,8.826 1.871,0 0,-8.826 z m -3.23,7.268 -2.397,0 0,-7.268 -1.871,0 0,7.268 -2.397,0 0,1.558 6.665,0 0,-1.558 z M -32.05,0 l -0.639,2.101 -3.218,0 -0.64,-2.101 -2.016,0 3.115,8.862 2.288,0 L -30.033,0 -32.05,0 z m -11.554,0 -2.994,8.826 1.889,0 1.66,-5.252 c 0.093,-0.31 0.188,-0.671 0.287,-1.084 0.099,-0.412 0.16,-0.699 0.184,-0.86 0.044,0.37 0.195,1.018 0.453,1.944 l 1.672,5.252 1.89,0 -3.001,-8.826 -2.04,0 z m -4.8,1.057 c -0.724,-0.785 -1.762,-1.178 -3.115,-1.178 -1.352,0 -2.39,0.393 -3.115,1.178 -0.724,0.784 -1.086,1.911 -1.086,3.38 0,1.469 0.363,2.591 1.089,3.366 0.727,0.774 1.768,1.162 3.124,1.162 1.356,0 2.394,-0.391 3.112,-1.171 0.718,-0.781 1.078,-1.904 1.078,-3.369 0,-1.461 -0.362,-2.584 -1.087,-3.368 M -57.549,0 l -2.379,0 -3.839,6.677 -0.055,0 c 0.077,-1.179 0.115,-2.021 0.115,-2.524 l 0,-4.153 -1.672,0 0,8.826 2.36,0 3.834,-6.61 0.042,0 c -0.061,1.147 -0.09,1.957 -0.09,2.432 l 0,4.178 1.684,0 0,-8.826 z m -10.052,0 -2.378,0 -3.84,6.677 -0.054,0 c 0.076,-1.179 0.114,-2.021 0.114,-2.524 l 0,-4.153 -1.672,0 0,8.826 2.361,0 3.833,-6.61 0.043,0 c -0.061,1.147 -0.091,1.957 -0.091,2.432 l 0,4.178 1.684,0 0,-8.826 z m -10.051,0 -1.871,0 0,8.826 1.871,0 0,-8.826 z m -6.81,7.293 -3.217,0 0,-2.276 2.994,0 0,-1.528 -2.994,0 0,-3.489 -1.842,0 0,8.826 5.059,0 0,-1.533 z m -7.975,-6.236 c -0.724,-0.785 -1.762,-1.178 -3.115,-1.178 -1.352,0 -2.39,0.393 -3.115,1.178 -0.724,0.784 -1.086,1.911 -1.086,3.38 0,1.469 0.363,2.591 1.089,3.366 0.727,0.774 1.768,1.162 3.125,1.162 1.356,0 2.393,-0.391 3.111,-1.171 0.719,-0.781 1.078,-1.904 1.078,-3.369 0,-1.461 -0.362,-2.584 -1.087,-3.368 m -12.595,-0.489 c -0.574,-0.459 -1.372,-0.689 -2.394,-0.689 -0.942,0 -1.775,0.177 -2.499,0.531 l 0,1.739 c 0.595,-0.266 1.1,-0.453 1.512,-0.561 0.413,-0.109 0.79,-0.163 1.132,-0.163 0.41,0 0.725,0.078 0.945,0.235 0.219,0.157 0.329,0.391 0.329,0.7 0,0.174 -0.049,0.327 -0.145,0.462 -0.097,0.135 -0.239,0.265 -0.426,0.39 -0.187,0.124 -0.568,0.324 -1.144,0.597 -0.539,0.254 -0.944,0.497 -1.213,0.731 -0.27,0.233 -0.485,0.505 -0.646,0.815 -0.161,0.31 -0.241,0.672 -0.241,1.086 0,0.781 0.264,1.395 0.793,1.842 0.53,0.446 1.261,0.67 2.195,0.67 0.458,0 0.896,-0.055 1.313,-0.163 0.416,-0.109 0.852,-0.262 1.307,-0.459 l -0.604,-1.455 c -0.471,0.193 -0.86,0.328 -1.168,0.404 -0.308,0.077 -0.611,0.115 -0.909,0.115 -0.354,0 -0.626,-0.082 -0.815,-0.247 -0.189,-0.165 -0.283,-0.38 -0.283,-0.646 0,-0.165 0.038,-0.309 0.114,-0.432 0.077,-0.123 0.199,-0.241 0.366,-0.356 0.167,-0.115 0.562,-0.321 1.186,-0.619 0.825,-0.394 1.39,-0.79 1.696,-1.186 0.306,-0.397 0.459,-0.883 0.459,-1.458 0,-0.797 -0.287,-1.425 -0.86,-1.883 M -112.569,0 l -2.107,3.387 -0.996,0 0,-3.387 -1.872,0 0,8.826 2.572,0 c 1.199,0 2.087,-0.219 2.662,-0.655 0.576,-0.437 0.863,-1.1 0.863,-1.989 0,-0.519 -0.143,-0.981 -0.428,-1.386 -0.286,-0.404 -0.69,-0.721 -1.214,-0.95 1.328,-1.985 2.194,-3.266 2.596,-3.846 l -2.076,0 z m -8.102,0 -0.64,2.101 -3.217,0 -0.64,-2.101 -2.017,0 3.115,8.862 2.288,0 3.127,-8.862 -2.016,0 z m -7.244,7.293 -3.212,0 0,-1.938 2.989,0 0,-1.534 -2.989,0 0,-2.276 3.212,0 0,-1.545 -5.083,0 0,8.826 5.083,0 0,-1.533 z m -9.122,-3.858 0,-3.435 -1.859,0 0,3.375 -2.928,5.451 2.029,0 1.829,-3.634 1.841,3.634 2.016,0 -2.928,-5.391 z m -9.197,-2.445 c -0.505,-0.74 -1.283,-1.111 -2.333,-1.111 -1.019,0 -1.786,0.383 -2.304,1.147 -0.517,0.765 -0.775,1.894 -0.775,3.387 0,1.558 0.251,2.706 0.754,3.444 0.503,0.739 1.278,1.108 2.325,1.108 1.018,0 1.788,-0.387 2.309,-1.159 0.521,-0.773 0.782,-1.904 0.782,-3.393 0,-1.542 -0.253,-2.682 -0.758,-3.423 m -7.809,-0.99 -1.865,0 0,5.107 0.018,0.839 0.03,0.918 c -0.31,-0.31 -0.525,-0.513 -0.646,-0.61 l -1.014,-0.815 -0.899,1.123 2.843,2.264 1.533,0 0,-8.826 z m 158.665,13.6 -167.664,0 c -1.084,0 -1.963,-0.879 -1.963,-1.963 l 1.471,-14.43 c 0,-1.084 0.879,-1.963 1.963,-1.963 l 164.722,0 c 1.084,0 1.963,0.879 1.963,1.963 l 1.471,14.43 c 0,1.084 -0.879,1.963 -1.963,1.963"
             style="fill:#2087ba;fill-opacity:1;fill-rule:nonzero;stroke:none"
             id="path90" /></g><g
           id="g92"
           transform="translate(55.0237,765.5875)"><path
             d="m 0,0 c 0.228,0.676 0.456,1.353 0.684,2.029 0.138,0.408 0.275,0.815 0.413,1.223 0.134,0.398 0.268,0.796 0.402,1.194 0.234,0.693 0.468,1.386 0.702,2.079 0.362,1.076 0.725,2.152 1.088,3.227 0,0 0.232,-1.174 0.905,-2.799 1.155,-2.793 2.929,-5.224 5.339,-7.06 4.498,-3.437 7.653,-4.852 13.259,-3.652 5.755,1.234 8.869,4.053 10.161,4.993 0.322,0.234 1.568,1.181 3.257,2.47 5.086,3.88 14.189,10.864 14.189,10.864 0,0 14.745,10.222 16.271,11.043 0.388,0.209 1.79,0.896 3.666,1.804 1.765,0.856 3.95,1.906 6.103,2.939 2.029,0.974 4.031,1.932 5.628,2.696 1.999,0.955 3.366,1.608 3.366,1.608 0,0 -0.548,-1.372 -1.44,-3.226 -0.574,-1.194 -1.291,-2.588 -2.095,-3.944 -0.45,-0.761 -0.929,-1.51 -1.425,-2.205 C 79.964,24.57 79.437,23.914 78.902,23.36 78.033,22.462 77.05,21.842 75.868,21.435 73.664,20.677 71.7,20.907 70.258,21.22 c -0.848,0.185 -1.515,0.398 -1.943,0.457 -0.508,0.068 -1.227,0.128 -2.043,0.117 C 64.819,21.775 63.358,21.548 62.033,20.931 59.987,19.977 57.936,18.368 54.862,16.319 52.045,14.441 34.245,0.294 34.245,0.294 c 0,0 -0.058,-0.048 -0.167,-0.135 -0.924,-0.742 -5.437,-4.31 -7.645,-5.151 C 23.966,-5.932 20.794,-7.401 13.039,-5.874 11,-5.471 9.131,-4.875 7.484,-4.214 4.822,-3.144 2.74,-1.906 1.455,-1.05 0.513,-0.422 0,0 0,0"
             style="fill:#2087ba;fill-opacity:1;fill-rule:nonzero;stroke:none"
             id="path94" /></g><g
           id="g96"
           transform="translate(62.9599,747.5812)"><path
             d="m 0,0 c 0,0 0.263,0.318 0.686,0.833 0.339,0.411 0.781,0.948 1.274,1.549 0.421,0.514 0.879,1.074 1.343,1.641 0.464,0.57 0.933,1.146 1.374,1.691 0.746,0.923 1.411,1.755 1.836,2.306 0.515,0.667 1.264,1.587 2.041,2.526 1.62,1.957 3.364,3.994 3.364,3.994 0,0 1.836,2.043 3.524,1.587 6.142,-1.657 9.675,-6.866 13.333,-11.96 0.839,-1.169 1.685,-2.331 2.57,-3.444 0.461,-0.578 0.932,-1.142 1.419,-1.687 1.057,-1.185 2.187,-2.275 3.437,-3.208 0.51,-0.381 1.04,-0.735 1.594,-1.059 2.961,-1.735 6.613,-2.909 10.365,-3.333 5,-0.565 10.491,0.14 14.68,3.113 4.326,3.068 6.645,8.244 6.645,8.244 -0.74,1.672 -1.48,3.345 -2.22,5.017 -0.736,1.664 -1.472,3.328 -2.209,4.991 -0.214,0.486 -0.429,0.972 -0.644,1.457 -0.215,0.485 -0.429,0.969 -0.644,1.453 -0.25,0.567 -0.501,1.133 -0.751,1.699 -0.313,0.708 -0.626,1.416 -0.94,2.124 0,0 -1.484,-3.302 -4.608,-6.293 -2.467,-2.36 -5.955,-4.526 -10.542,-4.72 0,0 -1.416,0.047 -3.534,0.519 -1.94,0.432 -4.469,1.22 -7.038,2.652 -2.164,1.206 -4.794,2.812 -7.409,4.307 -2.141,1.224 -4.273,2.373 -6.131,3.165 -1.018,0.434 -1.954,0.761 -2.764,0.935 -0.393,0.084 -0.756,0.132 -1.085,0.139 -1.348,0.029 -2.527,-0.03 -3.637,-0.271 -2.3,-0.501 -4.301,-1.789 -6.877,-4.721 C 4.634,10.898 -1.714,3.497 -1.714,3.497 -1.143,2.332 -0.572,1.166 0,0"
             style="fill:#2087ba;fill-opacity:1;fill-rule:nonzero;stroke:none"
             id="path98" /></g><g
           id="g100"
           transform="translate(108.5493,764.8228)"><path
             d="M 0,0 C -5.262,-3.448 -14.292,0.613 -14.292,0.613 L 3.526,14.464 C 4.512,10.784 5.262,3.447 0,0 M 10.372,18.28 C 10.079,19.852 9.758,20.832 9.758,20.832 9.437,20.582 9.118,20.332 8.797,20.083 7.83,19.328 6.862,18.573 5.894,17.818 5.224,17.294 4.553,16.772 3.883,16.248 3.277,15.775 2.671,15.303 2.065,14.83 -0.755,12.63 -3.574,10.43 -6.394,8.23 -7.325,7.503 -8.257,6.777 -9.188,6.05 -10.122,5.321 -11.057,4.592 -11.991,3.863 -12.868,3.179 -13.745,2.495 -14.622,1.81 c -0.53,-0.414 -1.06,-0.827 -1.59,-1.241 0,0 3.732,-2.456 8.684,-3.296 1.064,-0.181 2.185,-0.286 3.336,-0.277 1.275,0.01 2.588,0.162 3.906,0.51 1.907,0.502 3.687,1.396 5.253,2.592 0.533,0.409 1.021,0.839 1.467,1.287 1.182,1.189 2.068,2.502 2.723,3.869 1.085,2.262 1.537,4.67 1.651,6.901 0.121,2.375 -0.143,4.548 -0.436,6.125"
             style="fill:#2087ba;fill-opacity:1;fill-rule:nonzero;stroke:none"
             id="path102" /></g><g
           id="g104"
           transform="translate(62.9921,731.095)"><path
             d="m 0,0 c 0,0.49 -0.735,0.735 -2.205,0.735 l -3.459,0 C -7.1,0.735 -7.818,0.49 -7.818,0 l 0,-4.245 c 0,-0.473 0.718,-0.709 2.154,-0.709 l 3.459,0 c 1.47,0 2.205,0.236 2.205,0.709 L 0,0 z m 1.837,-4.713 c 0,-0.778 -0.524,-1.348 -1.571,-1.711 -0.752,-0.245 -1.605,-0.367 -2.559,-0.367 l -3.282,0 c -0.904,0 -1.749,0.135 -2.534,0.405 -1.064,0.363 -1.597,0.921 -1.597,1.673 l 0,5.194 c 0,0.803 0.52,1.377 1.559,1.724 0.718,0.245 1.575,0.367 2.572,0.367 l 3.282,0 c 2.753,0 4.13,-0.697 4.13,-2.091 l 0,-5.194 z"
             style="fill:#2087ba;fill-opacity:1;fill-rule:nonzero;stroke:none"
             id="path106" /></g><g
           id="g108"
           transform="translate(76.0551,731.2217)"><path
             d="m 0,0 c 0,0.405 -0.76,0.608 -2.281,0.608 l -5.587,0 0,-2.534 6.854,0.013 c 0.195,0 0.401,0.038 0.621,0.114 C -0.131,-1.698 0,-1.563 0,-1.394 L 0,0 z m -0.862,-6.918 -5.904,3.193 -1.102,0 0,-3.193 -1.838,0 0,9.363 7.425,0 c 1.166,0 2.036,-0.088 2.61,-0.266 C 1.334,1.858 1.837,1.25 1.837,0.355 l 0,-2.268 c 0,-0.6 -0.338,-1.073 -1.013,-1.419 -0.558,-0.279 -1.17,-0.418 -1.838,-0.418 l -2.28,0 5.993,-3.168 -3.561,0 z"
             style="fill:#2087ba;fill-opacity:1;fill-rule:nonzero;stroke:none"
             id="path110" /></g><g
           id="g112"
           transform="translate(83.6699,724.3036)"><path
             d="M 0,0 C -1.022,0 -1.875,0.118 -2.559,0.355 -3.607,0.71 -4.131,1.284 -4.131,2.078 l 0,5.195 c 0,0.76 0.528,1.326 1.584,1.698 0.735,0.261 1.584,0.392 2.547,0.392 l 7.412,0 0,-1.837 -7.412,0 c -1.495,0 -2.243,-0.334 -2.243,-1.001 l 0,-3.877 C -2.243,2.107 -1.495,1.837 0,1.837 l 7.412,0 L 7.412,0 0,0 z"
             style="fill:#2087ba;fill-opacity:1;fill-rule:nonzero;stroke:none"
             id="path114" /></g><g
           id="g116"
           transform="translate(104.0693,726.3815)"><path
             d="m 0,0 c 0,-0.786 -0.524,-1.356 -1.571,-1.71 -0.735,-0.246 -1.588,-0.368 -2.56,-0.368 l -7.07,0 0,1.837 7.07,0 c 1.529,0 2.294,0.237 2.294,0.71 l 0,1.343 c 0,0.464 -0.765,0.697 -2.294,0.697 l -3.294,0 c -2.517,0 -3.776,0.583 -3.776,1.748 l 0,1.179 c 0,1.233 1.259,1.85 3.776,1.85 l 7.032,0 0,-1.838 -7.032,0 c -0.574,0 -0.938,-0.012 -1.09,-0.038 -0.54,-0.059 -0.81,-0.224 -0.81,-0.494 l 0,-0.152 c 0,-0.287 0.367,-0.431 1.102,-0.431 l 0.152,0 c 0.067,0 0.148,0.005 0.241,0.013 l 0.405,0 3.294,0 c 1.031,0 1.888,-0.11 2.572,-0.329 C -0.52,3.67 0,3.092 0,2.281 L 0,0 z"
             style="fill:#2087ba;fill-opacity:1;fill-rule:nonzero;stroke:none"
             id="path118" /></g><g
           id="g120"
           transform="translate(114.7504,731.095)"><path
             d="m 0,0 c 0,0.49 -0.735,0.735 -2.205,0.735 l -3.459,0 C -7.1,0.735 -7.818,0.49 -7.818,0 l 0,-4.245 c 0,-0.473 0.718,-0.709 2.154,-0.709 l 3.459,0 c 1.47,0 2.205,0.236 2.205,0.709 L 0,0 z m 1.837,-4.713 c 0,-0.778 -0.524,-1.348 -1.571,-1.711 -0.752,-0.245 -1.605,-0.367 -2.559,-0.367 l -3.282,0 c -0.904,0 -1.748,0.135 -2.534,0.405 -1.064,0.363 -1.597,0.921 -1.597,1.673 l 0,5.194 c 0,0.803 0.52,1.377 1.559,1.724 0.718,0.245 1.575,0.367 2.572,0.367 l 3.282,0 c 2.753,0 4.13,-0.697 4.13,-2.091 l 0,-5.194 z"
             style="fill:#2087ba;fill-opacity:1;fill-rule:nonzero;stroke:none"
             id="path122" /></g><g
           id="g124"
           transform="translate(119.9198,731.8298)"><path
             d="m 0,0 0,-1.102 7.438,0 0,-1.838 -7.438,0 0,-4.586 -1.837,0 0,9.363 11.543,0 L 9.706,0 0,0 z"
             style="fill:#2087ba;fill-opacity:1;fill-rule:nonzero;stroke:none"
             id="path126" /></g><g
           id="g128"
           transform="translate(137.3414,731.8298)"><path
             d="m 0,0 0,-7.526 -1.837,0 0,7.526 -4.853,0 0,1.837 11.543,0 L 4.853,0 0,0 z"
             style="fill:#2087ba;fill-opacity:1;fill-rule:nonzero;stroke:none"
             id="path130" /></g><g
           id="g132"
           transform="translate(75.1073,717.4976)"><path
             d="m 0,0 c -0.069,-0.267 -0.266,-0.926 -0.591,-1.979 l 1.191,0 C 0.294,-0.993 0.121,-0.436 0.083,-0.306 0.044,-0.177 0.017,-0.075 0,0"
             style="fill:#2087ba;fill-opacity:1;fill-rule:nonzero;stroke:none"
             id="path134" /></g><g
           id="g136"
           transform="translate(112.0861,717.4537)"><path
             d="m 0,0 c -0.386,0 -0.676,-0.13 -0.872,-0.389 -0.196,-0.26 -0.294,-0.645 -0.294,-1.155 0,-0.511 0.097,-0.895 0.291,-1.154 0.193,-0.258 0.483,-0.387 0.869,-0.387 0.773,0 1.16,0.513 1.16,1.541 C 1.154,-0.515 0.769,0 0,0"
             style="fill:#2087ba;fill-opacity:1;fill-rule:nonzero;stroke:none"
             id="path138" /></g><g
           id="g140"
           transform="translate(120.9988,717.4976)"><path
             d="m 0,0 c -0.069,-0.267 -0.266,-0.926 -0.591,-1.979 l 1.191,0 C 0.294,-0.993 0.121,-0.436 0.083,-0.306 0.044,-0.177 0.016,-0.075 0,0"
             style="fill:#2087ba;fill-opacity:1;fill-rule:nonzero;stroke:none"
             id="path142" /></g><g
           id="g144"
           transform="translate(79.1525,717.3944)"><path
             d="m 0,0 -0.294,0 0,-1.235 0.313,0 c 0.306,0 0.532,0.051 0.678,0.153 0.146,0.103 0.219,0.263 0.219,0.482 0,0.217 -0.075,0.371 -0.224,0.462 C 0.543,-0.046 0.313,0 0,0"
             style="fill:#2087ba;fill-opacity:1;fill-rule:nonzero;stroke:none"
             id="path146" /></g><g
           id="g148"
           transform="translate(131.5868,717.4537)"><path
             d="m 0,0 c -0.386,0 -0.676,-0.13 -0.872,-0.389 -0.196,-0.26 -0.294,-0.645 -0.294,-1.155 0,-0.511 0.097,-0.895 0.291,-1.154 0.193,-0.258 0.483,-0.387 0.869,-0.387 0.773,0 1.16,0.513 1.16,1.541 C 1.154,-0.515 0.769,0 0,0"
             style="fill:#2087ba;fill-opacity:1;fill-rule:nonzero;stroke:none"
             id="path150" /></g><g
           id="g152"
           transform="translate(89.2843,717.4537)"><path
             d="m 0,0 c -0.386,0 -0.676,-0.13 -0.872,-0.389 -0.196,-0.26 -0.294,-0.645 -0.294,-1.155 0,-0.511 0.097,-0.895 0.291,-1.154 0.193,-0.258 0.483,-0.387 0.869,-0.387 0.773,0 1.159,0.513 1.159,1.541 C 1.153,-0.515 0.769,0 0,0"
             style="fill:#2087ba;fill-opacity:1;fill-rule:nonzero;stroke:none"
             id="path154" /></g><g
           id="g156"
           transform="translate(61.8244,717.4789)"><path
             d="m 0,0 c -0.227,0 -0.39,-0.123 -0.488,-0.367 -0.098,-0.245 -0.147,-0.648 -0.147,-1.209 0,-0.56 0.049,-0.962 0.146,-1.205 0.097,-0.242 0.26,-0.364 0.489,-0.364 0.225,0 0.388,0.123 0.488,0.369 0.1,0.246 0.15,0.646 0.15,1.2 0,0.561 -0.051,0.964 -0.152,1.209 C 0.385,-0.123 0.223,0 0,0"
             style="fill:#2087ba;fill-opacity:1;fill-rule:nonzero;stroke:none"
             id="path158" /></g><g
           id="g160"
           transform="translate(138.758,713.6181)"><path
             d="m 0,0 -1.232,0 -1.988,3.457 -0.028,0 c 0.039,-0.61 0.059,-1.046 0.059,-1.306 l 0,-2.151 -0.866,0 0,4.57 1.223,0 1.985,-3.423 0.022,0 c -0.032,0.594 -0.047,1.014 -0.047,1.26 l 0,2.163 L 0,4.57 0,0 z m -5.564,0.547 c -0.375,-0.406 -0.913,-0.61 -1.614,-0.61 -0.7,0 -1.237,0.204 -1.613,0.61 -0.375,0.407 -0.562,0.99 -0.562,1.751 0,0.76 0.188,1.341 0.564,1.742 0.376,0.402 0.915,0.602 1.618,0.602 0.702,0 1.239,-0.202 1.611,-0.606 0.372,-0.404 0.558,-0.986 0.558,-1.745 0,-0.756 -0.187,-1.337 -0.562,-1.744 M -10.3,0 l -0.969,0 0,4.57 0.969,0 0,-4.57 z m -1.673,3.764 -1.241,0 0,-3.764 -0.969,0 0,3.764 -1.241,0 0,0.806 3.451,0 0,-0.806 z M -16.597,0 l -0.331,1.088 -1.666,0 -0.331,-1.088 -1.044,0 1.613,4.589 1.185,0 1.619,-4.589 -1.045,0 z m -5.983,0 -1.55,4.57 0.978,0 0.86,-2.719 c 0.048,-0.161 0.097,-0.348 0.148,-0.562 0.051,-0.213 0.083,-0.362 0.096,-0.445 0.023,0.192 0.101,0.527 0.234,1.007 l 0.866,2.719 0.979,0 L -21.523,0 -22.58,0 z m -2.485,0.547 c -0.375,-0.406 -0.913,-0.61 -1.613,-0.61 -0.7,0 -1.238,0.204 -1.613,0.61 -0.376,0.407 -0.563,0.99 -0.563,1.751 0,0.76 0.188,1.341 0.564,1.742 0.376,0.402 0.916,0.602 1.618,0.602 0.702,0 1.239,-0.202 1.611,-0.606 0.372,-0.404 0.558,-0.986 0.558,-1.745 0,-0.756 -0.187,-1.337 -0.562,-1.744 M -29.801,0 l -1.232,0 -1.988,3.457 -0.028,0 c 0.039,-0.61 0.059,-1.046 0.059,-1.306 l 0,-2.151 -0.866,0 0,4.57 1.223,0 1.985,-3.423 0.022,0 c -0.032,0.594 -0.047,1.014 -0.047,1.26 l 0,2.163 0.872,0 0,-4.57 z m -5.205,0 -1.232,0 -1.988,3.457 -0.028,0 c 0.039,-0.61 0.059,-1.046 0.059,-1.306 l 0,-2.151 -0.866,0 0,4.57 1.223,0 1.985,-3.423 0.022,0 c -0.032,0.594 -0.047,1.014 -0.047,1.26 l 0,2.163 0.872,0 0,-4.57 z m -5.205,0 -0.969,0 0,4.57 0.969,0 0,-4.57 z m -3.526,3.776 -1.667,0 0,-1.178 1.551,0 0,-0.791 -1.551,0 0,-1.807 -0.953,0 0,4.57 2.62,0 0,-0.794 z m -4.13,-3.229 c -0.375,-0.406 -0.913,-0.61 -1.613,-0.61 -0.7,0 -1.238,0.204 -1.613,0.61 -0.375,0.407 -0.563,0.99 -0.563,1.751 0,0.76 0.188,1.341 0.564,1.742 0.377,0.402 0.916,0.602 1.618,0.602 0.702,0 1.24,-0.202 1.612,-0.606 0.372,-0.404 0.558,-0.986 0.558,-1.745 0,-0.756 -0.188,-1.337 -0.563,-1.744 m -6.522,-0.253 c -0.297,-0.238 -0.711,-0.357 -1.24,-0.357 -0.488,0 -0.919,0.092 -1.294,0.276 l 0,0.9 c 0.308,-0.138 0.569,-0.235 0.783,-0.291 0.213,-0.056 0.409,-0.084 0.586,-0.084 0.213,0 0.376,0.04 0.489,0.122 0.114,0.081 0.171,0.202 0.171,0.362 0,0.09 -0.025,0.17 -0.075,0.239 -0.05,0.07 -0.124,0.137 -0.221,0.202 -0.097,0.065 -0.294,0.168 -0.592,0.31 -0.28,0.131 -0.489,0.257 -0.629,0.378 -0.139,0.121 -0.251,0.261 -0.334,0.422 -0.084,0.16 -0.125,0.348 -0.125,0.563 0,0.404 0.137,0.722 0.411,0.953 0.274,0.231 0.653,0.347 1.136,0.347 0.238,0 0.465,-0.028 0.68,-0.084 0.216,-0.057 0.442,-0.136 0.677,-0.238 l -0.313,-0.753 c -0.243,0.1 -0.445,0.17 -0.604,0.209 -0.16,0.04 -0.317,0.06 -0.471,0.06 -0.183,0 -0.324,-0.043 -0.422,-0.129 -0.098,-0.085 -0.147,-0.197 -0.147,-0.334 0,-0.086 0.02,-0.16 0.059,-0.224 0.04,-0.063 0.103,-0.125 0.19,-0.184 0.086,-0.06 0.291,-0.166 0.614,-0.321 0.427,-0.204 0.72,-0.409 0.878,-0.614 0.159,-0.205 0.238,-0.457 0.238,-0.755 0,-0.412 -0.149,-0.737 -0.445,-0.975 M -58.293,0 l -1.091,1.754 -0.515,0 0,-1.754 -0.97,0 0,4.57 1.332,0 c 0.621,0 1.081,-0.113 1.379,-0.339 0.298,-0.226 0.447,-0.569 0.447,-1.03 0,-0.269 -0.074,-0.508 -0.222,-0.717 C -58.081,2.274 -58.29,2.11 -58.561,1.991 -57.874,0.964 -57.426,0.3 -57.217,0 l -1.076,0 z m -4.195,0 -0.331,1.088 -1.666,0 -0.332,-1.088 -1.044,0 1.613,4.589 1.185,0 1.619,-4.589 -1.044,0 z m -3.751,3.776 -1.663,0 0,-1.003 1.547,0 0,-0.794 -1.547,0 0,-1.179 1.663,0 0,-0.8 -2.632,0 0,4.57 2.632,0 0,-0.794 z m -4.724,-1.997 0,-1.779 -0.962,0 0,1.748 -1.517,2.822 1.051,0 0.947,-1.882 0.953,1.882 1.045,0 -1.517,-2.791 z m -4.762,-1.266 c -0.262,-0.384 -0.665,-0.576 -1.209,-0.576 -0.527,0 -0.924,0.198 -1.192,0.595 -0.268,0.395 -0.402,0.98 -0.402,1.753 0,0.807 0.13,1.401 0.391,1.784 0.26,0.382 0.662,0.573 1.203,0.573 0.528,0 0.926,-0.2 1.196,-0.6 0.27,-0.4 0.405,-0.986 0.405,-1.757 0,-0.798 -0.131,-1.389 -0.392,-1.772 M -79.769,0 l -0.966,0 0,2.645 0.01,0.434 0.015,0.475 c -0.16,-0.16 -0.272,-0.265 -0.334,-0.315 l -0.526,-0.422 -0.465,0.581 1.472,1.172 0.794,0 0,-4.57 z m 82.163,7.043 -86.823,0 c -0.561,0 -1.016,-0.456 -1.016,-1.017 l 0.761,-7.472 c 0,-0.562 0.455,-1.017 1.017,-1.017 l 85.299,0 c 0.561,0 1.016,0.455 1.016,1.017 L 3.41,6.026 c 0,0.561 -0.455,1.017 -1.016,1.017"
             style="fill:#2087ba;fill-opacity:1;fill-rule:nonzero;stroke:none"
             id="path162" /></g><g
           id="g164"
           transform="translate(281.1834,739.0963)"><path
             d="M 0,0 C -7.714,-5.054 -20.952,0.898 -20.952,0.898 L 5.169,21.205 C 6.614,15.809 7.714,5.054 0,0 M 8.438,28.294 -24.391,2.519 c 0.626,-5.547 2.039,-9.985 4.266,-13.276 3.098,-4.582 7.697,-6.871 13.797,-6.871 6.292,0 10.951,2.217 13.977,6.654 3.025,4.436 4.539,11.271 4.539,20.505 0,7.972 -1.256,14.218 -3.75,18.763"
             style="fill:#2087ba;fill-opacity:1;fill-rule:nonzero;stroke:none"
             id="path166" /></g><g
           id="g168"
           transform="translate(288.5338,769.1539)"><path
             d="m 0,0 c -3.119,4.486 -7.674,6.741 -13.678,6.741 -6.269,0 -10.91,-2.212 -13.924,-6.637 -3.014,-4.423 -4.521,-11.301 -4.521,-20.631 0,-1.599 0.068,-3.103 0.167,-4.562 L 0,0 z"
             style="fill:#2087ba;fill-opacity:1;fill-rule:nonzero;stroke:none"
             id="path170" /></g><g
           id="g172"
           transform="translate(247.8171,771.9047)"><path
             d="m 0,0 0,3.158 -9.186,0 -0.109,-0.042 -17.01,-13.354 5.095,-6.414 L 0,0 z"
             style="fill:#2087ba;fill-opacity:1;fill-rule:nonzero;stroke:none"
             id="path174" /></g><g
           id="g176"
           transform="translate(236.8443,760.673)"><path
             d="m 0,0 -0.094,-2.861 -0.108,-5.026 0,-30.595 11.175,0 0,47.097 L 0,0 z"
             style="fill:#2087ba;fill-opacity:1;fill-rule:nonzero;stroke:none"
             id="path178" /></g></g></g></g></svg>