<?xml version="1.0" encoding="UTF-8" standalone="no"?>
<!-- Created with Inkscape (http://www.inkscape.org/) -->

<svg
   xmlns:dc="http://purl.org/dc/elements/1.1/"
   xmlns:cc="http://creativecommons.org/ns#"
   xmlns:rdf="http://www.w3.org/1999/02/22-rdf-syntax-ns#"
   xmlns:svg="http://www.w3.org/2000/svg"
   xmlns="http://www.w3.org/2000/svg"
   xmlns:sodipodi="http://sodipodi.sourceforge.net/DTD/sodipodi-0.dtd"
   xmlns:inkscape="http://www.inkscape.org/namespaces/inkscape"
   id="svg2"
   version="1.1"
   inkscape:version="0.48.4 r9939"
   width="744.1"
   height="1052.3625"
   xml:space="preserve"
   sodipodi:docname="Logo PSC.Ai"><metadata
     id="metadata8"><rdf:RDF><cc:Work
         rdf:about=""><dc:format>image/svg+xml</dc:format><dc:type
           rdf:resource="http://purl.org/dc/dcmitype/StillImage" /><dc:title></dc:title></cc:Work></rdf:RDF></metadata><defs
     id="defs6"><clipPath
       clipPathUnits="userSpaceOnUse"
       id="clipPath16"><path
         d="m 0,841.89 595.28,0 L 595.28,0 0,0 0,841.89 z"
         id="path18" /></clipPath></defs><sodipodi:namedview
     pagecolor="#ffffff"
     bordercolor="#666666"
     borderopacity="1"
     objecttolerance="10"
     gridtolerance="10"
     guidetolerance="10"
     inkscape:pageopacity="0"
     inkscape:pageshadow="2"
     inkscape:window-width="640"
     inkscape:window-height="480"
     id="namedview4"
     showgrid="false"
     inkscape:zoom="0.22425732"
     inkscape:cx="372.04999"
     inkscape:cy="526.18127"
     inkscape:window-x="53"
     inkscape:window-y="24"
     inkscape:window-maximized="0"
     inkscape:current-layer="g10" /><g
     id="g10"
     inkscape:groupmode="layer"
     inkscape:label="Logo PSC"
     transform="matrix(1.25,0,0,-1.25,0,1052.3625)"><g
       id="g12"><g
         id="g14"
         clip-path="url(#clipPath16)"><g
           id="g20"
           transform="translate(445.3096,811.7168)"><path
             d="m 0,0 c 245.964,0 491.929,-0.013 737.893,0.111 4.07,0.003 4.863,-0.829 4.854,-4.868 -0.157,-69.99 -0.145,-139.979 -0.019,-209.97 0.005,-3.54 -0.647,-4.375 -4.319,-4.374 -492.262,0.106 -984.522,0.106 -1476.784,0.006 -3.439,-0.001 -4.093,0.696 -4.086,4.103 0.126,70.155 0.127,140.312 0.004,210.468 -0.007,3.689 0.756,4.624 4.565,4.622 C -491.927,-0.011 -245.964,0 0,0"
             style="fill:#fefefe;fill-opacity:1;fill-rule:evenodd;stroke:none"
             id="path22" /></g><g
           id="g24"
           transform="translate(564.3789,681.5176)"><path
             d="m 0,0 c -199.96,0 -399.919,-0.001 -599.878,0 -6.416,0 -7.194,1.038 -6.207,7.587 0.253,1.684 0.9,2.348 2.517,2.307 1.498,-0.04 2.999,-10e-4 4.499,-10e-4 399.918,10e-4 799.837,10e-4 1199.755,10e-4 5.568,0 7.44,-2.789 5.817,-8.397 -0.372,-1.284 -1.071,-1.485 -2.127,-1.486 -1.333,-0.002 -2.666,-0.01 -3.999,-0.01 C 400.251,0 200.125,0 0,0"
             style="fill:#fd010c;fill-opacity:1;fill-rule:evenodd;stroke:none"
             id="path26" /></g><g
           id="g28"
           transform="translate(572.5605,653.0156)"><path
             d="m 0,0 c -2.038,-4.62 -5.553,-3.115 -8.173,-2.913 -4.678,0.361 -5.86,-1.288 -5.731,-5.816 0.321,-11.32 -0.012,-22.659 0.176,-33.985 0.059,-3.489 -0.552,-5.048 -4.57,-4.936 -8.318,0.228 -8.325,-0.015 -8.325,8.535 -10e-4,10.664 -0.13,21.33 0.074,31.989 0.065,3.36 -1.05,4.527 -4.26,4.103 -1.146,-0.152 -2.363,0.158 -3.49,-0.055 -5.142,-0.97 -5.653,1.892 -5.459,5.972 0.124,2.601 0.981,3.497 3.524,3.485 14.662,-0.064 29.325,-0.109 43.985,0.036 3.103,0.031 3.864,-1.695 4.686,-4.044 3.667,-10.49 7.443,-20.942 11.612,-32.62 4.058,11.788 7.826,22.403 11.327,33.106 0.978,2.991 2.335,4.304 5.619,4.108 2.508,-0.151 3.835,-0.772 4.693,-3.311 3.143,-9.3 6.548,-18.51 9.872,-27.749 0.606,-1.685 1.292,-3.342 2.325,-6.002 3.772,10.904 7.141,20.794 10.646,30.636 0.696,1.952 0.57,5.016 2.911,5.421 3.553,0.615 7.36,0.692 10.905,0.091 2.287,-0.388 0.401,-2.546 -0.032,-3.656 -4.899,-12.559 -9.926,-25.068 -14.917,-37.59 -1.109,-2.784 -2.458,-5.499 -3.258,-8.368 -1.119,-4.008 -3.36,-5.437 -7.553,-5.14 -2.888,0.205 -4.409,0.887 -5.405,3.762 -3.483,10.046 -7.256,19.993 -11.381,31.236 -3.733,-10.748 -7.289,-20.299 -10.305,-30.019 -1.215,-3.913 -3.059,-5.058 -7.057,-5.013 -3.556,0.04 -4.862,1.42 -5.968,4.47 C 11.198,-29.733 5.709,-15.278 0,0"
             style="fill:#867269;fill-opacity:1;fill-rule:evenodd;stroke:none"
             id="path30" /></g><g
           id="g32"
           transform="translate(79.791,660.7383)"><path
             d="m 0,0 c 9.36,-0.115 16.875,-2.396 23.237,-7.771 14.477,-12.23 12.638,-34.173 -3.797,-44.019 -9.872,-5.914 -20.473,-6.616 -31.209,-2.728 -12.606,4.567 -19.76,15.274 -19.133,27.944 0.572,11.576 9.793,22.176 22.141,25.286 C -5.544,-0.478 -2.267,0.206 0,0"
             style="fill:#867269;fill-opacity:1;fill-rule:evenodd;stroke:none"
             id="path34" /></g><g
           id="g36"
           transform="translate(491.9072,632.5146)"><path
             d="m 0,0 c -0.068,-16.104 -13.46,-28.349 -31.321,-28.566 -10.24,-0.124 -19.379,3.026 -26.212,11.085 -10.364,12.223 -7.928,30.007 5.28,39.469 C -34.888,34.428 -8.512,27.629 -1.63,8.951 -0.525,5.953 0.158,2.899 0,0"
             style="fill:#867269;fill-opacity:1;fill-rule:evenodd;stroke:none"
             id="path38" /></g><g
           id="g40"
           transform="translate(269.7861,734.9004)"><path
             d="m 0,0 c 3.71,9.066 7.436,18.127 11.116,27.205 0.663,1.635 1.354,2.9 3.496,2.857 2.291,-0.044 2.588,-1.775 3.196,-3.243 3.561,-8.59 7.078,-17.199 10.609,-25.802 2.462,0.18 1.126,2.112 1.172,3.062 0.42,8.577 -0.481,17.184 0.515,25.756 8.934,0.552 8.931,0.552 8.928,-8.159 -0.005,-12.479 0.077,-24.959 -0.091,-37.436 -0.025,-1.88 1.788,-5.484 -2.212,-5.318 -3.468,0.144 -7.863,-2.396 -10.034,3.407 C 22.945,-7.646 18.499,2.116 14.327,12.03 10.156,1.988 5.994,-8.095 1.775,-18.153 c -1.143,-2.725 -9.067,-4.571 -11.143,-2.627 -1.119,1.048 -0.613,2.513 -0.622,3.789 -0.048,7.321 -0.067,14.642 0.003,21.963 0.021,2.237 -0.157,3.563 -3.077,3.812 -6.974,0.593 -10.816,4.529 -11.026,10.502 -0.195,5.524 3.285,10.072 8.638,11.288 6.098,1.387 11.159,-1.417 13.814,-7.65 C -1.014,16.358 -1.6,9.773 -1.281,3.209 -1.23,2.176 -2.574,0.169 0,0"
             style="fill:#867269;fill-opacity:1;fill-rule:evenodd;stroke:none"
             id="path42" /></g><g
           id="g44"
           transform="translate(162.0732,634.0176)"><path
             d="m 0,0 c 3.165,0.001 6.362,-0.279 9.488,0.069 4.194,0.468 4.626,-1.551 4.276,-4.968 -1.599,-15.58 -13.382,-25.555 -29.985,-25.224 -21.934,0.436 -35.859,19.776 -28.039,38.941 7.982,19.559 38.888,24.396 52.625,8.323 C 10.627,14.494 10.63,13.083 7.169,12.006 5.591,11.515 4.045,10.813 2.611,9.987 0.512,8.779 -0.668,9.271 -2.319,11.138 c -6.039,6.826 -15.356,8.024 -22.548,3.276 -7.406,-4.891 -10.346,-15.357 -6.742,-24.01 3.432,-8.241 11.767,-12.574 20.361,-10.523 2.293,0.547 4.379,1.615 6.18,3.154 2.341,2 4.979,4.683 4.116,7.479 -0.774,2.502 -4.441,0.52 -6.743,1.08 -2.516,0.61 -6.674,-2.157 -6.596,3.768 0.05,3.756 1.06,5.062 4.801,4.7 C -6.354,-0.241 -3.165,0 0,0"
             style="fill:#867269;fill-opacity:1;fill-rule:evenodd;stroke:none"
             id="path46" /></g><g
           id="g48"
           transform="translate(122.002,740.5957)"><path
             d="m 0,0 c -1.028,-2.021 -2.739,-3.606 -4.699,-4.286 -4.133,-1.434 -4.994,-4.238 -4.517,-8.097 0.203,-1.641 0.059,-3.329 0.03,-4.995 -0.124,-7.102 -2.573,-9.531 -9.719,-9.548 -10.666,-0.025 -21.333,0.094 -31.997,-0.069 -3.137,-0.048 -4.448,0.676 -4.324,4.109 0.11,3.004 0.561,4.897 4.08,4.302 4.059,-0.686 5.233,1.149 4.956,5.026 -0.31,4.312 -0.176,8.665 -0.033,12.994 0.081,2.451 -0.55,3.41 -3.268,3.648 -7.156,0.63 -11.084,5.222 -10.697,11.831 0.355,6.053 5.483,10.428 11.951,10.195 6.483,-0.232 10.941,-4.896 11.001,-11.748 0.08,-9.332 0.125,-18.667 -0.04,-27.996 -0.053,-3.018 0.822,-4.256 3.936,-3.995 2.649,0.222 5.33,0.014 7.995,0.052 6.757,0.097 7.385,0.938 7.352,7.518 -0.014,2.643 -1.062,3.491 -3.362,3.786 -2.511,0.321 -4.85,1.176 -6.854,2.797 -3.625,2.93 -4.982,6.75 -3.604,11.138 1.315,4.188 4.567,7.122 8.9,6.764 5.196,-0.431 5.206,2.277 4.82,5.789 -0.392,3.567 0.328,5.544 4.706,5.253 3.166,-0.211 4.425,-0.864 4.274,-4.236 -0.253,-5.643 -0.07,-11.307 -0.07,-17.236 2.398,0.378 3.254,2.188 3.826,3.679 1.481,3.867 3.592,3.617 6.303,1.46 C 4.157,5.014 -0.146,2.766 0,0"
             style="fill:#867269;fill-opacity:1;fill-rule:evenodd;stroke:none"
             id="path50" /></g><g
           id="g52"
           transform="translate(576.1094,753.2012)"><path
             d="m 0,0 c 4.351,-0.897 8.148,-2.175 8.938,-6.955 0.743,-4.498 -0.955,-7.806 -5.211,-9.679 -4.354,-1.915 -9.231,-0.578 -11.965,3.291 -5.57,7.882 1.307,24.072 10.874,25.546 0.606,0.094 1.439,0.048 1.877,-0.299 2.936,-2.328 5.487,-2.793 8.749,-0.049 2.026,1.706 4.224,-0.865 6.277,-1.768 2.042,-0.899 2.965,-4.168 5.75,-3.23 3.532,1.191 6.533,3.313 8.345,6.759 0.744,1.416 0.996,3.421 3.245,3.181 2.235,-0.238 5.197,1.216 6.525,-0.873 1.081,-1.701 -0.571,-4.102 -1.472,-6.058 -1.374,-2.979 -5.198,-4.508 -5.986,-7.011 -0.715,-2.27 3.751,-4.509 3.931,-7.876 0.508,-9.489 0.649,-18.989 -0.086,-28.458 -0.295,-3.799 -2.997,-5.942 -6.817,-5.997 -8.662,-0.123 -17.329,0.067 -25.989,-0.117 -3.465,-0.073 -3.131,2 -3.122,4.213 0.009,2.203 -0.336,4.692 3.116,4.158 4.409,-0.68 5.489,1.415 5.052,5.362 -0.272,2.469 0.081,5.002 -0.086,7.489 -0.233,3.468 0.219,6.351 3.365,8.698 2.725,2.034 3.251,5.311 2.513,8.645 -0.339,1.53 -1.369,2.613 -2.507,3.631 C 13.135,4.555 11.762,2.534 10.071,1.679 7.981,0.622 6.846,2.955 5.145,3.304 2.816,3.78 1.425,2.43 0,0"
             style="fill:#867269;fill-opacity:1;fill-rule:evenodd;stroke:none"
             id="path54" /></g><g
           id="g56"
           transform="translate(47.9961,605.4658)"><path
             d="m 0,0 c -4.911,0 -8.396,0.146 -11.862,-0.048 -2.628,-0.147 -4.274,0.79 -5.77,2.965 -4.055,5.893 -8.36,11.613 -13.469,18.643 0,-6.625 -0.144,-11.963 0.056,-17.289 0.116,-3.088 -0.593,-4.456 -4.071,-4.339 -10.856,0.363 -8.685,-1.204 -8.783,8.558 -0.138,13.661 0.075,27.325 -0.116,40.986 -0.049,3.537 1.062,4.64 4.53,4.489 6.813,-0.297 13.673,0.371 20.444,-0.817 8.033,-1.41 12.932,-6.082 13.852,-13.019 0.99,-7.468 -2.241,-13.368 -9.791,-16.648 -2.82,-1.224 -2.21,-2.096 -0.818,-3.812 C -10.795,13.507 -5.852,7.296 0,0"
             style="fill:#867269;fill-opacity:1;fill-rule:evenodd;stroke:none"
             id="path58" /></g><g
           id="g60"
           transform="translate(524.7646,742.8848)"><path
             d="m 0,0 c 0.479,6.988 -1.23,10.31 -6.267,12.694 -5.901,2.793 -13.709,1.442 -18.559,-3.252 -1.477,-1.428 -2.322,-3.415 -5.283,-2.148 -5.592,2.392 -6.03,3.219 -1.689,7.621 7.155,7.257 16.013,9.584 25.676,7.048 4.446,-1.167 6.526,0.405 8.486,3.653 1.705,2.824 7.63,4.649 10.564,3.39 1.377,-0.591 0.978,-1.457 0.708,-2.411 C 12.659,23.15 11.02,19.992 8.255,17.767 6.098,16.029 6.011,14.593 7.283,12.338 8.6,10.007 9.048,7.335 9.048,4.628 c 0,-9.995 -0.175,-19.995 0.092,-29.984 0.1,-3.738 -1.654,-3.998 -4.507,-3.913 -2.618,0.079 -5.09,-0.248 -4.623,3.744 0.307,2.629 0.075,5.324 0.055,7.99 -0.054,7.678 -6.91,15.119 -14.497,15.875 -1.972,0.196 -3.616,-0.329 -5.077,-1.546 -1.2,-0.999 -2.172,-2.386 -1.859,-3.881 0.387,-1.857 2.211,-0.878 3.384,-1.013 6.621,-0.764 10.809,-4.98 10.747,-10.958 -0.058,-5.609 -4.562,-10.335 -10.404,-10.917 -6.261,-0.624 -11.86,3.303 -12.531,9.508 -0.534,4.932 -0.686,10.034 -0.05,14.938 1.421,10.956 13.612,15.835 24.094,9.884 C -4.135,3.225 -2.366,1.698 0,0"
             style="fill:#867269;fill-opacity:1;fill-rule:evenodd;stroke:none"
             id="path62" /></g><g
           id="g64"
           transform="translate(208.0381,627.6396)"><path
             d="m 0,0 c 5.844,-7.316 11.403,-14.275 17.691,-22.147 -5.398,0 -9.65,0.002 -13.901,-0.001 -2.038,-0.001 -2.747,1.685 -3.697,2.986 -4.114,5.629 -8.177,11.294 -13.352,16.806 0,-5.175 -0.14,-10.354 0.053,-15.521 0.116,-3.088 -0.605,-4.4 -4.091,-4.387 -8.765,0.034 -8.765,-0.155 -8.765,8.634 0,13.492 0.167,26.987 -0.103,40.474 -0.083,4.106 1.29,5.204 5.109,4.942 5.639,-0.387 11.31,0.254 16.961,-0.474 C 6.111,29.997 11.48,25.702 12.587,17.76 13.691,9.833 9.681,4.021 0,0"
             style="fill:#867269;fill-opacity:1;fill-rule:evenodd;stroke:none"
             id="path66" /></g><g
           id="g68"
           transform="translate(165.791,755.1201)"><path
             d="m 0,0 c -5.69,-7.958 -11.58,-15.783 -16.981,-23.933 -2.508,-3.784 -0.9,-8.456 -0.925,-12.699 -0.021,-3.446 -0.531,-5.009 -4.562,-4.981 -3.88,0.027 -4.752,1.279 -4.618,4.886 0.266,7.144 -0.029,14.308 0.132,21.458 0.062,2.749 -0.732,3.623 -3.592,3.847 -6.977,0.547 -10.995,5.405 -10.49,11.983 0.448,5.849 5.321,10.063 11.599,10.032 6.396,-0.033 11.018,-4.353 11.382,-10.806 0.158,-2.792 0.027,-5.599 0.027,-9.716 4.596,6.242 8.694,11.352 12.267,16.805 C -2.96,11.15 0.9,9.985 4.485,9.423 8.013,8.869 9.935,6 9.981,2.584 c 0.192,-13.807 0.153,-27.615 0.168,-41.424 0.005,-4.134 -3.209,-2.265 -5.131,-2.57 -2.347,-0.372 -4.093,-0.064 -4.041,3.229 0.173,10.978 0.065,21.96 0.064,32.941 l 0,4.871 C 0.694,-0.246 0.347,-0.123 0,0"
             style="fill:#867269;fill-opacity:1;fill-rule:evenodd;stroke:none"
             id="path70" /></g><g
           id="g72"
           transform="translate(215.6504,796.2979)"><path
             d="m 0,0 c 1.884,-0.564 3.241,-0.97 4.597,-1.377 7.242,-2.174 10.523,-6.127 10.63,-13.774 0.196,-13.981 0.183,-27.966 0.085,-41.949 -0.022,-3.014 0.462,-4.32 3.98,-4.474 6.378,-0.281 10.268,-5.072 10.043,-11.327 -0.211,-5.862 -4.939,-10.314 -11.17,-10.519 -6.294,-0.207 -11.518,4.212 -11.716,10.458 -0.252,7.983 -0.073,15.98 -0.076,23.97 -0.003,9.322 0.015,18.645 -0.007,27.968 -0.021,9.28 -2.42,12.1 -11.568,13.698 -5.875,1.025 -7.763,6.579 -3.699,11.307 5.342,6.218 12.279,8.282 20.238,7.099 5.059,-0.752 9.748,-3.165 15.128,-2.787 3.002,0.21 2.085,-3.196 2.796,-5 C 30.08,1.216 28.755,0.241 26.896,-0.194 22.663,-1.187 18.686,-0.093 14.674,1.157 9.894,2.647 5.059,3.65 0,0"
             style="fill:#867269;fill-opacity:1;fill-rule:evenodd;stroke:none"
             id="path74" /></g><g
           id="g76"
           transform="translate(10.0674,741.7246)"><path
             d="m 0,0 c 0,-6.323 0.104,-12.649 -0.029,-18.97 -0.141,-6.634 -2.612,-9.05 -9.099,-9.077 -10.815,-0.047 -21.634,0.111 -32.447,-0.087 -3.35,-0.06 -3.796,1.402 -3.735,4.17 0.058,2.579 0.083,4.821 3.589,4.235 4.519,-0.755 5.842,1.208 5.456,5.544 -0.368,4.127 -0.176,8.316 -0.043,12.472 0.077,2.417 -0.509,3.429 -3.25,3.667 -7.193,0.627 -11.06,5.11 -10.731,11.751 0.293,5.912 5.075,10.259 11.312,10.282 6.513,0.026 11.444,-4.369 11.649,-11.118 0.287,-9.476 0.245,-18.971 0.021,-28.45 -0.079,-3.382 1.052,-4.168 4.245,-4.202 13.959,-0.152 13.958,-0.246 13.959,13.781 10e-4,8.486 0.205,16.981 -0.088,25.456 -0.136,3.928 1.979,3.781 4.651,3.783 2.669,0.002 4.838,0.159 4.644,-3.772 C -0.214,12.99 0.019,6.489 0.019,0 L 0,0 z"
             style="fill:#867269;fill-opacity:1;fill-rule:evenodd;stroke:none"
             id="path78" /></g><g
           id="g80"
           transform="translate(246.4805,659.3672)"><path
             d="m 0,0 c 4.493,-0.002 8.993,-0.15 13.479,0.043 3.892,0.168 3.205,-2.467 3.159,-4.691 -0.045,-2.143 0.919,-4.922 -3.053,-4.784 -4.654,0.163 -9.326,-0.131 -13.976,0.093 -3.155,0.153 -4.222,-1.093 -3.873,-4.054 0.118,-0.985 0.127,-2.009 -10e-4,-2.991 -0.438,-3.367 0.715,-4.836 4.356,-4.575 4.138,0.296 8.327,-0.124 12.473,0.121 4.02,0.237 3.592,-2.319 3.614,-4.868 0.021,-2.603 0.301,-5.041 -3.668,-4.811 -4.479,0.261 -8.986,-0.01 -13.478,0.088 -2.238,0.049 -3.164,-0.598 -3.339,-3.063 -0.79,-11.149 -0.878,-11.143 10.213,-11.143 1.831,0 3.701,-0.244 5.485,0.048 4.64,0.759 5.577,-1.362 5.4,-5.561 -0.137,-3.213 -1.308,-3.85 -4.169,-3.801 -8.485,0.143 -16.977,0.168 -25.462,-0.01 -3.053,-0.064 -3.997,0.892 -3.97,3.957 0.136,15.311 0.173,30.624 -0.021,45.934 -0.045,3.498 1.259,4.259 4.351,4.118 C -8.328,-0.141 -4.161,0.003 0,0"
             style="fill:#867269;fill-opacity:1;fill-rule:evenodd;stroke:none"
             id="path82" /></g><g
           id="g84"
           transform="translate(406.6416,660.6738)"><path
             d="m 0,0 c 3.532,-0.096 8.477,-1.396 13.06,-3.973 1.411,-0.794 3.563,-1.87 1.427,-3.595 -1.942,-1.57 -1.992,-6.74 -6.265,-4.193 -3.781,2.253 -7.415,3.749 -11.724,1.924 -2.112,-0.895 -3.754,-2.386 -4.007,-4.721 -0.274,-2.528 1.522,-4.025 3.555,-4.92 3.802,-1.671 7.734,-3.042 11.568,-4.645 6.352,-2.659 10.572,-7.02 10.406,-14.336 -0.17,-7.495 -3.646,-12.997 -10.574,-16.14 -9.693,-4.397 -21.531,-1.969 -28.48,5.609 -1.916,2.089 -1.982,3.327 0.357,5.119 3.136,2.402 5.596,5.788 9.133,0.116 1.909,-3.061 5.789,-3.712 9.477,-3.276 3.526,0.417 5.769,2.343 6.588,5.843 0.81,3.457 -0.655,5.928 -3.641,7.377 -2.678,1.3 -5.537,2.238 -8.342,3.265 -10.588,3.88 -14.58,9.128 -13.048,17.212 C -19.034,-5.542 -11.219,0.006 0,0"
             style="fill:#867269;fill-opacity:1;fill-rule:evenodd;stroke:none"
             id="path86" /></g><g
           id="g88"
           transform="translate(334.707,603.8457)"><path
             d="m 0,0 c -7.936,0.246 -13.895,2.681 -18.736,7.822 -1.797,1.908 -2.161,3.082 0.199,5.076 3.421,2.891 5.977,5.204 9.472,-0.091 1.889,-2.863 5.6,-3.376 9.086,-3.032 3.787,0.375 6.147,2.586 6.927,6.166 0.743,3.414 -1.109,5.862 -4.071,7.207 -3.47,1.578 -7.148,2.686 -10.664,4.17 -7.902,3.335 -11.29,7.967 -10.742,14.44 0.582,6.877 5.794,12.488 13.327,14.356 7.367,1.826 14.169,0.09 20.66,-3.367 1.407,-0.749 3.537,-1.988 1.243,-3.576 -2.049,-1.419 -1.845,-6.841 -6.23,-4.12 -3.744,2.323 -7.402,3.749 -11.713,1.96 -2.133,-0.886 -3.737,-2.392 -3.973,-4.732 -0.252,-2.49 1.407,-4.048 3.486,-4.954 C 1.772,35.8 5.387,34.536 8.905,33.048 17.737,29.312 20.935,24.521 20.14,16.387 19.396,8.784 13.92,2.773 5.945,0.957 3.686,0.441 1.359,0.213 0,0"
             style="fill:#867269;fill-opacity:1;fill-rule:evenodd;stroke:none"
             id="path90" /></g><g
           id="g92"
           transform="translate(289.2812,603.8633)"><path
             d="m 0,0 c -7.489,0.205 -13.441,2.67 -18.29,7.793 -1.77,1.87 -2.221,3.059 0.165,5.081 3.441,2.918 6.015,5.152 9.515,-0.087 1.914,-2.866 5.594,-3.389 9.086,-3.025 3.781,0.393 6.139,2.587 6.901,6.185 0.723,3.417 -1.116,5.901 -4.063,7.24 -3.923,1.786 -8.065,3.085 -12.044,4.757 -5.661,2.378 -9.499,6.366 -9.381,12.827 0.115,6.398 3.505,11.086 9.174,13.808 8.757,4.202 17.176,2.261 25.297,-2.1 1.445,-0.776 2.755,-2.18 0.818,-3.35 -2.167,-1.309 -1.88,-6.829 -6.26,-4.097 -3.105,1.938 -6.189,3.331 -9.827,2.6 -2.928,-0.589 -5.47,-2.103 -5.842,-5.353 -0.342,-2.982 1.991,-4.415 4.347,-5.415 3.516,-1.493 7.156,-2.697 10.671,-4.195 6.492,-2.767 10.701,-7.19 10.44,-14.8 C 20.455,10.511 16.246,4.527 9.256,1.827 6.115,0.614 2.831,0.165 0,0"
             style="fill:#867269;fill-opacity:1;fill-rule:evenodd;stroke:none"
             id="path94" /></g><g
           id="g96"
           transform="translate(400.5322,746.4043)"><path
             d="m 0,0 c -1.161,0.467 -2.255,0.834 -3.284,1.336 -1.765,0.86 -4.675,0.287 -4.62,3.506 0.052,3.066 -0.721,6.222 2.673,8.459 10.06,6.631 20.638,8.094 31.768,3.374 6.373,-2.702 9.894,-7.74 9.948,-14.811 0.082,-10.316 -0.153,-20.639 0.138,-30.948 0.113,-4.021 -2.096,-3.662 -4.683,-3.687 -2.654,-0.026 -4.769,-0.208 -4.609,3.747 0.322,7.974 0.096,15.971 0.095,23.959 C 27.425,7.131 21.031,12.47 9.039,10.188 7.126,9.824 5.075,9.528 3.438,7.584 5.779,6.814 7.949,6.053 10.15,5.395 11.653,4.945 13.078,4.493 13.051,2.551 13.025,0.768 13.476,-1.188 11.249,-2.17 6.854,-4.107 6.186,-7.844 6.289,-12.118 c 0.141,-5.82 -0.126,-11.653 0.093,-17.47 0.129,-3.437 -1.936,-3.387 -4.154,-3.107 -1.951,0.245 -5.078,-1.45 -5.039,2.689 0.073,7.653 0.091,15.307 0.155,22.96 C -2.635,-4.466 -1.037,-2.432 0,0"
             style="fill:#867269;fill-opacity:1;fill-rule:evenodd;stroke:none"
             id="path98" /></g><g
           id="g100"
           transform="translate(324.9902,751.4893)"><path
             d="m 0,0 c 6.683,0 11.998,0.076 17.311,-0.019 7.203,-0.129 9.703,-2.557 9.819,-9.577 0.099,-5.991 0.133,-11.988 -0.013,-17.977 C 26.96,-34.019 22.354,-38.47 15.991,-38.613 9.743,-38.754 4.462,-34.14 4.073,-28.2 c -0.397,6.074 3.889,11.046 10.567,11.471 3.096,0.197 3.424,1.462 3.437,3.993 0.017,3.055 -1.015,4.802 -4.237,4.807 -6.658,0.011 -13.32,0.147 -19.973,-0.046 -2.971,-0.086 -4.052,0.651 -3.989,3.847 0.15,7.744 7.177,15.859 15.282,17.467 7.717,1.53 15.035,-2.417 22.802,-1.36 2.126,0.289 2.466,-3.571 3.001,-5.71 C 31.506,4.097 29.312,4.113 28.005,3.778 23.645,2.661 19.469,3.972 15.226,4.837 9.939,5.915 4.777,5.979 0,0"
             style="fill:#867269;fill-opacity:1;fill-rule:evenodd;stroke:none"
             id="path102" /></g><g
           id="g104"
           transform="translate(454.1133,751.4863)"><path
             d="m 0,0 c 5.602,0 10.854,0.058 16.104,-0.013 7.888,-0.106 10.374,-2.621 10.458,-10.607 0.062,-5.827 0.257,-11.672 -0.099,-17.479 -0.409,-6.679 -6.158,-11.175 -12.734,-10.48 -6.687,0.707 -10.958,6.232 -10.041,12.991 0.667,4.924 4.262,8.433 9.897,8.856 2.829,0.211 3.76,1.068 3.657,3.847 -0.104,2.836 -0.577,4.975 -4.028,4.965 -6.66,-0.017 -13.323,0.108 -19.981,-0.039 -2.73,-0.061 -3.747,0.693 -3.786,3.61 -0.111,8.145 6.902,16.279 15.338,17.748 7.561,1.318 14.708,-2.405 22.312,-1.449 2.343,0.295 2.617,-3.512 3.185,-5.605 C 30.979,3.777 28.346,4.109 26.979,3.755 22.798,2.672 18.748,3.889 14.688,4.809 7.42,6.453 3.474,5.247 0,0"
             style="fill:#867269;fill-opacity:1;fill-rule:evenodd;stroke:none"
             id="path106" /></g><g
           id="g108"
           transform="translate(26.5176,751.4922)"><path
             d="m 0,0 c 6.283,0 11.561,0.063 16.835,-0.016 7.643,-0.113 10.255,-2.69 10.35,-10.222 0.073,-5.827 0.203,-11.664 -0.045,-17.483 -0.286,-6.719 -5.742,-11.334 -12.399,-10.884 -6.688,0.451 -11.177,5.852 -10.482,12.614 0.511,4.97 4.22,8.85 9.554,9.236 2.971,0.215 4.738,0.61 4.381,4.174 -0.325,3.265 -1.72,4.753 -5.072,4.692 -6.326,-0.113 -12.663,0.155 -18.98,-0.102 -3.432,-0.14 -4.155,1.197 -4.102,4.32 0.147,8.659 8.143,16.539 17.543,17.289 6.696,0.534 12.998,-2.549 19.827,-1.603 2.871,0.397 2.795,-3.646 3.51,-5.796 C 31.616,4.127 29.28,4.196 27.988,3.835 23.626,2.613 19.443,3.957 15.204,4.8 9.843,5.865 4.6,6.132 0,0"
             style="fill:#867269;fill-opacity:1;fill-rule:evenodd;stroke:none"
             id="path110" /></g><g
           id="g112"
           transform="translate(497.9141,632.2129)"><path
             d="m 0,0 c -0.001,7.819 0.102,15.642 -0.056,23.457 -0.055,2.775 0.728,3.814 3.63,3.756 8.316,-0.162 16.641,-0.208 24.953,10e-4 4.511,0.113 3.355,-2.892 3.594,-5.373 0.275,-2.851 -0.421,-4.363 -3.742,-4.147 -3.976,0.259 -7.99,-0.1 -11.972,0.109 -2.926,0.153 -3.882,-1.029 -3.602,-3.765 0.134,-1.317 0.161,-2.678 -0.005,-3.987 -0.406,-3.203 1.116,-4.037 4.034,-3.831 2.814,0.198 5.653,0.046 8.482,0.042 5.183,-0.008 7.422,-3.353 5.56,-8.152 -0.464,-1.197 -1.285,-1.369 -2.308,-1.39 -1.164,-0.026 -2.329,-0.023 -3.493,-0.025 -12.248,-0.017 -12.248,-0.017 -12.249,-12.499 0,-2.496 -0.123,-4.999 0.028,-7.485 0.156,-2.555 -0.783,-3.406 -3.4,-3.521 -9.457,-0.413 -9.452,-0.516 -9.452,8.842 0,5.989 0,11.979 -0.002,17.968"
             style="fill:#867269;fill-opacity:1;fill-rule:evenodd;stroke:none"
             id="path114" /></g><g
           id="g116"
           transform="translate(365.9629,742.668)"><path
             d="m 0,0 c 0,6.156 0.238,12.324 -0.088,18.463 -0.205,3.861 1.845,3.896 4.583,3.827 2.55,-0.065 4.898,0.398 4.719,-3.671 C 8.892,11.313 9.199,3.981 9.082,-3.337 9.037,-6.15 9.196,-7.811 12.916,-7.949 19.273,-8.187 23.27,-13.063 23.045,-19.212 22.828,-25.151 18.113,-29.646 11.941,-29.797 5.533,-29.953 0.514,-25.691 0.07,-19.461 -0.165,-16.15 0.006,-12.81 0.001,-9.482 -0.005,-6.321 0,-3.16 0,0"
             style="fill:#867269;fill-opacity:1;fill-rule:evenodd;stroke:none"
             id="path118" /></g><g
           id="g120"
           transform="translate(54.5713,775.1807)"><path
             d="m 0,0 c 0.45,-2.639 -0.478,-3.948 -3.814,-3.353 -11.214,2.005 -22.518,2.336 -33.819,0.93 -3.42,-0.425 -4.375,0.655 -4.158,3.945 0.222,3.375 1.813,6.042 3.662,8.591 5.411,7.462 15.123,10.216 24.65,7.135 C -5.908,14.8 -0.083,7.503 0,0"
             style="fill:#867269;fill-opacity:1;fill-rule:evenodd;stroke:none"
             id="path122" /></g><g
           id="g124"
           transform="translate(107.4453,781.2656)"><path
             d="m 0,0 c 5.91,0.83 9.729,4.087 11.422,9.06 1.829,5.374 5.557,2.973 7.972,1.997 C 22.416,9.834 19.75,7.251 18.986,5.62 13.741,-5.586 0.651,-10.693 -11.524,-6.488 c -6.437,2.222 -10.123,7.87 -8.672,13.285 1.5,5.598 7.487,8.889 13.441,7.389 C -0.694,12.659 1.605,8.051 0,0"
             style="fill:#867269;fill-opacity:1;fill-rule:evenodd;stroke:none"
             id="path126" /></g><g
           id="g128"
           transform="translate(299.8906,764.7354)"><path
             d="m 0,0 0,-31.977 c -0.21,-0.076 -0.42,-0.153 -0.63,-0.229 -0.352,1.13 -0.706,2.259 -1.058,3.388 1.614,7.685 0.222,15.463 0.73,23.178 C -0.833,-3.744 -1.749,-1.632 0,0"
             style="fill:#dcd6d3;fill-opacity:1;fill-rule:evenodd;stroke:none"
             id="path130" /></g><g
           id="g132"
           transform="translate(269.7861,734.9004)"><path
             d="m 0,0 c 0.157,-1.059 -0.13,-1.909 -1.638,-2.804 l 0,25.728 C 0.249,18.119 -1.251,13.106 -0.731,8.221 -0.439,5.483 -1.555,2.621 0,0"
             style="fill:#c2b8b3;fill-opacity:1;fill-rule:evenodd;stroke:none"
             id="path134" /></g><g
           id="g136"
           transform="translate(122.002,740.5957)"><path
             d="M 0,0 C -0.699,1.312 -1.376,2.692 0.186,3.815 1.913,5.058 1.129,6.622 0.946,8.135 4.897,5.743 4.846,5.305 0,0"
             style="fill:#867269;fill-opacity:1;fill-rule:evenodd;stroke:none"
             id="path138" /></g><g
           id="g140"
           transform="translate(80.9092,614.6055)"><path
             d="M 0,0 C -9.647,-0.046 -18.816,8.815 -18.894,18.26 -18.968,27.474 -9.986,35.728 0.031,35.649 9.805,35.573 18.581,27.526 18.759,18.478 18.939,9.262 9.584,0.046 0,0"
             style="fill:#fefefe;fill-opacity:1;fill-rule:evenodd;stroke:none"
             id="path142" /></g><g
           id="g144"
           transform="translate(460.1602,614.6055)"><path
             d="m 0,0 c -9.645,-0.079 -18.935,8.8 -19.012,18.169 -0.076,9.271 8.845,17.534 18.864,17.472 C 9.702,35.58 18.445,27.651 18.685,18.563 18.926,9.397 9.545,0.078 0,0"
             style="fill:#fefefe;fill-opacity:1;fill-rule:evenodd;stroke:none"
             id="path146" /></g><g
           id="g148"
           transform="translate(257.2031,750.8271)"><path
             d="m 0,0 c -2.032,0.339 -3.42,1.356 -3.361,3.542 0.058,2.15 1.365,3.352 3.478,3.312 C 2.24,6.815 3.549,5.457 3.511,3.406 3.472,1.354 2.066,0.214 0,0"
             style="fill:#f5f3f2;fill-opacity:1;fill-rule:evenodd;stroke:none"
             id="path150" /></g><g
           id="g152"
           transform="translate(73.3447,750.8027)"><path
             d="m 0,0 c -2.137,0.384 -3.546,1.35 -3.492,3.553 0.054,2.165 1.366,3.356 3.454,3.314 C 2.055,6.825 3.395,5.463 3.367,3.422 3.34,1.372 1.898,0.271 0,0"
             style="fill:#f6f4f3;fill-opacity:1;fill-rule:evenodd;stroke:none"
             id="path154" /></g><g
           id="g156"
           transform="translate(100.418,747.75)"><path
             d="m 0,0 c 2.285,-0.504 3.573,-1.695 3.368,-3.859 -0.181,-1.909 -1.563,-3.058 -3.396,-3.023 -2.076,0.041 -3.5,1.342 -3.42,3.509 C -3.368,-1.207 -1.823,-0.27 0,0"
             style="fill:#f9f8f8;fill-opacity:1;fill-rule:evenodd;stroke:none"
             id="path158" /></g><g
           id="g160"
           transform="translate(578.8877,744.4756)"><path
             d="m 0,0 c -0.37,-1.726 -1.494,-2.672 -3.166,-2.499 -1.418,0.147 -2.49,1.175 -2.462,2.679 0.033,1.712 1.146,2.85 2.858,2.774 C -1.094,2.879 -0.152,1.714 0,0"
             style="fill:#e6e3e1;fill-opacity:1;fill-rule:evenodd;stroke:none"
             id="path162" /></g><g
           id="g164"
           transform="translate(16.8906,642.623)"><path
             d="M 0,0 C 0,0.33 -0.087,0.69 0.014,0.986 0.797,3.297 -2.011,6.988 2.178,7.903 7.084,8.975 12.285,6.093 12.983,2.206 13.721,-1.892 12.892,-5.415 8.422,-7.033 7.802,-7.258 7.175,-7.484 6.533,-7.633 0.735,-8.98 0.011,-8.404 0.001,-2.48 0,-1.653 0.001,-0.827 0,0"
             style="fill:#fdfdfc;fill-opacity:1;fill-rule:evenodd;stroke:none"
             id="path166" /></g><g
           id="g168"
           transform="translate(509.5078,724.4121)"><path
             d="m 0,0 c -0.193,-1.966 -1.151,-3.411 -3.273,-3.586 -2.423,-0.2 -3.815,1.351 -3.894,3.508 -0.075,2.015 1.385,3.299 3.488,3.387 C -1.495,3.399 -0.431,2.059 0,0"
             style="fill:#f6f5f4;fill-opacity:1;fill-rule:evenodd;stroke:none"
             id="path170" /></g><g
           id="g172"
           transform="translate(194.7764,642.5)"><path
             d="m 0,0 c 0,0.499 -0.14,1.049 0.023,1.487 0.809,2.172 -2.077,5.66 2.106,6.573 4.11,0.897 9.476,-1.615 10.52,-4.914 1.205,-3.81 0.668,-7.314 -3.114,-9.528 C 7.81,-7.393 5.81,-7.642 3.8,-7.86 1.126,-8.152 -0.379,-7.553 -0.029,-4.482 0.14,-3.006 0,-1.495 0,0"
             style="fill:#fdfdfc;fill-opacity:1;fill-rule:evenodd;stroke:none"
             id="path174" /></g><g
           id="g176"
           transform="translate(136.2861,750.8311)"><path
             d="m 0,0 c -2.021,0.303 -3.382,1.379 -3.373,3.506 0.01,2.125 1.311,3.379 3.422,3.347 C 2.144,6.821 3.486,5.477 3.482,3.438 3.479,1.388 2.087,0.235 0,0"
             style="fill:#f6f4f3;fill-opacity:1;fill-rule:evenodd;stroke:none"
             id="path178" /></g><g
           id="g180"
           transform="translate(233.7998,720.7725)"><path
             d="m 0,0 c -2.315,0.162 -3.664,1.233 -3.85,3.299 -0.19,2.129 1.025,3.44 3.114,3.625 C 1.604,7.131 3.087,5.904 3.14,3.547 3.188,1.433 1.724,0.409 0,0"
             style="fill:#f7f6f5;fill-opacity:1;fill-rule:evenodd;stroke:none"
             id="path182" /></g><g
           id="g184"
           transform="translate(340.7217,727.7715)"><path
             d="M 0,0 C 2.227,-0.268 3.463,-1.443 3.406,-3.55 3.35,-5.619 2.142,-6.97 0.004,-6.933 -2.302,-6.894 -3.729,-5.511 -3.573,-3.203 -3.435,-1.146 -1.923,-0.147 0,0"
             style="fill:#f7f6f5;fill-opacity:1;fill-rule:evenodd;stroke:none"
             id="path186" /></g><g
           id="g188"
           transform="translate(472.7549,724.4482)"><path
             d="m 0,0 c -0.387,-2.107 -1.398,-3.544 -3.522,-3.615 -2.378,-0.08 -3.77,1.332 -3.681,3.632 0.079,2.034 1.415,3.309 3.582,3.259 C -1.462,3.227 -0.488,1.801 0,0"
             style="fill:#f7f5f4;fill-opacity:1;fill-rule:evenodd;stroke:none"
             id="path190" /></g><g
           id="g192"
           transform="translate(42.3008,720.7861)"><path
             d="M 0,0 C -2.082,0.069 -3.427,1.016 -3.569,3.193 -3.706,5.285 -2.772,6.732 -0.593,6.907 1.737,7.094 3.271,5.821 3.365,3.545 3.45,1.501 2.045,0.326 0,0"
             style="fill:#f7f6f5;fill-opacity:1;fill-rule:evenodd;stroke:none"
             id="path194" /></g><g
           id="g196"
           transform="translate(377.418,720.7861)"><path
             d="M 0,0 C -2.073,0.312 -3.471,1.464 -3.396,3.593 -3.322,5.705 -1.904,6.948 0.228,6.918 2.404,6.887 3.641,5.565 3.591,3.405 3.54,1.209 2.097,0.213 0,0"
             style="fill:#f8f7f6;fill-opacity:1;fill-rule:evenodd;stroke:none"
             id="path198" /></g><g
           id="g200"
           transform="translate(22.8926,780.6113)"><path
             d="M 0,0 C 5.9,7.474 16.821,6.918 22.555,-0.959 15.061,0.546 7.863,0.349 0,0"
             style="fill:#f8f8f7;fill-opacity:1;fill-rule:evenodd;stroke:none"
             id="path202" /></g><g
           id="g204"
           transform="translate(101.1416,785.9053)"><path
             d="m 0,0 c 0.028,-2.226 -1.185,-3.483 -3.282,-3.616 -2.119,-0.135 -3.549,1.094 -3.719,3.201 -0.177,2.195 1.277,3.478 3.31,3.613 C -1.64,3.335 -0.22,2.238 0,0"
             style="fill:#f9f8f7;fill-opacity:1;fill-rule:evenodd;stroke:none"
             id="path206" /></g><g
           id="g208"
           transform="translate(268.1484,342.5156)"><path
             d="m 0,0 c -164.5,0 -329,0.014 -493.5,-0.094 -3.75,-0.004 -4.604,0.844 -4.596,4.594 0.133,66.166 0.13,132.333 -10e-4,198.501 -0.007,3.424 0.674,4.094 4.097,4.094 329.333,-0.102 658.667,-0.102 988,0 3.424,0 4.104,-0.67 4.097,-4.094 -0.13,-66.334 -0.13,-132.669 0,-199.001 C 498.104,0.574 497.424,-0.098 494,-0.096 329.333,0.014 164.667,0 0,0"
             style="fill:#fefefe;fill-opacity:1;fill-rule:evenodd;stroke:none"
             id="path210" /></g><g
           id="g212"
           transform="translate(396.0625,374.5605)"><path
             d="m 0,0 c 2.823,13.113 5.643,26.229 8.471,39.34 1.159,5.369 2.582,10.698 3.42,16.118 0.554,3.597 2.144,4.552 5.625,4.441 7.991,-0.256 16.002,-0.258 23.994,0 3.341,0.107 4.574,-1 5.224,-4.221 3.653,-18.11 7.524,-36.174 11.338,-54.25 0.152,-0.721 -0.097,-1.686 1.48,-2.198 1.842,9.284 3.662,18.479 5.493,27.674 1.95,9.791 4.024,19.561 5.793,29.388 0.485,2.697 1.506,3.64 4.201,3.576 6.33,-0.151 12.676,-0.278 18.995,0.023 4.585,0.217 3.342,-2.193 2.665,-4.664 -6.07,-22.168 -12.126,-44.34 -18.187,-66.51 -1.098,-4.014 -2.439,-7.979 -3.236,-12.051 -0.654,-3.342 -1.987,-4.736 -5.624,-4.592 -7.488,0.299 -15.006,0.321 -22.492,-0.006 -3.767,-0.166 -5.184,1.104 -5.911,4.719 -3.642,18.119 -7.527,36.188 -11.342,54.272 -0.162,0.769 -0.461,1.511 -1.537,2.339 -1.107,-4.529 -2.245,-9.05 -3.316,-13.587 -3.408,-14.426 -6.9,-28.832 -10.103,-43.303 -0.763,-3.451 -2.17,-4.563 -5.691,-4.432 -7.656,0.285 -15.333,0.215 -22.995,0.022 -2.803,-0.071 -4.164,0.752 -4.927,3.527 -7.336,26.648 -14.726,53.281 -22.266,79.874 -1.059,3.738 -0.095,4.531 3.532,4.392 6.658,-0.256 13.336,-0.224 19.996,-0.008 3.14,0.104 4.255,-0.957 4.85,-4.062 C -9.11,37.84 -5.412,19.91 -1.801,1.965 -1.437,0.424 -0.534,-0.955 -0.423,-2.418 -0.304,-1.717 -0.738,-0.756 0,0"
             style="fill:#857269;fill-opacity:1;fill-rule:evenodd;stroke:none"
             id="path214" /></g><g
           id="g216"
           transform="translate(24.2563,375.832)"><path
             d="m 0,0 c 11.244,-5.645 22.183,-8.006 33.724,-7.557 2.511,0.098 4.976,0.328 7.376,1.137 3.942,1.324 6.624,3.772 7.303,8.035 0.685,4.303 -0.582,7.918 -3.986,10.676 -3.971,3.217 -8.782,4.711 -13.514,6.301 -5.054,1.699 -10.071,3.439 -14.847,5.859 -11.184,5.664 -16.655,14.858 -17.204,27.233 -0.592,13.313 3.394,24.682 15.468,31.36 17.706,9.795 36.431,8.902 55.284,3.537 1.672,-0.477 2.411,-1.449 2.393,-3.252 C 71.928,76.997 71.917,70.663 71.996,64.331 72.041,60.637 70.07,62.303 68.52,62.928 59.515,66.565 50.148,67.472 40.55,66.722 38.029,66.524 35.6,65.96 33.353,64.806 26.691,61.383 25.969,53.321 31.961,48.838 c 4.222,-3.158 9.353,-4.254 14.206,-5.975 4.387,-1.554 8.853,-2.949 13.098,-4.832 12.628,-5.607 18.496,-15.613 18.67,-29.277 0.187,-14.723 -4.238,-27.043 -18.19,-34.016 -13.86,-6.926 -28.658,-6.652 -43.518,-4.535 -4.433,0.631 -8.79,1.838 -13.153,2.897 -1.592,0.386 -3.143,0.869 -3.112,3.183 C 0.063,-16.092 0,-8.463 0,0"
             style="fill:#857269;fill-opacity:1;fill-rule:evenodd;stroke:none"
             id="path218" /></g><g
           id="g220"
           transform="translate(207.1582,390.6328)"><path
             d="m 0,0 c 0.015,-27.543 -18.176,-45.854 -45.66,-45.963 -27.424,-0.109 -46.09,18.594 -46.107,46.197 -0.015,27.233 18.5,45.546 46.083,45.575 C -18.207,45.84 -0.016,27.598 0,0"
             style="fill:#857269;fill-opacity:1;fill-rule:evenodd;stroke:none"
             id="path222" /></g><g
           id="g224"
           transform="translate(512.0596,409.7363)"><path
             d="m 0,0 c 0,6.48 0.069,12.131 -0.037,17.78 -0.037,2.006 0.831,3.056 2.576,3.717 14.715,5.572 29.756,7.525 44.959,2.648 13.886,-4.453 21.307,-16.03 21.539,-32.565 0.166,-11.82 0.047,-23.646 0.032,-35.471 -0.006,-5.166 0.04,-10.332 0.995,-15.425 0.538,-2.862 -0.437,-3.844 -3.367,-3.75 -5.823,0.183 -11.663,0.226 -17.482,-0.012 -3.206,-0.131 -4.051,1.256 -4.042,4.088 0.009,2.625 -0.277,5.25 -0.49,8.838 -2.106,-2.571 -3.615,-4.6 -5.313,-6.455 -9.937,-10.862 -29.599,-11.239 -41.255,-0.834 -9.94,8.871 -10.968,27.662 -1.956,38.32 5.827,6.891 13.88,9.517 22.418,10.859 6.756,1.061 13.586,1.625 20.369,0.262 4.294,-0.865 4.962,1.006 3.894,4.529 C 41.218,1.885 37.367,4.775 32.083,5.768 22.619,7.543 13.551,5.883 4.779,2.188 3.424,1.617 2.103,0.965 0,0"
             style="fill:#867269;fill-opacity:1;fill-rule:evenodd;stroke:none"
             id="path226" /></g><g
           id="g228"
           transform="translate(232.1719,379.8457)"><path
             d="m 0,0 c 0,9.824 -0.097,19.65 0.059,29.475 0.047,2.986 -0.782,4.429 -3.911,3.972 -0.326,-0.047 -0.665,-0.008 -0.998,-0.006 -11.23,0.092 -11.23,0.092 -11.23,11.581 -0.001,9.512 -0.001,9.512 9.308,9.51 0.832,0 1.68,0.105 2.495,-0.018 3.583,-0.541 5.095,0.543 4.737,4.539 -0.431,4.801 0.342,9.61 1.322,14.358 2.483,12.033 9.875,18.928 21.89,20.805 6.779,1.058 13.583,0.885 20.373,-0.377 2.266,-0.42 3.083,-1.356 3.03,-3.61 -0.112,-4.826 -0.153,-9.66 0.014,-14.484 0.103,-2.996 -1.223,-3.326 -3.664,-2.691 -1.437,0.373 -2.953,0.511 -4.443,0.595 -6.995,0.387 -10.123,-1.998 -11.475,-8.953 -0.409,-2.099 -0.238,-4.305 -0.469,-6.447 -0.295,-2.745 0.646,-3.928 3.586,-3.77 3.984,0.215 7.997,-0.092 11.984,0.1 2.933,0.142 4.275,-0.7 4.125,-3.879 -0.211,-4.487 -0.245,-9.002 0.009,-13.483 0.185,-3.272 -1.213,-3.975 -4.114,-3.824 -3.819,0.199 -7.67,-0.147 -11.483,0.107 -3.346,0.223 -4.188,-1.008 -4.162,-4.268 0.151,-18.982 -0.074,-37.968 0.183,-56.949 0.061,-4.41 -1.06,-5.816 -5.51,-5.504 -5.8,0.408 -11.656,0.262 -17.475,0.037 -3.252,-0.125 -4.33,0.86 -4.256,4.209 C 0.14,-19.32 0.001,-9.658 0,0"
             style="fill:#867269;fill-opacity:1;fill-rule:evenodd;stroke:none"
             id="path230" /></g><g
           id="g232"
           transform="translate(300.3564,390.3398)"><path
             d="m 0,0 c 0,7.082 -0.083,13.082 0.039,19.078 0.052,2.578 -0.41,3.973 -3.496,3.953 -3.761,-0.025 -8.682,-1.773 -11.016,0.824 -2.449,2.727 -0.706,7.645 -0.765,11.599 -0.131,8.582 -0.04,8.539 8.71,8.597 8.265,0.055 7.1,-1.078 7.178,7.116 0.057,5.832 0.166,11.67 -0.048,17.494 -0.117,3.137 1.055,4.012 4.034,3.93 6.326,-0.176 12.67,-0.244 18.991,0.021 3.491,0.149 4.174,-1.275 4.089,-4.369 -0.185,-6.66 0.085,-13.332 -0.117,-19.993 -0.096,-3.146 0.688,-4.552 4.111,-4.273 3.476,0.283 7.012,-0.164 10.487,0.123 3.651,0.303 4.617,-1.213 4.42,-4.598 -0.241,-4.152 -0.265,-8.341 0.004,-12.49 0.224,-3.444 -1.188,-4.311 -4.35,-4.119 -3.818,0.228 -7.665,-0.053 -11.492,0.089 -2.423,0.09 -3.172,-0.857 -3.151,-3.207 0.1,-11.33 -0.159,-22.668 0.164,-33.99 0.25,-8.711 4.433,-11.931 14.162,-10.613 4.722,0.641 6.414,-0.401 5.626,-5.074 -0.055,-0.323 -0.007,-0.664 -0.007,-0.998 0.002,-13.539 10e-4,-13.526 -13.667,-14.62 -4.861,-0.388 -9.679,0.051 -14.409,1.024 C 8.56,-42.244 2.518,-35.293 0.815,-23.863 -0.421,-15.561 0.228,-7.232 0,0"
             style="fill:#867269;fill-opacity:1;fill-rule:evenodd;stroke:none"
             id="path234" /></g><g
           id="g236"
           transform="translate(396.0625,374.5605)"><path
             d="M 0,0 C 0.087,-0.783 -0.053,-2.254 -0.398,-2.094 -2.079,-1.316 -1.962,0.375 -1.801,1.965 -1.2,1.309 -0.601,0.654 0,0"
             style="fill:#e4e0de;fill-opacity:1;fill-rule:evenodd;stroke:none"
             id="path238" /></g><g
           id="g240"
           transform="translate(143.96,390.8301)"><path
             d="m 0,0 c -0.023,5.396 0.726,10.658 3.26,15.494 2.945,5.625 7.639,8.844 14.025,8.877 6.121,0.031 11.104,-2.654 13.906,-8.18 5.572,-10.984 5.497,-22.177 -0.184,-33.078 -2.969,-5.695 -8.152,-8.041 -14.588,-7.715 C 10.324,-24.291 6.097,-21.227 3.33,-15.98 0.697,-10.988 -0.071,-5.572 0,0"
             style="fill:#fefefe;fill-opacity:1;fill-rule:evenodd;stroke:none"
             id="path242" /></g><g
           id="g244"
           transform="translate(538.9678,365.1855)"><path
             d="m 0,0 c -5.894,-0.066 -10.044,2.756 -10.937,7.437 -1.088,5.709 1.707,10.202 7.765,12.167 5.687,1.845 11.545,0.919 17.345,0.794 1.669,-0.037 2.161,-0.947 2.217,-2.591 C 16.675,9.299 8.265,0.094 0,0"
             style="fill:#fefefe;fill-opacity:1;fill-rule:evenodd;stroke:none"
             id="path246" /></g></g></g></g></svg>