<?xml version="1.0" encoding="UTF-8" standalone="no"?>
<!-- Created with Inkscape (http://www.inkscape.org/) -->

<svg
   xmlns:dc="http://purl.org/dc/elements/1.1/"
   xmlns:cc="http://creativecommons.org/ns#"
   xmlns:rdf="http://www.w3.org/1999/02/22-rdf-syntax-ns#"
   xmlns:svg="http://www.w3.org/2000/svg"
   xmlns="http://www.w3.org/2000/svg"
   xmlns:sodipodi="http://sodipodi.sourceforge.net/DTD/sodipodi-0.dtd"
   xmlns:inkscape="http://www.inkscape.org/namespaces/inkscape"
   id="svg2"
   version="1.1"
   inkscape:version="0.48.4 r9939"
   width="1052.3625"
   height="744.095"
   xml:space="preserve"
   sodipodi:docname="ss_group_green_logo.ai"><metadata
     id="metadata8"><rdf:RDF><cc:Work
         rdf:about=""><dc:format>image/svg+xml</dc:format><dc:type
           rdf:resource="http://purl.org/dc/dcmitype/StillImage" /><dc:title></dc:title></cc:Work></rdf:RDF></metadata><defs
     id="defs6"><clipPath
       clipPathUnits="userSpaceOnUse"
       id="clipPath16"><path
         d="m 0,595.276 841.89,0 L 841.89,0 0,0 0,595.276 z"
         id="path18" /></clipPath></defs><sodipodi:namedview
     pagecolor="#ffffff"
     bordercolor="#666666"
     borderopacity="1"
     objecttolerance="10"
     gridtolerance="10"
     guidetolerance="10"
     inkscape:pageopacity="0"
     inkscape:pageshadow="2"
     inkscape:window-width="640"
     inkscape:window-height="480"
     id="namedview4"
     showgrid="false"
     inkscape:zoom="0.31716382"
     inkscape:cx="526.18127"
     inkscape:cy="372.04749"
     inkscape:window-x="53"
     inkscape:window-y="24"
     inkscape:window-maximized="0"
     inkscape:current-layer="g10" /><g
     id="g10"
     inkscape:groupmode="layer"
     inkscape:label="ss_group_green_logo"
     transform="matrix(1.25,0,0,-1.25,0,744.095)"><g
       id="g12"><g
         id="g14"
         clip-path="url(#clipPath16)"><g
           id="g20"
           transform="translate(419.3301,237.6729)"><path
             d="m 0,0 c -52.155,0 -94.43,42.276 -94.43,94.427 0,26.709 11.106,50.808 28.93,67.983 l 75.619,-107.751 0.444,0.315 0.079,-0.11 82.516,54.96 C 93.977,104.813 94.425,99.671 94.425,94.427 94.425,42.276 52.146,0 0,0 m -43.357,178.306 11.46,-16.332 -17.142,-11.416 -11.471,16.349 c 5.26,4.397 11.006,8.217 17.153,11.399 m 26.279,8.978 7.383,-10.525 -16.652,-11.094 -10.905,15.545 c 6.39,2.752 13.149,4.795 20.174,6.074 M 0,188.854 c 2.672,0 5.308,-0.139 7.922,-0.359 l -12.063,-8.031 -5.545,7.9 c 3.185,0.326 6.413,0.49 9.686,0.49 m 41.979,-9.845 -9.099,-6.055 -9.021,12.852 c 6.328,-1.643 12.39,-3.944 18.12,-6.797 m 22.767,-15.878 -17.016,-11.335 -11.011,15.689 11.877,7.911 c 5.831,-3.504 11.233,-7.628 16.15,-12.265 m 16.809,-21.126 -18.372,-12.24 -11.619,16.562 17.966,11.972 c 4.569,-4.964 8.598,-10.427 12.025,-16.294 M 45.38,109.894 61.472,120.603 72.884,104.337 56.798,93.628 45.38,109.894 z M 23.174,95.106 39.83,106.198 51.247,89.923 34.591,78.835 23.174,95.106 z M 17.629,91.407 29.041,75.136 11.904,63.716 0.486,79.991 17.629,91.407 z M 2.166,113.426 13.789,96.87 -3.348,85.454 -14.966,102.017 2.166,113.426 z m -14.84,21.159 11.006,-15.691 -17.143,-11.415 -11.005,15.69 17.142,11.416 z m -3.834,5.46 -17.142,-11.409 -11.555,16.461 17.142,11.409 11.555,-16.461 z m 22.201,14.792 -16.656,-11.092 -11.555,16.457 16.657,11.102 11.554,-16.467 z m 5.551,3.694 -11.551,16.464 16.087,10.717 11.555,-16.457 -16.091,-10.724 z m 14.845,-21.153 -11.006,15.695 16.086,10.718 11.006,-15.694 -16.086,-10.719 z m 3.839,-5.463 16.081,10.721 11.618,-16.565 -16.081,-10.713 -11.618,16.557 z M 3.887,122.586 -7.124,138.28 9.527,149.376 20.543,133.681 3.887,122.586 z m 20.485,5.632 11.624,-16.556 -16.656,-11.095 -11.619,16.555 16.651,11.096 z m 67.344,-11.336 -13.282,-8.851 -11.417,16.271 17.717,11.802 c 2.995,-6.062 5.345,-12.5 6.982,-19.222 m 10.113,-1.28 c -0.475,2.335 -1.056,4.621 -1.69,6.885 -1.854,6.616 -4.33,12.957 -7.383,18.959 -1.014,1.994 -2.08,3.959 -3.221,5.881 -3.454,5.83 -7.463,11.299 -11.957,16.338 -1.499,1.679 -3.062,3.316 -4.668,4.898 -4.773,4.692 -9.997,8.93 -15.599,12.634 -2.044,1.358 -4.141,2.624 -6.286,3.837 -6.96,3.93 -14.417,7.076 -22.254,9.332 -2.904,0.828 -5.845,1.545 -8.84,2.133 -1.352,0.268 -2.709,0.516 -4.087,0.727 -2.889,0.437 -5.83,0.734 -8.799,0.933 -2.334,0.159 -4.679,0.268 -7.045,0.268 -5.407,0 -10.721,-0.412 -15.9,-1.212 -2.425,-0.37 -4.807,-0.851 -7.167,-1.384 -6.881,-1.562 -13.498,-3.799 -19.783,-6.643 -2.049,-0.935 -4.077,-1.917 -6.062,-2.97 -6.09,-3.256 -11.824,-7.088 -17.121,-11.44 -1.728,-1.425 -3.391,-2.918 -5.029,-4.451 -20.257,-18.975 -32.937,-45.945 -32.937,-75.9 0,-57.436 46.562,-104.002 103.999,-104.002 57.437,0 103.994,46.566 103.994,104.002 0,7.257 -0.75,14.344 -2.165,21.175"
             style="fill:#00b497;fill-opacity:1;fill-rule:nonzero;stroke:none"
             id="path22" /></g><g
           id="g24"
           transform="translate(298.9648,209.998)"><path
             d="m 0,0 c -0.924,2.424 -2.566,3.635 -4.943,3.635 -1.442,0 -2.587,-0.375 -3.422,-1.119 -0.834,-0.803 -1.257,-1.79 -1.257,-2.959 0,-0.975 0.444,-1.836 1.32,-2.576 0.439,-0.395 1.004,-0.807 1.68,-1.225 0.686,-0.422 1.483,-0.877 2.408,-1.346 0.966,-0.486 1.817,-0.945 2.571,-1.389 0.75,-0.433 1.39,-0.856 1.918,-1.257 1.13,-0.729 1.922,-1.659 2.361,-2.762 0.48,-1.014 0.723,-2.276 0.723,-3.813 0,-1.316 -0.328,-2.656 -0.982,-4.019 -0.835,-1.758 -2.356,-3.143 -4.553,-4.15 -1.573,-0.756 -3.506,-1.125 -5.788,-1.125 -2.635,0 -4.942,0.595 -6.918,1.779 0.307,1.094 0.555,2.08 0.75,2.963 0.2,0.877 0.36,1.695 0.491,2.445 l 0.803,0 c 0.344,-1.457 1.051,-2.578 2.108,-3.359 1.055,-0.797 2.323,-1.194 3.812,-1.194 1.447,0 2.63,0.381 3.56,1.125 0.971,0.744 1.458,1.791 1.458,3.158 0,1.231 -0.529,2.329 -1.596,3.301 -0.65,0.475 -1.383,0.93 -2.196,1.373 -0.82,0.444 -1.685,0.877 -2.61,1.321 -0.253,0.127 -0.549,0.295 -0.882,0.49 -0.332,0.201 -0.675,0.433 -1.029,0.697 -0.386,0.217 -0.703,0.402 -0.951,0.555 -0.248,0.158 -0.433,0.275 -0.56,0.369 -0.919,0.603 -1.647,1.512 -2.175,2.693 -0.211,0.614 -0.38,1.227 -0.523,1.85 -0.133,0.611 -0.195,1.246 -0.195,1.906 0,2.764 1.077,5 3.226,6.717 0.966,0.801 1.953,1.348 2.963,1.662 0.523,0.171 1.093,0.285 1.711,0.35 0.623,0.069 1.278,0.097 1.975,0.097 2.461,0 4.595,-0.574 6.4,-1.707 C 1.701,4.443 1.807,4.359 1.976,4.211 1.764,3.564 1.548,2.877 1.326,2.176 1.109,1.479 0.882,0.75 0.655,0 L 0,0 z"
             style="fill:#00b497;fill-opacity:1;fill-rule:nonzero;stroke:none"
             id="path26" /></g><g
           id="g28"
           transform="translate(329.0723,193.1426)"><path
             d="m 0,0 c 1.23,2.33 1.849,5.276 1.849,8.83 0,1.976 -0.333,3.865 -0.998,5.667 -0.608,1.835 -1.595,3.351 -2.958,4.534 -1.363,1.146 -3.058,1.716 -5.081,1.716 -1.89,0 -3.49,-0.48 -4.816,-1.444 -1.305,-0.922 -2.312,-2.11 -3.02,-3.551 -1.093,-2.242 -1.643,-5.305 -1.643,-9.172 0,-1.014 0.079,-1.964 0.228,-2.861 0.152,-0.899 0.379,-1.791 0.697,-2.672 0.606,-1.711 1.594,-3.138 2.957,-4.278 1.362,-1.088 3.057,-1.642 5.08,-1.642 3.248,0 5.82,1.625 7.705,4.873 m 3.893,-3.422 c -3.117,-2.682 -7.056,-4.023 -11.809,-4.023 -4.906,0 -8.799,1.425 -11.661,4.277 -2.81,2.72 -4.214,6.395 -4.214,11 0,4.742 1.695,8.566 5.086,11.471 3.205,2.638 7.135,3.961 11.792,3.961 3.95,0 7.267,-0.977 9.934,-2.918 C 5.266,18.77 6.807,16.921 7.642,14.809 8.519,12.802 8.957,10.536 8.957,8.022 8.957,5.799 8.519,3.691 7.642,1.701 6.76,-0.264 5.508,-1.975 3.893,-3.422"
             style="fill:#00b497;fill-opacity:1;fill-rule:nonzero;stroke:none"
             id="path30" /></g><g
           id="g32"
           transform="translate(340.7695,186.4883)"><path
             d="m 0,0 c 0,0.117 0.011,0.285 0.043,0.486 0.02,0.202 0.036,0.455 0.036,0.766 0,0.26 0.006,0.486 0.026,0.687 0.028,0.201 0.038,0.37 0.038,0.502 0,0.444 0.005,0.977 0.032,1.606 0.02,0.639 0.057,1.414 0.1,2.334 0.042,1.805 0.063,3.168 0.063,4.087 l 0,1.315 c 0,0.528 0.021,1.166 0.063,1.916 l 0,1.918 0,1.321 0,4.996 c 0,0.35 -0.01,0.818 -0.031,1.38 -0.021,0.571 -0.053,1.254 -0.095,2.049 -0.043,0.746 -0.08,1.407 -0.1,1.977 -0.027,0.562 -0.032,1.976 -0.032,1.976 l 16.471,-0.06 c -0.042,-0.358 -0.068,-0.801 -0.068,-1.32 l 0,-1.852 c 0.042,-0.17 0.068,-0.344 0.068,-0.533 -2.112,0.189 -3.971,0.322 -5.577,0.406 C 9.438,26.041 8.038,26.084 6.85,26.084 6.808,25.605 6.786,24.988 6.786,24.235 l 0,-2.645 0,-0.973 c 0,-0.4 -0.026,-0.859 -0.068,-1.383 l 0,-1.388 0,-0.983 9.749,0.327 c -0.085,-0.438 -0.149,-0.823 -0.191,-1.151 -0.042,-0.322 -0.063,-0.607 -0.063,-0.824 0,-0.36 0.084,-0.902 0.254,-1.643 -1.405,0.09 -2.741,0.164 -4.014,0.223 -1.267,0.062 -2.476,0.096 -3.623,0.096 l -0.396,0 -0.586,0 c -0.27,0.047 -0.486,0.073 -0.665,0.073 l -0.465,0 0,-4.943 L 7.056,0 0,0 z"
             style="fill:#00b497;fill-opacity:1;fill-rule:nonzero;stroke:none"
             id="path34" /></g><g
           id="g36"
           transform="translate(383.5459,215.8047)"><path
             d="m 0,0 c -0.126,-0.576 -0.195,-1.152 -0.195,-1.723 0,-0.697 0.069,-1.398 0.195,-2.109 -2.503,0.401 -5.022,0.6 -7.573,0.6 l -0.132,-3.09 0,-2.25 c 0,-0.877 -0.021,-1.911 -0.068,-3.084 0,-1.194 -0.005,-2.229 -0.027,-3.106 -0.026,-0.886 -0.037,-1.631 -0.037,-2.238 0,-0.316 0.011,-0.688 0.037,-1.119 0.022,-0.444 0.027,-0.962 0.027,-1.574 l 0,-1.617 0,-1.157 c 0,-0.754 0.032,-1.894 0.068,-3.427 0.09,-1.542 0.132,-2.676 0.132,-3.422 l -6.982,0 c 0,0.359 0.011,0.782 0.033,1.289 0.021,0.496 0.052,1.078 0.094,1.726 0.085,1.369 0.127,2.377 0.127,3.048 0.191,6.095 0.275,10.952 0.275,14.554 0,0.656 -0.011,1.429 -0.032,2.335 -0.021,0.895 -0.052,1.943 -0.095,3.132 -0.396,0 -0.918,-0.011 -1.553,-0.03 -0.639,-0.023 -1.373,-0.06 -2.207,-0.097 -0.803,-0.043 -1.542,-0.114 -2.25,-0.202 -0.697,-0.089 -1.336,-0.179 -1.9,-0.271 0.125,0.401 0.189,0.996 0.189,1.787 l 0,0.93 c 0,0.26 -0.022,0.455 -0.064,0.582 -0.041,0.047 -0.063,0.138 -0.063,0.265 0,0.141 -0.02,0.225 -0.062,0.268 L 0,0 z"
             style="fill:#00b497;fill-opacity:1;fill-rule:nonzero;stroke:none"
             id="path38" /></g><g
           id="g40"
           transform="translate(415.6973,209.998)"><path
             d="m 0,0 c -0.925,2.424 -2.566,3.635 -4.938,3.635 -1.453,0 -2.593,-0.375 -3.427,-1.119 -0.834,-0.803 -1.257,-1.79 -1.257,-2.959 0,-0.975 0.443,-1.836 1.32,-2.576 0.444,-0.395 1.003,-0.807 1.679,-1.225 0.687,-0.422 1.484,-0.877 2.408,-1.346 0.961,-0.486 1.822,-0.945 2.572,-1.389 0.755,-0.433 1.389,-0.856 1.917,-1.257 1.13,-0.729 1.922,-1.659 2.367,-2.762 0.474,-1.014 0.717,-2.276 0.717,-3.813 0,-1.316 -0.327,-2.656 -0.982,-4.019 -0.834,-1.758 -2.355,-3.143 -4.547,-4.15 -1.579,-0.756 -3.512,-1.125 -5.788,-1.125 -2.641,0 -4.948,0.595 -6.918,1.779 0.301,1.094 0.549,2.08 0.744,2.963 0.201,0.877 0.36,1.695 0.492,2.445 l 0.803,0 c 0.343,-1.457 1.045,-2.578 2.107,-3.359 1.056,-0.797 2.323,-1.194 3.813,-1.194 1.446,0 2.629,0.381 3.559,1.125 0.972,0.744 1.458,1.791 1.458,3.158 0,1.231 -0.529,2.329 -1.59,3.301 -0.65,0.475 -1.389,0.93 -2.202,1.373 -0.819,0.444 -1.685,0.877 -2.609,1.321 -0.254,0.127 -0.55,0.295 -0.887,0.49 -0.328,0.201 -0.67,0.433 -1.025,0.697 -0.386,0.217 -0.702,0.402 -0.95,0.555 -0.243,0.158 -0.434,0.275 -0.561,0.369 -0.923,0.603 -1.647,1.512 -2.17,2.693 -0.216,0.614 -0.39,1.227 -0.523,1.85 -0.137,0.611 -0.205,1.246 -0.205,1.906 0,2.764 1.082,5 3.236,6.717 0.962,0.801 1.944,1.348 2.958,1.662 0.523,0.171 1.093,0.285 1.711,0.35 0.613,0.069 1.273,0.097 1.976,0.097 2.461,0 4.594,-0.574 6.4,-1.707 C 1.7,4.443 1.806,4.359 1.975,4.211 1.764,3.564 1.542,2.877 1.33,2.176 1.108,1.479 0.887,0.75 0.654,0 L 0,0 z"
             style="fill:#00b497;fill-opacity:1;fill-rule:nonzero;stroke:none"
             id="path42" /></g><g
           id="g44"
           transform="translate(484.3926,215.8047)"><path
             d="M 0,0 C 0,-0.225 -0.026,-0.521 -0.074,-0.891 -0.121,-1.255 -0.158,-1.666 -0.18,-2.11 -0.201,-2.547 -0.222,-2.99 -0.243,-3.426 -0.264,-3.869 -0.274,-4.238 -0.274,-4.553 -0.316,-4.946 -0.364,-5.512 -0.401,-6.25 l 0,-0.861 0,-1.25 c -0.042,-0.496 -0.064,-0.903 -0.064,-1.231 l 0,-0.891 0,-0.988 c 0,-0.396 -0.026,-0.85 -0.068,-1.379 -0.048,-0.527 -0.069,-0.992 -0.069,-1.379 l 0,-0.986 c -0.085,-3.301 -0.37,-5.857 -0.866,-7.658 -0.481,-1.795 -1.712,-3.379 -3.68,-4.742 -2.108,-1.489 -4.812,-2.239 -8.108,-2.239 -1.843,0 -3.601,0.221 -5.26,0.655 -1.626,0.443 -3.099,1.224 -4.42,2.324 -1.23,1.051 -2.117,2.455 -2.634,4.213 -0.133,0.492 -0.265,1.246 -0.391,2.303 -0.043,0.312 -0.074,0.718 -0.096,1.22 -0.021,0.502 -0.031,1.082 -0.031,1.737 l 0,1.352 0,1.495 c -0.053,0.528 -0.085,0.983 -0.085,1.378 l 0,1.051 0,5.403 0,1.019 0,1.413 c -0.037,0.58 -0.057,1.059 -0.057,1.455 l 0,0.986 0,0.358 0,0.558 c -0.048,0.225 -0.07,0.418 -0.07,0.577 l 0,0.357 6.982,0 c 0,-0.225 -0.021,-0.553 -0.063,-0.994 -0.043,-0.261 -0.074,-0.473 -0.1,-0.649 -0.022,-0.182 -0.027,-0.334 -0.027,-0.467 -0.085,-1.886 -0.169,-3.65 -0.227,-5.306 -0.069,-1.647 -0.101,-3.215 -0.101,-4.71 0,-1.97 0.022,-3.628 0.064,-4.97 0.047,-1.342 0.106,-2.386 0.201,-3.136 0.263,-1.315 0.528,-2.291 0.781,-2.895 0.359,-0.707 0.861,-1.361 1.516,-1.975 1.315,-1.24 2.952,-1.859 4.885,-1.859 2.017,0 3.596,0.402 4.732,1.205 1.188,0.781 2.165,2.102 2.909,3.949 0.26,0.614 0.438,1.659 0.555,3.159 0.116,1.5 0.169,3.412 0.169,5.73 0,2.898 -0.021,5.424 -0.064,7.578 C -4.13,-3.182 -4.225,-1.406 -4.362,0 L 0,0 z"
             style="fill:#00b497;fill-opacity:1;fill-rule:nonzero;stroke:none"
             id="path46" /></g><g
           id="g48"
           transform="translate(501.0117,197.8223)"><path
             d="M 0,0 C -0.48,1.31 -1.045,2.799 -1.685,4.479 -2.318,6.146 -3.036,7.984 -3.828,10.013 -4.568,8.248 -5.254,6.58 -5.888,4.996 -6.532,3.422 -7.135,1.875 -7.705,0.391 L -7.848,0 0,0 z m 3.956,-11.334 c -0.618,1.965 -1.183,3.676 -1.69,5.139 -0.502,1.453 -0.93,2.656 -1.284,3.617 l -0.982,0 c -0.396,0 -0.855,0.027 -1.383,0.07 -0.523,0.041 -0.988,0.069 -1.379,0.069 l -0.998,0 c -0.57,0 -1.283,-0.012 -2.144,-0.033 -0.861,-0.032 -1.874,-0.052 -3.052,-0.106 l -0.195,-0.586 c -0.222,-0.67 -0.465,-1.352 -0.73,-2.054 -0.264,-0.696 -0.527,-1.405 -0.803,-2.102 -0.211,-0.75 -0.412,-1.451 -0.612,-2.107 -0.2,-0.66 -0.386,-1.294 -0.559,-1.907 l -4.025,0 0,0.318 3.158,7.319 c 1.838,4.215 3.501,8.133 4.975,11.761 1.478,3.62 2.783,6.989 3.919,10.114 l 3.231,0 0.338,-0.729 c 1.79,-4.65 3.613,-9.295 5.461,-13.928 1.849,-4.62 3.766,-9.298 5.736,-14.009 l 0.253,-0.454 0,-0.392 -7.235,0 z"
             style="fill:#00b497;fill-opacity:1;fill-rule:nonzero;stroke:none"
             id="path50" /></g><g
           id="g52"
           transform="translate(522.9492,204.9355)"><path
             d="m 0,0 0,-1.779 c 0,-0.529 -0.021,-0.973 -0.063,-1.326 2.329,0 4.019,0.501 5.075,1.521 1.061,1.014 1.584,2.551 1.584,4.6 0,0.845 -0.063,1.566 -0.19,2.177 C 6.137,6.467 5.625,7.309 4.88,7.734 4.135,8.154 3.237,8.365 2.171,8.365 1.78,8.365 1.416,8.371 1.062,8.396 0.708,8.412 0.354,8.426 0,8.426 L 0,3.359 0,0 z m 7.911,-18.447 -4.937,8.756 -1.321,2.302 c -0.306,0.614 -0.57,1.1 -0.792,1.453 -0.222,0.354 -0.37,0.596 -0.46,0.723 -0.142,0.186 -0.248,0.27 -0.338,0.27 -0.126,0 -0.19,-0.084 -0.19,-0.27 l 0,-1.578 c 0,-0.607 0.022,-1.336 0.064,-2.17 C -0.021,-9.797 0,-10.535 0,-11.17 l 0,-1.615 0,-1.172 c 0.037,-0.582 0.085,-1.246 0.127,-1.986 0.042,-0.75 0.116,-1.584 0.211,-2.504 l -6.976,0 0.064,0.787 c 0,0.353 0,0.713 0.031,1.094 0.022,0.369 0.048,0.644 0.095,0.812 0,0.223 0.021,0.524 0.063,0.925 0.127,1.843 0.191,4.663 0.191,8.444 l 0,1.606 0,2.271 c -0.042,0.877 -0.064,1.647 -0.064,2.307 l 0,1.58 c 0,1.014 -0.021,2.307 -0.063,3.889 -0.042,1.576 -0.106,3.449 -0.191,5.601 L 3.75,10.953 c 3.416,0 5.734,-0.951 5.734,-0.951 2.515,-1.449 3.766,-3.535 3.766,-6.258 0,-2.012 -0.591,-3.701 -1.779,-5.07 -1.194,-1.309 -2.815,-2.192 -4.875,-2.635 0.57,-1.008 1.479,-2.503 2.73,-4.478 1.258,-1.981 2.868,-4.499 4.843,-7.567 l 1.516,-2.441 -7.774,0 z"
             style="fill:#00b497;fill-opacity:1;fill-rule:nonzero;stroke:none"
             id="path54" /></g><g
           id="g56"
           transform="translate(558.9922,215.7441)"><path
             d="m 0,0 c -0.042,-0.357 -0.063,-0.801 -0.063,-1.32 l 0,-1.852 C -0.021,-3.342 0,-3.516 0,-3.705 c -2.112,0.189 -3.971,0.322 -5.576,0.406 -1.601,0.084 -3,0.127 -4.183,0.127 -0.042,-0.478 -0.069,-1.096 -0.069,-1.849 l 0,-2.645 0,-0.973 c 0,-0.4 -0.016,-0.859 -0.063,-1.382 l 0,-1.389 0,-0.983 9.744,0.328 c -0.085,-0.439 -0.148,-0.824 -0.191,-1.152 -0.042,-0.322 -0.063,-0.607 -0.063,-0.824 0,-0.359 0.085,-0.902 0.254,-1.643 -1.395,0.09 -2.742,0.164 -4.014,0.223 -1.268,0.063 -2.477,0.096 -3.623,0.096 l -0.391,0 -0.591,0 c -0.269,0.047 -0.486,0.073 -0.666,0.073 l -0.459,0 0,-5.477 0,-5.381 c 2.635,0 5.936,0.185 9.891,0.57 -0.042,-0.343 -0.063,-0.771 -0.063,-1.309 l 0,-1.838 C -0.021,-28.812 0,-28.896 0,-28.99 l 0,-0.266 -16.613,0 c 0,0.117 0.015,0.285 0.042,0.486 0.026,0.202 0.042,0.456 0.042,0.766 0,0.26 0.01,0.486 0.026,0.688 0.026,0.2 0.032,0.369 0.032,0.502 0,0.443 0.016,0.976 0.036,1.605 0.022,0.639 0.053,1.414 0.096,2.334 0.042,1.805 0.064,3.168 0.064,4.087 l 0,1.315 c 0,0.528 0.02,1.166 0.062,1.916 l 0,1.918 0,1.321 0,4.996 c 0,0.35 -0.01,0.818 -0.031,1.381 -0.022,0.57 -0.053,1.253 -0.095,2.048 -0.043,0.747 -0.074,1.407 -0.096,1.977 -0.02,0.562 -0.036,1.025 -0.036,1.382 l 0,0.595 L 0,0 z"
             style="fill:#00b497;fill-opacity:1;fill-rule:nonzero;stroke:none"
             id="path58" /></g><g
           id="g60"
           transform="translate(402.5371,156.7148)"><path
             d="m 0,0 c 0,0.074 0.01,0.164 0.025,0.279 0.017,0.112 0.022,0.27 0.022,0.44 0,0.158 0.006,0.285 0.016,0.4 0.021,0.117 0.021,0.211 0.021,0.295 0,0.26 0.006,0.57 0.021,0.93 0.01,0.371 0.032,0.818 0.058,1.363 C 0.189,4.748 0.2,5.539 0.2,6.072 l 0,0.766 c 0,0.312 0.011,0.672 0.032,1.115 l 0,1.104 0,0.771 0,2.899 c 0,0.201 -0.005,0.47 -0.016,0.802 C 0.205,13.857 0.189,14.254 0.163,14.713 0.137,15.15 0.115,15.537 0.105,15.863 0.09,16.191 0.084,17.01 0.084,17.01 L 9.648,16.973 C 9.621,16.768 9.611,16.514 9.611,16.213 l 0,-1.067 C 9.632,15.035 9.648,14.935 9.648,14.828 8.418,14.935 7.34,15.008 6.405,15.061 5.481,15.104 4.668,15.146 3.981,15.146 3.949,14.861 3.939,14.502 3.939,14.068 l 0,-1.537 0,-0.57 c 0,-0.232 -0.01,-0.49 -0.037,-0.797 l 0,-0.813 0,-0.56 5.657,0.189 C 9.511,9.717 9.474,9.495 9.453,9.305 9.421,9.115 9.41,8.957 9.41,8.818 9.41,8.619 9.463,8.301 9.559,7.879 8.745,7.922 7.974,7.963 7.234,8 6.495,8.049 5.787,8.064 5.122,8.064 l -0.222,0 -0.343,0 C 4.398,8.09 4.271,8.102 4.172,8.102 l -0.27,0 0,-2.873 L 4.098,0 0,0 z"
             style="fill:#6ac6b1;fill-opacity:1;fill-rule:nonzero;stroke:none"
             id="path62" /></g><g
           id="g64"
           transform="translate(395.0215,160.7324)"><path
             d="m 0,0 c 0.724,1.354 1.083,3.068 1.083,5.15 0,1.141 -0.2,2.25 -0.581,3.295 -0.359,1.078 -0.935,1.965 -1.732,2.651 -0.792,0.666 -1.78,1.004 -2.968,1.004 -1.099,0 -2.029,-0.286 -2.799,-0.845 C -7.758,10.717 -8.35,10.029 -8.761,9.18 -9.4,7.875 -9.717,6.096 -9.717,3.83 c 0,-0.586 0.042,-1.141 0.132,-1.67 0.085,-0.521 0.222,-1.035 0.401,-1.553 0.36,-1.002 0.93,-1.837 1.727,-2.498 0.798,-0.642 1.78,-0.955 2.963,-0.955 1.896,0 3.39,0.94 4.494,2.846 m 2.276,-2.006 c -1.827,-1.562 -4.119,-2.34 -6.886,-2.34 -2.868,0 -5.133,0.83 -6.807,2.498 -1.638,1.58 -2.456,3.729 -2.456,6.416 0,2.763 0.987,4.996 2.963,6.687 1.869,1.536 4.161,2.302 6.881,2.302 2.302,0 4.235,-0.559 5.793,-1.69 C 3.074,10.943 3.972,9.871 4.463,8.635 4.97,7.457 5.223,6.138 5.223,4.686 5.223,3.375 4.97,2.15 4.463,0.988 3.945,-0.158 3.217,-1.156 2.276,-2.006"
             style="fill:#6ac6b1;fill-opacity:1;fill-rule:nonzero;stroke:none"
             id="path66" /></g><g
           id="g68"
           transform="translate(454.0586,160.7324)"><path
             d="m 0,0 c 0.724,1.354 1.082,3.068 1.082,5.15 0,1.141 -0.2,2.25 -0.58,3.295 -0.359,1.078 -0.936,1.965 -1.732,2.651 -0.793,0.666 -1.781,1.004 -2.969,1.004 -1.098,0 -2.028,-0.286 -2.799,-0.845 C -7.758,10.717 -8.35,10.029 -8.762,9.18 -9.4,7.875 -9.717,6.096 -9.717,3.83 c 0,-0.586 0.042,-1.141 0.132,-1.67 0.084,-0.521 0.222,-1.035 0.401,-1.553 0.36,-1.002 0.93,-1.837 1.727,-2.498 0.797,-0.642 1.779,-0.955 2.963,-0.955 1.895,0 3.39,0.94 4.494,2.846 m 2.275,-2.006 c -1.826,-1.562 -4.119,-2.34 -6.885,-2.34 -2.869,0 -5.134,0.83 -6.808,2.498 -1.637,1.58 -2.455,3.729 -2.455,6.416 0,2.763 0.987,4.996 2.962,6.687 1.87,1.536 4.162,2.302 6.882,2.302 2.302,0 4.235,-0.559 5.793,-1.69 C 3.073,10.943 3.971,9.871 4.462,8.635 4.969,7.457 5.223,6.138 5.223,4.686 5.223,3.375 4.969,2.15 4.462,0.988 3.945,-0.158 3.216,-1.156 2.275,-2.006"
             style="fill:#6ac6b1;fill-opacity:1;fill-rule:nonzero;stroke:none"
             id="path70" /></g><g
           id="g72"
           transform="translate(503.0879,163.4102)"><path
             d="M 0,0 C -0.285,0.756 -0.607,1.621 -0.978,2.588 -1.348,3.555 -1.764,4.621 -2.219,5.795 -2.651,4.775 -3.048,3.803 -3.412,2.889 -3.781,1.977 -4.136,1.078 -4.469,0.211 L -4.547,0 0,0 z M 2.281,-6.574 C 1.928,-5.428 1.6,-4.426 1.31,-3.59 1.014,-2.746 0.771,-2.049 0.56,-1.494 l -0.56,0 c -0.232,0 -0.502,0.012 -0.809,0.037 -0.3,0.031 -0.57,0.031 -0.796,0.031 l -0.582,0 c -0.327,0 -0.739,0 -1.236,-0.015 -0.496,-0.01 -1.082,-0.026 -1.768,-0.053 L -5.303,-1.838 C -5.435,-2.223 -5.577,-2.619 -5.725,-3.02 -5.884,-3.432 -6.031,-3.834 -6.189,-4.24 -6.312,-4.668 -6.433,-5.08 -6.549,-5.465 -6.66,-5.852 -6.771,-6.221 -6.871,-6.574 l -2.323,0 0,0.195 1.821,4.236 c 1.072,2.44 2.028,4.7 2.884,6.807 0.855,2.096 1.605,4.051 2.27,5.852 l 1.865,0 0.201,-0.412 C 0.882,7.404 1.933,4.723 3.01,2.033 4.076,-0.645 5.186,-3.348 6.326,-6.078 l 0.149,-0.258 0,-0.238 -4.194,0 z"
             style="fill:#6ac6b1;fill-opacity:1;fill-rule:nonzero;stroke:none"
             id="path74" /></g><g
           id="g76"
           transform="translate(488.1631,167.4082)"><path
             d="m 0,0 0,-1.051 c 0,-0.295 -0.016,-0.543 -0.042,-0.75 0.434,0.022 0.792,0.053 1.077,0.09 0.285,0.037 0.476,0.074 0.581,0.1 1.405,0.381 2.113,1.511 2.113,3.381 0,1.388 -0.375,2.361 -1.12,2.916 C 2.25,4.971 1.405,5.107 0.074,5.107 L 0,2.118 0,0 z M 1.616,6.533 C 2.868,6.533 3.766,6.48 4.31,6.375 5.329,6.148 6.163,5.662 6.802,4.922 7.415,4.178 7.722,3.279 7.722,2.234 7.722,0.692 7.272,-0.538 6.38,-1.451 5.894,-1.969 5.402,-2.328 4.911,-2.535 4.483,-2.719 3.803,-2.877 2.884,-3.037 2.524,-3.078 2.007,-3.121 1.342,-3.146 c -0.665,0 -1.125,-0.012 -1.384,-0.049 0,-0.168 0.011,-0.391 0.021,-0.676 C -0.011,-4.156 0,-4.504 0,-4.916 0.021,-5.307 0.042,-5.623 0.042,-5.908 l 0,-0.731 c 0.021,-0.875 0.043,-1.631 0.074,-2.291 0.022,-0.654 0.043,-1.199 0.069,-1.636 l -4.109,0 c 0,0.078 0.006,0.179 0.027,0.289 0.01,0.117 0.01,0.248 0.01,0.408 0,0.127 0.011,0.236 0.022,0.338 0.011,0.105 0.02,0.195 0.02,0.273 0.101,1.184 0.158,2.086 0.158,2.725 l 0,3.814 c 0,0.729 -0.009,1.663 -0.02,2.778 -0.011,1.109 -0.032,2.418 -0.058,3.897 0,0.57 -0.006,1.067 -0.021,1.505 -0.016,0.434 -0.037,0.787 -0.059,1.072 l 5.461,0 z"
             style="fill:#6ac6b1;fill-opacity:1;fill-rule:nonzero;stroke:none"
             id="path78" /></g><g
           id="g80"
           transform="translate(438.1357,157.5762)"><path
             d="m 0,0 c -1.356,-0.697 -3.005,-1.041 -4.948,-1.041 -0.946,0 -2.038,0.115 -3.269,0.344 -0.765,0.183 -1.679,0.595 -2.73,1.234 -0.693,0.486 -1.288,1.072 -1.801,1.764 -1.046,1.41 -1.573,3.068 -1.573,4.959 0,1.516 0.216,2.863 0.649,4.041 0.433,1.119 1.183,2.144 2.229,3.074 1.742,1.504 4.097,2.254 7.065,2.254 1.901,0 3.592,-0.397 5.075,-1.183 C 0.671,15.32 0.634,15.15 0.587,14.939 0.534,14.744 0.481,14.518 0.429,14.301 0.375,14.041 0.328,13.799 0.28,13.566 0.228,13.334 0.175,13.111 0.122,12.912 l -0.338,0 c -0.465,0.664 -1.088,1.188 -1.853,1.572 -0.713,0.412 -1.48,0.614 -2.309,0.614 -1.299,0 -2.397,-0.349 -3.306,-1.067 -0.866,-0.75 -1.51,-1.67 -1.917,-2.773 -0.406,-1.156 -0.607,-2.365 -0.607,-3.649 0,-2.048 0.486,-3.74 1.458,-5.07 0.56,-0.697 1.23,-1.219 2.001,-1.584 0.798,-0.359 1.621,-0.527 2.498,-0.527 0.761,0 1.559,0.158 2.377,0.496 0.412,0.174 0.792,0.369 1.15,0.596 0.36,0.207 0.677,0.459 0.962,0.746 L 0.544,2.148 0,0 z"
             style="fill:#6ac6b1;fill-opacity:1;fill-rule:nonzero;stroke:none"
             id="path82" /></g><g
           id="g84"
           transform="translate(477.8438,156.8418)"><path
             d="M 0,0 C -0.025,0.85 -0.073,1.727 -0.158,2.65 -0.232,3.58 -0.322,4.563 -0.422,5.613 -0.527,6.637 -0.623,7.637 -0.729,8.617 -0.834,9.584 -0.939,10.551 -1.04,11.533 -3.834,5.787 -5.672,1.943 -6.569,0 L -7.53,0 -9.458,4.002 c -0.259,0.533 -0.544,1.141 -0.86,1.807 -0.323,0.666 -0.688,1.404 -1.099,2.222 -0.412,0.819 -0.739,1.496 -0.993,2.039 -0.259,0.539 -0.449,0.924 -0.575,1.157 -0.132,-0.872 -0.233,-1.674 -0.307,-2.409 -0.079,-0.728 -0.153,-1.404 -0.237,-2.011 -0.075,-1.051 -0.149,-1.991 -0.228,-2.805 -0.053,-0.49 -0.1,-0.939 -0.121,-1.352 -0.021,-0.406 -0.048,-0.775 -0.074,-1.109 0,-0.074 -0.005,-0.184 -0.021,-0.307 -0.01,-0.125 -0.016,-0.273 -0.016,-0.421 0,-0.19 -0.005,-0.338 -0.016,-0.465 C -14.021,0.221 -14.026,0.105 -14.026,0 l -2.345,0 c 0,0.307 0.063,0.617 0.195,0.918 0.048,0.232 0.112,0.529 0.175,0.898 0.058,0.354 0.132,0.791 0.211,1.299 0.101,0.539 0.169,0.936 0.206,1.194 0.037,0.254 0.059,0.402 0.059,0.421 0.126,0.772 0.253,1.565 0.369,2.362 0.116,0.808 0.227,1.642 0.328,2.519 l 1.034,7.489 2.039,0 c 0.707,-1.563 1.542,-3.317 2.492,-5.282 0.941,-1.964 2.038,-4.14 3.269,-6.558 l 1.463,2.888 c 0.845,1.643 1.627,3.2 2.345,4.684 0.713,1.49 1.383,2.916 1.997,4.268 l 2.149,0 C 2.086,15.948 2.261,14.396 2.478,12.452 2.693,10.509 2.969,8.148 3.301,5.375 3.349,5.043 3.412,4.668 3.476,4.25 3.539,3.822 3.612,3.348 3.687,2.809 3.845,1.658 3.919,1.066 3.919,1.045 3.919,0.986 3.93,0.918 3.939,0.85 3.956,0.775 3.972,0.664 4.004,0.537 4.046,0.338 4.072,0.152 4.072,0 L 0,0 z"
             style="fill:#6ac6b1;fill-opacity:1;fill-rule:nonzero;stroke:none"
             id="path86" /></g><g
           id="g88"
           transform="translate(525.2461,156.8418)"><path
             d="M 0,0 C -1.516,1.795 -2.946,3.463 -4.309,4.984 -5.66,6.506 -6.955,7.91 -8.186,9.188 l -2.698,2.847 c -0.02,-0.776 -0.037,-1.441 -0.053,-1.98 -0.015,-0.555 -0.015,-1.01 -0.015,-1.367 l 0,-2.303 c 0,-2.848 0.053,-4.971 0.158,-6.385 l -2.308,0 c 0.101,0.896 0.185,1.801 0.248,2.725 0.064,0.923 0.106,1.89 0.132,2.888 0.027,0.977 0.048,1.981 0.059,3.016 0.016,1.035 0.02,2.123 0.02,3.248 l 0,0.85 0,1.156 c 0,0.449 -0.004,0.851 -0.02,1.183 -0.011,0.338 -0.022,0.618 -0.022,0.85 l 0,0.688 c 0,0.21 -0.01,0.369 -0.037,0.496 l 2.277,0 c 0.507,-0.529 0.987,-1.045 1.431,-1.553 0.449,-0.496 0.893,-0.983 1.326,-1.447 0.432,-0.487 0.897,-0.988 1.388,-1.489 0.487,-0.517 0.998,-1.05 1.537,-1.617 0.512,-0.57 1.003,-1.088 1.457,-1.578 0.46,-0.486 0.867,-0.945 1.226,-1.385 0.391,-0.379 0.787,-0.806 1.193,-1.267 0.412,-0.459 0.834,-0.95 1.273,-1.463 l 0,5.504 0,2.804 c 0,0.2 -0.005,0.432 -0.027,0.692 C 0.35,14.549 0.328,14.85 0.307,15.178 0.275,15.483 0.26,15.764 0.249,16.001 0.232,16.254 0.228,16.455 0.228,16.598 L 0.19,17.1 2.462,17.121 C 2.436,16.804 2.419,16.486 2.408,16.26 2.393,16.027 2.388,15.832 2.388,15.674 2.335,15.066 2.293,14.502 2.266,13.973 2.24,13.455 2.213,12.97 2.188,12.525 c 0,-0.252 0,-0.49 -0.022,-0.707 C 2.16,11.602 2.155,11.418 2.155,11.259 2.155,10.932 2.14,10.529 2.113,10.07 2.087,9.838 2.081,9.616 2.081,9.4 l 0,-0.597 C 2.05,8.598 2.039,8.418 2.039,8.248 l 0,-0.453 0,-2.535 L 2.039,0 0,0 z"
             style="fill:#6ac6b1;fill-opacity:1;fill-rule:nonzero;stroke:none"
             id="path90" /></g><g
           id="g92"
           transform="translate(530.6543,156.8418)"><path
             d="m 0,0 c 0.232,2.693 0.349,5.756 0.349,9.188 l 0,1.341 0,0.846 0,0.887 C 0.317,12.6 0.296,12.875 0.296,13.107 l 0,0.613 C 0.274,14.465 0.248,15.119 0.222,15.674 0.201,16.244 0.164,16.715 0.116,17.1 l 4.067,0 C 4.13,16.355 4.098,15.721 4.072,15.162 4.045,14.617 4.024,14.143 3.998,13.756 3.998,13.498 3.992,13.17 3.982,12.779 3.961,12.379 3.939,11.93 3.908,11.422 3.887,10.904 3.866,10.439 3.855,10.012 3.845,9.59 3.834,9.209 3.834,8.871 3.834,8.518 3.845,8.117 3.855,7.668 3.866,7.213 3.887,6.723 3.908,6.189 3.939,5.65 3.961,5.176 3.982,4.746 3.992,4.318 3.998,3.977 3.998,3.691 3.998,3.48 4.009,3.221 4.035,2.904 4.056,2.582 4.088,2.229 4.109,1.848 4.13,1.436 4.151,1.076 4.167,0.775 4.178,0.465 4.183,0.205 4.183,0 L 0,0 z"
             style="fill:#6ac6b1;fill-opacity:1;fill-rule:nonzero;stroke:none"
             id="path94" /></g><g
           id="g96"
           transform="translate(538.0898,156.8418)"><path
             d="m 0,0 c 0,0.078 0.011,0.18 0.026,0.289 0.017,0.117 0.027,0.26 0.027,0.445 0,0.159 0.006,0.28 0.01,0.401 0.017,0.111 0.022,0.217 0.022,0.295 0,0.254 0.011,0.57 0.02,0.941 0.017,0.363 0.033,0.818 0.053,1.358 0.032,1.044 0.043,1.841 0.043,2.386 l 0,0.766 c 0,0.301 0.011,0.682 0.042,1.113 l 0,1.121 0,0.766 0,2.92 c 0,0.201 -0.011,0.47 -0.02,0.808 -0.017,0.327 -0.033,0.723 -0.065,1.188 -0.02,0.438 -0.036,0.824 -0.053,1.151 -0.009,0.338 -0.02,0.603 -0.02,0.808 l 0,0.344 9.601,0.021 C 9.664,16.914 9.659,16.604 9.659,16.303 l 0,-1.084 C 9.686,15.119 9.696,15.02 9.696,14.908 8.466,15.02 7.378,15.093 6.443,15.146 5.514,15.193 4.695,15.219 4.004,15.219 3.972,14.934 3.961,14.58 3.961,14.143 l 0,-1.543 0,-0.565 c 0,-0.238 -0.011,-0.502 -0.031,-0.808 l 0,-0.813 0,-0.576 5.681,0.19 C 9.559,9.779 9.527,9.553 9.501,9.357 9.475,9.168 9.464,9.01 9.464,8.871 9.464,8.676 9.512,8.35 9.611,7.922 8.788,7.975 8.006,8.016 7.268,8.047 6.527,8.09 5.82,8.111 5.154,8.111 l -0.226,0 -0.344,0 C 4.426,8.133 4.294,8.148 4.193,8.148 l -0.263,0 0,-3.195 0,-3.137 c 1.531,0 3.459,0.112 5.766,0.327 C 9.67,1.943 9.659,1.699 9.659,1.389 l 0,-1.082 C 9.686,0.264 9.696,0.211 9.696,0.152 L 9.696,0 0,0 z"
             style="fill:#6ac6b1;fill-opacity:1;fill-rule:nonzero;stroke:none"
             id="path98" /></g><g
           id="g100"
           transform="translate(558.5381,170.5615)"><path
             d="m 0,0 c -0.538,1.415 -1.499,2.112 -2.884,2.112 -0.845,0 -1.505,-0.211 -1.996,-0.654 -0.485,-0.455 -0.733,-1.035 -0.733,-1.723 0,-0.57 0.259,-1.066 0.776,-1.494 0.253,-0.242 0.575,-0.47 0.977,-0.713 0.396,-0.254 0.861,-0.517 1.399,-0.797 0.565,-0.28 1.062,-0.544 1.505,-0.808 0.434,-0.254 0.809,-0.496 1.115,-0.723 0.665,-0.433 1.124,-0.978 1.378,-1.623 0.28,-0.586 0.428,-1.324 0.428,-2.223 0,-0.765 -0.191,-1.552 -0.575,-2.339 -0.493,-1.024 -1.379,-1.838 -2.658,-2.428 -0.919,-0.428 -2.048,-0.656 -3.374,-0.656 -1.547,0 -2.888,0.349 -4.04,1.047 0.18,0.632 0.323,1.203 0.439,1.72 0.11,0.518 0.217,0.989 0.285,1.432 l 0.47,0 c 0.2,-0.85 0.612,-1.506 1.225,-1.965 0.617,-0.459 1.363,-0.691 2.229,-0.691 0.84,0 1.531,0.22 2.07,0.654 0.57,0.437 0.856,1.045 0.856,1.844 0,0.713 -0.307,1.357 -0.93,1.922 -0.381,0.279 -0.814,0.554 -1.283,0.808 -0.476,0.252 -0.989,0.518 -1.516,0.76 -0.158,0.084 -0.328,0.185 -0.517,0.295 -0.202,0.117 -0.402,0.244 -0.608,0.402 -0.227,0.127 -0.406,0.238 -0.555,0.328 -0.136,0.094 -0.248,0.168 -0.327,0.211 -0.534,0.354 -0.962,0.881 -1.257,1.578 -0.132,0.354 -0.232,0.713 -0.306,1.073 -0.079,0.359 -0.121,0.728 -0.121,1.109 0,1.621 0.628,2.915 1.884,3.93 0.561,0.464 1.136,0.781 1.727,0.961 0.307,0.093 0.64,0.173 0.999,0.211 0.358,0.031 0.739,0.052 1.151,0.052 1.436,0 2.683,-0.332 3.729,-0.992 C 0.993,2.587 1.057,2.54 1.151,2.461 1.024,2.081 0.897,1.685 0.771,1.267 0.645,0.86 0.518,0.433 0.38,0 L 0,0 z"
             style="fill:#6ac6b1;fill-opacity:1;fill-rule:nonzero;stroke:none"
             id="path102" /></g><g
           id="g104"
           transform="translate(355.0498,173.7246)"><path
             d="M 0,0 C 0,-0.127 -0.011,-0.295 -0.037,-0.502 -0.069,-0.723 -0.09,-0.951 -0.095,-1.199 -0.111,-1.452 -0.122,-1.705 -0.138,-1.949 -0.147,-2.201 -0.153,-2.418 -0.153,-2.604 -0.18,-2.825 -0.201,-3.152 -0.222,-3.57 l 0,-0.491 0,-0.718 c -0.026,-0.285 -0.043,-0.512 -0.043,-0.698 l 0,-0.517 0,-0.549 c 0,-0.242 -0.009,-0.502 -0.042,-0.793 -0.02,-0.305 -0.031,-0.57 -0.031,-0.791 l 0,-0.566 c -0.048,-1.885 -0.212,-3.342 -0.497,-4.368 -0.274,-1.035 -0.971,-1.937 -2.102,-2.712 -1.214,-0.846 -2.751,-1.28 -4.636,-1.28 -1.046,0 -2.049,0.127 -3,0.375 -0.935,0.26 -1.774,0.692 -2.53,1.326 -0.702,0.596 -1.209,1.405 -1.504,2.409 -0.075,0.273 -0.148,0.707 -0.222,1.32 -0.022,0.168 -0.043,0.4 -0.053,0.685 -0.011,0.297 -0.021,0.624 -0.021,0.995 l 0,0.781 0,0.855 c -0.032,0.295 -0.042,0.555 -0.042,0.782 l 0,0.597 0,3.088 0,0.582 0,0.813 c -0.033,0.328 -0.042,0.601 -0.042,0.824 l 0,0.57 0,0.201 0,0.317 c -0.022,0.137 -0.037,0.238 -0.037,0.332 l 0,0.201 3.986,0 c 0,-0.127 -0.01,-0.312 -0.031,-0.57 -0.027,-0.143 -0.042,-0.27 -0.053,-0.365 -0.016,-0.106 -0.022,-0.19 -0.022,-0.264 -0.046,-1.076 -0.094,-2.086 -0.126,-3.035 -0.037,-0.942 -0.053,-1.844 -0.053,-2.694 0,-1.125 0.006,-2.066 0.032,-2.832 0.026,-0.771 0.063,-1.367 0.11,-1.795 0.155,-0.756 0.302,-1.31 0.45,-1.664 0.201,-0.39 0.491,-0.771 0.866,-1.125 0.75,-0.701 1.679,-1.051 2.794,-1.051 1.145,0 2.054,0.223 2.698,0.676 0.682,0.455 1.235,1.215 1.664,2.262 0.147,0.348 0.253,0.949 0.321,1.805 0.059,0.855 0.09,1.943 0.09,3.275 0,1.658 -0.01,3.094 -0.037,4.336 -0.02,1.225 -0.073,2.244 -0.158,3.041 L 0,0 z"
             style="fill:#6ac6b1;fill-opacity:1;fill-rule:nonzero;stroke:none"
             id="path106" /></g><g
           id="g108"
           transform="translate(300.6338,164.457)"><path
             d="m 0,0 c -0.053,-0.592 -0.095,-1.221 -0.138,-1.887 -0.031,-0.66 -0.052,-1.392 -0.052,-2.179 0,-0.319 0.005,-0.709 0.021,-1.178 0.011,-0.481 0.031,-1.02 0.053,-1.637 -1.31,-0.359 -2.503,-0.629 -3.591,-0.814 -1.088,-0.174 -2.07,-0.27 -2.937,-0.27 -1.33,0 -2.597,0.18 -3.802,0.529 -1.203,0.342 -2.271,0.866 -3.19,1.553 -0.929,0.692 -1.658,1.572 -2.197,2.629 -0.533,1.066 -0.802,2.303 -0.802,3.713 0,1.51 0.264,2.846 0.786,3.987 0.524,1.161 1.263,2.134 2.203,2.925 0.951,0.793 2.049,1.385 3.29,1.77 1.241,0.386 2.593,0.576 4.05,0.576 2.208,0 4.204,-0.496 6,-1.5 C -0.485,7.678 -0.628,7.209 -0.729,6.78 -0.834,6.353 -0.919,5.998 -0.998,5.725 l -0.343,0 c -1.162,1.636 -2.799,2.449 -4.922,2.449 -2.05,0 -3.686,-0.881 -4.922,-2.645 -0.919,-1.352 -1.384,-3.074 -1.384,-5.15 0,-1.055 0.196,-2.09 0.576,-3.115 0.364,-0.998 0.914,-1.807 1.653,-2.418 0.459,-0.36 0.845,-0.614 1.152,-0.772 0.158,-0.047 0.347,-0.117 0.58,-0.189 0.232,-0.086 0.502,-0.155 0.813,-0.229 0.307,-0.047 0.56,-0.09 0.761,-0.109 0.201,-0.033 0.38,-0.043 0.539,-0.043 0.232,0 0.49,0.021 0.77,0.053 0.286,0.043 0.586,0.084 0.919,0.136 0.075,0 0.259,0.043 0.544,0.121 0.248,0.075 0.408,0.123 0.46,0.155 0.021,0.015 0.042,0.062 0.042,0.131 0,0.07 0.011,0.101 0.031,0.101 l 0,1.912 c 0,0.949 -0.052,2.244 -0.158,3.887 L 0,0 z"
             style="fill:#6ac6b1;fill-opacity:1;fill-rule:nonzero;stroke:none"
             id="path110" /></g><g
           id="g112"
           transform="translate(332.4521,160.7324)"><path
             d="M 0,0 C 0.724,1.354 1.083,3.068 1.083,5.15 1.083,6.291 0.888,7.4 0.502,8.445 0.143,9.523 -0.433,10.41 -1.23,11.096 -2.022,11.762 -3.011,12.1 -4.188,12.1 -5.297,12.1 -6.227,11.814 -6.997,11.255 -7.758,10.717 -8.35,10.029 -8.761,9.18 -9.396,7.875 -9.723,6.096 -9.723,3.83 c 0,-0.586 0.053,-1.141 0.138,-1.67 0.084,-0.521 0.222,-1.035 0.401,-1.553 0.359,-1.002 0.935,-1.837 1.727,-2.498 0.798,-0.642 1.78,-0.955 2.963,-0.955 1.901,0 3.395,0.94 4.494,2.846 m 2.276,-2.006 c -1.822,-1.562 -4.119,-2.34 -6.886,-2.34 -2.868,0 -5.133,0.83 -6.802,2.498 -1.643,1.58 -2.461,3.729 -2.461,6.416 0,2.763 0.987,4.996 2.962,6.687 1.875,1.536 4.167,2.302 6.882,2.302 2.307,0 4.235,-0.559 5.798,-1.69 C 3.079,10.943 3.977,9.871 4.457,8.635 4.975,7.457 5.229,6.138 5.229,4.686 5.229,3.375 4.975,2.15 4.457,0.988 3.944,-0.158 3.216,-1.156 2.276,-2.006"
             style="fill:#6ac6b1;fill-opacity:1;fill-rule:nonzero;stroke:none"
             id="path114" /></g><g
           id="g116"
           transform="translate(361.6191,167.4082)"><path
             d="m 0,0 0,-1.051 c 0,-0.295 -0.011,-0.543 -0.037,-0.75 0.428,0.022 0.787,0.053 1.072,0.09 0.285,0.037 0.476,0.074 0.581,0.1 C 3.021,-1.23 3.723,-0.1 3.723,1.77 3.723,3.158 3.354,4.131 2.609,4.686 2.25,4.971 1.404,5.107 0.074,5.107 L 0,2.118 0,0 z M 1.616,6.533 C 2.873,6.533 3.771,6.48 4.31,6.375 5.334,6.148 6.163,5.662 6.802,4.922 7.414,4.178 7.721,3.279 7.721,2.234 7.721,0.692 7.271,-0.538 6.38,-1.451 5.894,-1.969 5.402,-2.328 4.917,-2.535 4.489,-2.719 3.803,-2.877 2.884,-3.037 2.524,-3.078 2.012,-3.121 1.342,-3.146 c -0.66,0 -1.12,-0.012 -1.379,-0.049 0,-0.168 0.006,-0.391 0.016,-0.676 C -0.005,-4.156 0,-4.504 0,-4.916 0.026,-5.307 0.037,-5.623 0.037,-5.908 l 0,-0.731 C 0.063,-7.514 0.09,-8.27 0.116,-8.93 0.138,-9.584 0.169,-10.129 0.19,-10.566 l -4.108,0 c 0,0.078 0,0.179 0.021,0.289 0.01,0.117 0.01,0.248 0.01,0.408 0,0.127 0.011,0.236 0.022,0.338 0.01,0.105 0.02,0.195 0.02,0.273 0.107,1.184 0.159,2.086 0.159,2.725 l 0,3.814 c 0,0.729 -0.005,1.663 -0.021,2.778 -0.011,1.109 -0.026,2.418 -0.053,3.897 0,0.57 -0.011,1.067 -0.026,1.505 -0.017,0.434 -0.037,0.787 -0.059,1.072 l 5.461,0 z"
             style="fill:#6ac6b1;fill-opacity:1;fill-rule:nonzero;stroke:none"
             id="path118" /></g><g
           id="g120"
           transform="translate(308.0908,167.6152)"><path
             d="m 0,0 0,-1.031 c 0,-0.301 -0.011,-0.565 -0.037,-0.766 1.347,0 2.318,0.297 2.931,0.877 0.613,0.586 0.919,1.479 0.919,2.662 0,0.487 -0.042,0.899 -0.117,1.257 C 3.549,3.738 3.248,4.225 2.82,4.467 2.387,4.71 1.869,4.832 1.257,4.832 1.035,4.832 0.818,4.837 0.612,4.848 0.412,4.857 0.206,4.869 0,4.869 L 0,1.943 0,0 z m 4.573,-10.664 -2.851,5.076 -0.766,1.32 c -0.175,0.36 -0.333,0.629 -0.46,0.834 -0.126,0.211 -0.216,0.35 -0.264,0.422 -0.079,0.106 -0.147,0.16 -0.19,0.16 -0.079,0 -0.116,-0.054 -0.116,-0.16 l 0,-0.912 c 0,-0.355 0.016,-0.765 0.037,-1.264 C -0.011,-5.662 0,-6.084 0,-6.455 l 0,-0.94 0,-0.675 c 0.021,-0.332 0.053,-0.719 0.073,-1.151 0.032,-0.424 0.065,-0.904 0.122,-1.443 l -4.034,0 0.036,0.461 c 0,0.205 0.006,0.412 0.022,0.633 0.01,0.211 0.032,0.369 0.057,0.47 0,0.121 0.006,0.301 0.037,0.528 0.075,1.072 0.106,2.699 0.106,4.881 l 0,0.933 0,1.311 c -0.021,0.502 -0.031,0.945 -0.031,1.33 l 0,0.92 c 0,0.57 -0.011,1.33 -0.042,2.238 -0.022,0.92 -0.064,1.996 -0.112,3.232 L 2.165,6.326 C 4.14,6.326 5.481,5.777 5.481,5.777 6.929,4.947 7.657,3.738 7.657,2.164 7.657,1.002 7.319,0.021 6.622,-0.762 5.936,-1.531 5.001,-2.039 3.813,-2.287 4.14,-2.869 4.669,-3.734 5.387,-4.881 6.115,-6.021 7.045,-7.479 8.186,-9.254 l 0.877,-1.41 -4.49,0 z"
             style="fill:#6ac6b1;fill-opacity:1;fill-rule:nonzero;stroke:none"
             id="path122" /></g><g
           id="g124"
           transform="translate(442.4404,184.0801)"><path
             d="m 0,0 -4.616,3.17 c -4.822,0.127 -8.66,1.51 -11.513,4.15 -2.867,2.678 -4.293,6.391 -4.293,11.127 0,4.738 1.695,8.555 5.085,11.471 3.201,2.63 7.13,3.953 11.788,3.953 3.95,0 7.267,-0.969 9.934,-2.91 2.244,-1.576 3.786,-3.42 4.615,-5.529 0.882,-2.02 1.32,-4.286 1.32,-6.789 0,-3.469 -0.966,-6.512 -2.899,-9.157 C 7.446,6.898 4.784,5.049 1.446,3.961 2.683,3.158 4.061,1.791 6.521,0 10.63,-2.988 10.498,-3.094 10.498,-3.094 4.769,-3.21 0,0 0,0 m 3.364,10.615 c 1.231,2.33 1.848,5.272 1.848,8.83 0,1.975 -0.332,3.856 -0.998,5.659 -0.612,1.849 -1.595,3.359 -2.957,4.535 -1.363,1.152 -3.053,1.72 -5.08,1.72 -1.891,0 -3.496,-0.482 -4.812,-1.441 -1.309,-0.928 -2.318,-2.109 -3.026,-3.551 -1.088,-2.254 -1.643,-5.301 -1.643,-9.172 0,-1.007 0.08,-1.965 0.228,-2.861 0.147,-0.908 0.38,-1.791 0.697,-2.672 0.608,-1.723 1.595,-3.142 2.957,-4.283 1.358,-1.094 3.053,-1.638 5.081,-1.638 3.247,0 5.815,1.622 7.705,4.874"
             style="fill:#00b497;fill-opacity:1;fill-rule:nonzero;stroke:none"
             id="path126" /></g></g></g></g></svg>