<?xml version="1.0" encoding="UTF-8" standalone="no"?>
<!-- Created with Inkscape (http://www.inkscape.org/) -->

<svg
   xmlns:dc="http://purl.org/dc/elements/1.1/"
   xmlns:cc="http://creativecommons.org/ns#"
   xmlns:rdf="http://www.w3.org/1999/02/22-rdf-syntax-ns#"
   xmlns:svg="http://www.w3.org/2000/svg"
   xmlns="http://www.w3.org/2000/svg"
   xmlns:sodipodi="http://sodipodi.sourceforge.net/DTD/sodipodi-0.dtd"
   xmlns:inkscape="http://www.inkscape.org/namespaces/inkscape"
   id="svg2"
   version="1.1"
   inkscape:version="0.48.4 r9939"
   width="1488.1875"
   height="1052.3625"
   xml:space="preserve"
   sodipodi:docname="tw_logo-A3.ai"><metadata
     id="metadata8"><rdf:RDF><cc:Work
         rdf:about=""><dc:format>image/svg+xml</dc:format><dc:type
           rdf:resource="http://purl.org/dc/dcmitype/StillImage" /><dc:title></dc:title></cc:Work></rdf:RDF></metadata><defs
     id="defs6"><clipPath
       clipPathUnits="userSpaceOnUse"
       id="clipPath16"><path
         d="m 0,841.89 1190.55,0 L 1190.55,0 0,0 0,841.89 z"
         id="path18" /></clipPath></defs><sodipodi:namedview
     pagecolor="#ffffff"
     bordercolor="#666666"
     borderopacity="1"
     objecttolerance="10"
     gridtolerance="10"
     guidetolerance="10"
     inkscape:pageopacity="0"
     inkscape:pageshadow="2"
     inkscape:window-width="640"
     inkscape:window-height="480"
     id="namedview4"
     showgrid="false"
     inkscape:zoom="0.22241821"
     inkscape:cx="744.09375"
     inkscape:cy="526.18127"
     inkscape:window-x="53"
     inkscape:window-y="24"
     inkscape:window-maximized="0"
     inkscape:current-layer="g10" /><g
     id="g10"
     inkscape:groupmode="layer"
     inkscape:label="tw_logo-A3"
     transform="matrix(1.25,0,0,-1.25,0,1052.3625)"><g
       id="g12"><g
         id="g14"
         clip-path="url(#clipPath16)"><g
           id="g20"
           transform="translate(429.2207,595.0615)"><path
             d="M 0,0 C 64.763,0 121.887,-30.271 155.788,-76.369 123.191,-24.677 65.632,9.687 0,9.687 -65.628,9.687 -123.194,-24.681 -155.777,-76.379 -121.887,-30.288 -64.772,0 0,0"
             style="fill:#00b0df;fill-opacity:1;fill-rule:nonzero;stroke:none"
             id="path22" /></g><g
           id="g24"
           transform="translate(429.2207,246.3604)"><path
             d="M 0,0 C -64.772,0 -121.887,30.28 -155.777,76.379 -123.194,24.687 -65.628,-9.704 0,-9.704 c 65.632,0 123.191,34.377 155.788,86.048 C 121.887,30.28 64.763,0 0,0"
             style="fill:#00b0df;fill-opacity:1;fill-rule:nonzero;stroke:none"
             id="path26" /></g><g
           id="g28"
           transform="translate(429.2207,537.6553)"><path
             d="M 0,0 C 43.118,0 81.308,-18.281 105.478,-46.454 82.713,-12.462 43.98,9.927 0,9.927 -43.974,9.927 -82.706,-12.462 -105.474,-46.454 -81.304,-18.281 -43.114,0 0,0"
             style="fill:#00b0df;fill-opacity:1;fill-rule:nonzero;stroke:none"
             id="path30" /></g><g
           id="g32"
           transform="translate(429.2207,303.7559)"><path
             d="M 0,0 C -43.114,0 -81.304,18.295 -105.474,46.468 -82.706,12.466 -43.974,-9.92 0,-9.92 43.984,-9.92 82.713,12.466 105.478,46.453 81.308,18.295 43.118,0 0,0"
             style="fill:#00b0df;fill-opacity:1;fill-rule:nonzero;stroke:none"
             id="path34" /></g><g
           id="g36"
           transform="translate(429.2207,490.9023)"><path
             d="M 0,0 C 27.275,0 51.337,-12.093 65.705,-30.493 52.23,-8.261 27.895,6.626 0,6.626 -27.891,6.626 -52.245,-8.268 -65.701,-30.517 -51.344,-12.097 -27.286,0 0,0"
             style="fill:#00b0df;fill-opacity:1;fill-rule:nonzero;stroke:none"
             id="path38" /></g><g
           id="g40"
           transform="translate(429.2207,350.5088)"><path
             d="M 0,0 C -27.269,0 -51.344,12.097 -65.701,30.51 -52.245,8.284 -27.891,-6.63 0,-6.63 27.895,-6.63 52.23,8.284 65.705,30.51 51.337,12.097 27.275,0 0,0"
             style="fill:#00b0df;fill-opacity:1;fill-rule:nonzero;stroke:none"
             id="path42" /></g><g
           id="g44"
           transform="translate(429.2207,457.9678)"><path
             d="M 0,0 C 13.475,0 25.533,-4.751 33.922,-12.267 26.229,-1.867 13.919,4.925 0,4.925 -13.909,4.925 -26.239,-1.867 -33.908,-12.246 -25.529,-4.751 -13.453,0 0,0"
             style="fill:#00b0df;fill-opacity:1;fill-rule:nonzero;stroke:none"
             id="path46" /></g><g
           id="g48"
           transform="translate(429.2207,383.4395)"><path
             d="M 0,0 C -13.453,0 -25.529,4.751 -33.908,12.271 -26.239,1.864 -13.909,-4.904 0,-4.904 c 13.919,0 26.229,6.782 33.922,17.175 C 25.533,4.751 13.475,0 0,0"
             style="fill:#00b0df;fill-opacity:1;fill-rule:nonzero;stroke:none"
             id="path50" /></g><g
           id="g52"
           transform="translate(429.2207,436.1221)"><path
             d="M 0,0 C 6.062,0 11.408,-2.247 14.974,-5.673 11.791,-0.775 6.295,2.463 0,2.463 -6.285,2.463 -11.78,-0.775 -14.983,-5.673 -11.395,-2.247 -6.055,0 0,0"
             style="fill:#00b0df;fill-opacity:1;fill-rule:nonzero;stroke:none"
             id="path54" /></g><g
           id="g56"
           transform="translate(429.2207,405.3027)"><path
             d="M 0,0 C -6.055,0 -11.395,2.226 -14.983,5.662 -11.78,0.772 -6.285,-2.497 0,-2.497 c 6.295,0 11.791,3.269 14.974,8.173 C 11.408,2.226 6.062,0 0,0"
             style="fill:#00b0df;fill-opacity:1;fill-rule:nonzero;stroke:none"
             id="path58" /></g><g
           id="g60"
           transform="translate(246.1782,439.666)"><path
             d="m 0,0 10.118,0 0,-3.794 -10.118,0 0,-29.471 c 0,-3.172 0.404,-5.286 1.204,-6.343 0.803,-1.065 2.326,-1.58 4.57,-1.58 0.709,0 2.834,0.132 6.365,0.417 l 0.918,-4.125 c -3.068,-0.347 -5.677,-0.521 -7.791,-0.521 -3.474,0 -6.174,0.432 -8.083,1.294 -1.913,0.855 -3.214,2.038 -3.895,3.534 -0.686,1.495 -1.02,4.034 -1.02,7.645 l 0,29.15 -7.739,0 0,3.794 7.739,0 0,11.534 L 0,14.685 0,0 z"
             style="fill:#3a3f3f;fill-opacity:1;fill-rule:nonzero;stroke:none"
             id="path62" /></g><g
           id="g64"
           transform="translate(282.5977,457.0254)"><path
             d="m 0,0 7.731,0 0,-21.651 c 2.029,1.902 4.48,3.318 7.339,4.229 2.87,0.929 6.181,1.385 9.93,1.385 4.181,0 7.632,-0.578 10.341,-1.75 2.713,-1.169 4.525,-2.564 5.454,-4.167 0.925,-1.603 1.384,-3.864 1.384,-6.778 l 0,-33.001 -8.153,0 0,31.421 c 0,2.689 -0.222,4.64 -0.657,5.861 -0.442,1.207 -1.489,2.212 -3.14,3.009 -1.646,0.789 -3.691,1.189 -6.105,1.189 -3.224,0 -6.223,-0.633 -9.025,-1.913 -2.8,-1.272 -4.724,-2.946 -5.782,-4.994 -1.06,-2.06 -1.586,-4.981 -1.586,-8.769 l 0,-25.804 -7.731,0 L 0,0 z"
             style="fill:#3a3f3f;fill-opacity:1;fill-rule:nonzero;stroke:none"
             id="path66" /></g><g
           id="g68"
           transform="translate(356.3647,440.0039)"><path
             d="m 0,0 7.029,0 0,-8.41 c 1.659,3.151 3.656,5.509 6.004,7.06 2.361,1.558 5.064,2.334 8.096,2.334 3.896,0 7.266,-0.716 10.087,-2.146 L 28.02,-5.655 c -2.855,0.674 -5.134,1.011 -6.828,1.011 -2.636,0 -5.172,-0.782 -7.6,-2.347 -2.438,-1.576 -4.017,-3.704 -4.758,-6.424 -0.737,-2.713 -1.102,-6.105 -1.102,-10.17 l 0,-21.127 -7.732,0 L 0,0 z"
             style="fill:#3a3f3f;fill-opacity:1;fill-rule:nonzero;stroke:none"
             id="path70" /></g><g
           id="g72"
           transform="translate(475.7129,440.0039)"><path
             d="m 0,0 8.017,0 0,-32.329 c 0,-2.657 0.202,-4.445 0.601,-5.363 0.404,-0.933 1.364,-1.795 2.902,-2.602 1.533,-0.779 3.595,-1.183 6.18,-1.183 4.139,0 7.665,0.793 10.584,2.386 2.918,1.593 4.698,3.395 5.335,5.433 0.648,2.031 0.974,4.884 0.974,8.55 l 0,25.108 7.732,0 0,-44.712 -7.732,0 0,4.293 c -1.947,-1.754 -4.351,-3.075 -7.182,-3.951 -2.842,-0.877 -6.125,-1.329 -9.847,-1.329 -4.385,0 -7.933,0.563 -10.612,1.69 -2.681,1.127 -4.511,2.526 -5.481,4.223 C 0.49,-38.089 0,-35.717 0,-32.685 L 0,0 z"
             style="fill:#3a3f3f;fill-opacity:1;fill-rule:nonzero;stroke:none"
             id="path74" /></g><g
           id="g76"
           transform="translate(584.209,434.6123)"><path
             d="m 0,0 c -2.156,2.584 -4.56,4.292 -7.203,5.127 -2.644,0.835 -5.579,1.249 -8.8,1.249 -4.796,0 -8.845,-0.891 -12.125,-2.675 -3.286,-1.788 -5.683,-4.278 -7.234,-7.488 -1.544,-3.214 -2.31,-7.704 -2.31,-13.471 0,-5.193 0.644,-9.394 1.944,-12.58 1.298,-3.2 3.608,-5.732 6.929,-7.632 3.336,-1.884 7.402,-2.838 12.197,-2.838 3.483,0 6.557,0.522 9.252,1.559 2.682,1.022 4.992,2.595 6.929,4.716 l 0,-7.631 c 0,-4.564 -1.321,-7.631 -3.978,-9.21 -2.665,-1.572 -5.973,-2.365 -9.938,-2.365 -3.603,0 -6.636,0.605 -9.099,1.829 -2.469,1.231 -3.752,2.922 -3.843,5.099 l -7.861,0.661 c 0.47,-7.868 7.753,-11.805 21.826,-11.805 6.153,0 11.178,1.176 15.067,3.534 3.895,2.365 5.847,6.984 5.847,13.843 l 0,45.47 -7.6,0 L 0,0 z m -25.661,-1.526 c 2.674,2.646 6.173,3.971 10.5,3.971 4.633,0 8.285,-1.495 10.98,-4.459 2.7,-2.984 4.045,-7.599 4.045,-13.856 0,-8.056 -1.408,-13.44 -4.243,-16.152 -2.817,-2.713 -6.539,-4.063 -11.119,-4.063 -4.856,0 -8.435,1.488 -10.724,4.459 -2.299,2.97 -3.439,7.659 -3.439,14.041 0,8.069 1.332,13.422 4,16.059"
             style="fill:#3a3f3f;fill-opacity:1;fill-rule:nonzero;stroke:none"
             id="path78" /></g><g
           id="g80"
           transform="translate(624.5098,457.0254)"><path
             d="m 0,0 7.735,0 0,-21.651 c 2.032,1.902 4.48,3.318 7.346,4.229 2.859,0.929 6.177,1.385 9.92,1.385 4.187,0 7.624,-0.578 10.337,-1.75 2.713,-1.169 4.535,-2.564 5.468,-4.167 0.918,-1.603 1.383,-3.864 1.383,-6.778 l 0,-33.001 -8.152,0 0,31.421 c 0,2.689 -0.229,4.64 -0.661,5.861 -0.438,1.207 -1.488,2.212 -3.138,3.009 -1.648,0.789 -3.693,1.189 -6.121,1.189 -3.214,0 -6.212,-0.633 -9.015,-1.913 -2.789,-1.272 -4.723,-2.946 -5.781,-4.994 -1.057,-2.06 -1.586,-4.981 -1.586,-8.769 l 0,-25.804 -7.735,0 L 0,0 z"
             style="fill:#3a3f3f;fill-opacity:1;fill-rule:nonzero;stroke:none"
             id="path82" /></g><g
           id="g84"
           transform="translate(689.1475,440.0039)"><path
             d="M 0,0 7.422,0 17.779,-36.976 33.139,0 41.938,0 56.456,-36.636 67.719,0 74.946,0 61.2,-44.712 l -8.883,0 -14.858,37.899 -16.048,-37.899 -8.737,0 L 0,0 z"
             style="fill:#3a3f3f;fill-opacity:1;fill-rule:nonzero;stroke:none"
             id="path86" /></g><g
           id="g88"
           transform="translate(799.5488,435.3535)"><path
             d="m 0,0 c 2.095,1.13 4.654,1.704 7.694,1.704 2.72,0 4.952,-0.421 6.658,-1.266 1.731,-0.831 2.795,-1.864 3.241,-3.071 0.431,-1.214 0.654,-3.328 0.654,-6.327 l 0,-2.98 c -2.63,-1.058 -6.442,-2.112 -11.416,-3.169 -7.435,-1.582 -12.611,-3.367 -15.519,-5.335 -2.943,-1.99 -4.417,-4.758 -4.417,-8.321 0,-3.477 1.523,-6.392 4.577,-8.757 3.04,-2.351 7.332,-3.527 12.904,-3.527 6.351,0 11.339,1.733 15.012,5.203 0.445,-1.565 1.238,-2.956 2.379,-4.216 l 8.152,0 c -1.864,2.512 -3.019,4.488 -3.437,5.92 -0.417,1.434 -0.639,3.604 -0.639,6.519 l 0,17.324 c 0,4.626 -0.446,7.858 -1.294,9.722 -0.856,1.843 -2.637,3.339 -5.37,4.493 -2.727,1.145 -6.567,1.719 -11.485,1.719 -11.902,0 -18.483,-4.025 -19.818,-12.063 l 7.596,-0.723 C -3.609,-3.52 -2.094,-1.134 0,0 m 17.453,-28.799 c -0.444,-2.171 -1.822,-4.007 -4.173,-5.503 -2.324,-1.495 -4.946,-2.239 -7.875,-2.239 -2.893,0 -5.356,0.772 -7.415,2.303 -2.073,1.537 -3.075,3.499 -3.075,5.878 0,2.51 1.086,4.417 3.276,5.738 2.143,1.28 5.913,2.595 11.339,3.959 3.402,0.834 6.324,1.669 8.717,2.504 -0.098,-6.254 -0.355,-10.455 -0.794,-12.64"
             style="fill:#3a3f3f;fill-opacity:1;fill-rule:nonzero;stroke:none"
             id="path90" /></g><g
           id="g92"
           transform="translate(847.1016,440.0039)"><path
             d="M 0,0 7.722,0 26.148,-37.038 44.854,0 52.29,0 29.738,-44.712 l -7.485,0 L 0,0 z"
             style="fill:#3a3f3f;fill-opacity:1;fill-rule:nonzero;stroke:none"
             id="path94" /></g><g
           id="g96"
           transform="translate(940.3223,398.5273)"><path
             d="m 0,0 c -4.897,0 -8.459,1.412 -10.685,4.223 -2.226,2.817 -3.422,7.547 -3.603,14.197 l 34.169,0 0,3.965 c 0,6.688 -1.753,11.704 -5.287,15.053 -3.533,3.353 -8.834,5.023 -15.93,5.023 -6.838,0 -12.061,-1.75 -15.679,-5.245 -3.617,-3.499 -5.425,-9.252 -5.425,-17.266 0,-6.163 0.953,-11.018 2.844,-14.566 1.9,-3.541 4.432,-6.024 7.575,-7.457 3.159,-1.433 7.124,-2.15 11.938,-2.15 12.159,0 18.816,4.925 19.964,14.769 l -7.582,0.807 C 11.506,3.784 7.388,0 0,0 m -14.288,22.785 c 0.236,6.522 1.517,10.727 3.882,12.622 2.372,1.896 5.439,2.838 9.21,2.838 4.368,0 7.644,-1.064 9.815,-3.168 2.163,-2.112 3.255,-5.269 3.255,-9.489 0,-0.914 -0.049,-1.85 -0.152,-2.803 l -26.01,0 z"
             style="fill:#3a3f3f;fill-opacity:1;fill-rule:nonzero;stroke:none"
             id="path98" /></g></g></g></g></svg>