<?xml version="1.0" encoding="UTF-8" standalone="no"?>
<!-- Created with Inkscape (http://www.inkscape.org/) -->

<svg
   xmlns:dc="http://purl.org/dc/elements/1.1/"
   xmlns:cc="http://creativecommons.org/ns#"
   xmlns:rdf="http://www.w3.org/1999/02/22-rdf-syntax-ns#"
   xmlns:svg="http://www.w3.org/2000/svg"
   xmlns="http://www.w3.org/2000/svg"
   xmlns:sodipodi="http://sodipodi.sourceforge.net/DTD/sodipodi-0.dtd"
   xmlns:inkscape="http://www.inkscape.org/namespaces/inkscape"
   id="svg2"
   version="1.1"
   inkscape:version="0.48.4 r9939"
   width="810"
   height="720"
   xml:space="preserve"
   sodipodi:docname="yannix_thailand_logo.ai"><metadata
     id="metadata8"><rdf:RDF><cc:Work
         rdf:about=""><dc:format>image/svg+xml</dc:format><dc:type
           rdf:resource="http://purl.org/dc/dcmitype/StillImage" /><dc:title></dc:title></cc:Work></rdf:RDF></metadata><defs
     id="defs6"><clipPath
       clipPathUnits="userSpaceOnUse"
       id="clipPath36"><path
         d="M 0,576 648,576 648,0 0,0 0,576 z"
         id="path38" /></clipPath><clipPath
       clipPathUnits="userSpaceOnUse"
       id="clipPath52"><path
         d="m 452.006,281.885 0,-3.786 6.923,0.114 -19.194,-47.018 6.714,0 16.029,39.401 18.352,-39.401 10.419,0 -22.111,50.69 -17.132,0 z"
         id="path54" /></clipPath><linearGradient
       x1="0"
       y1="0"
       x2="1"
       y2="0"
       gradientUnits="userSpaceOnUse"
       gradientTransform="matrix(0,50.690716,50.690716,0,465.49188,231.19449)"
       spreadMethod="pad"
       id="linearGradient60"><stop
         style="stop-opacity:1;stop-color:#ffffff"
         offset="0"
         id="stop62" /><stop
         style="stop-opacity:1;stop-color:#373535"
         offset="1"
         id="stop64" /></linearGradient><clipPath
       clipPathUnits="userSpaceOnUse"
       id="clipPath72"><path
         d="m 300.878,268.233 0,-8.559 -5.735,-0.05 -47.343,-11.626 0,32.497 -0.192,2.859 -12.596,-0.125 0.282,-49.035 15.725,0.017 49.859,14.46 0,-15.805 -23.404,-23.121 38.455,20.145 -0.152,24.381 15.062,3.354 0,2.314 -15.097,-0.133 -0.147,23.45 -15.095,0.098 0.378,-15.121 z"
         id="path74" /></clipPath><linearGradient
       x1="0"
       y1="0"
       x2="1"
       y2="0"
       gradientUnits="userSpaceOnUse"
       gradientTransform="matrix(0,73.609055,73.609055,0,282.92532,209.74513)"
       spreadMethod="pad"
       id="linearGradient80"><stop
         style="stop-opacity:1;stop-color:#ffffff"
         offset="0"
         id="stop82" /><stop
         style="stop-opacity:1;stop-color:#373535"
         offset="1"
         id="stop84" /></linearGradient><clipPath
       clipPathUnits="userSpaceOnUse"
       id="clipPath92"><path
         d="m 136.625,281.885 0,-3.628 56.768,-0.315 -0.456,-44.644 14.138,0 0,48.587 -70.45,0 z"
         id="path94" /></clipPath><linearGradient
       x1="0"
       y1="0"
       x2="1"
       y2="0"
       gradientUnits="userSpaceOnUse"
       gradientTransform="matrix(0,48.587418,48.587418,0,171.85025,233.29778)"
       spreadMethod="pad"
       id="linearGradient100"><stop
         style="stop-opacity:1;stop-color:#ffffff"
         offset="0"
         id="stop102" /><stop
         style="stop-opacity:1;stop-color:#373535"
         offset="1"
         id="stop104" /></linearGradient><clipPath
       clipPathUnits="userSpaceOnUse"
       id="clipPath112"><path
         d="m 530.311,281.623 -4.162,-4.131 -4.162,4.131 -20.127,0 0,-3.787 15.585,0 28.625,-22.085 -29.261,-19.876 -18.447,0 0,-4.417 18.447,0 5.407,0 72.535,0 0,0.051 6.714,-0.314 -35.675,27.712 17.329,13.905 -11.201,0 -13.157,-9.409 -23.823,18.22 -4.627,0 z m 20.53,-29.342 22.054,-16.406 -44.607,0 22.553,16.406 z"
         id="path114" /></clipPath><linearGradient
       x1="0"
       y1="0"
       x2="1"
       y2="0"
       gradientUnits="userSpaceOnUse"
       gradientTransform="matrix(0,50.427895,50.427895,0,549.91364,231.19449)"
       spreadMethod="pad"
       id="linearGradient120"><stop
         style="stop-opacity:1;stop-color:#ffffff"
         offset="0"
         id="stop122" /><stop
         style="stop-opacity:1;stop-color:#373535"
         offset="1"
         id="stop124" /></linearGradient><clipPath
       clipPathUnits="userSpaceOnUse"
       id="clipPath132"><path
         d="m 594.765,286.106 -9.4,0.288 -7.564,-8.841 21.804,0 4.473,5.421 9.811,0 6.765,8.198 -21.004,0.643 -4.885,-5.709 z"
         id="path134" /></clipPath><linearGradient
       x1="0"
       y1="0"
       x2="1"
       y2="0"
       gradientUnits="userSpaceOnUse"
       gradientTransform="matrix(0,14.262302,14.262302,0,599.22711,277.55307)"
       spreadMethod="pad"
       id="linearGradient140"><stop
         style="stop-opacity:1;stop-color:#ffffff"
         offset="0"
         id="stop142" /><stop
         style="stop-opacity:1;stop-color:#373535"
         offset="1"
         id="stop144" /></linearGradient><clipPath
       clipPathUnits="userSpaceOnUse"
       id="clipPath152"><path
         d="m 301.954,181.814 c 0,-10.522 6.497,-19.461 15.549,-22.752 l 0,0 c 0.006,0.019 0.012,0.039 0.019,0.058 l 0,0 c -5.982,2.97 -10.114,9.306 -10.114,16.648 l 0,0 c 0,10.188 7.955,18.447 17.767,18.447 l 0,0 c 9.814,0 17.769,-8.259 17.769,-18.447 l 0,0 c 0,-7.289 -4.074,-13.585 -9.984,-16.581 l 0,0 c 0.01,-0.025 0.02,-0.049 0.032,-0.073 l 0,0 c 8.977,3.331 15.405,12.234 15.405,22.7 l 0,0 c 0,13.316 -10.397,24.11 -23.222,24.11 l 0,0 c -12.824,0 -23.221,-10.794 -23.221,-24.11"
         id="path154" /></clipPath><linearGradient
       x1="0"
       y1="0"
       x2="1"
       y2="0"
       gradientUnits="userSpaceOnUse"
       gradientTransform="matrix(0,46.861278,46.861278,0,325.17557,159.06216)"
       spreadMethod="pad"
       id="linearGradient160"><stop
         style="stop-opacity:1;stop-color:#ffffff"
         offset="0"
         id="stop162" /><stop
         style="stop-opacity:1;stop-color:#373535"
         offset="1"
         id="stop164" /></linearGradient><clipPath
       clipPathUnits="userSpaceOnUse"
       id="clipPath172"><path
         d="m 98.107,283.384 -0.273,-0.229 0,-44.685 -25.316,0 0,24.695 -18.601,16.771 6.982,0 0,3.448 -10.806,0 -14.682,0 0,-3.448 0.173,0 23.018,-21.162 1.216,-24.608 18.84,0 31.605,0.315 0,48.903 -12.156,0 z"
         id="path174" /></clipPath><linearGradient
       x1="0"
       y1="0"
       x2="1"
       y2="0"
       gradientUnits="userSpaceOnUse"
       gradientTransform="matrix(0,49.2183,49.2183,0,72.836426,234.16541)"
       spreadMethod="pad"
       id="linearGradient180"><stop
         style="stop-opacity:1;stop-color:#ffffff"
         offset="0"
         id="stop182" /><stop
         style="stop-opacity:1;stop-color:#373535"
         offset="1"
         id="stop184" /></linearGradient><clipPath
       clipPathUnits="userSpaceOnUse"
       id="clipPath192"><path
         d="m 397.755,281.965 32.041,0 9.939,7.044 -30.864,0.553 -11.116,-7.597 z"
         id="path194" /></clipPath><linearGradient
       x1="0"
       y1="0"
       x2="1"
       y2="0"
       gradientUnits="userSpaceOnUse"
       gradientTransform="matrix(0,7.5970106,7.5970106,0,418.74503,281.96555)"
       spreadMethod="pad"
       id="linearGradient200"><stop
         style="stop-opacity:1;stop-color:#ffffff"
         offset="0"
         id="stop202" /><stop
         style="stop-opacity:1;stop-color:#373535"
         offset="1"
         id="stop204" /></linearGradient><clipPath
       clipPathUnits="userSpaceOnUse"
       id="clipPath212"><path
         d="m 333.99,283.256 -0.327,-53.366 37.758,-20.145 -22.98,23.121 0,0.292 1.703,0 51.259,14.868 0,-13.545 12.578,0 0,18.532 15.984,3.561 0,2.314 -15.984,-0.142 0,14.762 -12.578,0 0,-14.873 -7.135,-0.063 -45.827,-11.253 0,20.914 0.393,15.023 -14.844,0 z"
         id="path214" /></clipPath><linearGradient
       x1="0"
       y1="0"
       x2="1"
       y2="0"
       gradientUnits="userSpaceOnUse"
       gradientTransform="matrix(0,73.510818,73.510818,0,381.81393,209.74513)"
       spreadMethod="pad"
       id="linearGradient220"><stop
         style="stop-opacity:1;stop-color:#ffffff"
         offset="0"
         id="stop222" /><stop
         style="stop-opacity:1;stop-color:#373535"
         offset="1"
         id="stop224" /></linearGradient><clipPath
       clipPathUnits="userSpaceOnUse"
       id="clipPath232"><path
         d="m 19.216,299.396 614.657,0 0,2.492 -614.657,0 0,-2.492 z"
         id="path234" /></clipPath><linearGradient
       x1="0"
       y1="0"
       x2="1"
       y2="0"
       gradientUnits="userSpaceOnUse"
       gradientTransform="matrix(0,2.4912627,2.4912627,0,326.54428,299.39624)"
       spreadMethod="pad"
       id="linearGradient240"><stop
         style="stop-opacity:1;stop-color:#ffffff"
         offset="0"
         id="stop242" /><stop
         style="stop-opacity:1;stop-color:#373535"
         offset="1"
         id="stop244" /></linearGradient><clipPath
       clipPathUnits="userSpaceOnUse"
       id="clipPath252"><path
         d="M 0,576 648,576 648,0 0,0 0,576 z"
         id="path254" /></clipPath></defs><sodipodi:namedview
     pagecolor="#ffffff"
     bordercolor="#666666"
     borderopacity="1"
     objecttolerance="10"
     gridtolerance="10"
     guidetolerance="10"
     inkscape:pageopacity="0"
     inkscape:pageshadow="2"
     inkscape:window-width="640"
     inkscape:window-height="480"
     id="namedview4"
     showgrid="false"
     inkscape:zoom="0.32777778"
     inkscape:cx="405"
     inkscape:cy="360"
     inkscape:window-x="53"
     inkscape:window-y="24"
     inkscape:window-maximized="0"
     inkscape:current-layer="g10" /><g
     id="g10"
     inkscape:groupmode="layer"
     inkscape:label="yannix_thailand_logo"
     transform="matrix(1.25,0,0,-1.25,0,720)"><g
       id="g12"
       transform="translate(80.9617,336.9083)"><path
         d="m 0,0 -23.978,20.823 -30.764,0 0,-3.155 10.572,0 29.026,-21.454 1.262,-24.609 19.561,0 0.631,22.085 32.181,27.133 -12.62,0 L 0,0 z"
         style="fill:#373535;fill-opacity:1;fill-rule:nonzero;stroke:none"
         id="path14" /></g><g
       id="g16"
       transform="translate(145.3243,359.2039)"><path
         d="m 0,0 0,-3.786 12.83,-0.841 20.193,-23.979 -37.65,0 -17.669,-22.085 12.2,0 11.989,15.144 37.86,-1.169 12.62,-13.975 18.931,0 L 31.13,0 0,0 z"
         style="fill:#373535;fill-opacity:1;fill-rule:nonzero;stroke:none"
         id="path18" /></g><g
       id="g20"
       transform="translate(302.085,356.4695)"><path
         d="M 0,0 0,-32.497 -43.811,-0.315 -83.564,0 l 0,-2.314 17.878,-3.575 0,-42.067 12.2,0 0,37.544 L -3.585,-46.284 13.926,-46.3 14.242,2.734 -22.146,21.244 0,0 z"
         style="fill:#373535;fill-opacity:1;fill-rule:nonzero;stroke:none"
         id="path22" /></g><g
       id="g24"
       transform="translate(443.159,353.4722)"><path
         d="m 0,0 15.46,-0.316 -0.631,-44.643 19.561,0 0,48.587 L 0,3.628 0,0 z"
         style="fill:#373535;fill-opacity:1;fill-rule:nonzero;stroke:none"
         id="path26" /></g><g
       id="g28"
       transform="translate(566.8361,335.9618)"><path
         d="m 0,0 28.08,22.716 -9.781,0 -25.272,-18.219 -23.631,18.219 -32.812,0 0,-3.786 15.46,0 28.395,-22.085 -29.026,-19.877 -18.3,0 0,-4.417 23.663,0 28.395,20.823 L 8.834,-24.609 32.812,-25.556 0,0 z"
         style="fill:#373535;fill-opacity:1;fill-rule:nonzero;stroke:none"
         id="path30" /></g><g
       id="g32"><g
         id="g34"
         clip-path="url(#clipPath36)"><g
           id="g40"
           transform="translate(349.0997,396.6172)"><path
             d="m 0,0 c 0,10.775 -6.906,19.929 -16.531,23.299 -0.007,-0.02 -0.012,-0.04 -0.02,-0.06 6.359,-3.04 10.754,-9.529 10.754,-17.047 0,-10.433 -8.458,-18.891 -18.891,-18.891 -10.433,0 -18.891,8.458 -18.891,18.891 0,7.464 4.332,13.912 10.616,16.98 -0.012,0.025 -0.023,0.05 -0.035,0.075 C -42.543,19.834 -49.376,10.718 -49.376,0 c 0,-13.635 11.053,-24.688 24.688,-24.688 C -11.053,-24.688 0,-13.635 0,0"
             style="fill:#373535;fill-opacity:1;fill-rule:nonzero;stroke:none"
             id="path42" /></g><g
           id="g44"
           transform="translate(348.2471,323.9727)"><path
             d="m 0,0 0,32.497 21.913,21.244 -36.005,-18.51 0.312,-49.034 17.327,0.015 49.376,35.873 0,-37.545 12.071,0 0,42.067 17.69,3.576 0,2.314 L 43.349,32.181 0,0 z"
             style="fill:#373535;fill-opacity:1;fill-rule:nonzero;stroke:none"
             id="path46" /></g></g></g><g
       id="g48"><g
         id="g50"
         clip-path="url(#clipPath52)"><g
           id="g56"><g
             id="g58"><path
               d="m 452.006,281.885 0,-3.786 6.923,0.114 -19.194,-47.018 6.714,0 16.029,39.401 18.352,-39.401 10.419,0 -22.111,50.69 -17.132,0 z"
               style="fill:url(#linearGradient60);stroke:none"
               id="path66" /></g></g></g></g><g
       id="g68"><g
         id="g70"
         clip-path="url(#clipPath72)"><g
           id="g76"><g
             id="g78"><path
               d="m 300.878,268.233 0,-8.559 -5.735,-0.05 -47.343,-11.626 0,32.497 -0.192,2.859 -12.596,-0.125 0.282,-49.035 15.725,0.017 49.859,14.46 0,-15.805 -23.404,-23.121 38.455,20.145 -0.152,24.381 15.062,3.354 0,2.314 -15.097,-0.133 -0.147,23.45 -15.095,0.098 0.378,-15.121 z"
               style="fill:url(#linearGradient80);stroke:none"
               id="path86" /></g></g></g></g><g
       id="g88"><g
         id="g90"
         clip-path="url(#clipPath92)"><g
           id="g96"><g
             id="g98"><path
               d="m 136.625,281.885 0,-3.628 56.768,-0.315 -0.456,-44.644 14.138,0 0,48.587 -70.45,0 z"
               style="fill:url(#linearGradient100);stroke:none"
               id="path106" /></g></g></g></g><g
       id="g108"><g
         id="g110"
         clip-path="url(#clipPath112)"><g
           id="g116"><g
             id="g118"><path
               d="m 530.311,281.623 -4.162,-4.131 -4.162,4.131 -20.127,0 0,-3.787 15.585,0 28.625,-22.085 -29.261,-19.876 -18.447,0 0,-4.417 18.447,0 5.407,0 72.535,0 0,0.051 6.714,-0.314 -35.675,27.712 17.329,13.905 -11.201,0 -13.157,-9.409 -23.823,18.22 -4.627,0 z m 20.53,-29.342 22.054,-16.406 -44.607,0 22.553,16.406 z"
               style="fill:url(#linearGradient120);stroke:none"
               id="path126" /></g></g></g></g><g
       id="g128"><g
         id="g130"
         clip-path="url(#clipPath132)"><g
           id="g136"><g
             id="g138"><path
               d="m 594.765,286.106 -9.4,0.288 -7.564,-8.841 21.804,0 4.473,5.421 9.811,0 6.765,8.198 -21.004,0.643 -4.885,-5.709 z"
               style="fill:url(#linearGradient140);stroke:none"
               id="path146" /></g></g></g></g><g
       id="g148"><g
         id="g150"
         clip-path="url(#clipPath152)"><g
           id="g156"><g
             id="g158"><path
               d="m 301.954,181.814 c 0,-10.522 6.497,-19.461 15.549,-22.752 l 0,0 c 0.006,0.019 0.012,0.039 0.019,0.058 l 0,0 c -5.982,2.97 -10.114,9.306 -10.114,16.648 l 0,0 c 0,10.188 7.955,18.447 17.767,18.447 l 0,0 c 9.814,0 17.769,-8.259 17.769,-18.447 l 0,0 c 0,-7.289 -4.074,-13.585 -9.984,-16.581 l 0,0 c 0.01,-0.025 0.02,-0.049 0.032,-0.073 l 0,0 c 8.977,3.331 15.405,12.234 15.405,22.7 l 0,0 c 0,13.316 -10.397,24.11 -23.222,24.11 l 0,0 c -12.824,0 -23.221,-10.794 -23.221,-24.11"
               style="fill:url(#linearGradient160);stroke:none"
               id="path166" /></g></g></g></g><g
       id="g168"><g
         id="g170"
         clip-path="url(#clipPath172)"><g
           id="g176"><g
             id="g178"><path
               d="m 98.107,283.384 -0.273,-0.229 0,-44.685 -25.316,0 0,24.695 -18.601,16.771 6.982,0 0,3.448 -10.806,0 -14.682,0 0,-3.448 0.173,0 23.018,-21.162 1.216,-24.608 18.84,0 31.605,0.315 0,48.903 -12.156,0 z"
               style="fill:url(#linearGradient180);stroke:none"
               id="path186" /></g></g></g></g><g
       id="g188"><g
         id="g190"
         clip-path="url(#clipPath192)"><g
           id="g196"><g
             id="g198"><path
               d="m 397.755,281.965 32.041,0 9.939,7.044 -30.864,0.553 -11.116,-7.597 z"
               style="fill:url(#linearGradient200);stroke:none"
               id="path206" /></g></g></g></g><g
       id="g208"><g
         id="g210"
         clip-path="url(#clipPath212)"><g
           id="g216"><g
             id="g218"><path
               d="m 333.99,283.256 -0.327,-53.366 37.758,-20.145 -22.98,23.121 0,0.292 1.703,0 51.259,14.868 0,-13.545 12.578,0 0,18.532 15.984,3.561 0,2.314 -15.984,-0.142 0,14.762 -12.578,0 0,-14.873 -7.135,-0.063 -45.827,-11.253 0,20.914 0.393,15.023 -14.844,0 z"
               style="fill:url(#linearGradient220);stroke:none"
               id="path226" /></g></g></g></g><g
       id="g228"><g
         id="g230"
         clip-path="url(#clipPath232)"><g
           id="g236"><g
             id="g238"><path
               d="m 19.216,299.396 614.657,0 0,2.492 -614.657,0 0,-2.492 z"
               style="fill:url(#linearGradient240);stroke:none"
               id="path246" /></g></g></g></g><g
       id="g248"><g
         id="g250"
         clip-path="url(#clipPath252)"><g
           id="g256"
           transform="translate(431.5491,189.9836)"><path
             d="m 0,0 0,10.079 0,0 c -0.001,0.027 -0.039,1.053 -3.017,1.053 l -2.125,-0.003 0,-1.623 c 0,0 1.321,0.117 2.125,-0.054 l 0,-10.077 c 0,0 0,-1.055 3.017,-1.055 l 2.125,0.002 0,1.623 C 2.125,-0.055 0.804,-0.171 0,0"
             style="fill:#373535;fill-opacity:1;fill-rule:nonzero;stroke:none"
             id="path258" /></g><g
           id="g260"
           transform="translate(452.9608,189.9725)"><path
             d="m 0,0 0,11.158 -3.22,0 0,-0.003 -0.019,0.006 -7.738,-8.752 0,7.694 c 0,0 0,1.058 -3.221,1.058 l -2.268,-0.003 0,-1.627 c 0,0 1.41,0.117 2.268,-0.055 l 0,-11.161 3.221,0 0,0.019 0.033,-0.011 7.724,8.735 0,-7.687 0,0 C -3.219,-0.656 -3.178,-1.685 0,-1.685 l 2.269,0.003 0,1.627 C 2.269,-0.055 0.858,-0.171 0,0"
             style="fill:#373535;fill-opacity:1;fill-rule:nonzero;stroke:none"
             id="path262" /></g><g
           id="g264"
           transform="translate(395.3964,206.4355)"><path
             d="m 0,0 0,0 0,-5.338 0,-8.346 0,-2.721 -7.268,0 0,10.017 c 0,0 0,1.052 -3.016,1.052 l -2.126,-0.002 0,-1.619 c 0,0 1.322,0.116 2.126,-0.054 l 0,-9.394 0,-1.709 0,-0.042 12.409,0 0,0.08 c 0.265,-0.023 0.557,-0.038 0.891,-0.038 l 2.126,0.003 0,1.618 c 0,0 -1.322,-0.116 -2.126,0.055 l 0,2.754 0,8.346 0,4.608 c 0.804,0.199 2.126,0.063 2.126,0.063 l 0,1.89 -2.126,0.002 C 0.039,1.225 0,0.031 0,0"
             style="fill:#373535;fill-opacity:1;fill-rule:nonzero;stroke:none"
             id="path266" /></g><g
           id="g268"
           transform="translate(403.5024,199.9426)"><path
             d="m 0,0 -0.029,0 0,-1.67 0.013,0 0,-1.397 0.029,0 C 0.104,-3.369 0.516,-4.06 2.439,-4.06 l 1.247,10e-4 0,-5.899 c -0.774,-0.171 -2.045,-0.054 -2.045,-0.054 l 0,-1.623 2.045,-0.003 c 2.903,0 2.903,1.055 2.903,1.055 l 0,6.526 0,0.48 0,1.267 c 0,0 -3.091,-0.065 -3.698,-0.005 l 0,0.954 -0.013,0 0,0.625 c 0.606,0.058 9.205,-0.005 9.205,-0.005 l 0,1.71 -9.657,0.003 C 0.502,0.972 0.09,0.296 0,0"
             style="fill:#373535;fill-opacity:1;fill-rule:nonzero;stroke:none"
             id="path270" /></g><g
           id="g272"
           transform="translate(420.455,198.0156)"><path
             d="m 0,0 0,0.954 -2.604,0 0,-1.706 0.026,0 c 0.081,-0.302 0.45,-0.993 2.173,-0.993 l 3.717,0.003 0,1.747 C 3.312,0.005 0.543,-0.059 0,0"
             style="fill:#373535;fill-opacity:1;fill-rule:nonzero;stroke:none"
             id="path274" /></g><g
           id="g276"
           transform="translate(420.455,191.1382)"><path
             d="m 0,0 0,0.954 -2.604,0 0,-1.706 0.026,0 c 0.081,-0.302 0.45,-0.993 2.173,-0.993 l 3.717,0.003 0,1.747 C 3.312,0.005 0.543,-0.059 0,0"
             style="fill:#373535;fill-opacity:1;fill-rule:nonzero;stroke:none"
             id="path278" /></g><g
           id="g280"
           transform="translate(485.458,189.7892)"><path
             d="m 0,0 0,17.611 0,0 c -0.001,0.027 -0.04,1.053 -3.017,1.053 l -8.077,-0.003 0,-1.623 c 0,0 6.279,0.139 8.077,-0.109 l 0,-17.687 0.035,0 C -2.868,-1.04 -2.352,-1.68 0,-1.68 l 2.125,0.002 0,1.623 C 2.125,-0.055 0.804,-0.171 0,0"
             style="fill:#373535;fill-opacity:1;fill-rule:nonzero;stroke:none"
             id="path282" /></g><g
           id="g284"
           transform="translate(505.0591,189.7769)"><path
             d="m 0,0 0,11.158 -3.22,0 0,-0.003 -0.019,0.006 -7.738,-8.752 0,7.694 c 0,0 0,1.058 -3.221,1.058 l -2.268,-0.003 0,-1.627 c 0,0 1.41,0.117 2.268,-0.055 l 0,-11.16 3.221,0 0,0.018 0.033,-0.011 7.724,8.735 0,-7.687 0,0 C -3.219,-0.656 -3.178,-1.684 0,-1.684 l 2.269,0.002 0,1.627 C 2.269,-0.055 0.858,-0.171 0,0"
             style="fill:#373535;fill-opacity:1;fill-rule:nonzero;stroke:none"
             id="path286" /></g><g
           id="g288"
           transform="translate(471.2226,203.9182)"><path
             d="m 0,0 0,-2.747 -10.284,0 0,-0.07 0,-1.855 0,-9.245 c -0.804,-0.171 -2.125,-0.055 -2.125,-0.055 l 0,-1.618 2.125,-0.003 c 2.977,0 3.016,1.023 3.016,1.05 l 10e-4,0 0,4.919 c 0.927,0.015 2.164,0.025 2.521,-0.014 l 0,-1.041 2.838,0 0,1.86 -0.029,0 c -0.088,0.329 -0.49,1.082 -2.368,1.082 l -2.962,-0.002 0,3.067 7.267,0 0,-10.967 3.017,0 0,15.016 c 0.804,0.17 2.125,0.054 2.125,0.054 l 0,1.619 -2.125,0.003 C 0,1.053 0,0 0,0"
             style="fill:#373535;fill-opacity:1;fill-rule:nonzero;stroke:none"
             id="path290" /></g><g
           id="g292"
           transform="translate(522.6016,190.0123)"><path
             d="m 0,0 -7.267,0 0,4.313 4.042,0 0,1.824 -4.042,0 0,3.304 c 0.804,0.17 2.125,0.054 2.125,0.054 l 0,1.619 -2.125,0.002 c -2.352,0 -2.869,-0.638 -2.983,-0.92 l -0.034,0 0,-10.403 c -0.804,-0.17 -2.125,-0.054 -2.125,-0.054 l 0,-1.619 2.125,-0.003 c 0.084,0 0.156,0.004 0.235,0.006 l 0,-0.006 10.049,0 3.017,0 0,1.883 0,11.116 L 0,11.116 0,0 z"
             style="fill:#373535;fill-opacity:1;fill-rule:nonzero;stroke:none"
             id="path294" /></g><g
           id="g296"
           transform="translate(548.3234,189.9574)"><path
             d="m 0,0 0,9.244 0,1.855 0,0.07 -12.602,0 0,-1.925 9.538,0 0,-3.065 -1.873,10e-4 c -1.644,0 -1.996,-0.753 -2.073,-1.082 l -0.025,0 0,-1.859 2.484,0 0,1.04 c 0.226,0.028 0.852,0.03 1.487,0.024 l 0,-4.928 10e-4,0 c 0,-0.027 0.039,-1.051 3.063,-1.051 l 2.158,0.003 0,1.619 C 2.158,-0.054 0.817,-0.17 0,0"
             style="fill:#373535;fill-opacity:1;fill-rule:nonzero;stroke:none"
             id="path298" /></g><g
           id="g300"
           transform="translate(562.873,189.7479)"><path
             d="m 0,0 0,9.244 0,1.855 0,0.07 -10.864,0 0,-1.925 8.223,0 0,-9.87 0,0 C -2.64,-0.652 -2.607,-1.676 0,-1.676 l 1.861,0.003 0,1.619 C 1.861,-0.054 0.704,-0.17 0,0"
             style="fill:#373535;fill-opacity:1;fill-rule:nonzero;stroke:none"
             id="path302" /></g><g
           id="g304"
           transform="translate(582.0755,189.8356)"><path
             d="m 0,0 0,11.099 0,0.07 -14.818,0 0,-1.925 2.169,0 0,-10.966 2.869,0 0,10.966 6.911,0 0,-9.87 0,0 c 0.001,-0.026 0.038,-1.05 2.869,-1.05 l 2.021,0.003 0,1.619 C 2.021,-0.054 0.765,-0.17 0,0"
             style="fill:#373535;fill-opacity:1;fill-rule:nonzero;stroke:none"
             id="path306" /></g><g
           id="g308"
           transform="translate(600.9083,189.9431)"><path
             d="m 0,0 0,9.244 0,1.855 0,0.07 -12.649,0 0,-0.69 0,-1.235 0,-10.966 2.869,0 0,5.504 2.485,-0.002 c 1.644,0 1.996,0.753 2.073,1.083 l 0.025,0 0,1.859 -2.484,0 0,-1.04 C -7.98,5.645 -8.983,5.652 -9.78,5.665 l 0,3.579 6.911,0 0,-9.87 0,0 c 0.001,-0.027 0.038,-1.05 2.869,-1.05 l 2.021,0.003 0,1.619 C 2.021,-0.054 0.765,-0.17 0,0"
             style="fill:#373535;fill-opacity:1;fill-rule:nonzero;stroke:none"
             id="path310" /></g><g
           id="g312"
           transform="translate(581.1158,203.239)"><path
             d="m 0,0 7.604,0.003 0,2.106 c 0,0 -6.405,-0.078 -7.092,-0.006 l 0,1.15 -3.293,0 0,-2.056 0.033,0 C -2.645,0.833 -2.179,0 0,0"
             style="fill:#373535;fill-opacity:1;fill-rule:nonzero;stroke:none"
             id="path314" /></g><path
           d="m 549.403,206.993 -5.222,0 0,-3.425 5.222,0 0,3.425 z"
           style="fill:#373535;fill-opacity:1;fill-rule:nonzero;stroke:none"
           id="path316" /><g
           id="g318"
           transform="translate(490.657,392.9548)"><path
             d="m 0,0 0,-9.735 -6.491,11.074 -0.016,-0.008 0,0.005 -2.701,0 0,-14.111 c -0.719,-0.22 -1.903,-0.077 -1.903,-0.077 l 0,-2.059 1.903,-0.003 c 2.682,0 2.7,1.317 2.701,1.335 l 0,0 0,9.727 6.478,-11.053 0.029,0.014 0,-0.023 2.701,0 0,14.113 c 0.719,0.22 1.903,0.078 1.903,0.078 l 0,2.059 -1.903,0.003 C 0,1.339 0,0 0,0"
             style="fill:#373535;fill-opacity:1;fill-rule:nonzero;stroke:none"
             id="path320" /></g><g
           id="g322"
           transform="translate(410.3906,392.9486)"><path
             d="m 0,0 0,-5.747 -6.507,0 0,7.076 -2.701,0 0,-14.037 c -0.719,-0.219 -1.903,-0.077 -1.903,-0.077 l 0,-2.048 1.903,-0.003 c 2.682,0 2.7,1.31 2.701,1.328 l 0,0 0,5.325 6.507,0 0,-6.653 2.701,0 0,14.039 c 0.719,0.219 1.903,0.077 1.903,0.077 l 0,2.049 -1.903,0.003 C 0,1.332 0,0 0,0"
             style="fill:#373535;fill-opacity:1;fill-rule:nonzero;stroke:none"
             id="path324" /></g><g
           id="g326"
           transform="translate(456.1628,381.5632)"><path
             d="m 0,0 c 0,0 0.086,-0.48 0.035,-0.944 l -7.502,0 0,12.316 c 0,0 0,1.334 -2.683,1.334 l -1.891,-0.003 0,-2.053 c 0,0 1.176,0.143 1.891,-0.077 l 0,-11.517 0,-2.441 2.683,0 8.428,0 0,0.023 c 0.383,0.073 1.261,0.407 1.261,1.963 L 2.219,0 0,0 z"
             style="fill:#373535;fill-opacity:1;fill-rule:nonzero;stroke:none"
             id="path328" /></g><g
           id="g330"
           transform="translate(422.8401,385.9989)"><path
             d="M 0,0 1.841,5.612 3.591,0 0,0 z m 8.057,-5.798 -4.379,14.047 0,0.026 -3.753,0 0,-0.002 L -0.083,8.275 -4.7,-5.798 c -0.674,-0.299 -2.08,-0.135 -2.08,-0.135 l 0,-1.948 1.897,-0.003 c 1.833,0 2.409,0.582 2.596,0.956 l 0.013,-0.003 0.031,0.094 c 0.011,0.028 0.017,0.049 0.024,0.073 l 1.668,5.085 4.665,0 1.586,-5.086 c 0.006,-0.024 0.012,-0.044 0.022,-0.072 l 0.029,-0.094 0.014,0.003 c 0.177,-0.374 0.724,-0.956 2.466,-0.956 l 1.802,0.003 0,1.948 c 0,0 -1.335,-0.164 -1.976,0.135"
             style="fill:#373535;fill-opacity:1;fill-rule:nonzero;stroke:none"
             id="path332" /></g><g
           id="g334"
           transform="translate(397.3957,394.3253)"><path
             d="m 0,0 0,0.014 -11.909,0 0,-0.022 c -0.384,-0.069 -1.261,-0.381 -1.261,-1.842 l 0.003,-1.312 2.219,0 c 0,0 -0.086,0.45 -0.036,0.886 l 3.679,0 0,-12.053 c -0.719,-0.206 -1.903,-0.072 -1.903,-0.072 l 0,-1.926 1.903,-0.003 c 2.683,0 2.701,1.232 2.701,1.249 l 0,0 0,12.805 3.71,0 C -0.842,-2.712 -0.93,-3.162 -0.93,-3.162 l 2.275,0 0.004,1.312 C 1.349,-0.313 0.353,-0.047 0,0"
             style="fill:#373535;fill-opacity:1;fill-rule:nonzero;stroke:none"
             id="path336" /></g><g
           id="g338"
           transform="translate(439.7723,380.1959)"><path
             d="m 0,0 0,12.744 0,0 c 0,0.018 -0.018,1.333 -2.701,1.333 l -1.903,-0.004 0,-2.053 c 0,0 1.184,0.142 1.903,-0.078 l 0,-12.741 c 0,0 0,-1.335 2.701,-1.335 l 1.903,0.003 0,2.054 C 1.903,-0.077 0.719,-0.22 0,0"
             style="fill:#373535;fill-opacity:1;fill-rule:nonzero;stroke:none"
             id="path340" /></g><g
           id="g342"
           transform="translate(509.4616,386.3848)"><path
             d="m 0,0 c 0,-4.913 -3.069,-5.787 -3.069,-5.787 l -5.331,0 0,11.546 c 0.031,0.009 0.061,0.02 0.093,0.028 l 5.8,0 C 0.205,4.957 0,0 0,0 m -2.507,7.906 -6.568,0 0,-0.044 c -2.004,-0.209 -2.026,-1.299 -2.026,-1.299 l 0,-12.817 c -0.719,-0.221 -1.903,-0.077 -1.903,-0.077 l 0,-2.066 1.903,-0.004 c 1.109,0 1.748,0.229 2.133,0.495 l 6.461,0 C 2.855,-5.768 2.21,0.119 2.21,0.119 2.497,7.488 -2.507,7.906 -2.507,7.906"
             style="fill:#373535;fill-opacity:1;fill-rule:nonzero;stroke:none"
             id="path344" /></g><g
           id="g346"
           transform="translate(467.4422,385.9714)"><path
             d="M 0,0 1.841,5.612 3.591,0 0,0 z m 8.057,-5.798 -4.379,14.047 0,0.026 -3.753,0 0,-0.002 L -0.083,8.275 -4.7,-5.798 c -0.674,-0.299 -2.08,-0.135 -2.08,-0.135 l 0,-1.948 1.897,-0.003 c 1.833,0 2.409,0.582 2.596,0.956 l 0.013,-0.003 0.031,0.094 c 0.011,0.028 0.017,0.049 0.024,0.073 l 1.668,5.085 4.665,0 1.586,-5.086 c 0.006,-0.024 0.012,-0.044 0.022,-0.072 l 0.029,-0.094 0.014,0.003 c 0.177,-0.374 0.724,-0.956 2.466,-0.956 l 1.802,0.003 0,1.948 c 0,0 -1.335,-0.164 -1.976,0.135"
             style="fill:#373535;fill-opacity:1;fill-rule:nonzero;stroke:none"
             id="path348" /></g><g
           id="g350"
           transform="translate(545.2372,385.9929)"><path
             d="m 0,0 c 0,-4.974 -3.152,-5.858 -3.152,-5.858 l -0.843,-0.137 -0.866,0.137 c 0,0 -3.355,0.884 -3.355,5.858 0,0 -0.224,5.019 2.74,5.858 l 1.504,0.2 1.398,-0.2 C 0.21,5.019 0,0 0,0 m -2.425,8.249 -0.246,0 -0.317,0 -0.843,0 -1.196,0 c 0,0 -5.918,-0.668 -5.605,-8.129 0,0 -0.704,-5.96 5.156,-8.123 l 1.539,-0.087 1.194,0.076 0.283,0.011 c 5.097,1.516 4.729,8.123 4.729,8.123 0.296,7.488 -4.75,8.138 -4.694,8.129"
             style="fill:#373535;fill-opacity:1;fill-rule:nonzero;stroke:none"
             id="path352" /></g><g
           id="g354"
           transform="translate(572.0572,381.6086)"><path
             d="m 0,0 c 0,0 0.086,-0.477 0.035,-0.938 l -7.534,0 0,12.236 c 0,0 0,1.326 -2.694,1.326 l -1.898,-0.003 0,-2.04 c 0,0 1.181,0.142 1.898,-0.076 l 0,-11.443 0,-2.425 2.694,0 8.464,0 0,0.023 c 0.385,0.073 1.266,0.404 1.266,1.95 L 2.228,0 0,0 z"
             style="fill:#373535;fill-opacity:1;fill-rule:nonzero;stroke:none"
             id="path356" /></g><g
           id="g358"
           transform="translate(599.9927,386.4846)"><path
             d="m 0,0 c 0,-4.881 -3.082,-5.749 -3.082,-5.749 l -5.353,0 0,11.471 c 0.031,0.009 0.061,0.019 0.093,0.027 l 5.825,0 C 0.206,4.925 0,0 0,0 m -2.517,7.854 -6.596,0 0,-0.043 C -11.126,7.604 -11.148,6.52 -11.148,6.52 l 0,-12.733 c -0.722,-0.22 -1.911,-0.077 -1.911,-0.077 l 0,-2.053 1.911,-0.003 c 1.114,0 1.755,0.227 2.142,0.492 l 6.489,0 c 5.384,2.123 4.736,7.972 4.736,7.972 0.288,7.322 -4.736,7.736 -4.736,7.736"
             style="fill:#373535;fill-opacity:1;fill-rule:nonzero;stroke:none"
             id="path360" /></g><g
           id="g362"
           transform="translate(533.5526,391.0276)"><path
             d="m 0,0 0.003,1.329 c 0,1.477 -0.873,1.794 -1.255,1.863 l 0,0.023 -0.178,0 -0.003,0 0,0 -6.21,0 c 0,0 -5.468,-0.423 -5.155,-7.884 0,0 -0.705,-5.959 5.155,-8.123 l 6.391,0 0,0.039 c 0.382,0.071 1.255,0.392 1.255,1.891 L 0,-9.514 l -2.209,0 c 0,0 0.11,-0.632 -0.012,-1.133 l -4.807,0 c 0,0 -3.355,0.884 -3.355,5.858 0,0 -0.223,5.019 2.74,5.858 l 5.429,0 C -2.11,0.584 -2.209,0 -2.209,0 L 0,0 z"
             style="fill:#373535;fill-opacity:1;fill-rule:nonzero;stroke:none"
             id="path364" /></g><g
           id="g366"
           transform="translate(586.9393,391.0184)"><path
             d="m 0,0 0.003,1.256 c 0,1.457 -0.861,1.723 -1.175,1.772 l 0,0.011 -10.38,0 0,-0.02 C -11.889,2.951 -12.651,2.646 -12.651,1.256 L -12.648,0 l 1.934,0 c 0,0 -0.076,0.431 -0.032,0.848 l 3.207,0 0,-11.539 c -0.628,-0.194 -1.659,-0.062 -1.659,-0.062 l 0,-1.842 1.659,-0.003 c 2.323,0 2.353,1.165 2.354,1.195 l 0,0 0,12.251 3.234,0 C -1.905,0.431 -1.983,0 -1.983,0 L 0,0 z"
             style="fill:#373535;fill-opacity:1;fill-rule:nonzero;stroke:none"
             id="path368" /></g><path
           d="m 548.659,378.026 2.156,0 0,2.367 -2.156,0 0,-2.367 z"
           style="fill:#373535;fill-opacity:1;fill-rule:nonzero;stroke:none"
           id="path370" /><g
           id="g372"
           transform="translate(555.0342,380.3699)"><path
             d="m 0,0 0,0.024 -2.156,0 0,-2.367 1.206,0 c 0.075,-0.494 -0.007,-1.041 -0.007,-1.041 l 2.209,0 0.003,1.409 C 1.255,-0.409 0.382,-0.073 0,0"
             style="fill:#373535;fill-opacity:1;fill-rule:nonzero;stroke:none"
             id="path374" /></g><path
           d="m 602.943,378.026 2.156,0 0,2.367 -2.156,0 0,-2.367 z"
           style="fill:#373535;fill-opacity:1;fill-rule:nonzero;stroke:none"
           id="path376" /></g></g></g></svg>